<svg width="180" height="53" viewBox="0 0 180 53" fill="none" xmlns="http://www.w3.org/2000/svg">
<g clip-path="url(#clip0_176_709)">
<path d="M172.207 1.03854C175.273 1.03854 177.768 3.48131 177.768 6.48331V45.3861C177.768 48.3881 175.273 50.8309 172.207 50.8309H6.62332C3.55672 50.8309 1.06139 48.3881 1.06139 45.3861V6.48331C1.06139 3.48131 3.55672 1.03854 6.62332 1.03854H172.207ZM172.207 -0.000488281H6.62332C2.98215 -0.000488281 0 2.91884 0 6.48331V45.3861C0 48.9506 2.98215 51.87 6.62332 51.87H172.207C175.847 51.87 178.83 48.9506 178.83 45.3861V6.48331C178.83 2.91884 175.847 -0.000488281 172.207 -0.000488281Z" fill="#00082A"/>
<rect width="179.032" height="52.0046" rx="8" fill="white"/>
<path d="M39.9093 25.655C39.8709 21.4756 43.4051 19.4422 43.5666 19.3476C41.5651 16.4908 38.4628 16.1005 37.3726 16.0694C34.7669 15.8009 32.2395 17.5956 30.9122 17.5956C29.5583 17.5956 27.5144 16.0953 25.3115 16.1394C22.4768 16.1822 19.8247 17.7888 18.3703 20.2838C15.3686 25.371 17.6073 32.8469 20.4831 36.9588C21.9216 38.9728 23.6026 41.2213 25.8029 41.1423C27.9555 41.0553 28.7595 39.7987 31.3572 39.7987C33.9311 39.7987 34.6861 41.1423 36.9301 41.0916C39.2404 41.0553 40.6948 39.0688 42.083 37.0367C43.7454 34.7284 44.4132 32.4552 44.4396 32.3386C44.3853 32.3204 39.953 30.6644 39.9093 25.655Z" fill="#00082A"/>
<path d="M35.6703 13.364C36.8282 11.9467 37.6203 10.0183 37.4004 8.06152C35.7247 8.13414 33.629 9.19619 32.4223 10.5824C31.3546 11.804 30.4009 13.8062 30.6473 15.6891C32.5296 15.8265 34.4623 14.7593 35.6703 13.364Z" fill="#00082A"/>
<path d="M71.061 40.853H68.0527L66.4048 35.784H60.677L59.1073 40.853H56.1785L61.8534 23.5957H65.3583L71.061 40.853ZM65.9082 33.6572L64.4179 29.151C64.2603 28.6907 63.9648 27.6066 63.5291 25.9001H63.476C63.3025 26.634 63.023 27.7181 62.6389 29.151L61.1751 33.6572H65.9082Z" fill="#00082A"/>
<path d="M85.6548 34.4781C85.6548 36.5945 85.0706 38.2672 83.9023 39.4953C82.8558 40.5884 81.5563 41.1344 80.0051 41.1344C78.3308 41.1344 77.128 40.5457 76.3954 39.3683H76.3424V45.9233H73.5183V32.5058C73.5183 31.1753 73.4825 29.8098 73.4136 28.4093H75.8974L76.0549 30.3816H76.108C77.0499 28.8956 78.4791 28.1538 80.3972 28.1538C81.8968 28.1538 83.1486 28.7334 84.15 29.894C85.1541 31.056 85.6548 32.5836 85.6548 34.4781ZM82.7777 34.5793C82.7777 33.3681 82.4994 32.3696 81.9405 31.5837C81.3298 30.7642 80.5098 30.3544 79.4819 30.3544C78.7851 30.3544 78.152 30.5827 77.5863 31.0326C77.0194 31.4865 76.6485 32.0791 76.4749 32.8131C76.3874 33.1554 76.3438 33.4356 76.3438 33.656V35.7308C76.3438 36.636 76.6273 37.3998 77.1942 38.0235C77.7612 38.6472 78.4977 38.9584 79.4037 38.9584C80.4675 38.9584 81.2954 38.5564 81.8875 37.755C82.481 36.9523 82.7777 35.8942 82.7777 34.5793Z" fill="#00082A"/>
<path d="M100.275 34.4781C100.275 36.5945 99.6907 38.2672 98.521 39.4953C97.4759 40.5884 96.1764 41.1344 94.6252 41.1344C92.9509 41.1344 91.748 40.5457 91.0168 39.3683H90.9638V45.9233H88.1396V32.5058C88.1396 31.1753 88.1038 29.8098 88.035 28.4093H90.5187L90.6764 30.3816H90.7294C91.6698 28.8956 93.0992 28.1538 95.0186 28.1538C96.5168 28.1538 97.7686 28.7334 98.7727 29.894C99.7728 31.056 100.275 32.5836 100.275 34.4781ZM97.3977 34.5793C97.3977 33.3681 97.1182 32.3696 96.5592 31.5837C95.9485 30.7642 95.1312 30.3544 94.102 30.3544C93.4039 30.3544 92.772 30.5827 92.205 31.0326C91.6381 31.4865 91.2685 32.0791 91.095 32.8131C91.0089 33.1554 90.9638 33.4356 90.9638 33.656V35.7308C90.9638 36.636 91.2473 37.3998 91.8116 38.0235C92.3785 38.646 93.115 38.9584 94.0238 38.9584C95.0876 38.9584 95.9154 38.5564 96.5075 37.755C97.101 36.9523 97.3977 35.8942 97.3977 34.5793Z" fill="#00082A"/>
<path d="M116.621 36.0134C116.621 37.4814 116.101 38.6757 115.056 39.5976C113.907 40.6053 112.308 41.1083 110.253 41.1083C108.356 41.1083 106.836 40.7504 105.685 40.0333L106.339 37.7289C107.579 38.463 108.939 38.8312 110.422 38.8312C111.485 38.8312 112.313 38.5953 112.909 38.1258C113.5 37.6564 113.796 37.0262 113.796 36.2403C113.796 35.5401 113.551 34.9501 113.063 34.4715C112.577 33.993 111.765 33.5482 110.631 33.1372C107.544 32.0102 106.003 30.3596 106.003 28.1887C106.003 26.7701 106.543 25.6069 107.625 24.7018C108.704 23.7953 110.142 23.3428 111.941 23.3428C113.545 23.3428 114.878 23.6164 115.942 24.1623L115.236 26.416C114.242 25.8869 113.119 25.6224 111.861 25.6224C110.868 25.6224 110.092 25.8623 109.535 26.3396C109.065 26.7661 108.829 27.2862 108.829 27.9021C108.829 28.5843 109.098 29.1483 109.639 29.5918C110.109 30.0016 110.963 30.4451 112.203 30.9236C113.72 31.5214 114.834 32.2203 115.551 33.0217C116.265 33.8206 116.621 34.8203 116.621 36.0134Z" fill="#00082A"/>
<path d="M125.959 30.4844H122.847V36.5261C122.847 38.0628 123.395 38.8304 124.494 38.8304C124.998 38.8304 125.417 38.7877 125.748 38.7021L125.827 40.8015C125.271 41.0051 124.538 41.1075 123.63 41.1075C122.515 41.1075 121.644 40.7742 121.015 40.109C120.387 39.4425 120.072 38.3247 120.072 36.7543V30.4818H118.218V28.4071H120.072V26.1286L122.847 25.3091V28.4071H125.959V30.4844Z" fill="#00082A"/>
<path d="M140.004 34.5289C140.004 36.4415 139.445 38.012 138.33 39.2399C137.16 40.5043 135.607 41.1345 133.672 41.1345C131.807 41.1345 130.322 40.529 129.215 39.3178C128.107 38.1066 127.553 36.5778 127.553 34.735C127.553 32.8067 128.123 31.2273 129.266 29.9993C130.406 28.7699 131.946 28.1553 133.881 28.1553C135.747 28.1553 137.247 28.7609 138.38 29.9733C139.464 31.1495 140.004 32.668 140.004 34.5289ZM137.073 34.6183C137.073 33.4707 136.823 32.4865 136.316 31.6656C135.725 30.6723 134.878 30.1769 133.781 30.1769C132.645 30.1769 131.784 30.6735 131.191 31.6656C130.683 32.4877 130.433 33.4876 130.433 34.6702C130.433 35.8178 130.683 36.8021 131.191 37.6216C131.802 38.615 132.655 39.1103 133.755 39.1103C134.834 39.1103 135.681 38.6046 136.291 37.5957C136.811 36.7593 137.073 35.7647 137.073 34.6183Z" fill="#00082A"/>
<path d="M149.185 30.8408C148.905 30.7901 148.607 30.7642 148.294 30.7642C147.301 30.7642 146.533 31.1312 145.992 31.8665C145.522 32.5148 145.286 33.3344 145.286 34.3238V40.853H142.464L142.489 32.3281C142.489 30.8939 142.455 29.588 142.384 28.4106H144.844L144.947 30.7915H145.025C145.324 29.9732 145.793 29.3144 146.437 28.8204C147.067 28.3756 147.746 28.1538 148.479 28.1538C148.74 28.1538 148.975 28.172 149.185 28.2045V30.8408Z" fill="#00082A"/>
<path d="M161.815 34.0419C161.815 34.5372 161.782 34.9548 161.712 35.2958H153.239C153.273 36.5251 153.682 37.4653 154.469 38.1136C155.183 38.6934 156.106 38.9838 157.24 38.9838C158.494 38.9838 159.639 38.788 160.669 38.395L161.111 40.3143C159.907 40.8278 158.487 41.0832 156.849 41.0832C154.878 41.0832 153.33 40.5152 152.204 39.3806C151.082 38.2459 150.519 36.7223 150.519 34.8108C150.519 32.9344 151.041 31.3718 152.09 30.1256C153.186 28.7952 154.669 28.1299 156.534 28.1299C158.366 28.1299 159.753 28.7952 160.694 30.1256C161.441 31.1824 161.815 32.4897 161.815 34.0419ZM159.123 33.3247C159.141 32.5052 158.957 31.7971 158.574 31.1994C158.085 30.4304 157.334 30.0465 156.323 30.0465C155.4 30.0465 154.649 30.4213 154.076 31.1734C153.605 31.7712 153.326 32.4883 153.239 33.3234H159.123V33.3247Z" fill="#00082A"/>
<path d="M64.9751 12.9791C64.9751 14.5054 64.5075 15.6543 63.5737 16.4259C62.7086 17.1378 61.4794 17.4944 59.8871 17.4944C59.0976 17.4944 58.4221 17.4606 57.8564 17.3933V9.05381C58.5943 8.93709 59.3891 8.87744 60.2475 8.87744C61.7642 8.87744 62.9074 9.20033 63.6783 9.84612C64.542 10.5762 64.9751 11.6201 64.9751 12.9791ZM63.5115 13.0167C63.5115 12.0273 63.2438 11.2687 62.7086 10.7396C62.1735 10.2118 61.3919 9.94727 60.3626 9.94727C59.9255 9.94727 59.5533 9.9758 59.2446 10.0354V16.3753C59.4156 16.4012 59.7281 16.4129 60.1826 16.4129C61.245 16.4129 62.0649 16.1238 62.6424 15.5454C63.22 14.967 63.5115 14.1241 63.5115 13.0167Z" fill="#00082A"/>
<path d="M72.7363 14.3121C72.7363 15.2522 72.462 16.0225 71.9137 16.6267C71.3388 17.2478 70.5771 17.5578 69.626 17.5578C68.7093 17.5578 67.9794 17.2608 67.435 16.6644C66.8919 16.0691 66.6203 15.3184 66.6203 14.4131C66.6203 13.4665 66.8998 12.6898 67.4615 12.0868C68.0232 11.4838 68.7781 11.1816 69.7293 11.1816C70.6459 11.1816 71.3824 11.4786 71.9401 12.0738C72.47 12.6522 72.7363 13.399 72.7363 14.3121ZM71.2964 14.3562C71.2964 13.792 71.1719 13.3084 70.9242 12.905C70.6328 12.4174 70.2181 12.1737 69.6789 12.1737C69.1212 12.1737 68.6974 12.4174 68.406 12.905C68.1569 13.3084 68.0338 13.7998 68.0338 14.3808C68.0338 14.9448 68.1583 15.4286 68.406 15.8318C68.7066 16.3194 69.1253 16.5632 69.6658 16.5632C70.1955 16.5632 70.6115 16.3155 70.9109 15.8188C71.1678 15.4078 71.2964 14.9202 71.2964 14.3562Z" fill="#00082A"/>
<path d="M83.1428 11.3066L81.1889 17.4196H79.9173L79.1078 14.7651C78.9026 14.1025 78.7357 13.4437 78.6059 12.7901H78.5806C78.4601 13.4618 78.2932 14.1193 78.0787 14.7651L77.2189 17.4196H75.9326L74.0954 11.3066H75.522L76.2281 14.2127C76.3989 14.8999 76.5393 15.5549 76.6519 16.1746H76.6771C76.7804 15.6637 76.9513 15.0128 77.1924 14.2256L78.0787 11.3079H79.2098L80.0589 14.1634C80.2643 14.8597 80.4312 15.5302 80.5597 16.176H80.5981C80.6922 15.547 80.834 14.8766 81.022 14.1634L81.7797 11.3079H83.1428V11.3066Z" fill="#00082A"/>
<path d="M90.3394 17.4186H88.9512V13.9173C88.9512 12.8384 88.5326 12.2989 87.6927 12.2989C87.2808 12.2989 86.9483 12.4468 86.69 12.7437C86.4343 13.0407 86.3045 13.3908 86.3045 13.7915V17.4172H84.9162V13.0523C84.9162 12.5156 84.899 11.9332 84.8659 11.303H86.0859L86.1509 12.2587H86.1893C86.3509 11.9618 86.5919 11.7167 86.9086 11.5209C87.2847 11.2927 87.706 11.1772 88.167 11.1772C88.7498 11.1772 89.2346 11.3614 89.6202 11.731C90.0996 12.1835 90.3394 12.8591 90.3394 13.7565V17.4186Z" fill="#00082A"/>
<path d="M94.1676 17.4188H92.7808V8.50098H94.1676V17.4188Z" fill="#00082A"/>
<path d="M102.342 14.3121C102.342 15.2522 102.068 16.0225 101.519 16.6267C100.944 17.2478 100.181 17.5578 99.2315 17.5578C98.3136 17.5578 97.5836 17.2608 97.0405 16.6644C96.4975 16.0691 96.2259 15.3184 96.2259 14.4131C96.2259 13.4665 96.5054 12.6898 97.067 12.0868C97.6287 11.4838 98.3837 11.1816 99.3335 11.1816C100.252 11.1816 100.987 11.4786 101.546 12.0738C102.076 12.6522 102.342 13.399 102.342 14.3121ZM100.901 14.3562C100.901 13.792 100.776 13.3084 100.528 12.905C100.238 12.4174 99.8223 12.1737 99.2845 12.1737C98.7255 12.1737 98.3017 12.4174 98.0115 12.905C97.7625 13.3084 97.6393 13.7998 97.6393 14.3808C97.6393 14.9448 97.7638 15.4286 98.0115 15.8318C98.3122 16.3194 98.7308 16.5632 99.2712 16.5632C99.8011 16.5632 100.216 16.3155 100.515 15.8188C100.773 15.4078 100.901 14.9202 100.901 14.3562Z" fill="#00082A"/>
<path d="M109.06 17.419H107.814L107.711 16.7149H107.672C107.246 17.2764 106.638 17.5578 105.848 17.5578C105.259 17.5578 104.782 17.3724 104.423 17.0041C104.097 16.6696 103.934 16.2533 103.934 15.7592C103.934 15.0123 104.252 14.443 104.892 14.0488C105.53 13.6545 106.428 13.4613 107.585 13.4704V13.3563C107.585 12.551 107.153 12.149 106.288 12.149C105.672 12.149 105.129 12.3007 104.66 12.6016L104.378 11.7095C104.958 11.358 105.675 11.1816 106.52 11.1816C108.152 11.1816 108.97 12.0245 108.97 13.7103V15.9615C108.97 16.5722 109.001 17.0586 109.06 17.419ZM107.619 15.3184V14.3756C106.088 14.3496 105.322 14.7607 105.322 15.6074C105.322 15.9265 105.41 16.1651 105.589 16.3246C105.767 16.4841 105.995 16.5632 106.267 16.5632C106.571 16.5632 106.856 16.4686 107.116 16.2806C107.377 16.0912 107.537 15.8513 107.597 15.5569C107.611 15.4908 107.619 15.4104 107.619 15.3184Z" fill="#00082A"/>
<path d="M116.947 17.4188H115.716L115.651 16.4372H115.612C115.219 17.1841 114.549 17.5575 113.607 17.5575C112.855 17.5575 112.228 17.2684 111.731 16.69C111.235 16.1117 110.987 15.3608 110.987 14.4389C110.987 13.4494 111.256 12.648 111.796 12.0359C112.32 11.4653 112.96 11.1801 113.724 11.1801C114.563 11.1801 115.149 11.4563 115.483 12.01H115.51V8.50098H116.899V15.7719C116.899 16.3671 116.915 16.9156 116.947 17.4188ZM115.51 14.8409V13.8216C115.51 13.6452 115.496 13.5025 115.471 13.3937C115.392 13.0668 115.225 12.792 114.969 12.5702C114.71 12.3485 114.399 12.2369 114.04 12.2369C113.522 12.2369 113.117 12.4379 112.818 12.8412C112.523 13.2446 112.374 13.7593 112.374 14.3883C112.374 14.9926 112.516 15.4828 112.8 15.86C113.101 16.2621 113.506 16.4631 114.014 16.4631C114.469 16.4631 114.834 16.2958 115.111 15.96C115.378 15.65 115.51 15.2766 115.51 14.8409Z" fill="#00082A"/>
<path d="M128.821 14.3121C128.821 15.2522 128.547 16.0225 127.999 16.6267C127.424 17.2478 126.664 17.5578 125.711 17.5578C124.796 17.5578 124.066 17.2608 123.52 16.6644C122.977 16.0691 122.706 15.3184 122.706 14.4131C122.706 13.4665 122.985 12.6898 123.547 12.0868C124.108 11.4838 124.863 11.1816 125.816 11.1816C126.731 11.1816 127.469 11.4786 128.025 12.0738C128.555 12.6522 128.821 13.399 128.821 14.3121ZM127.383 14.3562C127.383 13.792 127.258 13.3084 127.01 12.905C126.718 12.4174 126.304 12.1737 125.764 12.1737C125.208 12.1737 124.783 12.4174 124.49 12.905C124.242 13.3084 124.119 13.7998 124.119 14.3808C124.119 14.9448 124.243 15.4286 124.49 15.8318C124.791 16.3194 125.21 16.5632 125.75 16.5632C126.281 16.5632 126.697 16.3155 126.997 15.8188C127.252 15.4078 127.383 14.9202 127.383 14.3562Z" fill="#00082A"/>
<path d="M136.286 17.4186H134.899V13.9173C134.899 12.8384 134.48 12.2989 133.639 12.2989C133.227 12.2989 132.895 12.4468 132.638 12.7437C132.38 13.0407 132.252 13.3908 132.252 13.7915V17.4172H130.862V13.0523C130.862 12.5156 130.847 11.9332 130.814 11.303H132.032L132.098 12.2587H132.136C132.299 11.9618 132.54 11.7167 132.855 11.5209C133.233 11.2927 133.653 11.1772 134.114 11.1772C134.696 11.1772 135.181 11.3614 135.567 11.731C136.048 12.1835 136.286 12.8591 136.286 13.7565V17.4186Z" fill="#00082A"/>
<path d="M145.629 12.3245H144.1V15.2941C144.1 16.0488 144.371 16.4262 144.909 16.4262C145.158 16.4262 145.365 16.4054 145.527 16.3626L145.563 17.3936C145.289 17.4948 144.928 17.5453 144.485 17.5453C143.936 17.5453 143.51 17.3819 143.201 17.0551C142.891 16.7284 142.738 16.1785 142.738 15.4069V12.3245H141.825V11.3066H142.738V10.1862L144.098 9.78418V11.3053H145.626V12.3245H145.629Z" fill="#00082A"/>
<path d="M152.978 17.4188H151.588V13.9435C151.588 12.8477 151.17 12.2992 150.332 12.2992C149.688 12.2992 149.248 12.6169 149.007 13.2524C148.966 13.3859 148.942 13.5492 148.942 13.7412V17.4175H147.555V8.50098H148.942V12.1851H148.968C149.405 11.5146 150.032 11.1801 150.844 11.1801C151.42 11.1801 151.895 11.3642 152.272 11.7338C152.743 12.1942 152.978 12.8788 152.978 13.7839V17.4188Z" fill="#00082A"/>
<path d="M160.559 14.0729C160.559 14.3166 160.54 14.5216 160.508 14.6888H156.344C156.363 15.2931 156.561 15.7534 156.946 16.0725C157.298 16.3578 157.753 16.5004 158.31 16.5004C158.926 16.5004 159.487 16.4045 159.993 16.2112L160.21 17.1553C159.618 17.4068 158.921 17.5327 158.115 17.5327C157.148 17.5327 156.386 17.2539 155.835 16.6962C155.282 16.1386 155.007 15.3904 155.007 14.4515C155.007 13.5296 155.263 12.7618 155.778 12.1497C156.315 11.4962 157.043 11.1694 157.962 11.1694C158.859 11.1694 159.541 11.4962 160.002 12.1497C160.375 12.6685 160.559 13.3104 160.559 14.0729ZM159.234 13.7214C159.245 13.3182 159.153 12.9706 158.965 12.6776C158.724 12.3002 158.357 12.1109 157.86 12.1109C157.408 12.1109 157.038 12.295 156.756 12.6646C156.525 12.959 156.389 13.3104 156.344 13.7214H159.234Z" fill="#00082A"/>
</g>
<defs>
<clipPath id="clip0_176_709">
<rect width="179.032" height="52.0046" fill="white"/>
</clipPath>
</defs>
</svg>
