<svg width="84" height="131" viewBox="0 0 84 131" fill="none" xmlns="http://www.w3.org/2000/svg">
<path d="M25.4157 2.05152C25.1268 2.62229 22.6536 5.24221 19.9226 7.9467C13.426 14.2661 10.9409 19.3177 12.0043 24.1579L12.3962 25.9335L15.0371 24.1155C19.9455 20.7923 25.064 21.3037 27.6467 25.5504C29.3499 28.2766 29.283 30.2503 27.3805 33.1591C24.6136 37.3511 19.4853 38.8423 14.1729 37.0139L11.1169 35.969L9.35469 39.4507C3.72076 50.7237 3.7861 66.602 9.49814 74.4402C10.5213 75.8185 11.4888 76.8817 11.6896 76.7683C11.8616 76.7119 12.6754 74.1125 13.406 70.9691C16.7349 57.1672 25.95 50.7181 30.9172 58.7529C33.4153 62.7418 33.0674 69.5204 30.1222 75.0561C27.4948 79.964 25.1956 82.0984 20.8685 83.5649C16.4265 85.1167 16.4265 85.1167 18.1045 92.9924C20.0616 102.3 25.935 112.227 31.0431 114.884C32.6694 115.779 34.1555 116.101 34.9292 115.847C36.1327 115.453 36.1066 114.938 34.6105 110.811C32.4654 104.85 32.4687 98.3267 34.5212 93.9882C36.2834 90.5065 37.5749 89.6546 41.0354 89.9004C45.8115 90.2385 49.1319 95.719 49.266 103.387C49.307 106.706 48.9871 107.763 46.445 112.785L43.6421 118.465L45.4637 120.391C48.2527 123.38 55.2759 126.361 59.31 126.323C66.0336 126.213 71.9701 123.267 75.1979 118.448C76.2936 116.708 78.0875 112.597 79.5093 108.513C80.8156 104.657 82.0613 101.488 82.3192 101.403C84.5542 100.67 82.4978 111.675 79.1467 118.295C76.0557 124.403 73.383 126.85 67.4515 128.795C58.0806 132.01 50.1357 130.284 43.13 123.726C40.1972 120.88 39.0564 120.159 38.0544 120.297C34.0175 120.907 32.2165 120.641 28.8489 118.936C21.4579 115.124 14.3695 102.072 12.7731 89.2185C12.2205 85.2105 11.6574 83.3482 10.6604 82.485C5.01817 77.9086 2.09588 72.9163 0.815316 65.672C-0.938844 55.8219 0.244691 47.8172 4.90202 37.3405C7.76546 30.9747 7.99867 30.0889 7.46589 27.8834C6.00921 21.5537 7.84597 14.5249 12.3618 9.56902C14.4616 7.26196 21.5832 1.8325 23.5611 1.04113C25.3952 0.392094 26.0802 0.738752 25.4157 2.05152ZM19.9126 27.5152C15.6418 29.1536 14.0565 31.5776 16.3396 32.7332C18.0519 33.5998 22.4368 32.0192 23.3034 30.3069C24.4878 27.9667 22.6353 26.5272 19.9126 27.5152ZM23.5243 61.1771C21.0553 62.9388 17.9903 69.561 17.3943 74.4217C17.0977 76.5659 16.9449 78.5678 17.0006 78.8827C17.3677 79.8572 19.7459 79.125 22.2437 77.3063C26.6364 74.1522 28.7254 68.1831 27.4062 62.9984C26.564 59.7043 25.8502 59.4147 23.5243 61.1771ZM40.2428 94.0162C38.5559 93.8077 36.9925 97.605 37.0004 101.839C36.9843 105.129 39.1231 112.378 40.2646 112.955C40.7783 113.215 42.4461 111.478 43.3128 109.766C44.7572 106.912 45.1847 101.393 44.1129 98.2693C43.0988 95.0315 42.3589 94.2268 40.2428 94.0162Z" fill="#2D3247" fill-opacity="0.39"/>
</svg>
