<svg width="1440" height="668" viewBox="0 0 1440 668" fill="none" xmlns="http://www.w3.org/2000/svg">
<g clip-path="url(#clip0_66_569)">
<rect width="1440" height="667.96" fill="#ECEFF1"/>
<path opacity="0.1" fill-rule="evenodd" clip-rule="evenodd" d="M0 0H1440V620.921C768.433 473.871 210.042 567.471 2.86102e-05 620.921L0 667.961V0ZM603.252 263.226C605.651 259.158 606.851 254.517 606.851 249.302C606.851 244.06 605.651 239.418 603.252 235.377C600.879 231.309 597.594 228.153 593.395 225.911C589.223 223.668 584.49 222.547 579.197 222.547C573.851 222.547 569.079 223.681 564.881 225.95C560.708 228.219 557.449 231.387 555.102 235.455C552.755 239.497 551.582 244.138 551.582 249.38C551.582 254.595 552.755 259.224 555.102 263.266C557.449 267.307 560.708 270.45 564.881 272.692C569.079 274.935 573.825 276.056 579.118 276.056C584.464 276.056 589.223 274.935 593.395 272.692C597.594 270.45 600.879 267.294 603.252 263.226ZM592.496 241.048C593.773 243.447 594.412 246.198 594.412 249.302C594.412 252.379 593.773 255.13 592.496 257.555C591.218 259.954 589.419 261.818 587.098 263.148C584.777 264.478 582.143 265.143 579.197 265.143C576.198 265.143 573.538 264.491 571.217 263.187C568.896 261.883 567.097 260.032 565.819 257.633C564.542 255.234 563.903 252.483 563.903 249.38C563.903 246.224 564.555 243.447 565.859 241.048C567.162 238.623 568.975 236.746 571.295 235.416C573.616 234.086 576.276 233.421 579.275 233.421C582.222 233.421 584.842 234.086 587.137 235.416C589.432 236.746 591.218 238.623 592.496 241.048ZM647.922 275V238.858H636.696V259.706C636.696 261.74 636.161 263.357 635.092 264.556C634.049 265.756 632.562 266.356 630.633 266.356C628.651 266.356 627.139 265.86 626.095 264.869C625.052 263.878 624.531 262.262 624.531 260.019V238.858H613.305V261.701C613.305 266.134 614.478 269.641 616.825 272.223C619.172 274.778 622.51 276.056 626.839 276.056C629.159 276.056 631.259 275.639 633.136 274.804C635.04 273.944 636.63 272.653 637.908 270.932L638.651 275H647.922ZM679.096 238.858C678.027 238.649 676.906 238.545 675.732 238.545C673.646 238.545 671.847 238.988 670.334 239.875C668.822 240.735 667.766 242.026 667.166 243.747L666.462 238.858H656.214V275H667.401V258.102C667.401 255.051 668.261 252.691 669.982 251.023C671.73 249.328 674.207 248.48 677.414 248.48C678.17 248.48 678.731 248.506 679.096 248.558V238.858ZM705.812 230.213C704.221 232.665 703.426 235.546 703.426 238.858C703.426 242.509 704.534 245.612 706.75 248.167C708.993 250.723 712.513 252.561 717.311 253.682L725.799 255.677C727.442 256.068 728.72 256.655 729.633 257.437C730.545 258.194 731.002 259.263 731.002 260.645C731.002 262.366 730.298 263.722 728.889 264.713C727.507 265.704 725.591 266.199 723.14 266.199C720.48 266.199 718.328 265.625 716.686 264.478C715.069 263.331 714.182 261.714 714.026 259.628H702.018C702.383 264.687 704.443 268.689 708.198 271.636C711.979 274.583 716.907 276.056 722.983 276.056C727.051 276.056 730.61 275.378 733.661 274.022C736.738 272.64 739.111 270.697 740.78 268.194C742.475 265.691 743.323 262.757 743.323 259.393C743.323 255.638 742.188 252.457 739.92 249.849C737.651 247.241 734.248 245.403 729.711 244.334L721.614 242.496C719.58 242 718.042 241.387 716.998 240.657C715.982 239.927 715.473 238.845 715.473 237.411C715.473 235.872 716.073 234.646 717.272 233.734C718.472 232.821 720.062 232.365 722.044 232.365C724.287 232.365 726.138 232.912 727.599 234.008C729.059 235.103 729.815 236.537 729.867 238.31H741.954C741.902 235.207 741.067 232.456 739.45 230.057C737.834 227.658 735.565 225.806 732.644 224.503C729.724 223.199 726.399 222.547 722.67 222.547C718.811 222.547 715.434 223.212 712.539 224.542C709.671 225.872 707.428 227.762 705.812 230.213ZM765.501 248.089H772.307V238.858H765.501V229.509H754.314V238.858H747.665V248.089H754.314V275H765.501V248.089ZM777.979 246.915C776.31 249.836 775.475 253.161 775.475 256.89C775.475 260.567 776.31 263.865 777.979 266.786C779.674 269.706 782.034 271.988 785.058 273.631C788.109 275.248 791.617 276.056 795.58 276.056C799.466 276.056 802.934 275.248 805.985 273.631C809.036 271.988 811.396 269.706 813.065 266.786C814.76 263.865 815.607 260.567 815.607 256.89C815.607 253.161 814.76 249.836 813.065 246.915C811.396 243.969 809.049 241.687 806.024 240.07C803.025 238.428 799.544 237.606 795.58 237.606C791.617 237.606 788.109 238.428 785.058 240.07C782.034 241.687 779.674 243.969 777.979 246.915ZM789.283 263.539C787.692 261.792 786.897 259.55 786.897 256.812C786.897 254.1 787.692 251.896 789.283 250.201C790.874 248.48 792.973 247.62 795.58 247.62C798.188 247.62 800.274 248.48 801.839 250.201C803.429 251.896 804.225 254.1 804.225 256.812C804.225 259.55 803.416 261.792 801.8 263.539C800.209 265.26 798.136 266.121 795.58 266.121C792.999 266.121 790.9 265.26 789.283 263.539ZM845.334 238.858C844.265 238.649 843.144 238.545 841.971 238.545C839.884 238.545 838.085 238.988 836.573 239.875C835.06 240.735 834.004 242.026 833.404 243.747L832.7 238.858H822.452V275H833.639V258.102C833.639 255.051 834.5 252.691 836.221 251.023C837.968 249.328 840.445 248.48 843.653 248.48C844.409 248.48 844.969 248.506 845.334 248.558V238.858ZM874.162 280.867L890.903 238.858H879.052L870.094 262.522L861.606 238.858H849.52L864.97 276.134L864.305 277.738C863.888 278.911 863.419 279.863 862.897 280.593C862.402 281.35 861.619 281.975 860.55 282.471C859.507 282.992 858.073 283.253 856.248 283.253C854.735 283.253 852.988 283.071 851.006 282.706L850.85 291.819C853.588 292.419 856.052 292.719 858.242 292.719C861.502 292.719 864.201 292.093 866.339 290.842C868.477 289.616 870.081 288.195 871.15 286.578C872.246 284.961 873.25 283.058 874.162 280.867Z" fill="#99AAB5"/>
</g>
<defs>
<clipPath id="clip0_66_569">
<rect width="1440" height="667.96" fill="white"/>
</clipPath>
</defs>
</svg>
