<svg width="180" height="53" viewBox="0 0 180 53" fill="none" xmlns="http://www.w3.org/2000/svg">
<g clip-path="url(#clip0_176_694)">
<path d="M171.969 1.17331C175.032 1.17331 177.523 3.61608 177.523 6.61808V45.5208C177.523 48.5229 175.032 50.9656 171.969 50.9656H6.61418C3.5518 50.9656 1.0599 48.5229 1.0599 45.5208V6.61808C1.0599 3.61608 3.5518 1.17331 6.61418 1.17331H171.969ZM171.969 0.134277H6.61418C2.97802 0.134277 -3.05176e-05 3.0536 -3.05176e-05 6.61808V45.5208C-3.05176e-05 49.0853 2.97802 52.0047 6.61418 52.0047H171.969C175.606 52.0047 178.584 49.0853 178.584 45.5208V6.61808C178.584 3.0536 175.606 0.134277 171.969 0.134277Z" fill="#00082A"/>
<rect width="179.032" height="52.0046" rx="8" fill="white"/>
<path d="M62.7259 13.4181C62.7259 14.5009 62.3951 15.3681 61.7436 16.0148C60.9946 16.7815 60.019 17.1674 58.8235 17.1674C57.6809 17.1674 56.7052 16.7751 55.905 16.0019C55.103 15.2173 54.7028 14.2544 54.7028 13.102C54.7028 11.9495 55.103 10.9866 55.905 10.2086C56.7052 9.42889 57.6809 9.03662 58.8235 9.03662C59.3923 9.03662 59.9347 9.15171 60.4522 9.36567C60.9681 9.58127 61.3881 9.87304 61.6924 10.2329L61.0012 10.9169C60.4704 10.3026 59.7478 9.99948 58.8235 9.99948C57.9901 9.99948 57.2675 10.2848 56.654 10.8602C56.0471 11.4372 55.7429 12.1845 55.7429 13.102C55.7429 14.0194 56.0471 14.7731 56.654 15.3503C57.2675 15.9191 57.9901 16.2109 58.8235 16.2109C59.7081 16.2109 60.4522 15.9191 61.0393 15.3437C61.4262 14.9628 61.6461 14.4377 61.704 13.7666H58.8235V12.8296H62.6663C62.7126 13.0323 62.7259 13.2284 62.7259 13.4181Z" fill="#00082A" stroke="#00082A" stroke-width="0.136406" stroke-miterlimit="10"/>
<path d="M68.8229 10.1691H65.2131V12.633H68.4673V13.5699H65.2131V16.0336H68.8229V16.9884H64.1913V9.21436H68.8229V10.1691Z" fill="#00082A" stroke="#00082A" stroke-width="0.136406" stroke-miterlimit="10"/>
<path d="M73.1254 16.9884H72.1034V10.1691H69.8893V9.21436H75.3411V10.1691H73.1254V16.9884Z" fill="#00082A" stroke="#00082A" stroke-width="0.136406" stroke-miterlimit="10"/>
<path d="M79.2865 16.9884V9.21436H80.3068V16.9884H79.2865Z" fill="#00082A" stroke="#00082A" stroke-width="0.136406" stroke-miterlimit="10"/>
<path d="M84.8284 16.9884H83.8147V10.1691H81.5924V9.21436H87.0507V10.1691H84.8284V16.9884Z" fill="#00082A" stroke="#00082A" stroke-width="0.136406" stroke-miterlimit="10"/>
<path d="M97.3721 15.9889C96.59 16.7751 95.621 17.1674 94.4652 17.1674C93.3028 17.1674 92.3338 16.7751 91.5517 15.9889C90.7711 15.2043 90.3826 14.2415 90.3826 13.102C90.3826 11.9625 90.7711 10.9996 91.5517 10.2151C92.3338 9.42889 93.3028 9.03662 94.4652 9.03662C95.6145 9.03662 96.5834 9.42889 97.3656 10.2215C98.1527 11.0126 98.5413 11.9689 98.5413 13.102C98.5413 14.2415 98.1527 15.2043 97.3721 15.9889ZM92.3073 15.3373C92.896 15.9191 93.612 16.2109 94.4652 16.2109C95.3118 16.2109 96.0345 15.9191 96.6165 15.3373C97.2035 14.7554 97.5012 14.0081 97.5012 13.102C97.5012 12.1958 97.2035 11.4485 96.6165 10.8667C96.0345 10.2848 95.3118 9.99299 94.4652 9.99299C93.612 9.99299 92.896 10.2848 92.3073 10.8667C91.7204 11.4485 91.4226 12.1958 91.4226 13.102C91.4226 14.0081 91.7204 14.7554 92.3073 15.3373Z" fill="#00082A" stroke="#00082A" stroke-width="0.136406" stroke-miterlimit="10"/>
<path d="M99.9756 16.9884V9.21436H101.216L105.072 15.2605H105.116L105.072 13.766V9.21436H106.092V16.9884H105.027L100.989 10.644H100.944L100.989 12.1451V16.9884H99.9756Z" fill="#00082A" stroke="#00082A" stroke-width="0.136406" stroke-miterlimit="10"/>
<path d="M90.1318 28.3422C87.0247 28.3422 84.4865 30.6602 84.4865 33.8582C84.4865 37.0305 87.0247 39.3727 90.1318 39.3727C93.2454 39.3727 95.7836 37.0305 95.7836 33.8582C95.7836 30.6602 93.2454 28.3422 90.1318 28.3422ZM90.1318 37.2006C88.4269 37.2006 86.9602 35.8213 86.9602 33.8582C86.9602 31.8694 88.4269 30.5142 90.1318 30.5142C91.8365 30.5142 93.3099 31.8694 93.3099 33.8582C93.3099 35.8213 91.8365 37.2006 90.1318 37.2006ZM77.8145 28.3422C74.7008 28.3422 72.1692 30.6602 72.1692 33.8582C72.1692 37.0305 74.7008 39.3727 77.8145 39.3727C80.9264 39.3727 83.4596 37.0305 83.4596 33.8582C83.4596 30.6602 80.9264 28.3422 77.8145 28.3422ZM77.8145 37.2006C76.1079 37.2006 74.6363 35.8213 74.6363 33.8582C74.6363 31.8694 76.1079 30.5142 77.8145 30.5142C79.5192 30.5142 80.9859 31.8694 80.9859 33.8582C80.9859 35.8213 79.5192 37.2006 77.8145 37.2006ZM63.1574 30.0328V32.3768H68.867C68.7 33.6865 68.2536 34.6493 67.569 35.3203C66.7356 36.1308 65.4376 37.0305 63.1574 37.0305C59.6436 37.0305 56.892 34.2505 56.892 30.806C56.892 27.3615 59.6436 24.5816 63.1574 24.5816C65.0572 24.5816 66.4396 25.3093 67.4599 26.2528L69.1448 24.6011C67.7178 23.2653 65.8195 22.2393 63.1574 22.2393C58.3389 22.2393 54.2893 26.0826 54.2893 30.806C54.2893 35.5295 58.3389 39.3727 63.1574 39.3727C65.7617 39.3727 67.7178 38.5364 69.2556 36.9673C70.8314 35.4225 71.3226 33.2504 71.3226 31.4965C71.3226 30.952 71.2763 30.451 71.1937 30.0328H63.1574ZM123.092 31.8499C122.627 30.6164 121.194 28.3422 118.274 28.3422C115.38 28.3422 112.97 30.5775 112.97 33.8582C112.97 36.9479 115.355 39.3727 118.551 39.3727C121.136 39.3727 122.627 37.828 123.241 36.9283L121.323 35.6753C120.682 36.5929 119.811 37.2006 118.551 37.2006C117.3 37.2006 116.401 36.6382 115.826 35.5295L123.352 32.4773L123.092 31.8499ZM115.419 33.6865C115.355 31.5597 117.104 30.4705 118.358 30.4705C119.34 30.4705 120.173 30.952 120.452 31.6408L115.419 33.6865ZM109.303 39.0372H111.777V22.8277H109.303V39.0372ZM105.252 29.5709H105.169C104.614 28.9257 103.554 28.3422 102.211 28.3422C99.3933 28.3422 96.817 30.7671 96.817 33.8761C96.817 36.9673 99.3933 39.3727 102.211 39.3727C103.554 39.3727 104.614 38.7843 105.169 38.1198H105.252V38.9108C105.252 41.0196 104.103 42.1527 102.249 42.1527C100.738 42.1527 99.8001 41.0829 99.4131 40.1832L97.2619 41.0633C97.882 42.5255 99.5239 44.3247 102.249 44.3247C105.149 44.3247 107.597 42.652 107.597 38.5817V28.6778H105.252V29.5709ZM102.423 37.2006C100.718 37.2006 99.2908 35.8018 99.2908 33.8761C99.2908 31.9326 100.718 30.5142 102.423 30.5142C104.103 30.5142 105.427 31.9326 105.427 33.8761C105.427 35.8018 104.103 37.2006 102.423 37.2006ZM134.674 22.8277H128.757V39.0372H131.224V32.8955H134.674C137.413 32.8955 140.1 30.952 140.1 27.8607C140.1 24.7712 137.407 22.8277 134.674 22.8277ZM134.738 30.6407H131.224V25.0824H134.738C136.58 25.0824 137.632 26.5819 137.632 27.8607C137.632 29.1154 136.58 30.6407 134.738 30.6407ZM149.988 28.3114C148.206 28.3114 146.353 29.083 145.59 30.7931L147.779 31.6927C148.251 30.7931 149.117 30.5013 150.034 30.5013C151.313 30.5013 152.611 31.255 152.631 32.5858V32.7561C152.184 32.5032 151.229 32.1287 150.053 32.1287C147.695 32.1287 145.293 33.4011 145.293 35.7758C145.293 37.9479 147.224 39.3469 149.395 39.3469C151.055 39.3469 151.971 38.6126 152.547 37.7582H152.631V39.0113H155.014V32.7933C155.014 29.9193 152.825 28.3114 149.988 28.3114ZM149.691 37.1942C148.884 37.1942 147.76 36.8019 147.76 35.8213C147.76 34.5666 149.162 34.0852 150.376 34.0852C151.462 34.0852 151.971 34.3203 152.631 34.6298C152.437 36.1308 151.12 37.1942 149.691 37.1942ZM163.695 28.6663L160.859 35.6932H160.774L157.843 28.6663H155.183L159.588 38.4861L157.074 43.9503H159.652L166.44 28.6663H163.695ZM141.457 39.0372H143.93V22.8277H141.457V39.0372Z" fill="#00082A"/>
<path d="M13.8043 9.9109C13.4157 10.3097 13.1907 10.9305 13.1907 11.7345V40.4124C13.1907 41.2163 13.4157 41.8372 13.8043 42.2359L13.9001 42.3234L30.2935 26.2599V25.8806L13.9001 9.81689L13.8043 9.9109Z" fill="#00082A"/>
<path d="M37.0021 31.5547L31.5438 26.1974V25.8181L37.0088 20.4609L37.1311 20.5306L43.6031 24.1405C45.4502 25.1649 45.4502 26.8507 43.6031 27.8817L37.1311 31.485L37.0021 31.5547Z" fill="#00082A"/>
<path d="M36.5695 31.9059L30.9823 26.4287L14.493 42.5945C15.1065 43.2266 16.1069 43.3027 17.2445 42.6707L36.5695 31.9059Z" fill="#00082A"/>
<path d="M36.5695 19.7224L17.2445 8.95763C16.1069 8.33195 15.1065 8.40812 14.493 9.04029L30.9823 25.1996L36.5695 19.7224Z" fill="#00082A"/>
</g>
<defs>
<clipPath id="clip0_176_694">
<rect width="179.032" height="52.0046" fill="white"/>
</clipPath>
</defs>
</svg>
