<svg width="422" height="420" viewBox="0 0 422 420" fill="none" xmlns="http://www.w3.org/2000/svg">
<g opacity="0.4" filter="url(#filter0_f_76_567)">
<path d="M402 80C402 46.8629 375.137 20 342 20H280C246.863 20 220 46.8629 220 80V202H342C375.137 202 402 175.137 402 142V80Z" fill="white" fill-opacity="0.18"/>
</g>
<g opacity="0.7" filter="url(#filter1_bi_76_567)">
<path d="M402 80C402 46.8629 375.137 20 342 20H280C246.863 20 220 46.8629 220 80V202H342C375.137 202 402 175.137 402 142V80Z" fill="white" fill-opacity="0.19"/>
<path d="M402 80C402 46.8629 375.137 20 342 20H280C246.863 20 220 46.8629 220 80V202H342C375.137 202 402 175.137 402 142V80Z" stroke="white" stroke-width="2"/>
</g>
<path d="M298.788 84.2155C300.975 84.2155 302.916 84.6924 304.61 85.6464C306.321 86.5839 307.653 87.8914 308.607 89.5691C309.561 91.2303 310.038 93.1053 310.038 95.1941C310.038 97.3816 309.479 99.3388 308.36 101.066C307.258 102.776 305.753 104.1 303.845 105.038C301.954 105.975 299.824 106.444 297.456 106.444C295.137 106.444 293.056 105.984 291.214 105.063C289.388 104.141 287.949 102.842 286.896 101.164C285.86 99.4704 285.342 97.5296 285.342 95.3421H292.423C292.423 96.7566 292.891 97.9079 293.829 98.7961C294.766 99.6842 295.959 100.128 297.406 100.128C298.919 100.128 300.186 99.6595 301.206 98.722C302.242 97.7845 302.76 96.5757 302.76 95.0954C302.76 93.648 302.275 92.4638 301.304 91.5428C300.334 90.6053 299.051 90.1365 297.456 90.1365C296.485 90.1365 295.581 90.3339 294.742 90.7286C293.903 91.1069 293.229 91.6003 292.719 92.2089L285.836 91.4934L290.03 73.6069H307.867V79.7747H295.507L294.076 85.1283C295.293 84.5197 296.863 84.2155 298.788 84.2155ZM330.12 91.6414L337.743 106H329.775L325.063 96.8964L321.88 100.178V106H314.824V71.3372H321.88V91.5428L329.528 83.2039H338.262L330.12 91.6414Z" fill="white"/>
<path d="M273.221 131.46C274.346 131.46 275.348 131.706 276.227 132.198C277.111 132.69 277.8 133.376 278.292 134.255C278.784 135.128 279.03 136.13 279.03 137.261C279.03 138.392 278.787 139.388 278.301 140.249C277.82 141.11 277.138 141.784 276.253 142.271C275.368 142.757 274.357 143 273.221 143H269.371V131.46H273.221ZM273.115 141.559C273.965 141.559 274.709 141.38 275.348 141.022C275.992 140.659 276.49 140.152 276.842 139.502C277.199 138.846 277.378 138.099 277.378 137.261C277.378 136.399 277.199 135.638 276.842 134.976C276.49 134.313 275.992 133.804 275.348 133.446C274.709 133.083 273.965 132.901 273.115 132.901H270.936V141.559H273.115ZM280.498 139.036C280.498 138.245 280.677 137.533 281.034 136.9C281.397 136.262 281.901 135.758 282.546 135.389C283.196 135.014 283.935 134.826 284.761 134.826C285.587 134.826 286.328 135.014 286.984 135.389C287.641 135.758 288.147 136.262 288.505 136.9C288.868 137.533 289.05 138.245 289.05 139.036C289.05 139.815 288.865 140.524 288.496 141.163C288.133 141.802 287.626 142.306 286.976 142.675C286.331 143.038 285.593 143.22 284.761 143.22C283.946 143.22 283.214 143.038 282.563 142.675C281.919 142.306 281.412 141.805 281.043 141.172C280.68 140.533 280.498 139.821 280.498 139.036ZM282.045 139.036C282.045 139.856 282.3 140.536 282.81 141.075C283.319 141.614 283.97 141.884 284.761 141.884C285.575 141.884 286.237 141.614 286.747 141.075C287.263 140.536 287.521 139.856 287.521 139.036C287.521 138.21 287.266 137.524 286.756 136.979C286.246 136.435 285.581 136.162 284.761 136.162C283.97 136.162 283.319 136.435 282.81 136.979C282.3 137.524 282.045 138.21 282.045 139.036ZM291.405 135.063L292.231 137.709C292.747 139.326 293.078 140.437 293.225 141.04C293.418 140.378 293.963 138.638 294.859 135.819L295.062 135.204H296.626C296.796 135.708 297.083 136.619 297.487 137.938C297.897 139.25 298.217 140.302 298.445 141.093C298.674 140.202 298.979 139.171 299.359 137.999L300.317 135.063H301.882L299.166 143H297.689C297.15 141.354 296.72 140 296.397 138.939C296.081 137.879 295.899 137.24 295.853 137.023C295.519 138.213 294.895 140.205 293.98 143H292.469L289.806 135.063H291.405ZM307.463 134.826C308.365 134.826 309.086 135.113 309.625 135.688C310.164 136.256 310.434 137.056 310.434 138.087V143H308.922V138.43C308.922 136.93 308.315 136.18 307.103 136.18C306.44 136.18 305.916 136.379 305.529 136.777C305.148 137.17 304.958 137.677 304.958 138.298V142.982H303.464V135.063H304.712L304.853 136.18C305.093 135.77 305.45 135.441 305.925 135.195C306.399 134.949 306.912 134.826 307.463 134.826ZM312.851 130.651H314.345V143H312.851V130.651ZM324.549 135.063V143H323.143V141.594C322.879 142.086 322.475 142.481 321.93 142.78C321.385 143.073 320.77 143.22 320.084 143.22C319.352 143.22 318.698 143.047 318.124 142.701C317.556 142.35 317.113 141.86 316.797 141.233C316.48 140.601 316.322 139.874 316.322 139.054C316.322 138.216 316.486 137.478 316.814 136.839C317.148 136.194 317.605 135.699 318.186 135.354C318.766 135.002 319.434 134.826 320.189 134.826C320.863 134.826 321.458 134.961 321.974 135.23C322.489 135.5 322.891 135.869 323.178 136.338L323.31 135.063H324.549ZM320.409 141.866C321.188 141.866 321.818 141.605 322.299 141.084C322.779 140.562 323.02 139.862 323.02 138.983C323.02 138.134 322.782 137.454 322.308 136.944C321.833 136.435 321.212 136.18 320.444 136.18C319.653 136.18 319.023 136.44 318.555 136.962C318.086 137.483 317.852 138.169 317.852 139.019C317.852 139.868 318.086 140.557 318.555 141.084C319.023 141.605 319.642 141.866 320.409 141.866ZM326.482 139.036C326.482 138.245 326.661 137.533 327.019 136.9C327.382 136.262 327.886 135.758 328.53 135.389C329.181 135.014 329.919 134.826 330.745 134.826C331.571 134.826 332.312 135.014 332.969 135.389C333.625 135.758 334.132 136.262 334.489 136.9C334.853 137.533 335.034 138.245 335.034 139.036C335.034 139.815 334.85 140.524 334.48 141.163C334.117 141.802 333.61 142.306 332.96 142.675C332.315 143.038 331.577 143.22 330.745 143.22C329.931 143.22 329.198 143.038 328.548 142.675C327.903 142.306 327.396 141.805 327.027 141.172C326.664 140.533 326.482 139.821 326.482 139.036ZM328.029 139.036C328.029 139.856 328.284 140.536 328.794 141.075C329.304 141.614 329.954 141.884 330.745 141.884C331.56 141.884 332.222 141.614 332.731 141.075C333.247 140.536 333.505 139.856 333.505 139.036C333.505 138.21 333.25 137.524 332.74 136.979C332.23 136.435 331.565 136.162 330.745 136.162C329.954 136.162 329.304 136.435 328.794 136.979C328.284 137.524 328.029 138.21 328.029 139.036ZM344.693 130.651V143H343.472L343.34 141.576C343.088 142.068 342.689 142.467 342.145 142.771C341.6 143.07 340.984 143.22 340.299 143.22C339.555 143.22 338.893 143.047 338.312 142.701C337.732 142.35 337.278 141.857 336.95 141.225C336.628 140.586 336.467 139.851 336.467 139.019C336.467 138.192 336.631 137.463 336.959 136.83C337.293 136.191 337.75 135.699 338.33 135.354C338.91 135.002 339.572 134.826 340.316 134.826C340.979 134.826 341.564 134.952 342.074 135.204C342.584 135.456 342.977 135.805 343.252 136.25V130.651H344.693ZM340.554 141.866C341.333 141.866 341.963 141.605 342.443 141.084C342.924 140.562 343.164 139.862 343.164 138.983C343.164 138.134 342.927 137.454 342.452 136.944C341.978 136.435 341.356 136.18 340.589 136.18C339.798 136.18 339.168 136.44 338.699 136.962C338.23 137.483 337.996 138.169 337.996 139.019C337.996 139.868 338.23 140.557 338.699 141.084C339.168 141.605 339.786 141.866 340.554 141.866ZM349.817 143.22C348.892 143.22 348.13 142.997 347.532 142.552C346.94 142.106 346.621 141.518 346.574 140.785H348.033C348.068 141.195 348.244 141.512 348.561 141.734C348.877 141.957 349.296 142.068 349.817 142.068C350.333 142.068 350.734 141.966 351.021 141.761C351.309 141.556 351.452 141.266 351.452 140.891C351.452 140.521 351.338 140.258 351.109 140.1C350.881 139.936 350.588 139.815 350.23 139.739L348.824 139.414C348.127 139.256 347.611 138.989 347.277 138.614C346.949 138.239 346.785 137.782 346.785 137.243C346.785 136.511 347.061 135.925 347.611 135.485C348.168 135.046 348.889 134.826 349.773 134.826C350.676 134.826 351.405 135.052 351.962 135.503C352.524 135.954 352.817 136.552 352.841 137.296H351.382C351.37 136.886 351.212 136.563 350.907 136.329C350.608 136.095 350.225 135.978 349.756 135.978C349.311 135.978 348.956 136.077 348.692 136.276C348.435 136.476 348.306 136.754 348.306 137.111C348.306 137.445 348.408 137.688 348.613 137.841C348.824 137.993 349.1 138.104 349.439 138.175L351.039 138.535C351.701 138.682 352.193 138.951 352.516 139.344C352.838 139.73 352.999 140.199 352.999 140.75C352.999 141.506 352.709 142.106 352.129 142.552C351.555 142.997 350.784 143.22 349.817 143.22Z" fill="#9AAEFF"/>
<g opacity="0.4" filter="url(#filter2_f_76_567)">
<path d="M402 340C402 373.137 375.137 400 342 400H280C246.863 400 220 373.137 220 340V218H342C375.137 218 402 244.863 402 278V340Z" fill="white" fill-opacity="0.18"/>
</g>
<g opacity="0.7" filter="url(#filter3_bi_76_567)">
<path d="M402 340C402 373.137 375.137 400 342 400H280C246.863 400 220 373.137 220 340V218H342C375.137 218 402 244.863 402 278V340Z" fill="white" fill-opacity="0.19"/>
<path d="M402 340C402 373.137 375.137 400 342 400H280C246.863 400 220 373.137 220 340V218H342C375.137 218 402 244.863 402 278V340Z" stroke="white" stroke-width="2"/>
</g>
<path d="M298.788 286.215C300.975 286.215 302.916 286.692 304.61 287.646C306.321 288.584 307.653 289.891 308.607 291.569C309.561 293.23 310.038 295.105 310.038 297.194C310.038 299.382 309.479 301.339 308.36 303.066C307.258 304.776 305.753 306.1 303.845 307.038C301.954 307.975 299.824 308.444 297.456 308.444C295.137 308.444 293.056 307.984 291.214 307.063C289.388 306.141 287.949 304.842 286.896 303.164C285.86 301.47 285.342 299.53 285.342 297.342H292.423C292.423 298.757 292.891 299.908 293.829 300.796C294.766 301.684 295.959 302.128 297.406 302.128C298.919 302.128 300.186 301.66 301.206 300.722C302.242 299.785 302.76 298.576 302.76 297.095C302.76 295.648 302.275 294.464 301.304 293.543C300.334 292.605 299.051 292.137 297.456 292.137C296.485 292.137 295.581 292.334 294.742 292.729C293.903 293.107 293.229 293.6 292.719 294.209L285.836 293.493L290.03 275.607H307.867V281.775H295.507L294.076 287.128C295.293 286.52 296.863 286.215 298.788 286.215ZM330.12 293.641L337.743 308H329.775L325.063 298.896L321.88 302.178V308H314.824V273.337H321.88V293.543L329.528 285.204H338.262L330.12 293.641Z" fill="white"/>
<path d="M273.221 333.46C274.346 333.46 275.348 333.706 276.227 334.198C277.111 334.69 277.8 335.376 278.292 336.255C278.784 337.128 279.03 338.13 279.03 339.261C279.03 340.392 278.787 341.388 278.301 342.249C277.82 343.11 277.138 343.784 276.253 344.271C275.368 344.757 274.357 345 273.221 345H269.371V333.46H273.221ZM273.115 343.559C273.965 343.559 274.709 343.38 275.348 343.022C275.992 342.659 276.49 342.152 276.842 341.502C277.199 340.846 277.378 340.099 277.378 339.261C277.378 338.399 277.199 337.638 276.842 336.976C276.49 336.313 275.992 335.804 275.348 335.446C274.709 335.083 273.965 334.901 273.115 334.901H270.936V343.559H273.115ZM280.498 341.036C280.498 340.245 280.677 339.533 281.034 338.9C281.397 338.262 281.901 337.758 282.546 337.389C283.196 337.014 283.935 336.826 284.761 336.826C285.587 336.826 286.328 337.014 286.984 337.389C287.641 337.758 288.147 338.262 288.505 338.9C288.868 339.533 289.05 340.245 289.05 341.036C289.05 341.815 288.865 342.524 288.496 343.163C288.133 343.802 287.626 344.306 286.976 344.675C286.331 345.038 285.593 345.22 284.761 345.22C283.946 345.22 283.214 345.038 282.563 344.675C281.919 344.306 281.412 343.805 281.043 343.172C280.68 342.533 280.498 341.821 280.498 341.036ZM282.045 341.036C282.045 341.856 282.3 342.536 282.81 343.075C283.319 343.614 283.97 343.884 284.761 343.884C285.575 343.884 286.237 343.614 286.747 343.075C287.263 342.536 287.521 341.856 287.521 341.036C287.521 340.21 287.266 339.524 286.756 338.979C286.246 338.435 285.581 338.162 284.761 338.162C283.97 338.162 283.319 338.435 282.81 338.979C282.3 339.524 282.045 340.21 282.045 341.036ZM291.405 337.063L292.231 339.709C292.747 341.326 293.078 342.437 293.225 343.04C293.418 342.378 293.963 340.638 294.859 337.819L295.062 337.204H296.626C296.796 337.708 297.083 338.619 297.487 339.938C297.897 341.25 298.217 342.302 298.445 343.093C298.674 342.202 298.979 341.171 299.359 339.999L300.317 337.063H301.882L299.166 345H297.689C297.15 343.354 296.72 342 296.397 340.939C296.081 339.879 295.899 339.24 295.853 339.023C295.519 340.213 294.895 342.205 293.98 345H292.469L289.806 337.063H291.405ZM307.463 336.826C308.365 336.826 309.086 337.113 309.625 337.688C310.164 338.256 310.434 339.056 310.434 340.087V345H308.922V340.43C308.922 338.93 308.315 338.18 307.103 338.18C306.44 338.18 305.916 338.379 305.529 338.777C305.148 339.17 304.958 339.677 304.958 340.298V344.982H303.464V337.063H304.712L304.853 338.18C305.093 337.77 305.45 337.441 305.925 337.195C306.399 336.949 306.912 336.826 307.463 336.826ZM312.851 332.651H314.345V345H312.851V332.651ZM324.549 337.063V345H323.143V343.594C322.879 344.086 322.475 344.481 321.93 344.78C321.385 345.073 320.77 345.22 320.084 345.22C319.352 345.22 318.698 345.047 318.124 344.701C317.556 344.35 317.113 343.86 316.797 343.233C316.48 342.601 316.322 341.874 316.322 341.054C316.322 340.216 316.486 339.478 316.814 338.839C317.148 338.194 317.605 337.699 318.186 337.354C318.766 337.002 319.434 336.826 320.189 336.826C320.863 336.826 321.458 336.961 321.974 337.23C322.489 337.5 322.891 337.869 323.178 338.338L323.31 337.063H324.549ZM320.409 343.866C321.188 343.866 321.818 343.605 322.299 343.084C322.779 342.562 323.02 341.862 323.02 340.983C323.02 340.134 322.782 339.454 322.308 338.944C321.833 338.435 321.212 338.18 320.444 338.18C319.653 338.18 319.023 338.44 318.555 338.962C318.086 339.483 317.852 340.169 317.852 341.019C317.852 341.868 318.086 342.557 318.555 343.084C319.023 343.605 319.642 343.866 320.409 343.866ZM326.482 341.036C326.482 340.245 326.661 339.533 327.019 338.9C327.382 338.262 327.886 337.758 328.53 337.389C329.181 337.014 329.919 336.826 330.745 336.826C331.571 336.826 332.312 337.014 332.969 337.389C333.625 337.758 334.132 338.262 334.489 338.9C334.853 339.533 335.034 340.245 335.034 341.036C335.034 341.815 334.85 342.524 334.48 343.163C334.117 343.802 333.61 344.306 332.96 344.675C332.315 345.038 331.577 345.22 330.745 345.22C329.931 345.22 329.198 345.038 328.548 344.675C327.903 344.306 327.396 343.805 327.027 343.172C326.664 342.533 326.482 341.821 326.482 341.036ZM328.029 341.036C328.029 341.856 328.284 342.536 328.794 343.075C329.304 343.614 329.954 343.884 330.745 343.884C331.56 343.884 332.222 343.614 332.731 343.075C333.247 342.536 333.505 341.856 333.505 341.036C333.505 340.21 333.25 339.524 332.74 338.979C332.23 338.435 331.565 338.162 330.745 338.162C329.954 338.162 329.304 338.435 328.794 338.979C328.284 339.524 328.029 340.21 328.029 341.036ZM344.693 332.651V345H343.472L343.34 343.576C343.088 344.068 342.689 344.467 342.145 344.771C341.6 345.07 340.984 345.22 340.299 345.22C339.555 345.22 338.893 345.047 338.312 344.701C337.732 344.35 337.278 343.857 336.95 343.225C336.628 342.586 336.467 341.851 336.467 341.019C336.467 340.192 336.631 339.463 336.959 338.83C337.293 338.191 337.75 337.699 338.33 337.354C338.91 337.002 339.572 336.826 340.316 336.826C340.979 336.826 341.564 336.952 342.074 337.204C342.584 337.456 342.977 337.805 343.252 338.25V332.651H344.693ZM340.554 343.866C341.333 343.866 341.963 343.605 342.443 343.084C342.924 342.562 343.164 341.862 343.164 340.983C343.164 340.134 342.927 339.454 342.452 338.944C341.978 338.435 341.356 338.18 340.589 338.18C339.798 338.18 339.168 338.44 338.699 338.962C338.23 339.483 337.996 340.169 337.996 341.019C337.996 341.868 338.23 342.557 338.699 343.084C339.168 343.605 339.786 343.866 340.554 343.866ZM349.817 345.22C348.892 345.22 348.13 344.997 347.532 344.552C346.94 344.106 346.621 343.518 346.574 342.785H348.033C348.068 343.195 348.244 343.512 348.561 343.734C348.877 343.957 349.296 344.068 349.817 344.068C350.333 344.068 350.734 343.966 351.021 343.761C351.309 343.556 351.452 343.266 351.452 342.891C351.452 342.521 351.338 342.258 351.109 342.1C350.881 341.936 350.588 341.815 350.23 341.739L348.824 341.414C348.127 341.256 347.611 340.989 347.277 340.614C346.949 340.239 346.785 339.782 346.785 339.243C346.785 338.511 347.061 337.925 347.611 337.485C348.168 337.046 348.889 336.826 349.773 336.826C350.676 336.826 351.405 337.052 351.962 337.503C352.524 337.954 352.817 338.552 352.841 339.296H351.382C351.37 338.886 351.212 338.563 350.907 338.329C350.608 338.095 350.225 337.978 349.756 337.978C349.311 337.978 348.956 338.077 348.692 338.276C348.435 338.476 348.306 338.754 348.306 339.111C348.306 339.445 348.408 339.688 348.613 339.841C348.824 339.993 349.1 340.104 349.439 340.175L351.039 340.535C351.701 340.682 352.193 340.951 352.516 341.344C352.838 341.73 352.999 342.199 352.999 342.75C352.999 343.506 352.709 344.106 352.129 344.552C351.555 344.997 350.784 345.22 349.817 345.22Z" fill="#9AAEFF"/>
<g opacity="0.4" filter="url(#filter4_f_76_567)">
<path d="M20 80C20 46.8629 46.8629 20 80 20H142C175.137 20 202 46.8629 202 80V202H80C46.8629 202 20 175.137 20 142V80Z" fill="white" fill-opacity="0.18"/>
</g>
<g opacity="0.7" filter="url(#filter5_bi_76_567)">
<path d="M20 80C20 46.8629 46.8629 20 80 20H142C175.137 20 202 46.8629 202 80V202H80C46.8629 202 20 175.137 20 142V80Z" fill="white" fill-opacity="0.19"/>
<path d="M20 80C20 46.8629 46.8629 20 80 20H142C175.137 20 202 46.8629 202 80V202H80C46.8629 202 20 175.137 20 142V80Z" stroke="white" stroke-width="2"/>
</g>
<path d="M81.5082 84.2155C83.6957 84.2155 85.6365 84.6924 87.3306 85.6464C89.0411 86.5839 90.3734 87.8914 91.3273 89.5691C92.2812 91.2303 92.7582 93.1053 92.7582 95.1941C92.7582 97.3816 92.199 99.3388 91.0806 101.066C89.9786 102.776 88.4737 104.1 86.5658 105.038C84.6743 105.975 82.5444 106.444 80.176 106.444C77.8569 106.444 75.7763 105.984 73.9342 105.063C72.1086 104.141 70.6694 102.842 69.6168 101.164C68.5806 99.4704 68.0625 97.5296 68.0625 95.3421H75.1431C75.1431 96.7566 75.6118 97.9079 76.5493 98.7961C77.4868 99.6842 78.6793 100.128 80.1266 100.128C81.6398 100.128 82.9063 99.6595 83.926 98.722C84.9622 97.7845 85.4803 96.5757 85.4803 95.0954C85.4803 93.648 84.9951 92.4638 84.0247 91.5428C83.0543 90.6053 81.7714 90.1365 80.176 90.1365C79.2056 90.1365 78.301 90.3339 77.4622 90.7286C76.6234 91.1069 75.949 91.6003 75.4391 92.2089L68.5559 91.4934L72.75 73.6069H90.5872V79.7747H78.227L76.7961 85.1283C78.0132 84.5197 79.5839 84.2155 81.5082 84.2155ZM109.214 106.567C106.549 106.567 104.238 105.893 102.281 104.544C100.34 103.196 98.852 101.255 97.8158 98.722C96.7961 96.1891 96.2862 93.2286 96.2862 89.8405C96.2862 86.403 96.7961 83.4095 97.8158 80.8602C98.852 78.3109 100.332 76.3618 102.257 75.0132C104.197 73.648 106.516 72.9655 109.214 72.9655C111.878 72.9655 114.189 73.648 116.146 75.0132C118.12 76.3618 119.633 78.3109 120.686 80.8602C121.755 83.4095 122.289 86.403 122.289 89.8405C122.289 93.2451 121.755 96.2138 120.686 98.7467C119.633 101.263 118.12 103.196 116.146 104.544C114.189 105.893 111.878 106.567 109.214 106.567ZM109.263 100.178C111.155 100.178 112.577 99.2895 113.531 97.5132C114.485 95.7204 114.962 93.1628 114.962 89.8405C114.962 86.5016 114.485 83.9359 113.531 82.1431C112.577 80.3339 111.155 79.4293 109.263 79.4293C107.405 79.4293 105.982 80.3257 104.995 82.1184C104.025 83.8947 103.539 86.4688 103.539 89.8405C103.539 93.1464 104.025 95.6957 104.995 97.4885C105.982 99.2813 107.405 100.178 109.263 100.178ZM125.003 79.1826C125.003 77.8668 125.332 76.625 125.99 75.4572C126.648 74.2895 127.561 73.3602 128.729 72.6694C129.913 71.9786 131.262 71.6332 132.775 71.6332C134.321 71.6332 135.694 71.9786 136.895 72.6694C138.095 73.3602 139.016 74.2813 139.658 75.4326C140.299 76.5839 140.62 77.8339 140.62 79.1826C140.62 80.4984 140.308 81.7237 139.683 82.8586C139.058 83.977 138.153 84.8816 136.969 85.5724C135.801 86.2632 134.452 86.6086 132.923 86.6086C131.377 86.6086 129.995 86.2632 128.778 85.5724C127.577 84.8816 126.648 83.9605 125.99 82.8092C125.332 81.6579 125.003 80.449 125.003 79.1826ZM127.372 106L153.005 72.25H157.988L132.38 106H127.372ZM129.691 79.1086C129.691 79.9967 129.987 80.7368 130.579 81.3289C131.171 81.9046 131.936 82.1924 132.873 82.1924C133.778 82.1924 134.51 81.9046 135.069 81.3289C135.628 80.7368 135.908 80.0214 135.908 79.1826C135.908 78.3109 135.628 77.5707 135.069 76.9622C134.526 76.3536 133.778 76.0493 132.824 76.0493C131.887 76.0493 131.122 76.3454 130.53 76.9375C129.937 77.5132 129.658 78.2368 129.691 79.1086ZM144.296 99.3388C144.296 98.023 144.617 96.7977 145.258 95.6628C145.9 94.5115 146.812 93.5905 147.997 92.8997C149.197 92.2089 150.562 91.8635 152.092 91.8635C153.638 91.8635 154.995 92.2089 156.163 92.8997C157.347 93.5905 158.268 94.5115 158.926 95.6628C159.584 96.7977 159.913 98.023 159.913 99.3388C159.913 100.655 159.592 101.888 158.951 103.039C158.309 104.174 157.396 105.079 156.212 105.753C155.044 106.428 153.687 106.765 152.141 106.765C150.595 106.765 149.23 106.428 148.046 105.753C146.862 105.079 145.941 104.174 145.283 103.039C144.625 101.888 144.296 100.655 144.296 99.3388ZM148.959 99.3388C148.959 100.211 149.247 100.934 149.822 101.51C150.414 102.086 151.171 102.373 152.092 102.373C153.03 102.373 153.778 102.077 154.337 101.485C154.896 100.893 155.176 100.178 155.176 99.3388C155.176 98.5 154.896 97.7763 154.337 97.1678C153.778 96.5592 153.013 96.2549 152.043 96.2549C151.105 96.2549 150.357 96.551 149.798 97.1431C149.238 97.7188 148.959 98.4507 148.959 99.3388Z" fill="white"/>
<path d="M76.2207 131.46C77.3457 131.46 78.3477 131.706 79.2266 132.198C80.1113 132.69 80.7998 133.376 81.292 134.255C81.7842 135.128 82.0303 136.13 82.0303 137.261C82.0303 138.392 81.7871 139.388 81.3008 140.249C80.8203 141.11 80.1377 141.784 79.2529 142.271C78.3682 142.757 77.3574 143 76.2207 143H72.3711V131.46H76.2207ZM76.1152 141.559C76.9648 141.559 77.709 141.38 78.3477 141.022C78.9922 140.659 79.4902 140.152 79.8418 139.502C80.1992 138.846 80.3779 138.099 80.3779 137.261C80.3779 136.399 80.1992 135.638 79.8418 134.976C79.4902 134.313 78.9922 133.804 78.3477 133.446C77.709 133.083 76.9648 132.901 76.1152 132.901H73.9355V141.559H76.1152ZM83.498 139.036C83.498 138.245 83.6768 137.533 84.0342 136.9C84.3975 136.262 84.9014 135.758 85.5459 135.389C86.1963 135.014 86.9346 134.826 87.7607 134.826C88.5869 134.826 89.3281 135.014 89.9844 135.389C90.6406 135.758 91.1475 136.262 91.5049 136.9C91.8682 137.533 92.0498 138.245 92.0498 139.036C92.0498 139.815 91.8652 140.524 91.4961 141.163C91.1328 141.802 90.626 142.306 89.9756 142.675C89.3311 143.038 88.5928 143.22 87.7607 143.22C86.9463 143.22 86.2139 143.038 85.5635 142.675C84.9189 142.306 84.4121 141.805 84.043 141.172C83.6797 140.533 83.498 139.821 83.498 139.036ZM85.0449 139.036C85.0449 139.856 85.2998 140.536 85.8096 141.075C86.3193 141.614 86.9697 141.884 87.7607 141.884C88.5752 141.884 89.2373 141.614 89.7471 141.075C90.2627 140.536 90.5205 139.856 90.5205 139.036C90.5205 138.21 90.2656 137.524 89.7559 136.979C89.2461 136.435 88.5811 136.162 87.7607 136.162C86.9697 136.162 86.3193 136.435 85.8096 136.979C85.2998 137.524 85.0449 138.21 85.0449 139.036ZM94.4053 135.063L95.2314 137.709C95.7471 139.326 96.0781 140.437 96.2246 141.04C96.418 140.378 96.9629 138.638 97.8594 135.819L98.0615 135.204H99.626C99.7959 135.708 100.083 136.619 100.487 137.938C100.897 139.25 101.217 140.302 101.445 141.093C101.674 140.202 101.979 139.171 102.359 137.999L103.317 135.063H104.882L102.166 143H100.689C100.15 141.354 99.7197 140 99.3975 138.939C99.0811 137.879 98.8994 137.24 98.8525 137.023C98.5186 138.213 97.8945 140.205 96.9805 143H95.4688L92.8057 135.063H94.4053ZM110.463 134.826C111.365 134.826 112.086 135.113 112.625 135.688C113.164 136.256 113.434 137.056 113.434 138.087V143H111.922V138.43C111.922 136.93 111.315 136.18 110.103 136.18C109.44 136.18 108.916 136.379 108.529 136.777C108.148 137.17 107.958 137.677 107.958 138.298V142.982H106.464V135.063H107.712L107.853 136.18C108.093 135.77 108.45 135.441 108.925 135.195C109.399 134.949 109.912 134.826 110.463 134.826ZM115.851 130.651H117.345V143H115.851V130.651ZM127.549 135.063V143H126.143V141.594C125.879 142.086 125.475 142.481 124.93 142.78C124.385 143.073 123.77 143.22 123.084 143.22C122.352 143.22 121.698 143.047 121.124 142.701C120.556 142.35 120.113 141.86 119.797 141.233C119.48 140.601 119.322 139.874 119.322 139.054C119.322 138.216 119.486 137.478 119.814 136.839C120.148 136.194 120.605 135.699 121.186 135.354C121.766 135.002 122.434 134.826 123.189 134.826C123.863 134.826 124.458 134.961 124.974 135.23C125.489 135.5 125.891 135.869 126.178 136.338L126.31 135.063H127.549ZM123.409 141.866C124.188 141.866 124.818 141.605 125.299 141.084C125.779 140.562 126.02 139.862 126.02 138.983C126.02 138.134 125.782 137.454 125.308 136.944C124.833 136.435 124.212 136.18 123.444 136.18C122.653 136.18 122.023 136.44 121.555 136.962C121.086 137.483 120.852 138.169 120.852 139.019C120.852 139.868 121.086 140.557 121.555 141.084C122.023 141.605 122.642 141.866 123.409 141.866ZM129.482 139.036C129.482 138.245 129.661 137.533 130.019 136.9C130.382 136.262 130.886 135.758 131.53 135.389C132.181 135.014 132.919 134.826 133.745 134.826C134.571 134.826 135.312 135.014 135.969 135.389C136.625 135.758 137.132 136.262 137.489 136.9C137.853 137.533 138.034 138.245 138.034 139.036C138.034 139.815 137.85 140.524 137.48 141.163C137.117 141.802 136.61 142.306 135.96 142.675C135.315 143.038 134.577 143.22 133.745 143.22C132.931 143.22 132.198 143.038 131.548 142.675C130.903 142.306 130.396 141.805 130.027 141.172C129.664 140.533 129.482 139.821 129.482 139.036ZM131.029 139.036C131.029 139.856 131.284 140.536 131.794 141.075C132.304 141.614 132.954 141.884 133.745 141.884C134.56 141.884 135.222 141.614 135.731 141.075C136.247 140.536 136.505 139.856 136.505 139.036C136.505 138.21 136.25 137.524 135.74 136.979C135.23 136.435 134.565 136.162 133.745 136.162C132.954 136.162 132.304 136.435 131.794 136.979C131.284 137.524 131.029 138.21 131.029 139.036ZM147.693 130.651V143H146.472L146.34 141.576C146.088 142.068 145.689 142.467 145.145 142.771C144.6 143.07 143.984 143.22 143.299 143.22C142.555 143.22 141.893 143.047 141.312 142.701C140.732 142.35 140.278 141.857 139.95 141.225C139.628 140.586 139.467 139.851 139.467 139.019C139.467 138.192 139.631 137.463 139.959 136.83C140.293 136.191 140.75 135.699 141.33 135.354C141.91 135.002 142.572 134.826 143.316 134.826C143.979 134.826 144.564 134.952 145.074 135.204C145.584 135.456 145.977 135.805 146.252 136.25V130.651H147.693ZM143.554 141.866C144.333 141.866 144.963 141.605 145.443 141.084C145.924 140.562 146.164 139.862 146.164 138.983C146.164 138.134 145.927 137.454 145.452 136.944C144.978 136.435 144.356 136.18 143.589 136.18C142.798 136.18 142.168 136.44 141.699 136.962C141.23 137.483 140.996 138.169 140.996 139.019C140.996 139.868 141.23 140.557 141.699 141.084C142.168 141.605 142.786 141.866 143.554 141.866ZM152.817 143.22C151.892 143.22 151.13 142.997 150.532 142.552C149.94 142.106 149.621 141.518 149.574 140.785H151.033C151.068 141.195 151.244 141.512 151.561 141.734C151.877 141.957 152.296 142.068 152.817 142.068C153.333 142.068 153.734 141.966 154.021 141.761C154.309 141.556 154.452 141.266 154.452 140.891C154.452 140.521 154.338 140.258 154.109 140.1C153.881 139.936 153.588 139.815 153.23 139.739L151.824 139.414C151.127 139.256 150.611 138.989 150.277 138.614C149.949 138.239 149.785 137.782 149.785 137.243C149.785 136.511 150.061 135.925 150.611 135.485C151.168 135.046 151.889 134.826 152.773 134.826C153.676 134.826 154.405 135.052 154.962 135.503C155.524 135.954 155.817 136.552 155.841 137.296H154.382C154.37 136.886 154.212 136.563 153.907 136.329C153.608 136.095 153.225 135.978 152.756 135.978C152.311 135.978 151.956 136.077 151.692 136.276C151.435 136.476 151.306 136.754 151.306 137.111C151.306 137.445 151.408 137.688 151.613 137.841C151.824 137.993 152.1 138.104 152.439 138.175L154.039 138.535C154.701 138.682 155.193 138.951 155.516 139.344C155.838 139.73 155.999 140.199 155.999 140.75C155.999 141.506 155.709 142.106 155.129 142.552C154.555 142.997 153.784 143.22 152.817 143.22Z" fill="#9AAEFF"/>
<g opacity="0.4" filter="url(#filter6_f_76_567)">
<path d="M20 340C20 373.137 46.8629 400 80 400H142C175.137 400 202 373.137 202 340V218H80C46.8629 218 20 244.863 20 278V340Z" fill="white" fill-opacity="0.18"/>
</g>
<g opacity="0.7" filter="url(#filter7_bi_76_567)">
<path d="M20 340C20 373.137 46.8629 400 80 400H142C175.137 400 202 373.137 202 340V218H80C46.8629 218 20 244.863 20 278V340Z" fill="white" fill-opacity="0.19"/>
<path d="M20 340C20 373.137 46.8629 400 80 400H142C175.137 400 202 373.137 202 340V218H80C46.8629 218 20 244.863 20 278V340Z" stroke="white" stroke-width="2"/>
</g>
<path d="M81.5082 286.215C83.6957 286.215 85.6365 286.692 87.3306 287.646C89.0411 288.584 90.3734 289.891 91.3273 291.569C92.2812 293.23 92.7582 295.105 92.7582 297.194C92.7582 299.382 92.199 301.339 91.0806 303.066C89.9786 304.776 88.4737 306.1 86.5658 307.038C84.6743 307.975 82.5444 308.444 80.176 308.444C77.8569 308.444 75.7763 307.984 73.9342 307.063C72.1086 306.141 70.6694 304.842 69.6168 303.164C68.5806 301.47 68.0625 299.53 68.0625 297.342H75.1431C75.1431 298.757 75.6118 299.908 76.5493 300.796C77.4868 301.684 78.6793 302.128 80.1266 302.128C81.6398 302.128 82.9063 301.66 83.926 300.722C84.9622 299.785 85.4803 298.576 85.4803 297.095C85.4803 295.648 84.9951 294.464 84.0247 293.543C83.0543 292.605 81.7714 292.137 80.176 292.137C79.2056 292.137 78.301 292.334 77.4622 292.729C76.6234 293.107 75.949 293.6 75.4391 294.209L68.5559 293.493L72.75 275.607H90.5872V281.775H78.227L76.7961 287.128C78.0132 286.52 79.5839 286.215 81.5082 286.215ZM109.214 308.567C106.549 308.567 104.238 307.893 102.281 306.544C100.34 305.196 98.852 303.255 97.8158 300.722C96.7961 298.189 96.2862 295.229 96.2862 291.84C96.2862 288.403 96.7961 285.41 97.8158 282.86C98.852 280.311 100.332 278.362 102.257 277.013C104.197 275.648 106.516 274.965 109.214 274.965C111.878 274.965 114.189 275.648 116.146 277.013C118.12 278.362 119.633 280.311 120.686 282.86C121.755 285.41 122.289 288.403 122.289 291.84C122.289 295.245 121.755 298.214 120.686 300.747C119.633 303.263 118.12 305.196 116.146 306.544C114.189 307.893 111.878 308.567 109.214 308.567ZM109.263 302.178C111.155 302.178 112.577 301.289 113.531 299.513C114.485 297.72 114.962 295.163 114.962 291.84C114.962 288.502 114.485 285.936 113.531 284.143C112.577 282.334 111.155 281.429 109.263 281.429C107.405 281.429 105.982 282.326 104.995 284.118C104.025 285.895 103.539 288.469 103.539 291.84C103.539 295.146 104.025 297.696 104.995 299.488C105.982 301.281 107.405 302.178 109.263 302.178ZM125.003 281.183C125.003 279.867 125.332 278.625 125.99 277.457C126.648 276.289 127.561 275.36 128.729 274.669C129.913 273.979 131.262 273.633 132.775 273.633C134.321 273.633 135.694 273.979 136.895 274.669C138.095 275.36 139.016 276.281 139.658 277.433C140.299 278.584 140.62 279.834 140.62 281.183C140.62 282.498 140.308 283.724 139.683 284.859C139.058 285.977 138.153 286.882 136.969 287.572C135.801 288.263 134.452 288.609 132.923 288.609C131.377 288.609 129.995 288.263 128.778 287.572C127.577 286.882 126.648 285.961 125.99 284.809C125.332 283.658 125.003 282.449 125.003 281.183ZM127.372 308L153.005 274.25H157.988L132.38 308H127.372ZM129.691 281.109C129.691 281.997 129.987 282.737 130.579 283.329C131.171 283.905 131.936 284.192 132.873 284.192C133.778 284.192 134.51 283.905 135.069 283.329C135.628 282.737 135.908 282.021 135.908 281.183C135.908 280.311 135.628 279.571 135.069 278.962C134.526 278.354 133.778 278.049 132.824 278.049C131.887 278.049 131.122 278.345 130.53 278.938C129.937 279.513 129.658 280.237 129.691 281.109ZM144.296 301.339C144.296 300.023 144.617 298.798 145.258 297.663C145.9 296.512 146.812 295.59 147.997 294.9C149.197 294.209 150.562 293.863 152.092 293.863C153.638 293.863 154.995 294.209 156.163 294.9C157.347 295.59 158.268 296.512 158.926 297.663C159.584 298.798 159.913 300.023 159.913 301.339C159.913 302.655 159.592 303.888 158.951 305.039C158.309 306.174 157.396 307.079 156.212 307.753C155.044 308.428 153.687 308.765 152.141 308.765C150.595 308.765 149.23 308.428 148.046 307.753C146.862 307.079 145.941 306.174 145.283 305.039C144.625 303.888 144.296 302.655 144.296 301.339ZM148.959 301.339C148.959 302.211 149.247 302.934 149.822 303.51C150.414 304.086 151.171 304.373 152.092 304.373C153.03 304.373 153.778 304.077 154.337 303.485C154.896 302.893 155.176 302.178 155.176 301.339C155.176 300.5 154.896 299.776 154.337 299.168C153.778 298.559 153.013 298.255 152.043 298.255C151.105 298.255 150.357 298.551 149.798 299.143C149.238 299.719 148.959 300.451 148.959 301.339Z" fill="white"/>
<path d="M76.2207 333.46C77.3457 333.46 78.3477 333.706 79.2266 334.198C80.1113 334.69 80.7998 335.376 81.292 336.255C81.7842 337.128 82.0303 338.13 82.0303 339.261C82.0303 340.392 81.7871 341.388 81.3008 342.249C80.8203 343.11 80.1377 343.784 79.2529 344.271C78.3682 344.757 77.3574 345 76.2207 345H72.3711V333.46H76.2207ZM76.1152 343.559C76.9648 343.559 77.709 343.38 78.3477 343.022C78.9922 342.659 79.4902 342.152 79.8418 341.502C80.1992 340.846 80.3779 340.099 80.3779 339.261C80.3779 338.399 80.1992 337.638 79.8418 336.976C79.4902 336.313 78.9922 335.804 78.3477 335.446C77.709 335.083 76.9648 334.901 76.1152 334.901H73.9355V343.559H76.1152ZM83.498 341.036C83.498 340.245 83.6768 339.533 84.0342 338.9C84.3975 338.262 84.9014 337.758 85.5459 337.389C86.1963 337.014 86.9346 336.826 87.7607 336.826C88.5869 336.826 89.3281 337.014 89.9844 337.389C90.6406 337.758 91.1475 338.262 91.5049 338.9C91.8682 339.533 92.0498 340.245 92.0498 341.036C92.0498 341.815 91.8652 342.524 91.4961 343.163C91.1328 343.802 90.626 344.306 89.9756 344.675C89.3311 345.038 88.5928 345.22 87.7607 345.22C86.9463 345.22 86.2139 345.038 85.5635 344.675C84.9189 344.306 84.4121 343.805 84.043 343.172C83.6797 342.533 83.498 341.821 83.498 341.036ZM85.0449 341.036C85.0449 341.856 85.2998 342.536 85.8096 343.075C86.3193 343.614 86.9697 343.884 87.7607 343.884C88.5752 343.884 89.2373 343.614 89.7471 343.075C90.2627 342.536 90.5205 341.856 90.5205 341.036C90.5205 340.21 90.2656 339.524 89.7559 338.979C89.2461 338.435 88.5811 338.162 87.7607 338.162C86.9697 338.162 86.3193 338.435 85.8096 338.979C85.2998 339.524 85.0449 340.21 85.0449 341.036ZM94.4053 337.063L95.2314 339.709C95.7471 341.326 96.0781 342.437 96.2246 343.04C96.418 342.378 96.9629 340.638 97.8594 337.819L98.0615 337.204H99.626C99.7959 337.708 100.083 338.619 100.487 339.938C100.897 341.25 101.217 342.302 101.445 343.093C101.674 342.202 101.979 341.171 102.359 339.999L103.317 337.063H104.882L102.166 345H100.689C100.15 343.354 99.7197 342 99.3975 340.939C99.0811 339.879 98.8994 339.24 98.8525 339.023C98.5186 340.213 97.8945 342.205 96.9805 345H95.4688L92.8057 337.063H94.4053ZM110.463 336.826C111.365 336.826 112.086 337.113 112.625 337.688C113.164 338.256 113.434 339.056 113.434 340.087V345H111.922V340.43C111.922 338.93 111.315 338.18 110.103 338.18C109.44 338.18 108.916 338.379 108.529 338.777C108.148 339.17 107.958 339.677 107.958 340.298V344.982H106.464V337.063H107.712L107.853 338.18C108.093 337.77 108.45 337.441 108.925 337.195C109.399 336.949 109.912 336.826 110.463 336.826ZM115.851 332.651H117.345V345H115.851V332.651ZM127.549 337.063V345H126.143V343.594C125.879 344.086 125.475 344.481 124.93 344.78C124.385 345.073 123.77 345.22 123.084 345.22C122.352 345.22 121.698 345.047 121.124 344.701C120.556 344.35 120.113 343.86 119.797 343.233C119.48 342.601 119.322 341.874 119.322 341.054C119.322 340.216 119.486 339.478 119.814 338.839C120.148 338.194 120.605 337.699 121.186 337.354C121.766 337.002 122.434 336.826 123.189 336.826C123.863 336.826 124.458 336.961 124.974 337.23C125.489 337.5 125.891 337.869 126.178 338.338L126.31 337.063H127.549ZM123.409 343.866C124.188 343.866 124.818 343.605 125.299 343.084C125.779 342.562 126.02 341.862 126.02 340.983C126.02 340.134 125.782 339.454 125.308 338.944C124.833 338.435 124.212 338.18 123.444 338.18C122.653 338.18 122.023 338.44 121.555 338.962C121.086 339.483 120.852 340.169 120.852 341.019C120.852 341.868 121.086 342.557 121.555 343.084C122.023 343.605 122.642 343.866 123.409 343.866ZM129.482 341.036C129.482 340.245 129.661 339.533 130.019 338.9C130.382 338.262 130.886 337.758 131.53 337.389C132.181 337.014 132.919 336.826 133.745 336.826C134.571 336.826 135.312 337.014 135.969 337.389C136.625 337.758 137.132 338.262 137.489 338.9C137.853 339.533 138.034 340.245 138.034 341.036C138.034 341.815 137.85 342.524 137.48 343.163C137.117 343.802 136.61 344.306 135.96 344.675C135.315 345.038 134.577 345.22 133.745 345.22C132.931 345.22 132.198 345.038 131.548 344.675C130.903 344.306 130.396 343.805 130.027 343.172C129.664 342.533 129.482 341.821 129.482 341.036ZM131.029 341.036C131.029 341.856 131.284 342.536 131.794 343.075C132.304 343.614 132.954 343.884 133.745 343.884C134.56 343.884 135.222 343.614 135.731 343.075C136.247 342.536 136.505 341.856 136.505 341.036C136.505 340.21 136.25 339.524 135.74 338.979C135.23 338.435 134.565 338.162 133.745 338.162C132.954 338.162 132.304 338.435 131.794 338.979C131.284 339.524 131.029 340.21 131.029 341.036ZM147.693 332.651V345H146.472L146.34 343.576C146.088 344.068 145.689 344.467 145.145 344.771C144.6 345.07 143.984 345.22 143.299 345.22C142.555 345.22 141.893 345.047 141.312 344.701C140.732 344.35 140.278 343.857 139.95 343.225C139.628 342.586 139.467 341.851 139.467 341.019C139.467 340.192 139.631 339.463 139.959 338.83C140.293 338.191 140.75 337.699 141.33 337.354C141.91 337.002 142.572 336.826 143.316 336.826C143.979 336.826 144.564 336.952 145.074 337.204C145.584 337.456 145.977 337.805 146.252 338.25V332.651H147.693ZM143.554 343.866C144.333 343.866 144.963 343.605 145.443 343.084C145.924 342.562 146.164 341.862 146.164 340.983C146.164 340.134 145.927 339.454 145.452 338.944C144.978 338.435 144.356 338.18 143.589 338.18C142.798 338.18 142.168 338.44 141.699 338.962C141.23 339.483 140.996 340.169 140.996 341.019C140.996 341.868 141.23 342.557 141.699 343.084C142.168 343.605 142.786 343.866 143.554 343.866ZM152.817 345.22C151.892 345.22 151.13 344.997 150.532 344.552C149.94 344.106 149.621 343.518 149.574 342.785H151.033C151.068 343.195 151.244 343.512 151.561 343.734C151.877 343.957 152.296 344.068 152.817 344.068C153.333 344.068 153.734 343.966 154.021 343.761C154.309 343.556 154.452 343.266 154.452 342.891C154.452 342.521 154.338 342.258 154.109 342.1C153.881 341.936 153.588 341.815 153.23 341.739L151.824 341.414C151.127 341.256 150.611 340.989 150.277 340.614C149.949 340.239 149.785 339.782 149.785 339.243C149.785 338.511 150.061 337.925 150.611 337.485C151.168 337.046 151.889 336.826 152.773 336.826C153.676 336.826 154.405 337.052 154.962 337.503C155.524 337.954 155.817 338.552 155.841 339.296H154.382C154.37 338.886 154.212 338.563 153.907 338.329C153.608 338.095 153.225 337.978 152.756 337.978C152.311 337.978 151.956 338.077 151.692 338.276C151.435 338.476 151.306 338.754 151.306 339.111C151.306 339.445 151.408 339.688 151.613 339.841C151.824 339.993 152.1 340.104 152.439 340.175L154.039 340.535C154.701 340.682 155.193 340.951 155.516 341.344C155.838 341.73 155.999 342.199 155.999 342.75C155.999 343.506 155.709 344.106 155.129 344.552C154.555 344.997 153.784 345.22 152.817 345.22Z" fill="#9AAEFF"/>
<defs>
<filter id="filter0_f_76_567" x="200" y="0" width="222" height="222" filterUnits="userSpaceOnUse" color-interpolation-filters="sRGB">
<feFlood flood-opacity="0" result="BackgroundImageFix"/>
<feBlend mode="normal" in="SourceGraphic" in2="BackgroundImageFix" result="shape"/>
<feGaussianBlur stdDeviation="10" result="effect1_foregroundBlur_76_567"/>
</filter>
<filter id="filter1_bi_76_567" x="199" y="-1" width="224" height="224" filterUnits="userSpaceOnUse" color-interpolation-filters="sRGB">
<feFlood flood-opacity="0" result="BackgroundImageFix"/>
<feGaussianBlur in="BackgroundImageFix" stdDeviation="10"/>
<feComposite in2="SourceAlpha" operator="in" result="effect1_backgroundBlur_76_567"/>
<feBlend mode="normal" in="SourceGraphic" in2="effect1_backgroundBlur_76_567" result="shape"/>
<feColorMatrix in="SourceAlpha" type="matrix" values="0 0 0 0 0 0 0 0 0 0 0 0 0 0 0 0 0 0 127 0" result="hardAlpha"/>
<feOffset dy="2"/>
<feGaussianBlur stdDeviation="10"/>
<feComposite in2="hardAlpha" operator="arithmetic" k2="-1" k3="1"/>
<feColorMatrix type="matrix" values="0 0 0 0 0 0 0 0 0 0 0 0 0 0 0 0 0 0 0.08 0"/>
<feBlend mode="normal" in2="shape" result="effect2_innerShadow_76_567"/>
</filter>
<filter id="filter2_f_76_567" x="200" y="198" width="222" height="222" filterUnits="userSpaceOnUse" color-interpolation-filters="sRGB">
<feFlood flood-opacity="0" result="BackgroundImageFix"/>
<feBlend mode="normal" in="SourceGraphic" in2="BackgroundImageFix" result="shape"/>
<feGaussianBlur stdDeviation="10" result="effect1_foregroundBlur_76_567"/>
</filter>
<filter id="filter3_bi_76_567" x="199" y="197" width="224" height="224" filterUnits="userSpaceOnUse" color-interpolation-filters="sRGB">
<feFlood flood-opacity="0" result="BackgroundImageFix"/>
<feGaussianBlur in="BackgroundImageFix" stdDeviation="10"/>
<feComposite in2="SourceAlpha" operator="in" result="effect1_backgroundBlur_76_567"/>
<feBlend mode="normal" in="SourceGraphic" in2="effect1_backgroundBlur_76_567" result="shape"/>
<feColorMatrix in="SourceAlpha" type="matrix" values="0 0 0 0 0 0 0 0 0 0 0 0 0 0 0 0 0 0 127 0" result="hardAlpha"/>
<feOffset dy="2"/>
<feGaussianBlur stdDeviation="10"/>
<feComposite in2="hardAlpha" operator="arithmetic" k2="-1" k3="1"/>
<feColorMatrix type="matrix" values="0 0 0 0 0 0 0 0 0 0 0 0 0 0 0 0 0 0 0.08 0"/>
<feBlend mode="normal" in2="shape" result="effect2_innerShadow_76_567"/>
</filter>
<filter id="filter4_f_76_567" x="0" y="0" width="222" height="222" filterUnits="userSpaceOnUse" color-interpolation-filters="sRGB">
<feFlood flood-opacity="0" result="BackgroundImageFix"/>
<feBlend mode="normal" in="SourceGraphic" in2="BackgroundImageFix" result="shape"/>
<feGaussianBlur stdDeviation="10" result="effect1_foregroundBlur_76_567"/>
</filter>
<filter id="filter5_bi_76_567" x="-1" y="-1" width="224" height="224" filterUnits="userSpaceOnUse" color-interpolation-filters="sRGB">
<feFlood flood-opacity="0" result="BackgroundImageFix"/>
<feGaussianBlur in="BackgroundImageFix" stdDeviation="10"/>
<feComposite in2="SourceAlpha" operator="in" result="effect1_backgroundBlur_76_567"/>
<feBlend mode="normal" in="SourceGraphic" in2="effect1_backgroundBlur_76_567" result="shape"/>
<feColorMatrix in="SourceAlpha" type="matrix" values="0 0 0 0 0 0 0 0 0 0 0 0 0 0 0 0 0 0 127 0" result="hardAlpha"/>
<feOffset dy="2"/>
<feGaussianBlur stdDeviation="10"/>
<feComposite in2="hardAlpha" operator="arithmetic" k2="-1" k3="1"/>
<feColorMatrix type="matrix" values="0 0 0 0 0 0 0 0 0 0 0 0 0 0 0 0 0 0 0.08 0"/>
<feBlend mode="normal" in2="shape" result="effect2_innerShadow_76_567"/>
</filter>
<filter id="filter6_f_76_567" x="0" y="198" width="222" height="222" filterUnits="userSpaceOnUse" color-interpolation-filters="sRGB">
<feFlood flood-opacity="0" result="BackgroundImageFix"/>
<feBlend mode="normal" in="SourceGraphic" in2="BackgroundImageFix" result="shape"/>
<feGaussianBlur stdDeviation="10" result="effect1_foregroundBlur_76_567"/>
</filter>
<filter id="filter7_bi_76_567" x="-1" y="197" width="224" height="224" filterUnits="userSpaceOnUse" color-interpolation-filters="sRGB">
<feFlood flood-opacity="0" result="BackgroundImageFix"/>
<feGaussianBlur in="BackgroundImageFix" stdDeviation="10"/>
<feComposite in2="SourceAlpha" operator="in" result="effect1_backgroundBlur_76_567"/>
<feBlend mode="normal" in="SourceGraphic" in2="effect1_backgroundBlur_76_567" result="shape"/>
<feColorMatrix in="SourceAlpha" type="matrix" values="0 0 0 0 0 0 0 0 0 0 0 0 0 0 0 0 0 0 127 0" result="hardAlpha"/>
<feOffset dy="2"/>
<feGaussianBlur stdDeviation="10"/>
<feComposite in2="hardAlpha" operator="arithmetic" k2="-1" k3="1"/>
<feColorMatrix type="matrix" values="0 0 0 0 0 0 0 0 0 0 0 0 0 0 0 0 0 0 0.08 0"/>
<feBlend mode="normal" in2="shape" result="effect2_innerShadow_76_567"/>
</filter>
</defs>
</svg>
