<svg width="200" height="56" viewBox="0 0 200 56" fill="none" xmlns="http://www.w3.org/2000/svg">
<rect width="200" height="56" rx="10" fill="#82C708"/>
<path d="M52.064 33.224V35H45.288V23.432H47.44V33.224H52.064ZM58.1546 29.952C58.1546 29.696 58.1173 29.456 58.0426 29.232C57.9733 29.0027 57.8666 28.8027 57.7226 28.632C57.5786 28.4613 57.3946 28.328 57.1706 28.232C56.952 28.1307 56.696 28.08 56.4026 28.08C55.832 28.08 55.3813 28.2427 55.0506 28.568C54.7253 28.8933 54.5173 29.3547 54.4266 29.952H58.1546ZM54.3866 31.144C54.4186 31.5653 54.4933 31.9307 54.6106 32.24C54.728 32.544 54.8826 32.7973 55.0746 33C55.2666 33.1973 55.4933 33.3467 55.7546 33.448C56.0213 33.544 56.3146 33.592 56.6346 33.592C56.9546 33.592 57.2293 33.5547 57.4586 33.48C57.6933 33.4053 57.896 33.3227 58.0666 33.232C58.2426 33.1413 58.3946 33.0587 58.5226 32.984C58.656 32.9093 58.784 32.872 58.9066 32.872C59.072 32.872 59.1946 32.9333 59.2746 33.056L59.8426 33.776C59.624 34.032 59.3786 34.248 59.1066 34.424C58.8346 34.5947 58.5493 34.7333 58.2506 34.84C57.9573 34.9413 57.656 35.0133 57.3466 35.056C57.0426 35.0987 56.7466 35.12 56.4586 35.12C55.888 35.12 55.3573 35.0267 54.8666 34.84C54.376 34.648 53.9493 34.368 53.5866 34C53.224 33.6267 52.9386 33.168 52.7306 32.624C52.5226 32.0747 52.4186 31.44 52.4186 30.72C52.4186 30.16 52.5093 29.6347 52.6906 29.144C52.872 28.648 53.1306 28.2187 53.4666 27.856C53.808 27.488 54.2213 27.1973 54.7066 26.984C55.1973 26.7707 55.7493 26.664 56.3626 26.664C56.88 26.664 57.3573 26.7467 57.7946 26.912C58.232 27.0773 58.608 27.32 58.9226 27.64C59.2373 27.9547 59.4826 28.344 59.6586 28.808C59.84 29.2667 59.9306 29.792 59.9306 30.384C59.9306 30.6827 59.8986 30.8853 59.8346 30.992C59.7706 31.0933 59.648 31.144 59.4666 31.144H54.3866ZM65.7495 31.496C65.1788 31.5227 64.6988 31.5733 64.3095 31.648C63.9202 31.7173 63.6082 31.808 63.3735 31.92C63.1388 32.032 62.9708 32.1627 62.8695 32.312C62.7682 32.4613 62.7175 32.624 62.7175 32.8C62.7175 33.1467 62.8188 33.3947 63.0215 33.544C63.2295 33.6933 63.4988 33.768 63.8295 33.768C64.2348 33.768 64.5842 33.696 64.8775 33.552C65.1762 33.4027 65.4668 33.1787 65.7495 32.88V31.496ZM61.2215 27.936C62.1655 27.072 63.3015 26.64 64.6295 26.64C65.1095 26.64 65.5388 26.72 65.9175 26.88C66.2962 27.0347 66.6162 27.2533 66.8775 27.536C67.1388 27.8133 67.3362 28.1467 67.4695 28.536C67.6082 28.9253 67.6775 29.352 67.6775 29.816V35H66.7815C66.5948 35 66.4508 34.9733 66.3495 34.92C66.2482 34.8613 66.1682 34.7467 66.1095 34.576L65.9335 33.984C65.7255 34.1707 65.5228 34.336 65.3255 34.48C65.1282 34.6187 64.9228 34.736 64.7095 34.832C64.4962 34.928 64.2668 35 64.0215 35.048C63.7815 35.1013 63.5148 35.128 63.2215 35.128C62.8748 35.128 62.5548 35.0827 62.2615 34.992C61.9682 34.896 61.7148 34.7547 61.5015 34.568C61.2882 34.3813 61.1228 34.1493 61.0055 33.872C60.8882 33.5947 60.8295 33.272 60.8295 32.904C60.8295 32.696 60.8642 32.4907 60.9335 32.288C61.0028 32.08 61.1148 31.8827 61.2695 31.696C61.4295 31.5093 61.6348 31.3333 61.8855 31.168C62.1362 31.0027 62.4428 30.8587 62.8055 30.736C63.1735 30.6133 63.6002 30.5147 64.0855 30.44C64.5708 30.36 65.1255 30.312 65.7495 30.296V29.816C65.7495 29.2667 65.6322 28.8613 65.3975 28.6C65.1628 28.3333 64.8242 28.2 64.3815 28.2C64.0615 28.2 63.7948 28.2373 63.5815 28.312C63.3735 28.3867 63.1895 28.472 63.0295 28.568C62.8695 28.6587 62.7228 28.7413 62.5895 28.816C62.4615 28.8907 62.3175 28.928 62.1575 28.928C62.0188 28.928 61.9015 28.8933 61.8055 28.824C61.7095 28.7493 61.6322 28.664 61.5735 28.568L61.2215 27.936ZM71.4025 28.216C71.6585 27.7253 71.9625 27.3413 72.3145 27.064C72.6665 26.7813 73.0825 26.64 73.5625 26.64C73.9412 26.64 74.2452 26.7227 74.4745 26.888L74.3465 28.368C74.3198 28.464 74.2798 28.5333 74.2265 28.576C74.1785 28.6133 74.1118 28.632 74.0265 28.632C73.9465 28.632 73.8265 28.6187 73.6665 28.592C73.5118 28.5653 73.3598 28.552 73.2105 28.552C72.9918 28.552 72.7972 28.584 72.6265 28.648C72.4558 28.712 72.3012 28.8053 72.1625 28.928C72.0292 29.0453 71.9092 29.1893 71.8025 29.36C71.7012 29.5307 71.6052 29.7253 71.5145 29.944V35H69.5385V26.792H70.6985C70.9012 26.792 71.0425 26.8293 71.1225 26.904C71.2025 26.9733 71.2558 27.1013 71.2825 27.288L71.4025 28.216ZM77.3553 27.8C77.5206 27.6347 77.6939 27.4827 77.8753 27.344C78.0619 27.2 78.2566 27.08 78.4593 26.984C78.6673 26.8827 78.8886 26.8053 79.1233 26.752C79.3579 26.6933 79.6139 26.664 79.8913 26.664C80.3393 26.664 80.7366 26.7413 81.0833 26.896C81.4299 27.0453 81.7179 27.2587 81.9473 27.536C82.1819 27.808 82.3579 28.136 82.4753 28.52C82.5979 28.8987 82.6593 29.3173 82.6593 29.776V35H80.6833V29.776C80.6833 29.2747 80.5686 28.888 80.3393 28.616C80.1099 28.3387 79.7606 28.2 79.2913 28.2C78.9499 28.2 78.6299 28.2773 78.3313 28.432C78.0326 28.5867 77.7499 28.7973 77.4833 29.064V35H75.5073V26.792H76.7153C76.9713 26.792 77.1393 26.912 77.2193 27.152L77.3553 27.8ZM101.285 23.432V35H99.3891V27.528C99.3891 27.2293 99.4051 26.9067 99.4371 26.56L95.9411 33.128C95.7758 33.4427 95.5225 33.6 95.1811 33.6H94.8771C94.5358 33.6 94.2825 33.4427 94.1171 33.128L90.5811 26.536C90.5971 26.712 90.6105 26.8853 90.6211 27.056C90.6318 27.2267 90.6371 27.384 90.6371 27.528V35H88.7411V23.432H90.3651C90.4611 23.432 90.5438 23.4347 90.6131 23.44C90.6825 23.4453 90.7438 23.4587 90.7971 23.48C90.8558 23.5013 90.9065 23.536 90.9491 23.584C90.9971 23.632 91.0425 23.696 91.0851 23.776L94.5491 30.2C94.6398 30.3707 94.7225 30.5467 94.7971 30.728C94.8771 30.9093 94.9545 31.096 95.0291 31.288C95.1038 31.0907 95.1811 30.9013 95.2611 30.72C95.3411 30.5333 95.4265 30.3547 95.5171 30.184L98.9331 23.776C98.9758 23.696 99.0211 23.632 99.0691 23.584C99.1171 23.536 99.1678 23.5013 99.2211 23.48C99.2798 23.4587 99.3438 23.4453 99.4131 23.44C99.4825 23.4347 99.5651 23.432 99.6611 23.432H101.285ZM106.936 26.664C107.544 26.664 108.096 26.7627 108.592 26.96C109.093 27.1573 109.52 27.4373 109.872 27.8C110.229 28.1627 110.504 28.6053 110.696 29.128C110.888 29.6507 110.984 30.2347 110.984 30.88C110.984 31.5307 110.888 32.1173 110.696 32.64C110.504 33.1627 110.229 33.608 109.872 33.976C109.52 34.344 109.093 34.6267 108.592 34.824C108.096 35.0213 107.544 35.12 106.936 35.12C106.323 35.12 105.765 35.0213 105.264 34.824C104.763 34.6267 104.333 34.344 103.976 33.976C103.624 33.608 103.349 33.1627 103.152 32.64C102.96 32.1173 102.864 31.5307 102.864 30.88C102.864 30.2347 102.96 29.6507 103.152 29.128C103.349 28.6053 103.624 28.1627 103.976 27.8C104.333 27.4373 104.763 27.1573 105.264 26.96C105.765 26.7627 106.323 26.664 106.936 26.664ZM106.936 33.6C107.619 33.6 108.123 33.3707 108.448 32.912C108.779 32.4533 108.944 31.7813 108.944 30.896C108.944 30.0107 108.779 29.336 108.448 28.872C108.123 28.408 107.619 28.176 106.936 28.176C106.243 28.176 105.728 28.4107 105.392 28.88C105.061 29.344 104.896 30.016 104.896 30.896C104.896 31.776 105.061 32.448 105.392 32.912C105.728 33.3707 106.243 33.6 106.936 33.6ZM114.356 28.216C114.612 27.7253 114.916 27.3413 115.268 27.064C115.62 26.7813 116.036 26.64 116.516 26.64C116.894 26.64 117.198 26.7227 117.428 26.888L117.3 28.368C117.273 28.464 117.233 28.5333 117.18 28.576C117.132 28.6133 117.065 28.632 116.98 28.632C116.9 28.632 116.78 28.6187 116.62 28.592C116.465 28.5653 116.313 28.552 116.164 28.552C115.945 28.552 115.75 28.584 115.58 28.648C115.409 28.712 115.254 28.8053 115.116 28.928C114.982 29.0453 114.862 29.1893 114.756 29.36C114.654 29.5307 114.558 29.7253 114.468 29.944V35H112.492V26.792H113.652C113.854 26.792 113.996 26.8293 114.076 26.904C114.156 26.9733 114.209 27.1013 114.236 27.288L114.356 28.216ZM123.514 29.952C123.514 29.696 123.477 29.456 123.402 29.232C123.333 29.0027 123.226 28.8027 123.082 28.632C122.938 28.4613 122.754 28.328 122.53 28.232C122.311 28.1307 122.055 28.08 121.762 28.08C121.191 28.08 120.741 28.2427 120.41 28.568C120.085 28.8933 119.877 29.3547 119.786 29.952H123.514ZM119.746 31.144C119.778 31.5653 119.853 31.9307 119.97 32.24C120.087 32.544 120.242 32.7973 120.434 33C120.626 33.1973 120.853 33.3467 121.114 33.448C121.381 33.544 121.674 33.592 121.994 33.592C122.314 33.592 122.589 33.5547 122.818 33.48C123.053 33.4053 123.255 33.3227 123.426 33.232C123.602 33.1413 123.754 33.0587 123.882 32.984C124.015 32.9093 124.143 32.872 124.266 32.872C124.431 32.872 124.554 32.9333 124.634 33.056L125.202 33.776C124.983 34.032 124.738 34.248 124.466 34.424C124.194 34.5947 123.909 34.7333 123.61 34.84C123.317 34.9413 123.015 35.0133 122.706 35.056C122.402 35.0987 122.106 35.12 121.818 35.12C121.247 35.12 120.717 35.0267 120.226 34.84C119.735 34.648 119.309 34.368 118.946 34C118.583 33.6267 118.298 33.168 118.09 32.624C117.882 32.0747 117.778 31.44 117.778 30.72C117.778 30.16 117.869 29.6347 118.05 29.144C118.231 28.648 118.49 28.2187 118.826 27.856C119.167 27.488 119.581 27.1973 120.066 26.984C120.557 26.7707 121.109 26.664 121.722 26.664C122.239 26.664 122.717 26.7467 123.154 26.912C123.591 27.0773 123.967 27.32 124.282 27.64C124.597 27.9547 124.842 28.344 125.018 28.808C125.199 29.2667 125.29 29.792 125.29 30.384C125.29 30.6827 125.258 30.8853 125.194 30.992C125.13 31.0933 125.007 31.144 124.826 31.144H119.746Z" fill="black"/>
<path d="M153.368 26.5928C153.441 26.6802 153.489 26.8368 153.487 26.9342L153.406 32.457C153.399 32.7107 153.204 32.9022 152.93 32.8797C152.684 32.8594 152.465 32.6038 152.47 32.3561L152.538 27.9269L143.66 35.3378C143.469 35.4971 143.173 35.4569 142.999 35.2481C142.825 35.0391 142.838 34.7407 143.029 34.5814L151.907 27.1706L147.537 26.4468C147.292 26.4067 147.091 26.1473 147.104 25.9008C147.118 25.6405 147.354 25.4654 147.605 25.5076L153.053 26.4142C153.207 26.4336 153.292 26.5052 153.368 26.5929L153.368 26.5928Z" fill="black"/>
</svg>
