<svg width="430" height="447" viewBox="0 0 430 447" fill="none" xmlns="http://www.w3.org/2000/svg">
<g filter="url(#filter0_d_67_562)">
<rect x="30" y="50" width="370" height="357" rx="20" fill="white"/>
</g>
<g filter="url(#filter1_di_67_562)">
<rect x="165" width="100" height="100" rx="20" fill="white"/>
</g>
<path d="M170.921 172.3C170.921 173.4 170.737 174.427 170.371 175.38C170.004 176.333 169.483 177.177 168.809 177.91C168.149 178.629 167.357 179.193 166.433 179.604C165.523 180.015 164.526 180.22 163.441 180.22C162.355 180.22 161.358 180.015 160.449 179.604C159.539 179.193 158.747 178.629 158.073 177.91C157.413 177.177 156.899 176.333 156.533 175.38C156.166 174.427 155.983 173.4 155.983 172.3C155.983 171.2 156.166 170.173 156.533 169.22C156.899 168.267 157.413 167.431 158.073 166.712C158.747 165.979 159.539 165.407 160.449 164.996C161.358 164.585 162.355 164.38 163.441 164.38C164.526 164.38 165.523 164.585 166.433 164.996C167.357 165.407 168.149 165.979 168.809 166.712C169.483 167.431 170.004 168.267 170.371 169.22C170.737 170.173 170.921 171.2 170.921 172.3ZM168.061 172.3C168.061 171.317 167.863 170.43 167.467 169.638C167.071 168.831 166.528 168.193 165.839 167.724C165.149 167.255 164.35 167.02 163.441 167.02C162.531 167.02 161.732 167.255 161.043 167.724C160.353 168.193 159.811 168.824 159.415 169.616C159.033 170.408 158.843 171.303 158.843 172.3C158.843 173.283 159.033 174.177 159.415 174.984C159.811 175.776 160.353 176.407 161.043 176.876C161.732 177.345 162.531 177.58 163.441 177.58C164.35 177.58 165.149 177.345 165.839 176.876C166.528 176.407 167.071 175.776 167.467 174.984C167.863 174.177 168.061 173.283 168.061 172.3ZM181.96 168.23C182.341 168.23 182.657 168.362 182.906 168.626C183.155 168.875 183.28 169.191 183.28 169.572V175.16C183.28 176.715 182.847 177.947 181.982 178.856C181.117 179.765 179.87 180.22 178.242 180.22C176.614 180.22 175.367 179.765 174.502 178.856C173.651 177.947 173.226 176.715 173.226 175.16V169.572C173.226 169.191 173.351 168.875 173.6 168.626C173.849 168.362 174.165 168.23 174.546 168.23C174.927 168.23 175.243 168.362 175.492 168.626C175.741 168.875 175.866 169.191 175.866 169.572V175.16C175.866 176.055 176.064 176.722 176.46 177.162C176.856 177.587 177.45 177.8 178.242 177.8C179.049 177.8 179.65 177.587 180.046 177.162C180.442 176.722 180.64 176.055 180.64 175.16V169.572C180.64 169.191 180.765 168.875 181.014 168.626C181.263 168.362 181.579 168.23 181.96 168.23ZM187.458 180C187.077 180 186.761 179.875 186.512 179.626C186.263 179.362 186.138 179.039 186.138 178.658V169.572C186.138 169.191 186.263 168.875 186.512 168.626C186.761 168.362 187.077 168.23 187.458 168.23C187.839 168.23 188.155 168.362 188.404 168.626C188.653 168.875 188.778 169.191 188.778 169.572V171.64L188.624 170.166C188.785 169.814 188.991 169.506 189.24 169.242C189.504 168.963 189.797 168.736 190.12 168.56C190.443 168.369 190.787 168.23 191.154 168.142C191.521 168.054 191.887 168.01 192.254 168.01C192.694 168.01 193.061 168.135 193.354 168.384C193.662 168.633 193.816 168.927 193.816 169.264C193.816 169.748 193.691 170.1 193.442 170.32C193.193 170.525 192.921 170.628 192.628 170.628C192.349 170.628 192.093 170.577 191.858 170.474C191.638 170.371 191.381 170.32 191.088 170.32C190.824 170.32 190.553 170.386 190.274 170.518C190.01 170.635 189.761 170.826 189.526 171.09C189.306 171.354 189.123 171.684 188.976 172.08C188.844 172.461 188.778 172.916 188.778 173.444V178.658C188.778 179.039 188.653 179.362 188.404 179.626C188.155 179.875 187.839 180 187.458 180ZM203.449 164.578C203.654 164.578 203.867 164.637 204.087 164.754C204.322 164.857 204.498 164.996 204.615 165.172L209.961 173.4L208.861 173.356L214.339 165.172C214.618 164.776 214.977 164.578 215.417 164.578C215.769 164.578 216.084 164.703 216.363 164.952C216.642 165.201 216.781 165.524 216.781 165.92V178.658C216.781 179.039 216.656 179.362 216.407 179.626C216.158 179.875 215.828 180 215.417 180C215.006 180 214.669 179.875 214.405 179.626C214.156 179.362 214.031 179.039 214.031 178.658V168.296L214.889 168.494L210.401 175.336C210.269 175.497 210.1 175.637 209.895 175.754C209.704 175.871 209.506 175.923 209.301 175.908C209.11 175.923 208.912 175.871 208.707 175.754C208.516 175.637 208.355 175.497 208.223 175.336L204.021 168.692L204.593 167.526V178.658C204.593 179.039 204.476 179.362 204.241 179.626C204.006 179.875 203.698 180 203.317 180C202.95 180 202.65 179.875 202.415 179.626C202.18 179.362 202.063 179.039 202.063 178.658V165.92C202.063 165.553 202.195 165.238 202.459 164.974C202.738 164.71 203.068 164.578 203.449 164.578ZM222.354 178.658C222.354 179.039 222.23 179.362 221.98 179.626C221.731 179.875 221.416 180 221.034 180C220.653 180 220.338 179.875 220.088 179.626C219.839 179.362 219.714 179.039 219.714 178.658V169.572C219.714 169.191 219.839 168.875 220.088 168.626C220.338 168.362 220.653 168.23 221.034 168.23C221.416 168.23 221.731 168.362 221.98 168.626C222.23 168.875 222.354 169.191 222.354 169.572V178.658ZM221.012 166.8C220.514 166.8 220.162 166.719 219.956 166.558C219.751 166.397 219.648 166.111 219.648 165.7V165.282C219.648 164.857 219.758 164.571 219.978 164.424C220.213 164.263 220.565 164.182 221.034 164.182C221.548 164.182 221.907 164.263 222.112 164.424C222.318 164.585 222.42 164.871 222.42 165.282V165.7C222.42 166.125 222.31 166.419 222.09 166.58C221.87 166.727 221.511 166.8 221.012 166.8ZM224.386 178.174C224.239 177.969 224.173 177.705 224.188 177.382C224.202 177.059 224.393 176.781 224.76 176.546C224.994 176.399 225.244 176.341 225.508 176.37C225.772 176.385 226.028 176.517 226.278 176.766C226.703 177.191 227.15 177.521 227.62 177.756C228.089 177.991 228.676 178.108 229.38 178.108C229.6 178.093 229.842 178.064 230.106 178.02C230.37 177.961 230.597 177.844 230.788 177.668C230.993 177.477 231.096 177.191 231.096 176.81C231.096 176.487 230.986 176.231 230.766 176.04C230.546 175.849 230.252 175.688 229.886 175.556C229.534 175.424 229.138 175.299 228.698 175.182C228.243 175.05 227.774 174.903 227.29 174.742C226.82 174.581 226.388 174.375 225.992 174.126C225.596 173.862 225.273 173.517 225.024 173.092C224.774 172.667 224.65 172.131 224.65 171.486C224.65 170.753 224.855 170.129 225.266 169.616C225.676 169.103 226.204 168.707 226.85 168.428C227.51 168.149 228.199 168.01 228.918 168.01C229.372 168.01 229.849 168.069 230.348 168.186C230.846 168.289 231.323 168.465 231.778 168.714C232.232 168.949 232.614 169.264 232.922 169.66C233.083 169.88 233.178 170.144 233.208 170.452C233.237 170.76 233.098 171.039 232.79 171.288C232.57 171.464 232.313 171.545 232.02 171.53C231.726 171.501 231.484 171.398 231.294 171.222C231.044 170.899 230.707 170.643 230.282 170.452C229.871 170.261 229.394 170.166 228.852 170.166C228.632 170.166 228.39 170.195 228.126 170.254C227.876 170.298 227.656 170.408 227.466 170.584C227.275 170.745 227.18 171.009 227.18 171.376C227.18 171.713 227.29 171.985 227.51 172.19C227.73 172.381 228.023 172.542 228.39 172.674C228.771 172.791 229.174 172.909 229.6 173.026C230.04 173.143 230.487 173.283 230.942 173.444C231.396 173.605 231.814 173.818 232.196 174.082C232.577 174.346 232.885 174.691 233.12 175.116C233.354 175.527 233.472 176.055 233.472 176.7C233.472 177.448 233.252 178.086 232.812 178.614C232.372 179.142 231.822 179.545 231.162 179.824C230.502 180.088 229.827 180.22 229.138 180.22C228.272 180.22 227.407 180.073 226.542 179.78C225.676 179.472 224.958 178.937 224.386 178.174ZM234.999 178.174C234.852 177.969 234.786 177.705 234.801 177.382C234.816 177.059 235.006 176.781 235.373 176.546C235.608 176.399 235.857 176.341 236.121 176.37C236.385 176.385 236.642 176.517 236.891 176.766C237.316 177.191 237.764 177.521 238.233 177.756C238.702 177.991 239.289 178.108 239.993 178.108C240.213 178.093 240.455 178.064 240.719 178.02C240.983 177.961 241.21 177.844 241.401 177.668C241.606 177.477 241.709 177.191 241.709 176.81C241.709 176.487 241.599 176.231 241.379 176.04C241.159 175.849 240.866 175.688 240.499 175.556C240.147 175.424 239.751 175.299 239.311 175.182C238.856 175.05 238.387 174.903 237.903 174.742C237.434 174.581 237.001 174.375 236.605 174.126C236.209 173.862 235.886 173.517 235.637 173.092C235.388 172.667 235.263 172.131 235.263 171.486C235.263 170.753 235.468 170.129 235.879 169.616C236.29 169.103 236.818 168.707 237.463 168.428C238.123 168.149 238.812 168.01 239.531 168.01C239.986 168.01 240.462 168.069 240.961 168.186C241.46 168.289 241.936 168.465 242.391 168.714C242.846 168.949 243.227 169.264 243.535 169.66C243.696 169.88 243.792 170.144 243.821 170.452C243.85 170.76 243.711 171.039 243.403 171.288C243.183 171.464 242.926 171.545 242.633 171.53C242.34 171.501 242.098 171.398 241.907 171.222C241.658 170.899 241.32 170.643 240.895 170.452C240.484 170.261 240.008 170.166 239.465 170.166C239.245 170.166 239.003 170.195 238.739 170.254C238.49 170.298 238.27 170.408 238.079 170.584C237.888 170.745 237.793 171.009 237.793 171.376C237.793 171.713 237.903 171.985 238.123 172.19C238.343 172.381 238.636 172.542 239.003 172.674C239.384 172.791 239.788 172.909 240.213 173.026C240.653 173.143 241.1 173.283 241.555 173.444C242.01 173.605 242.428 173.818 242.809 174.082C243.19 174.346 243.498 174.691 243.733 175.116C243.968 175.527 244.085 176.055 244.085 176.7C244.085 177.448 243.865 178.086 243.425 178.614C242.985 179.142 242.435 179.545 241.775 179.824C241.115 180.088 240.44 180.22 239.751 180.22C238.886 180.22 238.02 180.073 237.155 179.78C236.29 179.472 235.571 178.937 234.999 178.174ZM248.78 178.658C248.78 179.039 248.656 179.362 248.406 179.626C248.157 179.875 247.842 180 247.46 180C247.079 180 246.764 179.875 246.514 179.626C246.265 179.362 246.14 179.039 246.14 178.658V169.572C246.14 169.191 246.265 168.875 246.514 168.626C246.764 168.362 247.079 168.23 247.46 168.23C247.842 168.23 248.157 168.362 248.406 168.626C248.656 168.875 248.78 169.191 248.78 169.572V178.658ZM247.438 166.8C246.94 166.8 246.588 166.719 246.382 166.558C246.177 166.397 246.074 166.111 246.074 165.7V165.282C246.074 164.857 246.184 164.571 246.404 164.424C246.639 164.263 246.991 164.182 247.46 164.182C247.974 164.182 248.333 164.263 248.538 164.424C248.744 164.585 248.846 164.871 248.846 165.282V165.7C248.846 166.125 248.736 166.419 248.516 166.58C248.296 166.727 247.937 166.8 247.438 166.8ZM262.911 174.126C262.911 175.329 262.64 176.392 262.097 177.316C261.569 178.225 260.851 178.937 259.941 179.45C259.047 179.963 258.042 180.22 256.927 180.22C255.813 180.22 254.801 179.963 253.891 179.45C252.997 178.937 252.278 178.225 251.735 177.316C251.207 176.392 250.943 175.329 250.943 174.126C250.943 172.923 251.207 171.867 251.735 170.958C252.278 170.034 252.997 169.315 253.891 168.802C254.801 168.274 255.813 168.01 256.927 168.01C258.042 168.01 259.047 168.274 259.941 168.802C260.851 169.315 261.569 170.034 262.097 170.958C262.64 171.867 262.911 172.923 262.911 174.126ZM260.271 174.126C260.271 173.378 260.117 172.733 259.809 172.19C259.516 171.633 259.113 171.2 258.599 170.892C258.101 170.584 257.543 170.43 256.927 170.43C256.311 170.43 255.747 170.584 255.233 170.892C254.735 171.2 254.331 171.633 254.023 172.19C253.73 172.733 253.583 173.378 253.583 174.126C253.583 174.859 253.73 175.505 254.023 176.062C254.331 176.605 254.735 177.03 255.233 177.338C255.747 177.646 256.311 177.8 256.927 177.8C257.543 177.8 258.101 177.646 258.599 177.338C259.113 177.03 259.516 176.605 259.809 176.062C260.117 175.505 260.271 174.859 260.271 174.126ZM271.514 168.01C272.599 168.01 273.421 168.237 273.978 168.692C274.55 169.147 274.939 169.755 275.144 170.518C275.364 171.266 275.474 172.102 275.474 173.026V178.658C275.474 179.039 275.349 179.362 275.1 179.626C274.851 179.875 274.535 180 274.154 180C273.773 180 273.457 179.875 273.208 179.626C272.959 179.362 272.834 179.039 272.834 178.658V173.026C272.834 172.542 272.768 172.109 272.636 171.728C272.519 171.332 272.299 171.017 271.976 170.782C271.653 170.547 271.191 170.43 270.59 170.43C270.003 170.43 269.505 170.547 269.094 170.782C268.698 171.017 268.39 171.332 268.17 171.728C267.965 172.109 267.862 172.542 267.862 173.026V178.658C267.862 179.039 267.737 179.362 267.488 179.626C267.239 179.875 266.923 180 266.542 180C266.161 180 265.845 179.875 265.596 179.626C265.347 179.362 265.222 179.039 265.222 178.658V169.572C265.222 169.191 265.347 168.875 265.596 168.626C265.845 168.362 266.161 168.23 266.542 168.23C266.923 168.23 267.239 168.362 267.488 168.626C267.737 168.875 267.862 169.191 267.862 169.572V170.518L267.532 170.452C267.664 170.203 267.855 169.939 268.104 169.66C268.353 169.367 268.647 169.095 268.984 168.846C269.321 168.597 269.703 168.399 270.128 168.252C270.553 168.091 271.015 168.01 271.514 168.01Z" fill="black" fill-opacity="0.7"/>
<path d="M77.0469 235H75.7109V224.75H72.1172V223.578H80.625V224.75H77.0469V235ZM89.5391 230.703C89.5391 231.406 89.4479 232.034 89.2656 232.586C89.0833 233.138 88.8203 233.604 88.4766 233.984C88.1328 234.365 87.7161 234.656 87.2266 234.859C86.7422 235.057 86.1927 235.156 85.5781 235.156C85.0052 235.156 84.4792 235.057 84 234.859C83.526 234.656 83.1146 234.365 82.7656 233.984C82.4219 233.604 82.1536 233.138 81.9609 232.586C81.7734 232.034 81.6797 231.406 81.6797 230.703C81.6797 229.766 81.8385 228.969 82.1562 228.312C82.474 227.651 82.9271 227.148 83.5156 226.805C84.1094 226.456 84.8151 226.281 85.6328 226.281C86.4141 226.281 87.0964 226.456 87.6797 226.805C88.2682 227.154 88.724 227.659 89.0469 228.32C89.375 228.977 89.5391 229.771 89.5391 230.703ZM83.0234 230.703C83.0234 231.391 83.1146 231.987 83.2969 232.492C83.4792 232.997 83.7604 233.388 84.1406 233.664C84.5208 233.94 85.0104 234.078 85.6094 234.078C86.2031 234.078 86.6901 233.94 87.0703 233.664C87.4557 233.388 87.7396 232.997 87.9219 232.492C88.1042 231.987 88.1953 231.391 88.1953 230.703C88.1953 230.021 88.1042 229.432 87.9219 228.938C87.7396 228.438 87.4583 228.052 87.0781 227.781C86.6979 227.51 86.2057 227.375 85.6016 227.375C84.7109 227.375 84.0573 227.669 83.6406 228.258C83.2292 228.846 83.0234 229.661 83.0234 230.703ZM97.2344 226.438V235H95.9375V226.438H97.2344ZM96.6016 223.234C96.8151 223.234 96.9974 223.305 97.1484 223.445C97.3047 223.581 97.3828 223.794 97.3828 224.086C97.3828 224.372 97.3047 224.586 97.1484 224.727C96.9974 224.867 96.8151 224.938 96.6016 224.938C96.3776 224.938 96.1901 224.867 96.0391 224.727C95.8932 224.586 95.8203 224.372 95.8203 224.086C95.8203 223.794 95.8932 223.581 96.0391 223.445C96.1901 223.305 96.3776 223.234 96.6016 223.234ZM104.039 226.281C105.055 226.281 105.823 226.531 106.344 227.031C106.865 227.526 107.125 228.323 107.125 229.422V235H105.844V229.508C105.844 228.794 105.68 228.26 105.352 227.906C105.029 227.552 104.531 227.375 103.859 227.375C102.911 227.375 102.245 227.643 101.859 228.18C101.474 228.716 101.281 229.495 101.281 230.516V235H99.9844V226.438H101.031L101.227 227.672H101.297C101.479 227.37 101.711 227.117 101.992 226.914C102.273 226.706 102.589 226.549 102.938 226.445C103.286 226.336 103.654 226.281 104.039 226.281ZM113.227 235.156C112.456 235.156 111.776 234.997 111.188 234.68C110.599 234.362 110.141 233.878 109.812 233.227C109.484 232.576 109.32 231.755 109.32 230.766C109.32 229.729 109.492 228.883 109.836 228.227C110.185 227.565 110.664 227.076 111.273 226.758C111.883 226.44 112.576 226.281 113.352 226.281C113.779 226.281 114.19 226.326 114.586 226.414C114.987 226.497 115.315 226.604 115.57 226.734L115.18 227.82C114.919 227.716 114.617 227.622 114.273 227.539C113.935 227.456 113.617 227.414 113.32 227.414C112.727 227.414 112.232 227.542 111.836 227.797C111.445 228.052 111.151 228.427 110.953 228.922C110.76 229.417 110.664 230.026 110.664 230.75C110.664 231.443 110.758 232.034 110.945 232.523C111.138 233.013 111.422 233.388 111.797 233.648C112.177 233.904 112.651 234.031 113.219 234.031C113.672 234.031 114.081 233.984 114.445 233.891C114.81 233.792 115.141 233.677 115.438 233.547V234.703C115.151 234.849 114.831 234.961 114.477 235.039C114.128 235.117 113.711 235.156 113.227 235.156ZM121.359 226.281C121.531 226.281 121.711 226.292 121.898 226.312C122.086 226.328 122.253 226.352 122.398 226.383L122.234 227.586C122.094 227.549 121.938 227.521 121.766 227.5C121.594 227.479 121.432 227.469 121.281 227.469C120.938 227.469 120.612 227.539 120.305 227.68C120.003 227.815 119.737 228.013 119.508 228.273C119.279 228.529 119.099 228.839 118.969 229.203C118.839 229.562 118.773 229.964 118.773 230.406V235H117.469V226.438H118.547L118.688 228.016H118.742C118.919 227.698 119.133 227.409 119.383 227.148C119.633 226.883 119.922 226.672 120.25 226.516C120.583 226.359 120.953 226.281 121.359 226.281ZM127.312 226.281C128.042 226.281 128.667 226.443 129.188 226.766C129.708 227.089 130.107 227.542 130.383 228.125C130.659 228.703 130.797 229.38 130.797 230.156V230.961H124.883C124.898 231.966 125.148 232.732 125.633 233.258C126.117 233.784 126.799 234.047 127.68 234.047C128.221 234.047 128.701 233.997 129.117 233.898C129.534 233.799 129.966 233.654 130.414 233.461V234.602C129.982 234.794 129.552 234.935 129.125 235.023C128.703 235.112 128.203 235.156 127.625 235.156C126.802 235.156 126.083 234.99 125.469 234.656C124.859 234.318 124.385 233.823 124.047 233.172C123.708 232.521 123.539 231.724 123.539 230.781C123.539 229.859 123.693 229.062 124 228.391C124.312 227.714 124.75 227.193 125.312 226.828C125.88 226.464 126.547 226.281 127.312 226.281ZM127.297 227.344C126.604 227.344 126.052 227.57 125.641 228.023C125.229 228.477 124.984 229.109 124.906 229.922H129.438C129.432 229.411 129.352 228.964 129.195 228.578C129.044 228.188 128.812 227.885 128.5 227.672C128.188 227.453 127.786 227.344 127.297 227.344ZM136.203 226.297C137.224 226.297 137.982 226.526 138.477 226.984C138.971 227.443 139.219 228.174 139.219 229.18V235H138.273L138.023 233.734H137.961C137.721 234.047 137.471 234.31 137.211 234.523C136.951 234.732 136.648 234.891 136.305 235C135.966 235.104 135.549 235.156 135.055 235.156C134.534 235.156 134.07 235.065 133.664 234.883C133.263 234.701 132.945 234.424 132.711 234.055C132.482 233.685 132.367 233.216 132.367 232.648C132.367 231.794 132.706 231.138 133.383 230.68C134.06 230.221 135.091 229.971 136.477 229.93L137.953 229.867V229.344C137.953 228.604 137.794 228.086 137.477 227.789C137.159 227.492 136.711 227.344 136.133 227.344C135.685 227.344 135.258 227.409 134.852 227.539C134.445 227.669 134.06 227.823 133.695 228L133.297 227.016C133.682 226.818 134.125 226.648 134.625 226.508C135.125 226.367 135.651 226.297 136.203 226.297ZM137.938 230.781L136.633 230.836C135.565 230.878 134.812 231.052 134.375 231.359C133.938 231.667 133.719 232.102 133.719 232.664C133.719 233.154 133.867 233.516 134.164 233.75C134.461 233.984 134.854 234.102 135.344 234.102C136.104 234.102 136.727 233.891 137.211 233.469C137.695 233.047 137.938 232.414 137.938 231.57V230.781ZM147.43 232.656C147.43 233.203 147.292 233.664 147.016 234.039C146.745 234.409 146.354 234.688 145.844 234.875C145.339 235.062 144.734 235.156 144.031 235.156C143.432 235.156 142.914 235.109 142.477 235.016C142.039 234.922 141.656 234.789 141.328 234.617V233.422C141.677 233.594 142.094 233.75 142.578 233.891C143.062 234.031 143.557 234.102 144.062 234.102C144.802 234.102 145.339 233.982 145.672 233.742C146.005 233.503 146.172 233.177 146.172 232.766C146.172 232.531 146.104 232.326 145.969 232.148C145.839 231.966 145.617 231.792 145.305 231.625C144.992 231.453 144.56 231.266 144.008 231.062C143.461 230.854 142.987 230.648 142.586 230.445C142.19 230.237 141.883 229.984 141.664 229.688C141.451 229.391 141.344 229.005 141.344 228.531C141.344 227.807 141.635 227.253 142.219 226.867C142.807 226.477 143.578 226.281 144.531 226.281C145.047 226.281 145.529 226.333 145.977 226.438C146.43 226.536 146.852 226.672 147.242 226.844L146.805 227.883C146.451 227.732 146.073 227.604 145.672 227.5C145.271 227.396 144.862 227.344 144.445 227.344C143.846 227.344 143.385 227.443 143.062 227.641C142.745 227.839 142.586 228.109 142.586 228.453C142.586 228.719 142.659 228.938 142.805 229.109C142.956 229.281 143.195 229.443 143.523 229.594C143.852 229.745 144.284 229.922 144.82 230.125C145.357 230.323 145.82 230.529 146.211 230.742C146.602 230.951 146.901 231.206 147.109 231.508C147.323 231.805 147.43 232.188 147.43 232.656ZM152.812 226.281C153.542 226.281 154.167 226.443 154.688 226.766C155.208 227.089 155.607 227.542 155.883 228.125C156.159 228.703 156.297 229.38 156.297 230.156V230.961H150.383C150.398 231.966 150.648 232.732 151.133 233.258C151.617 233.784 152.299 234.047 153.18 234.047C153.721 234.047 154.201 233.997 154.617 233.898C155.034 233.799 155.466 233.654 155.914 233.461V234.602C155.482 234.794 155.052 234.935 154.625 235.023C154.203 235.112 153.703 235.156 153.125 235.156C152.302 235.156 151.583 234.99 150.969 234.656C150.359 234.318 149.885 233.823 149.547 233.172C149.208 232.521 149.039 231.724 149.039 230.781C149.039 229.859 149.193 229.062 149.5 228.391C149.812 227.714 150.25 227.193 150.812 226.828C151.38 226.464 152.047 226.281 152.812 226.281ZM152.797 227.344C152.104 227.344 151.552 227.57 151.141 228.023C150.729 228.477 150.484 229.109 150.406 229.922H154.938C154.932 229.411 154.852 228.964 154.695 228.578C154.544 228.188 154.312 227.885 154 227.672C153.688 227.453 153.286 227.344 152.797 227.344ZM166.68 226.281C167.747 226.281 168.599 226.648 169.234 227.383C169.87 228.117 170.188 229.221 170.188 230.695C170.188 231.669 170.042 232.487 169.75 233.148C169.458 233.81 169.047 234.31 168.516 234.648C167.99 234.987 167.367 235.156 166.648 235.156C166.195 235.156 165.797 235.096 165.453 234.977C165.109 234.857 164.815 234.695 164.57 234.492C164.326 234.289 164.122 234.068 163.961 233.828H163.867C163.883 234.031 163.901 234.276 163.922 234.562C163.948 234.849 163.961 235.099 163.961 235.312V238.828H162.656V226.438H163.727L163.898 227.703H163.961C164.128 227.443 164.331 227.206 164.57 226.992C164.81 226.773 165.102 226.602 165.445 226.477C165.794 226.346 166.206 226.281 166.68 226.281ZM166.453 227.375C165.859 227.375 165.38 227.49 165.016 227.719C164.656 227.948 164.393 228.292 164.227 228.75C164.06 229.203 163.971 229.773 163.961 230.461V230.711C163.961 231.435 164.039 232.047 164.195 232.547C164.357 233.047 164.62 233.427 164.984 233.688C165.354 233.948 165.849 234.078 166.469 234.078C167 234.078 167.443 233.935 167.797 233.648C168.151 233.362 168.414 232.964 168.586 232.453C168.763 231.938 168.852 231.346 168.852 230.68C168.852 229.669 168.654 228.867 168.258 228.273C167.867 227.674 167.266 227.375 166.453 227.375ZM176.344 226.281C176.516 226.281 176.695 226.292 176.883 226.312C177.07 226.328 177.237 226.352 177.383 226.383L177.219 227.586C177.078 227.549 176.922 227.521 176.75 227.5C176.578 227.479 176.417 227.469 176.266 227.469C175.922 227.469 175.596 227.539 175.289 227.68C174.987 227.815 174.721 228.013 174.492 228.273C174.263 228.529 174.083 228.839 173.953 229.203C173.823 229.562 173.758 229.964 173.758 230.406V235H172.453V226.438H173.531L173.672 228.016H173.727C173.904 227.698 174.117 227.409 174.367 227.148C174.617 226.883 174.906 226.672 175.234 226.516C175.568 226.359 175.938 226.281 176.344 226.281ZM186.383 230.703C186.383 231.406 186.292 232.034 186.109 232.586C185.927 233.138 185.664 233.604 185.32 233.984C184.977 234.365 184.56 234.656 184.07 234.859C183.586 235.057 183.036 235.156 182.422 235.156C181.849 235.156 181.323 235.057 180.844 234.859C180.37 234.656 179.958 234.365 179.609 233.984C179.266 233.604 178.997 233.138 178.805 232.586C178.617 232.034 178.523 231.406 178.523 230.703C178.523 229.766 178.682 228.969 179 228.312C179.318 227.651 179.771 227.148 180.359 226.805C180.953 226.456 181.659 226.281 182.477 226.281C183.258 226.281 183.94 226.456 184.523 226.805C185.112 227.154 185.568 227.659 185.891 228.32C186.219 228.977 186.383 229.771 186.383 230.703ZM179.867 230.703C179.867 231.391 179.958 231.987 180.141 232.492C180.323 232.997 180.604 233.388 180.984 233.664C181.365 233.94 181.854 234.078 182.453 234.078C183.047 234.078 183.534 233.94 183.914 233.664C184.299 233.388 184.583 232.997 184.766 232.492C184.948 231.987 185.039 231.391 185.039 230.703C185.039 230.021 184.948 229.432 184.766 228.938C184.583 228.438 184.302 228.052 183.922 227.781C183.542 227.51 183.049 227.375 182.445 227.375C181.555 227.375 180.901 227.669 180.484 228.258C180.073 228.846 179.867 229.661 179.867 230.703ZM191.672 235.156C190.589 235.156 189.729 234.786 189.094 234.047C188.464 233.307 188.148 232.208 188.148 230.75C188.148 229.276 188.471 228.164 189.117 227.414C189.763 226.659 190.622 226.281 191.695 226.281C192.148 226.281 192.544 226.341 192.883 226.461C193.221 226.581 193.513 226.742 193.758 226.945C194.003 227.143 194.208 227.37 194.375 227.625H194.469C194.448 227.464 194.427 227.242 194.406 226.961C194.385 226.68 194.375 226.451 194.375 226.273V222.844H195.672V235H194.625L194.43 233.781H194.375C194.214 234.036 194.008 234.268 193.758 234.477C193.513 234.685 193.219 234.852 192.875 234.977C192.536 235.096 192.135 235.156 191.672 235.156ZM191.875 234.078C192.792 234.078 193.44 233.818 193.82 233.297C194.201 232.776 194.391 232.003 194.391 230.977V230.742C194.391 229.654 194.208 228.818 193.844 228.234C193.484 227.651 192.828 227.359 191.875 227.359C191.078 227.359 190.482 227.667 190.086 228.281C189.69 228.891 189.492 229.724 189.492 230.781C189.492 231.833 189.688 232.646 190.078 233.219C190.474 233.792 191.073 234.078 191.875 234.078ZM205.492 226.438V235H204.43L204.242 233.797H204.172C203.995 234.094 203.766 234.344 203.484 234.547C203.203 234.75 202.885 234.901 202.531 235C202.182 235.104 201.81 235.156 201.414 235.156C200.737 235.156 200.169 235.047 199.711 234.828C199.253 234.609 198.906 234.271 198.672 233.812C198.443 233.354 198.328 232.766 198.328 232.047V226.438H199.641V231.953C199.641 232.667 199.802 233.201 200.125 233.555C200.448 233.904 200.94 234.078 201.602 234.078C202.237 234.078 202.742 233.958 203.117 233.719C203.497 233.479 203.771 233.128 203.938 232.664C204.104 232.195 204.188 231.622 204.188 230.945V226.438H205.492ZM211.664 235.156C210.893 235.156 210.214 234.997 209.625 234.68C209.036 234.362 208.578 233.878 208.25 233.227C207.922 232.576 207.758 231.755 207.758 230.766C207.758 229.729 207.93 228.883 208.273 228.227C208.622 227.565 209.102 227.076 209.711 226.758C210.32 226.44 211.013 226.281 211.789 226.281C212.216 226.281 212.628 226.326 213.023 226.414C213.424 226.497 213.753 226.604 214.008 226.734L213.617 227.82C213.357 227.716 213.055 227.622 212.711 227.539C212.372 227.456 212.055 227.414 211.758 227.414C211.164 227.414 210.669 227.542 210.273 227.797C209.883 228.052 209.589 228.427 209.391 228.922C209.198 229.417 209.102 230.026 209.102 230.75C209.102 231.443 209.195 232.034 209.383 232.523C209.576 233.013 209.859 233.388 210.234 233.648C210.615 233.904 211.089 234.031 211.656 234.031C212.109 234.031 212.518 233.984 212.883 233.891C213.247 233.792 213.578 233.677 213.875 233.547V234.703C213.589 234.849 213.268 234.961 212.914 235.039C212.565 235.117 212.148 235.156 211.664 235.156ZM218.672 234.094C218.885 234.094 219.104 234.076 219.328 234.039C219.552 234.003 219.734 233.958 219.875 233.906V234.914C219.724 234.982 219.513 235.039 219.242 235.086C218.977 235.133 218.716 235.156 218.461 235.156C218.008 235.156 217.596 235.078 217.227 234.922C216.857 234.76 216.56 234.49 216.336 234.109C216.117 233.729 216.008 233.203 216.008 232.531V227.453H214.789V226.82L216.016 226.312L216.531 224.453H217.312V226.438H219.82V227.453H217.312V232.492C217.312 233.029 217.435 233.43 217.68 233.695C217.93 233.961 218.26 234.094 218.672 234.094ZM222.906 226.438V235H221.609V226.438H222.906ZM222.273 223.234C222.487 223.234 222.669 223.305 222.82 223.445C222.977 223.581 223.055 223.794 223.055 224.086C223.055 224.372 222.977 224.586 222.82 224.727C222.669 224.867 222.487 224.938 222.273 224.938C222.049 224.938 221.862 224.867 221.711 224.727C221.565 224.586 221.492 224.372 221.492 224.086C221.492 223.794 221.565 223.581 221.711 223.445C221.862 223.305 222.049 223.234 222.273 223.234ZM227.539 235L224.289 226.438H225.68L227.562 231.617C227.693 231.971 227.826 232.362 227.961 232.789C228.096 233.216 228.19 233.56 228.242 233.82H228.297C228.359 233.56 228.464 233.216 228.609 232.789C228.755 232.357 228.888 231.966 229.008 231.617L230.891 226.438H232.281L229.023 235H227.539ZM234.953 226.438V235H233.656V226.438H234.953ZM234.32 223.234C234.534 223.234 234.716 223.305 234.867 223.445C235.023 223.581 235.102 223.794 235.102 224.086C235.102 224.372 235.023 224.586 234.867 224.727C234.716 224.867 234.534 224.938 234.32 224.938C234.096 224.938 233.909 224.867 233.758 224.727C233.612 224.586 233.539 224.372 233.539 224.086C233.539 223.794 233.612 223.581 233.758 223.445C233.909 223.305 234.096 223.234 234.32 223.234ZM240.469 234.094C240.682 234.094 240.901 234.076 241.125 234.039C241.349 234.003 241.531 233.958 241.672 233.906V234.914C241.521 234.982 241.31 235.039 241.039 235.086C240.773 235.133 240.513 235.156 240.258 235.156C239.805 235.156 239.393 235.078 239.023 234.922C238.654 234.76 238.357 234.49 238.133 234.109C237.914 233.729 237.805 233.203 237.805 232.531V227.453H236.586V226.82L237.812 226.312L238.328 224.453H239.109V226.438H241.617V227.453H239.109V232.492C239.109 233.029 239.232 233.43 239.477 233.695C239.727 233.961 240.057 234.094 240.469 234.094ZM242.055 226.438H243.445L245.336 231.406C245.445 231.698 245.547 231.979 245.641 232.25C245.734 232.516 245.818 232.771 245.891 233.016C245.964 233.26 246.021 233.497 246.062 233.727H246.117C246.19 233.466 246.294 233.125 246.43 232.703C246.565 232.276 246.711 231.841 246.867 231.398L248.656 226.438H250.055L246.328 236.258C246.13 236.784 245.898 237.242 245.633 237.633C245.372 238.023 245.055 238.323 244.68 238.531C244.305 238.745 243.852 238.852 243.32 238.852C243.076 238.852 242.859 238.836 242.672 238.805C242.484 238.779 242.323 238.747 242.188 238.711V237.672C242.302 237.698 242.44 237.721 242.602 237.742C242.768 237.763 242.94 237.773 243.117 237.773C243.44 237.773 243.719 237.711 243.953 237.586C244.193 237.466 244.398 237.289 244.57 237.055C244.742 236.82 244.891 236.542 245.016 236.219L245.484 235.016L242.055 226.438ZM258.781 226.297C259.802 226.297 260.56 226.526 261.055 226.984C261.549 227.443 261.797 228.174 261.797 229.18V235H260.852L260.602 233.734H260.539C260.299 234.047 260.049 234.31 259.789 234.523C259.529 234.732 259.227 234.891 258.883 235C258.544 235.104 258.128 235.156 257.633 235.156C257.112 235.156 256.648 235.065 256.242 234.883C255.841 234.701 255.523 234.424 255.289 234.055C255.06 233.685 254.945 233.216 254.945 232.648C254.945 231.794 255.284 231.138 255.961 230.68C256.638 230.221 257.669 229.971 259.055 229.93L260.531 229.867V229.344C260.531 228.604 260.372 228.086 260.055 227.789C259.737 227.492 259.289 227.344 258.711 227.344C258.263 227.344 257.836 227.409 257.43 227.539C257.023 227.669 256.638 227.823 256.273 228L255.875 227.016C256.26 226.818 256.703 226.648 257.203 226.508C257.703 226.367 258.229 226.297 258.781 226.297ZM260.516 230.781L259.211 230.836C258.143 230.878 257.391 231.052 256.953 231.359C256.516 231.667 256.297 232.102 256.297 232.664C256.297 233.154 256.445 233.516 256.742 233.75C257.039 233.984 257.432 234.102 257.922 234.102C258.682 234.102 259.305 233.891 259.789 233.469C260.273 233.047 260.516 232.414 260.516 231.57V230.781ZM268.523 226.281C269.539 226.281 270.307 226.531 270.828 227.031C271.349 227.526 271.609 228.323 271.609 229.422V235H270.328V229.508C270.328 228.794 270.164 228.26 269.836 227.906C269.513 227.552 269.016 227.375 268.344 227.375C267.396 227.375 266.729 227.643 266.344 228.18C265.958 228.716 265.766 229.495 265.766 230.516V235H264.469V226.438H265.516L265.711 227.672H265.781C265.964 227.37 266.195 227.117 266.477 226.914C266.758 226.706 267.073 226.549 267.422 226.445C267.771 226.336 268.138 226.281 268.523 226.281ZM277.328 235.156C276.245 235.156 275.385 234.786 274.75 234.047C274.12 233.307 273.805 232.208 273.805 230.75C273.805 229.276 274.128 228.164 274.773 227.414C275.419 226.659 276.279 226.281 277.352 226.281C277.805 226.281 278.201 226.341 278.539 226.461C278.878 226.581 279.169 226.742 279.414 226.945C279.659 227.143 279.865 227.37 280.031 227.625H280.125C280.104 227.464 280.083 227.242 280.062 226.961C280.042 226.68 280.031 226.451 280.031 226.273V222.844H281.328V235H280.281L280.086 233.781H280.031C279.87 234.036 279.664 234.268 279.414 234.477C279.169 234.685 278.875 234.852 278.531 234.977C278.193 235.096 277.792 235.156 277.328 235.156ZM277.531 234.078C278.448 234.078 279.096 233.818 279.477 233.297C279.857 232.776 280.047 232.003 280.047 230.977V230.742C280.047 229.654 279.865 228.818 279.5 228.234C279.141 227.651 278.484 227.359 277.531 227.359C276.734 227.359 276.138 227.667 275.742 228.281C275.346 228.891 275.148 229.724 275.148 230.781C275.148 231.833 275.344 232.646 275.734 233.219C276.13 233.792 276.729 234.078 277.531 234.078ZM291.531 226.281C292.26 226.281 292.885 226.443 293.406 226.766C293.927 227.089 294.326 227.542 294.602 228.125C294.878 228.703 295.016 229.38 295.016 230.156V230.961H289.102C289.117 231.966 289.367 232.732 289.852 233.258C290.336 233.784 291.018 234.047 291.898 234.047C292.44 234.047 292.919 233.997 293.336 233.898C293.753 233.799 294.185 233.654 294.633 233.461V234.602C294.201 234.794 293.771 234.935 293.344 235.023C292.922 235.112 292.422 235.156 291.844 235.156C291.021 235.156 290.302 234.99 289.688 234.656C289.078 234.318 288.604 233.823 288.266 233.172C287.927 232.521 287.758 231.724 287.758 230.781C287.758 229.859 287.911 229.062 288.219 228.391C288.531 227.714 288.969 227.193 289.531 226.828C290.099 226.464 290.766 226.281 291.531 226.281ZM291.516 227.344C290.823 227.344 290.271 227.57 289.859 228.023C289.448 228.477 289.203 229.109 289.125 229.922H293.656C293.651 229.411 293.57 228.964 293.414 228.578C293.263 228.188 293.031 227.885 292.719 227.672C292.406 227.453 292.005 227.344 291.516 227.344ZM306.516 226.281C307.458 226.281 308.169 226.529 308.648 227.023C309.128 227.513 309.367 228.302 309.367 229.391V235H308.086V229.453C308.086 228.76 307.935 228.242 307.633 227.898C307.336 227.549 306.893 227.375 306.305 227.375C305.477 227.375 304.875 227.615 304.5 228.094C304.125 228.573 303.938 229.279 303.938 230.211V235H302.648V229.453C302.648 228.99 302.581 228.604 302.445 228.297C302.315 227.99 302.117 227.76 301.852 227.609C301.591 227.453 301.26 227.375 300.859 227.375C300.292 227.375 299.836 227.492 299.492 227.727C299.148 227.961 298.898 228.31 298.742 228.773C298.591 229.232 298.516 229.797 298.516 230.469V235H297.219V226.438H298.266L298.461 227.648H298.531C298.703 227.352 298.919 227.102 299.18 226.898C299.44 226.695 299.732 226.542 300.055 226.438C300.378 226.333 300.721 226.281 301.086 226.281C301.737 226.281 302.281 226.404 302.719 226.648C303.161 226.888 303.482 227.255 303.68 227.75H303.75C304.031 227.255 304.417 226.888 304.906 226.648C305.396 226.404 305.932 226.281 306.516 226.281ZM316.055 226.281C317.122 226.281 317.974 226.648 318.609 227.383C319.245 228.117 319.562 229.221 319.562 230.695C319.562 231.669 319.417 232.487 319.125 233.148C318.833 233.81 318.422 234.31 317.891 234.648C317.365 234.987 316.742 235.156 316.023 235.156C315.57 235.156 315.172 235.096 314.828 234.977C314.484 234.857 314.19 234.695 313.945 234.492C313.701 234.289 313.497 234.068 313.336 233.828H313.242C313.258 234.031 313.276 234.276 313.297 234.562C313.323 234.849 313.336 235.099 313.336 235.312V238.828H312.031V226.438H313.102L313.273 227.703H313.336C313.503 227.443 313.706 227.206 313.945 226.992C314.185 226.773 314.477 226.602 314.82 226.477C315.169 226.346 315.581 226.281 316.055 226.281ZM315.828 227.375C315.234 227.375 314.755 227.49 314.391 227.719C314.031 227.948 313.768 228.292 313.602 228.75C313.435 229.203 313.346 229.773 313.336 230.461V230.711C313.336 231.435 313.414 232.047 313.57 232.547C313.732 233.047 313.995 233.427 314.359 233.688C314.729 233.948 315.224 234.078 315.844 234.078C316.375 234.078 316.818 233.935 317.172 233.648C317.526 233.362 317.789 232.964 317.961 232.453C318.138 231.938 318.227 231.346 318.227 230.68C318.227 229.669 318.029 228.867 317.633 228.273C317.242 227.674 316.641 227.375 315.828 227.375ZM329.211 230.703C329.211 231.406 329.12 232.034 328.938 232.586C328.755 233.138 328.492 233.604 328.148 233.984C327.805 234.365 327.388 234.656 326.898 234.859C326.414 235.057 325.865 235.156 325.25 235.156C324.677 235.156 324.151 235.057 323.672 234.859C323.198 234.656 322.786 234.365 322.438 233.984C322.094 233.604 321.826 233.138 321.633 232.586C321.445 232.034 321.352 231.406 321.352 230.703C321.352 229.766 321.51 228.969 321.828 228.312C322.146 227.651 322.599 227.148 323.188 226.805C323.781 226.456 324.487 226.281 325.305 226.281C326.086 226.281 326.768 226.456 327.352 226.805C327.94 227.154 328.396 227.659 328.719 228.32C329.047 228.977 329.211 229.771 329.211 230.703ZM322.695 230.703C322.695 231.391 322.786 231.987 322.969 232.492C323.151 232.997 323.432 233.388 323.812 233.664C324.193 233.94 324.682 234.078 325.281 234.078C325.875 234.078 326.362 233.94 326.742 233.664C327.128 233.388 327.411 232.997 327.594 232.492C327.776 231.987 327.867 231.391 327.867 230.703C327.867 230.021 327.776 229.432 327.594 228.938C327.411 228.438 327.13 228.052 326.75 227.781C326.37 227.51 325.878 227.375 325.273 227.375C324.383 227.375 323.729 227.669 323.312 228.258C322.901 228.846 322.695 229.661 322.695 230.703ZM338.422 234.984L336.898 230C336.831 229.786 336.766 229.578 336.703 229.375C336.646 229.167 336.591 228.969 336.539 228.781C336.492 228.589 336.448 228.411 336.406 228.25C336.37 228.083 336.339 227.94 336.312 227.82H336.258C336.237 227.94 336.208 228.083 336.172 228.25C336.135 228.411 336.091 228.589 336.039 228.781C335.992 228.974 335.94 229.177 335.883 229.391C335.826 229.599 335.76 229.81 335.688 230.023L334.094 234.984H332.633L330.273 226.422H331.617L332.852 231.148C332.935 231.461 333.013 231.771 333.086 232.078C333.164 232.38 333.229 232.667 333.281 232.938C333.339 233.203 333.38 233.435 333.406 233.633H333.469C333.5 233.503 333.534 233.346 333.57 233.164C333.612 232.982 333.656 232.789 333.703 232.586C333.755 232.378 333.81 232.172 333.867 231.969C333.924 231.76 333.982 231.565 334.039 231.383L335.617 226.422H337.016L338.539 231.375C338.617 231.625 338.693 231.885 338.766 232.156C338.844 232.427 338.914 232.69 338.977 232.945C339.039 233.195 339.083 233.419 339.109 233.617H339.172C339.193 233.44 339.232 233.221 339.289 232.961C339.346 232.701 339.411 232.414 339.484 232.102C339.562 231.789 339.643 231.471 339.727 231.148L340.977 226.422H342.297L339.93 234.984H338.422ZM347.156 226.281C347.885 226.281 348.51 226.443 349.031 226.766C349.552 227.089 349.951 227.542 350.227 228.125C350.503 228.703 350.641 229.38 350.641 230.156V230.961H344.727C344.742 231.966 344.992 232.732 345.477 233.258C345.961 233.784 346.643 234.047 347.523 234.047C348.065 234.047 348.544 233.997 348.961 233.898C349.378 233.799 349.81 233.654 350.258 233.461V234.602C349.826 234.794 349.396 234.935 348.969 235.023C348.547 235.112 348.047 235.156 347.469 235.156C346.646 235.156 345.927 234.99 345.312 234.656C344.703 234.318 344.229 233.823 343.891 233.172C343.552 232.521 343.383 231.724 343.383 230.781C343.383 229.859 343.536 229.062 343.844 228.391C344.156 227.714 344.594 227.193 345.156 226.828C345.724 226.464 346.391 226.281 347.156 226.281ZM347.141 227.344C346.448 227.344 345.896 227.57 345.484 228.023C345.073 228.477 344.828 229.109 344.75 229.922H349.281C349.276 229.411 349.195 228.964 349.039 228.578C348.888 228.188 348.656 227.885 348.344 227.672C348.031 227.453 347.63 227.344 347.141 227.344ZM356.734 226.281C356.906 226.281 357.086 226.292 357.273 226.312C357.461 226.328 357.628 226.352 357.773 226.383L357.609 227.586C357.469 227.549 357.312 227.521 357.141 227.5C356.969 227.479 356.807 227.469 356.656 227.469C356.312 227.469 355.987 227.539 355.68 227.68C355.378 227.815 355.112 228.013 354.883 228.273C354.654 228.529 354.474 228.839 354.344 229.203C354.214 229.562 354.148 229.964 354.148 230.406V235H352.844V226.438H353.922L354.062 228.016H354.117C354.294 227.698 354.508 227.409 354.758 227.148C355.008 226.883 355.297 226.672 355.625 226.516C355.958 226.359 356.328 226.281 356.734 226.281ZM146.93 253.281C147.659 253.281 148.284 253.443 148.805 253.766C149.326 254.089 149.724 254.542 150 255.125C150.276 255.703 150.414 256.38 150.414 257.156V257.961H144.5C144.516 258.966 144.766 259.732 145.25 260.258C145.734 260.784 146.417 261.047 147.297 261.047C147.839 261.047 148.318 260.997 148.734 260.898C149.151 260.799 149.583 260.654 150.031 260.461V261.602C149.599 261.794 149.169 261.935 148.742 262.023C148.32 262.112 147.82 262.156 147.242 262.156C146.419 262.156 145.701 261.99 145.086 261.656C144.477 261.318 144.003 260.823 143.664 260.172C143.326 259.521 143.156 258.724 143.156 257.781C143.156 256.859 143.31 256.062 143.617 255.391C143.93 254.714 144.367 254.193 144.93 253.828C145.497 253.464 146.164 253.281 146.93 253.281ZM146.914 254.344C146.221 254.344 145.669 254.57 145.258 255.023C144.846 255.477 144.602 256.109 144.523 256.922H149.055C149.049 256.411 148.969 255.964 148.812 255.578C148.661 255.188 148.43 254.885 148.117 254.672C147.805 254.453 147.404 254.344 146.914 254.344ZM156.047 262.156C155.276 262.156 154.596 261.997 154.008 261.68C153.419 261.362 152.961 260.878 152.633 260.227C152.305 259.576 152.141 258.755 152.141 257.766C152.141 256.729 152.312 255.883 152.656 255.227C153.005 254.565 153.484 254.076 154.094 253.758C154.703 253.44 155.396 253.281 156.172 253.281C156.599 253.281 157.01 253.326 157.406 253.414C157.807 253.497 158.135 253.604 158.391 253.734L158 254.82C157.74 254.716 157.438 254.622 157.094 254.539C156.755 254.456 156.438 254.414 156.141 254.414C155.547 254.414 155.052 254.542 154.656 254.797C154.266 255.052 153.971 255.427 153.773 255.922C153.581 256.417 153.484 257.026 153.484 257.75C153.484 258.443 153.578 259.034 153.766 259.523C153.958 260.013 154.242 260.388 154.617 260.648C154.997 260.904 155.471 261.031 156.039 261.031C156.492 261.031 156.901 260.984 157.266 260.891C157.63 260.792 157.961 260.677 158.258 260.547V261.703C157.971 261.849 157.651 261.961 157.297 262.039C156.948 262.117 156.531 262.156 156.047 262.156ZM167.672 257.703C167.672 258.406 167.581 259.034 167.398 259.586C167.216 260.138 166.953 260.604 166.609 260.984C166.266 261.365 165.849 261.656 165.359 261.859C164.875 262.057 164.326 262.156 163.711 262.156C163.138 262.156 162.612 262.057 162.133 261.859C161.659 261.656 161.247 261.365 160.898 260.984C160.555 260.604 160.286 260.138 160.094 259.586C159.906 259.034 159.812 258.406 159.812 257.703C159.812 256.766 159.971 255.969 160.289 255.312C160.607 254.651 161.06 254.148 161.648 253.805C162.242 253.456 162.948 253.281 163.766 253.281C164.547 253.281 165.229 253.456 165.812 253.805C166.401 254.154 166.857 254.659 167.18 255.32C167.508 255.977 167.672 256.771 167.672 257.703ZM161.156 257.703C161.156 258.391 161.247 258.987 161.43 259.492C161.612 259.997 161.893 260.388 162.273 260.664C162.654 260.94 163.143 261.078 163.742 261.078C164.336 261.078 164.823 260.94 165.203 260.664C165.589 260.388 165.872 259.997 166.055 259.492C166.237 258.987 166.328 258.391 166.328 257.703C166.328 257.021 166.237 256.432 166.055 255.938C165.872 255.438 165.591 255.052 165.211 254.781C164.831 254.51 164.339 254.375 163.734 254.375C162.844 254.375 162.19 254.669 161.773 255.258C161.362 255.846 161.156 256.661 161.156 257.703ZM173.969 253.281C174.984 253.281 175.753 253.531 176.273 254.031C176.794 254.526 177.055 255.323 177.055 256.422V262H175.773V256.508C175.773 255.794 175.609 255.26 175.281 254.906C174.958 254.552 174.461 254.375 173.789 254.375C172.841 254.375 172.174 254.643 171.789 255.18C171.404 255.716 171.211 256.495 171.211 257.516V262H169.914V253.438H170.961L171.156 254.672H171.227C171.409 254.37 171.641 254.117 171.922 253.914C172.203 253.706 172.518 253.549 172.867 253.445C173.216 253.336 173.583 253.281 173.969 253.281ZM187.109 257.703C187.109 258.406 187.018 259.034 186.836 259.586C186.654 260.138 186.391 260.604 186.047 260.984C185.703 261.365 185.286 261.656 184.797 261.859C184.312 262.057 183.763 262.156 183.148 262.156C182.576 262.156 182.049 262.057 181.57 261.859C181.096 261.656 180.685 261.365 180.336 260.984C179.992 260.604 179.724 260.138 179.531 259.586C179.344 259.034 179.25 258.406 179.25 257.703C179.25 256.766 179.409 255.969 179.727 255.312C180.044 254.651 180.497 254.148 181.086 253.805C181.68 253.456 182.385 253.281 183.203 253.281C183.984 253.281 184.667 253.456 185.25 253.805C185.839 254.154 186.294 254.659 186.617 255.32C186.945 255.977 187.109 256.771 187.109 257.703ZM180.594 257.703C180.594 258.391 180.685 258.987 180.867 259.492C181.049 259.997 181.331 260.388 181.711 260.664C182.091 260.94 182.581 261.078 183.18 261.078C183.773 261.078 184.26 260.94 184.641 260.664C185.026 260.388 185.31 259.997 185.492 259.492C185.674 258.987 185.766 258.391 185.766 257.703C185.766 257.021 185.674 256.432 185.492 255.938C185.31 255.438 185.029 255.052 184.648 254.781C184.268 254.51 183.776 254.375 183.172 254.375C182.281 254.375 181.628 254.669 181.211 255.258C180.799 255.846 180.594 256.661 180.594 257.703ZM198.648 253.281C199.591 253.281 200.302 253.529 200.781 254.023C201.26 254.513 201.5 255.302 201.5 256.391V262H200.219V256.453C200.219 255.76 200.068 255.242 199.766 254.898C199.469 254.549 199.026 254.375 198.438 254.375C197.609 254.375 197.008 254.615 196.633 255.094C196.258 255.573 196.07 256.279 196.07 257.211V262H194.781V256.453C194.781 255.99 194.714 255.604 194.578 255.297C194.448 254.99 194.25 254.76 193.984 254.609C193.724 254.453 193.393 254.375 192.992 254.375C192.424 254.375 191.969 254.492 191.625 254.727C191.281 254.961 191.031 255.31 190.875 255.773C190.724 256.232 190.648 256.797 190.648 257.469V262H189.352V253.438H190.398L190.594 254.648H190.664C190.836 254.352 191.052 254.102 191.312 253.898C191.573 253.695 191.865 253.542 192.188 253.438C192.51 253.333 192.854 253.281 193.219 253.281C193.87 253.281 194.414 253.404 194.852 253.648C195.294 253.888 195.615 254.255 195.812 254.75H195.883C196.164 254.255 196.549 253.888 197.039 253.648C197.529 253.404 198.065 253.281 198.648 253.281ZM205.461 253.438V262H204.164V253.438H205.461ZM204.828 250.234C205.042 250.234 205.224 250.305 205.375 250.445C205.531 250.581 205.609 250.794 205.609 251.086C205.609 251.372 205.531 251.586 205.375 251.727C205.224 251.867 205.042 251.938 204.828 251.938C204.604 251.938 204.417 251.867 204.266 251.727C204.12 251.586 204.047 251.372 204.047 251.086C204.047 250.794 204.12 250.581 204.266 250.445C204.417 250.305 204.604 250.234 204.828 250.234ZM211.641 262.156C210.87 262.156 210.19 261.997 209.602 261.68C209.013 261.362 208.555 260.878 208.227 260.227C207.898 259.576 207.734 258.755 207.734 257.766C207.734 256.729 207.906 255.883 208.25 255.227C208.599 254.565 209.078 254.076 209.688 253.758C210.297 253.44 210.99 253.281 211.766 253.281C212.193 253.281 212.604 253.326 213 253.414C213.401 253.497 213.729 253.604 213.984 253.734L213.594 254.82C213.333 254.716 213.031 254.622 212.688 254.539C212.349 254.456 212.031 254.414 211.734 254.414C211.141 254.414 210.646 254.542 210.25 254.797C209.859 255.052 209.565 255.427 209.367 255.922C209.174 256.417 209.078 257.026 209.078 257.75C209.078 258.443 209.172 259.034 209.359 259.523C209.552 260.013 209.836 260.388 210.211 260.648C210.591 260.904 211.065 261.031 211.633 261.031C212.086 261.031 212.495 260.984 212.859 260.891C213.224 260.792 213.555 260.677 213.852 260.547V261.703C213.565 261.849 213.245 261.961 212.891 262.039C212.542 262.117 212.125 262.156 211.641 262.156ZM224.062 253.281C225.13 253.281 225.982 253.648 226.617 254.383C227.253 255.117 227.57 256.221 227.57 257.695C227.57 258.669 227.424 259.487 227.133 260.148C226.841 260.81 226.43 261.31 225.898 261.648C225.372 261.987 224.75 262.156 224.031 262.156C223.578 262.156 223.18 262.096 222.836 261.977C222.492 261.857 222.198 261.695 221.953 261.492C221.708 261.289 221.505 261.068 221.344 260.828H221.25C221.266 261.031 221.284 261.276 221.305 261.562C221.331 261.849 221.344 262.099 221.344 262.312V265.828H220.039V253.438H221.109L221.281 254.703H221.344C221.51 254.443 221.714 254.206 221.953 253.992C222.193 253.773 222.484 253.602 222.828 253.477C223.177 253.346 223.589 253.281 224.062 253.281ZM223.836 254.375C223.242 254.375 222.763 254.49 222.398 254.719C222.039 254.948 221.776 255.292 221.609 255.75C221.443 256.203 221.354 256.773 221.344 257.461V257.711C221.344 258.435 221.422 259.047 221.578 259.547C221.74 260.047 222.003 260.427 222.367 260.688C222.737 260.948 223.232 261.078 223.852 261.078C224.383 261.078 224.826 260.935 225.18 260.648C225.534 260.362 225.797 259.964 225.969 259.453C226.146 258.938 226.234 258.346 226.234 257.68C226.234 256.669 226.036 255.867 225.641 255.273C225.25 254.674 224.648 254.375 223.836 254.375ZM233.727 253.281C233.898 253.281 234.078 253.292 234.266 253.312C234.453 253.328 234.62 253.352 234.766 253.383L234.602 254.586C234.461 254.549 234.305 254.521 234.133 254.5C233.961 254.479 233.799 254.469 233.648 254.469C233.305 254.469 232.979 254.539 232.672 254.68C232.37 254.815 232.104 255.013 231.875 255.273C231.646 255.529 231.466 255.839 231.336 256.203C231.206 256.562 231.141 256.964 231.141 257.406V262H229.836V253.438H230.914L231.055 255.016H231.109C231.286 254.698 231.5 254.409 231.75 254.148C232 253.883 232.289 253.672 232.617 253.516C232.951 253.359 233.32 253.281 233.727 253.281ZM243.766 257.703C243.766 258.406 243.674 259.034 243.492 259.586C243.31 260.138 243.047 260.604 242.703 260.984C242.359 261.365 241.943 261.656 241.453 261.859C240.969 262.057 240.419 262.156 239.805 262.156C239.232 262.156 238.706 262.057 238.227 261.859C237.753 261.656 237.341 261.365 236.992 260.984C236.648 260.604 236.38 260.138 236.188 259.586C236 259.034 235.906 258.406 235.906 257.703C235.906 256.766 236.065 255.969 236.383 255.312C236.701 254.651 237.154 254.148 237.742 253.805C238.336 253.456 239.042 253.281 239.859 253.281C240.641 253.281 241.323 253.456 241.906 253.805C242.495 254.154 242.951 254.659 243.273 255.32C243.602 255.977 243.766 256.771 243.766 257.703ZM237.25 257.703C237.25 258.391 237.341 258.987 237.523 259.492C237.706 259.997 237.987 260.388 238.367 260.664C238.747 260.94 239.237 261.078 239.836 261.078C240.43 261.078 240.917 260.94 241.297 260.664C241.682 260.388 241.966 259.997 242.148 259.492C242.331 258.987 242.422 258.391 242.422 257.703C242.422 257.021 242.331 256.432 242.148 255.938C241.966 255.438 241.685 255.052 241.305 254.781C240.924 254.51 240.432 254.375 239.828 254.375C238.938 254.375 238.284 254.669 237.867 255.258C237.456 255.846 237.25 256.661 237.25 257.703ZM250.031 253.281C251.099 253.281 251.951 253.648 252.586 254.383C253.221 255.117 253.539 256.221 253.539 257.695C253.539 258.669 253.393 259.487 253.102 260.148C252.81 260.81 252.398 261.31 251.867 261.648C251.341 261.987 250.719 262.156 250 262.156C249.547 262.156 249.148 262.096 248.805 261.977C248.461 261.857 248.167 261.695 247.922 261.492C247.677 261.289 247.474 261.068 247.312 260.828H247.219C247.234 261.031 247.253 261.276 247.273 261.562C247.299 261.849 247.312 262.099 247.312 262.312V265.828H246.008V253.438H247.078L247.25 254.703H247.312C247.479 254.443 247.682 254.206 247.922 253.992C248.161 253.773 248.453 253.602 248.797 253.477C249.146 253.346 249.557 253.281 250.031 253.281ZM249.805 254.375C249.211 254.375 248.732 254.49 248.367 254.719C248.008 254.948 247.745 255.292 247.578 255.75C247.411 256.203 247.323 256.773 247.312 257.461V257.711C247.312 258.435 247.391 259.047 247.547 259.547C247.708 260.047 247.971 260.427 248.336 260.688C248.706 260.948 249.201 261.078 249.82 261.078C250.352 261.078 250.794 260.935 251.148 260.648C251.503 260.362 251.766 259.964 251.938 259.453C252.115 258.938 252.203 258.346 252.203 257.68C252.203 256.669 252.005 255.867 251.609 255.273C251.219 254.674 250.617 254.375 249.805 254.375ZM259.102 253.281C259.831 253.281 260.456 253.443 260.977 253.766C261.497 254.089 261.896 254.542 262.172 255.125C262.448 255.703 262.586 256.38 262.586 257.156V257.961H256.672C256.688 258.966 256.938 259.732 257.422 260.258C257.906 260.784 258.589 261.047 259.469 261.047C260.01 261.047 260.49 260.997 260.906 260.898C261.323 260.799 261.755 260.654 262.203 260.461V261.602C261.771 261.794 261.341 261.935 260.914 262.023C260.492 262.112 259.992 262.156 259.414 262.156C258.591 262.156 257.872 261.99 257.258 261.656C256.648 261.318 256.174 260.823 255.836 260.172C255.497 259.521 255.328 258.724 255.328 257.781C255.328 256.859 255.482 256.062 255.789 255.391C256.102 254.714 256.539 254.193 257.102 253.828C257.669 253.464 258.336 253.281 259.102 253.281ZM259.086 254.344C258.393 254.344 257.841 254.57 257.43 255.023C257.018 255.477 256.773 256.109 256.695 256.922H261.227C261.221 256.411 261.141 255.964 260.984 255.578C260.833 255.188 260.602 254.885 260.289 254.672C259.977 254.453 259.576 254.344 259.086 254.344ZM268.68 253.281C268.852 253.281 269.031 253.292 269.219 253.312C269.406 253.328 269.573 253.352 269.719 253.383L269.555 254.586C269.414 254.549 269.258 254.521 269.086 254.5C268.914 254.479 268.753 254.469 268.602 254.469C268.258 254.469 267.932 254.539 267.625 254.68C267.323 254.815 267.057 255.013 266.828 255.273C266.599 255.529 266.419 255.839 266.289 256.203C266.159 256.562 266.094 256.964 266.094 257.406V262H264.789V253.438H265.867L266.008 255.016H266.062C266.24 254.698 266.453 254.409 266.703 254.148C266.953 253.883 267.242 253.672 267.57 253.516C267.904 253.359 268.273 253.281 268.68 253.281ZM272.633 253.438V262H271.336V253.438H272.633ZM272 250.234C272.214 250.234 272.396 250.305 272.547 250.445C272.703 250.581 272.781 250.794 272.781 251.086C272.781 251.372 272.703 251.586 272.547 251.727C272.396 251.867 272.214 251.938 272 251.938C271.776 251.938 271.589 251.867 271.438 251.727C271.292 251.586 271.219 251.372 271.219 251.086C271.219 250.794 271.292 250.581 271.438 250.445C271.589 250.305 271.776 250.234 272 250.234ZM278.148 261.094C278.362 261.094 278.581 261.076 278.805 261.039C279.029 261.003 279.211 260.958 279.352 260.906V261.914C279.201 261.982 278.99 262.039 278.719 262.086C278.453 262.133 278.193 262.156 277.938 262.156C277.484 262.156 277.073 262.078 276.703 261.922C276.333 261.76 276.036 261.49 275.812 261.109C275.594 260.729 275.484 260.203 275.484 259.531V254.453H274.266V253.82L275.492 253.312L276.008 251.453H276.789V253.438H279.297V254.453H276.789V259.492C276.789 260.029 276.911 260.43 277.156 260.695C277.406 260.961 277.737 261.094 278.148 261.094ZM279.734 253.438H281.125L283.016 258.406C283.125 258.698 283.227 258.979 283.32 259.25C283.414 259.516 283.497 259.771 283.57 260.016C283.643 260.26 283.701 260.497 283.742 260.727H283.797C283.87 260.466 283.974 260.125 284.109 259.703C284.245 259.276 284.391 258.841 284.547 258.398L286.336 253.438H287.734L284.008 263.258C283.81 263.784 283.578 264.242 283.312 264.633C283.052 265.023 282.734 265.323 282.359 265.531C281.984 265.745 281.531 265.852 281 265.852C280.755 265.852 280.539 265.836 280.352 265.805C280.164 265.779 280.003 265.747 279.867 265.711V264.672C279.982 264.698 280.12 264.721 280.281 264.742C280.448 264.763 280.62 264.773 280.797 264.773C281.12 264.773 281.398 264.711 281.633 264.586C281.872 264.466 282.078 264.289 282.25 264.055C282.422 263.82 282.57 263.542 282.695 263.219L283.164 262.016L279.734 253.438Z" fill="black" fill-opacity="0.7"/>
<g clip-path="url(#clip0_67_562)">
<path d="M237.481 27.519C231.343 21.3806 223.181 18 214.5 18C205.819 18 197.657 21.3806 191.519 27.519C185.381 33.6574 182 41.8188 182 50.5C182 59.1811 185.381 67.3426 191.519 73.481C197.657 79.6194 205.819 83 214.5 83C223.181 83 231.342 79.6194 237.481 73.481C243.619 67.3426 247 59.1811 247 50.5C247 41.8188 243.619 33.6574 237.481 27.519Z" fill="#74AE0E"/>
<path d="M237.481 27.519C231.343 21.3806 223.181 18 214.5 18V83C223.181 83 231.343 79.6194 237.481 73.481C243.619 67.3426 247 59.1811 247 50.5C247 41.8188 243.619 33.6574 237.481 27.519Z" fill="#86CB0C"/>
<path d="M214.5 71.1208C225.889 71.1208 235.121 61.8886 235.121 50.5001C235.121 39.1115 225.889 29.8793 214.5 29.8793C203.112 29.8793 193.879 39.1115 193.879 50.5001C193.879 61.8886 203.112 71.1208 214.5 71.1208Z" fill="white"/>
<path d="M214.5 29.8793V71.1208C225.87 71.1208 235.121 61.8704 235.121 50.5001C235.121 39.1297 225.87 29.8793 214.5 29.8793Z" fill="#E6F6FF"/>
<path d="M214.5 59.6053C219.529 59.6053 223.606 55.5287 223.606 50.4999C223.606 45.4712 219.529 41.3945 214.5 41.3945C209.471 41.3945 205.395 45.4712 205.395 50.4999C205.395 55.5287 209.471 59.6053 214.5 59.6053Z" fill="#75B407"/>
<path d="M214.5 41.3947V59.6054C219.521 59.6054 223.605 55.5208 223.605 50.5C223.605 45.4793 219.521 41.3947 214.5 41.3947Z" fill="#86CB0C"/>
<path d="M238.105 26.8949L236.642 19.5777L226.638 29.5811L228.101 36.8985L235.419 38.3619L245.422 28.3584L238.105 26.8949Z" fill="#FBFBFB"/>
<path d="M238.105 26.8949L236.642 19.5777L226.638 29.5811L228.101 36.8985L235.419 38.3619L245.422 28.3584L238.105 26.8949Z" fill="#0A3F7D"/>
<path d="M214.511 47.7919L227.645 34.658L230.337 37.3505L217.203 50.4844L214.511 47.7919Z" fill="#3E5959"/>
<path d="M214.511 47.7919L227.645 34.658L230.337 37.3505L217.203 50.4844L214.511 47.7919Z" fill="#293939"/>
</g>
<defs>
<filter id="filter0_d_67_562" x="0" y="30" width="430" height="417" filterUnits="userSpaceOnUse" color-interpolation-filters="sRGB">
<feFlood flood-opacity="0" result="BackgroundImageFix"/>
<feColorMatrix in="SourceAlpha" type="matrix" values="0 0 0 0 0 0 0 0 0 0 0 0 0 0 0 0 0 0 127 0" result="hardAlpha"/>
<feOffset dy="10"/>
<feGaussianBlur stdDeviation="15"/>
<feColorMatrix type="matrix" values="0 0 0 0 0 0 0 0 0 0 0 0 0 0 0 0 0 0 0.1 0"/>
<feBlend mode="normal" in2="BackgroundImageFix" result="effect1_dropShadow_67_562"/>
<feBlend mode="normal" in="SourceGraphic" in2="effect1_dropShadow_67_562" result="shape"/>
</filter>
<filter id="filter1_di_67_562" x="155" y="0" width="120" height="120" filterUnits="userSpaceOnUse" color-interpolation-filters="sRGB">
<feFlood flood-opacity="0" result="BackgroundImageFix"/>
<feColorMatrix in="SourceAlpha" type="matrix" values="0 0 0 0 0 0 0 0 0 0 0 0 0 0 0 0 0 0 127 0" result="hardAlpha"/>
<feOffset dy="10"/>
<feGaussianBlur stdDeviation="5"/>
<feColorMatrix type="matrix" values="0 0 0 0 0 0 0 0 0 0 0 0 0 0 0 0 0 0 0.07 0"/>
<feBlend mode="normal" in2="BackgroundImageFix" result="effect1_dropShadow_67_562"/>
<feBlend mode="normal" in="SourceGraphic" in2="effect1_dropShadow_67_562" result="shape"/>
<feColorMatrix in="SourceAlpha" type="matrix" values="0 0 0 0 0 0 0 0 0 0 0 0 0 0 0 0 0 0 127 0" result="hardAlpha"/>
<feOffset dy="5"/>
<feGaussianBlur stdDeviation="2.5"/>
<feComposite in2="hardAlpha" operator="arithmetic" k2="-1" k3="1"/>
<feColorMatrix type="matrix" values="0 0 0 0 0 0 0 0 0 0 0 0 0 0 0 0 0 0 0.05 0"/>
<feBlend mode="normal" in2="shape" result="effect2_innerShadow_67_562"/>
</filter>
<clipPath id="clip0_67_562">
<rect width="65" height="65" fill="white" transform="translate(182 18)"/>
</clipPath>
</defs>
</svg>
