<svg width="144" height="31" viewBox="0 0 144 31" fill="none" xmlns="http://www.w3.org/2000/svg">
<rect width="144" height="31" rx="5" fill="#FF5757" fill-opacity="0.1"/>
<path d="M40.4932 21.1978C39.5312 21.1978 38.6743 20.9902 37.9224 20.5752C37.1753 20.1602 36.5918 19.5718 36.1719 18.8101C35.752 18.0483 35.542 17.1743 35.542 16.188C35.542 15.2065 35.7495 14.3374 36.1646 13.5806C36.5796 12.8188 37.1606 12.2305 37.9077 11.8154C38.6597 11.4004 39.5215 11.1929 40.4932 11.1929C41.2939 11.1929 42.0264 11.3296 42.6904 11.603C43.3545 11.8765 43.9038 12.272 44.3384 12.7896C44.7729 13.3022 45.0513 13.8979 45.1733 14.5767H43.2178C43.0664 14.0591 42.7441 13.6367 42.251 13.3096C41.7578 12.9775 41.167 12.8115 40.4785 12.8115C39.8584 12.8115 39.3115 12.9507 38.8379 13.229C38.3691 13.5073 38.0078 13.9053 37.7539 14.4229C37.5 14.9355 37.373 15.5288 37.373 16.2026C37.373 16.8813 37.5024 17.4771 37.7612 17.9897C38.02 18.4976 38.3838 18.8857 38.8525 19.1543C39.3262 19.4229 39.8682 19.5571 40.4785 19.5571C41.1475 19.5571 41.731 19.396 42.229 19.0737C42.7319 18.7466 43.0615 18.3145 43.2178 17.7773H45.1733C45.061 18.4463 44.79 19.042 44.3604 19.5645C43.9307 20.082 43.3838 20.4849 42.7197 20.7729C42.0557 21.0562 41.3135 21.1978 40.4932 21.1978ZM45.9863 17.6528C45.9863 16.9741 46.1401 16.3662 46.4478 15.8291C46.7603 15.2871 47.1924 14.8647 47.7441 14.562C48.3008 14.2544 48.9331 14.1006 49.6411 14.1006C50.3491 14.1006 50.9814 14.2544 51.5381 14.562C52.0947 14.8647 52.5269 15.2871 52.8345 15.8291C53.147 16.3662 53.3032 16.9741 53.3032 17.6528C53.3032 18.3218 53.147 18.9272 52.8345 19.4692C52.5269 20.0112 52.0947 20.436 51.5381 20.7437C50.9863 21.0464 50.354 21.1978 49.6411 21.1978C48.9331 21.1978 48.3008 21.0464 47.7441 20.7437C47.1924 20.436 46.7603 20.0137 46.4478 19.4766C46.1401 18.9346 45.9863 18.3267 45.9863 17.6528ZM47.7075 17.6382C47.7075 18.2388 47.8882 18.7319 48.2495 19.1177C48.6108 19.5034 49.0747 19.6963 49.6411 19.6963C50.2222 19.6963 50.6934 19.5034 51.0547 19.1177C51.416 18.7319 51.5967 18.2388 51.5967 17.6382C51.5967 17.0376 51.416 16.5469 51.0547 16.166C50.6934 15.7803 50.2222 15.5874 49.6411 15.5874C49.0698 15.5874 48.6035 15.7803 48.2422 16.166C47.8857 16.5469 47.7075 17.0376 47.7075 17.6382ZM62.5977 14.1006C63.3203 14.1006 63.9038 14.3228 64.3481 14.7671C64.7925 15.2114 65.0146 15.8193 65.0146 16.5908V21H63.3521V16.9937C63.3521 16.5151 63.2373 16.1562 63.0078 15.917C62.7832 15.6777 62.4829 15.5581 62.1069 15.5581C61.6675 15.5581 61.3232 15.6997 61.0742 15.9829C60.8301 16.2661 60.708 16.6274 60.708 17.0669V21H59.0601V16.9937C59.0601 16.5444 58.9453 16.1929 58.7158 15.939C58.4863 15.6851 58.1714 15.5581 57.771 15.5581C57.3608 15.5581 57.0312 15.7021 56.7822 15.9902C56.5381 16.2783 56.416 16.6372 56.416 17.0669V21H54.7388V14.313H56.2695L56.3574 15.0308C56.5576 14.7427 56.8286 14.5156 57.1704 14.3496C57.5171 14.1836 57.8857 14.1006 58.2764 14.1006C58.7646 14.1006 59.2017 14.2129 59.5874 14.4375C59.9731 14.6621 60.2515 14.9697 60.4224 15.3604C60.6226 14.96 60.9106 14.6499 61.2866 14.4302C61.6626 14.2104 62.0996 14.1006 62.5977 14.1006ZM67.6514 13.002C67.3096 13.002 67.0288 12.8945 66.8091 12.6797C66.5894 12.4648 66.4795 12.1987 66.4795 11.8813C66.4795 11.5591 66.5894 11.293 66.8091 11.083C67.0288 10.873 67.3096 10.7681 67.6514 10.7681C67.9932 10.7681 68.269 10.873 68.479 11.083C68.6938 11.293 68.8013 11.5591 68.8013 11.8813C68.8013 12.189 68.6914 12.4526 68.4717 12.6724C68.252 12.8921 67.9785 13.002 67.6514 13.002ZM66.8091 14.313H68.4863V21H66.8091V14.313ZM74.0161 14.1006C74.7925 14.1006 75.4053 14.3472 75.8545 14.8403C76.3086 15.3286 76.5356 16.0024 76.5356 16.8618V21H74.8511V17.25C74.8511 16.1611 74.4067 15.6167 73.5181 15.6167C73.0396 15.6167 72.6685 15.7559 72.4048 16.0342C72.146 16.3125 72.0166 16.6885 72.0166 17.1621V21H70.354V14.313H71.7456L71.8701 15.1187C72.0801 14.811 72.3779 14.5645 72.7637 14.3789C73.1494 14.1934 73.5669 14.1006 74.0161 14.1006ZM85.0244 14.313V21C85.0244 22.001 84.7046 22.7993 84.0649 23.395C83.4253 23.9907 82.5562 24.2886 81.4575 24.2886C80.4956 24.2886 79.7021 24.0371 79.0771 23.5342C78.4521 23.0361 78.0908 22.3623 77.9932 21.5127H79.6558C79.7339 21.9326 79.9365 22.2549 80.2637 22.4795C80.5908 22.7041 80.9888 22.8164 81.4575 22.8164C82.0581 22.8164 82.522 22.6553 82.8491 22.333C83.1812 22.0156 83.3472 21.5908 83.3472 21.0586V19.8428C83.1372 20.165 82.8345 20.4189 82.439 20.6045C82.0435 20.79 81.5967 20.8828 81.0986 20.8828C80.4785 20.8828 79.9243 20.7412 79.436 20.458C78.9526 20.1699 78.5791 19.772 78.3154 19.2642C78.0518 18.7515 77.9199 18.1704 77.9199 17.521C77.9199 16.8618 78.0566 16.2734 78.3301 15.7559C78.6035 15.2334 78.9819 14.8281 79.4653 14.54C79.9536 14.2471 80.5078 14.1006 81.1279 14.1006C81.6357 14.1006 82.0898 14.1982 82.4902 14.3936C82.8906 14.5889 83.1909 14.855 83.3911 15.1919L83.4863 14.313H85.0244ZM81.4282 19.4106C81.9702 19.4106 82.4146 19.2275 82.7612 18.8613C83.1128 18.4951 83.2886 18.0337 83.2886 17.4771C83.2886 16.9253 83.1128 16.4688 82.7612 16.1074C82.4146 15.7412 81.9702 15.5581 81.4282 15.5581C80.8862 15.5581 80.4492 15.7412 80.1172 16.1074C79.79 16.4688 79.6265 16.9302 79.6265 17.4917C79.6265 18.0532 79.7925 18.5146 80.1245 18.876C80.4614 19.2324 80.896 19.4106 81.4282 19.4106ZM90.2246 14.1152C90.2246 13.5244 90.3662 13.0093 90.6494 12.5698C90.9375 12.1304 91.3403 11.791 91.8579 11.5518C92.3804 11.3125 92.981 11.1929 93.6597 11.1929C94.3286 11.1929 94.9243 11.3101 95.4468 11.5444C95.9692 11.7788 96.377 12.1108 96.6699 12.5405C96.9629 12.9702 97.1094 13.4707 97.1094 14.042H95.3003C95.2905 13.6318 95.127 13.3022 94.8096 13.0532C94.4971 12.7993 94.0845 12.6724 93.5718 12.6724C93.103 12.6724 92.7271 12.7896 92.4438 13.0239C92.1655 13.2534 92.0264 13.5513 92.0264 13.9175C92.0264 14.2788 92.1484 14.5449 92.3926 14.7158C92.6416 14.8867 92.9712 15.021 93.3813 15.1187L94.9561 15.5068C95.6738 15.6777 96.2549 15.9927 96.6992 16.4517C97.1436 16.9058 97.3657 17.4917 97.3657 18.2095C97.3657 18.8101 97.2144 19.335 96.9116 19.7842C96.6138 20.2334 96.189 20.5825 95.6372 20.8315C95.0903 21.0757 94.4531 21.1978 93.7256 21.1978C92.6465 21.1978 91.7676 20.9365 91.0889 20.4141C90.415 19.8867 90.0488 19.1714 89.9902 18.2681H91.7993C91.8188 18.7173 92.0068 19.0713 92.3633 19.3301C92.7197 19.584 93.1836 19.7109 93.7549 19.7109C94.3066 19.7109 94.7388 19.5938 95.0513 19.3594C95.3638 19.125 95.52 18.8027 95.52 18.3926C95.52 18.041 95.4102 17.7749 95.1904 17.5942C94.9707 17.4136 94.6826 17.2793 94.3262 17.1914L92.7148 16.8032C91.9238 16.6128 91.311 16.2954 90.8765 15.8511C90.4419 15.4019 90.2246 14.8232 90.2246 14.1152ZM98.3545 17.6528C98.3545 16.9741 98.5083 16.3662 98.8159 15.8291C99.1284 15.2871 99.5605 14.8647 100.112 14.562C100.669 14.2544 101.301 14.1006 102.009 14.1006C102.717 14.1006 103.35 14.2544 103.906 14.562C104.463 14.8647 104.895 15.2871 105.203 15.8291C105.515 16.3662 105.671 16.9741 105.671 17.6528C105.671 18.3218 105.515 18.9272 105.203 19.4692C104.895 20.0112 104.463 20.436 103.906 20.7437C103.354 21.0464 102.722 21.1978 102.009 21.1978C101.301 21.1978 100.669 21.0464 100.112 20.7437C99.5605 20.436 99.1284 20.0137 98.8159 19.4766C98.5083 18.9346 98.3545 18.3267 98.3545 17.6528ZM100.076 17.6382C100.076 18.2388 100.256 18.7319 100.618 19.1177C100.979 19.5034 101.443 19.6963 102.009 19.6963C102.59 19.6963 103.062 19.5034 103.423 19.1177C103.784 18.7319 103.965 18.2388 103.965 17.6382C103.965 17.0376 103.784 16.5469 103.423 16.166C103.062 15.7803 102.59 15.5874 102.009 15.5874C101.438 15.5874 100.972 15.7803 100.61 16.166C100.254 16.5469 100.076 17.0376 100.076 17.6382ZM106.748 17.6528C106.748 16.9741 106.902 16.3662 107.209 15.8291C107.522 15.2871 107.954 14.8647 108.506 14.562C109.062 14.2544 109.695 14.1006 110.403 14.1006C111.111 14.1006 111.743 14.2544 112.3 14.562C112.856 14.8647 113.289 15.2871 113.596 15.8291C113.909 16.3662 114.065 16.9741 114.065 17.6528C114.065 18.3218 113.909 18.9272 113.596 19.4692C113.289 20.0112 112.856 20.436 112.3 20.7437C111.748 21.0464 111.116 21.1978 110.403 21.1978C109.695 21.1978 109.062 21.0464 108.506 20.7437C107.954 20.436 107.522 20.0137 107.209 19.4766C106.902 18.9346 106.748 18.3267 106.748 17.6528ZM108.469 17.6382C108.469 18.2388 108.65 18.7319 109.011 19.1177C109.373 19.5034 109.836 19.6963 110.403 19.6963C110.984 19.6963 111.455 19.5034 111.816 19.1177C112.178 18.7319 112.358 18.2388 112.358 17.6382C112.358 17.0376 112.178 16.5469 111.816 16.166C111.455 15.7803 110.984 15.5874 110.403 15.5874C109.832 15.5874 109.365 15.7803 109.004 16.166C108.647 16.5469 108.469 17.0376 108.469 17.6382ZM119.163 14.1006C119.939 14.1006 120.552 14.3472 121.001 14.8403C121.455 15.3286 121.682 16.0024 121.682 16.8618V21H119.998V17.25C119.998 16.1611 119.553 15.6167 118.665 15.6167C118.186 15.6167 117.815 15.7559 117.551 16.0342C117.292 16.3125 117.163 16.6885 117.163 17.1621V21H115.5V14.313H116.892L117.017 15.1187C117.227 14.811 117.524 14.5645 117.91 14.3789C118.296 14.1934 118.713 14.1006 119.163 14.1006Z" fill="#FF5757"/>
<circle cx="24" cy="16" r="4" fill="#FF5757"/>
</svg>
