<svg width="1140" height="347" viewBox="0 0 1140 347" fill="none" xmlns="http://www.w3.org/2000/svg">
<rect opacity="0.08" width="1140" height="347" rx="20" fill="#82C708"/>
<path d="M557.079 113.056C551.837 113.056 547.156 111.948 543.036 109.731C538.942 107.515 535.748 104.373 533.453 100.305C531.158 96.2367 530.011 91.5429 530.011 86.2233C530.011 80.9819 531.145 76.3402 533.414 72.2984C535.683 68.2304 538.851 65.0882 542.919 62.8717C547.013 60.6552 551.733 59.5469 557.079 59.5469C561.512 59.5469 565.58 60.3292 569.282 61.8938C572.985 63.4584 576.023 65.701 578.396 68.6216C580.795 71.5422 582.256 74.9452 582.777 78.8306H569.791C569.191 76.3272 567.718 74.3063 565.371 72.7678C563.05 71.2032 560.234 70.4209 556.922 70.4209C552.437 70.4209 548.878 71.8681 546.244 74.7626C543.636 77.631 542.332 81.5034 542.332 86.3797C542.332 91.2821 543.662 95.1545 546.322 97.9969C549.008 100.813 552.541 102.221 556.922 102.221C560.13 102.221 562.907 101.439 565.254 99.8744C567.601 98.2837 569.113 96.2106 569.791 93.6551H582.777C582.308 97.4362 580.926 100.8 578.631 103.747C576.336 106.693 573.311 108.988 569.556 110.631C565.827 112.248 561.668 113.056 557.079 113.056ZM586.649 93.8898C586.649 90.1608 587.484 86.8361 589.153 83.9155C590.848 80.9688 593.208 78.6871 596.233 77.0704C599.284 75.4276 602.791 74.6062 606.755 74.6062C610.718 74.6062 614.199 75.4276 617.198 77.0704C620.223 78.6871 622.57 80.9688 624.239 83.9155C625.934 86.8361 626.781 90.1608 626.781 93.8898C626.781 97.5666 625.934 100.865 624.239 103.786C622.57 106.706 620.21 108.988 617.159 110.631C614.108 112.248 610.64 113.056 606.755 113.056C602.791 113.056 599.284 112.248 596.233 110.631C593.208 108.988 590.848 106.706 589.153 103.786C587.484 100.865 586.649 97.5666 586.649 93.8898ZM598.071 93.8116C598.071 96.5496 598.866 98.7922 600.457 100.539C602.074 102.26 604.173 103.121 606.755 103.121C609.31 103.121 611.383 102.26 612.974 100.539C614.591 98.7922 615.399 96.5496 615.399 93.8116C615.399 91.0996 614.604 88.8961 613.013 87.2012C611.448 85.4801 609.362 84.6196 606.755 84.6196C604.147 84.6196 602.048 85.4801 600.457 87.2012C598.866 88.8961 598.071 91.0996 598.071 93.8116ZM677.905 74.6062C681.816 74.6062 684.997 75.8578 687.449 78.3612C689.9 80.8645 691.125 84.1763 691.125 88.2964V112H679.978V90.9953C679.978 88.857 679.443 87.2012 678.374 86.0277C677.305 84.8543 675.949 84.2675 674.306 84.2675C672.272 84.2675 670.694 84.9455 669.573 86.3015C668.452 87.6314 667.891 89.3916 667.891 91.582V112H656.939V90.9953C656.939 88.9092 656.404 87.2794 655.335 86.1059C654.266 84.9325 652.819 84.3458 650.993 84.3458C649.064 84.3458 647.551 85.0238 646.456 86.3797C645.361 87.7096 644.813 89.4437 644.813 91.582V112H633.626V75.8578H643.953L644.422 79.2217C645.543 77.7875 647.004 76.6662 648.803 75.8578C650.628 75.0234 652.558 74.6062 654.592 74.6062C657.148 74.6062 659.455 75.1798 661.515 76.3272C663.575 77.4746 665.114 79.0261 666.131 80.9819C667.252 78.9479 668.83 77.3833 670.864 76.2881C672.898 75.1668 675.245 74.6062 677.905 74.6062ZM734.895 100.383C734.139 104.164 732.092 107.228 728.754 109.575C725.416 111.896 721.426 113.056 716.785 113.056C713.004 113.056 709.666 112.261 706.771 110.67C703.877 109.053 701.634 106.798 700.044 103.903C698.453 100.983 697.658 97.6188 697.658 93.8116C697.658 89.9783 698.453 86.6014 700.044 83.6808C701.634 80.7602 703.877 78.5176 706.771 76.953C709.666 75.3885 712.925 74.6062 716.55 74.6062C720.123 74.6062 723.291 75.3493 726.055 76.8357C728.845 78.3221 730.996 80.3952 732.509 83.055C734.047 85.6887 734.817 88.6875 734.817 92.0514C734.817 93.9289 734.66 95.5587 734.347 96.9408H708.688C708.792 99.079 709.575 100.787 711.035 102.065C712.521 103.343 714.438 103.981 716.785 103.981C718.558 103.981 720.083 103.655 721.361 103.004C722.639 102.326 723.512 101.452 723.982 100.383H734.895ZM723.356 89.6654C723.304 87.84 722.6 86.3928 721.244 85.3236C719.914 84.2545 718.219 83.7199 716.159 83.7199C714.073 83.7199 712.352 84.2545 710.996 85.3236C709.666 86.3928 708.949 87.84 708.844 89.6654H723.356ZM765.952 70.5773C763.866 70.5773 762.093 69.8863 760.633 68.5042C759.198 67.1222 758.481 65.4402 758.481 63.4584C758.481 61.4244 759.185 59.7295 760.593 58.3735C762.028 57.0175 763.814 56.3395 765.952 56.3395C768.09 56.3395 769.864 57.0175 771.272 58.3735C772.68 59.7295 773.384 61.4244 773.384 63.4584C773.384 65.3881 772.667 67.057 771.233 68.4651C769.798 69.8733 768.038 70.5773 765.952 70.5773ZM760.359 75.8578H771.546V129.054H760.437L760.359 75.8578ZM778.391 93.8898C778.391 90.1608 779.225 86.8361 780.894 83.9155C782.589 80.9688 784.949 78.6871 787.974 77.0704C791.025 75.4276 794.532 74.6062 798.496 74.6062C802.459 74.6062 805.941 75.4276 808.939 77.0704C811.964 78.6871 814.311 80.9688 815.98 83.9155C817.675 86.8361 818.523 90.1608 818.523 93.8898C818.523 97.5666 817.675 100.865 815.98 103.786C814.311 106.706 811.951 108.988 808.9 110.631C805.849 112.248 802.381 113.056 798.496 113.056C794.532 113.056 791.025 112.248 787.974 110.631C784.949 108.988 782.589 106.706 780.894 103.786C779.225 100.865 778.391 97.5666 778.391 93.8898ZM789.812 93.8116C789.812 96.5496 790.608 98.7922 792.198 100.539C793.815 102.26 795.914 103.121 798.496 103.121C801.051 103.121 803.124 102.26 804.715 100.539C806.332 98.7922 807.14 96.5496 807.14 93.8116C807.14 91.0996 806.345 88.8961 804.754 87.2012C803.19 85.4801 801.103 84.6196 798.496 84.6196C795.888 84.6196 793.789 85.4801 792.198 87.2012C790.608 88.8961 789.812 91.0996 789.812 93.8116ZM831.039 70.5773C828.953 70.5773 827.18 69.8863 825.72 68.5042C824.286 67.1222 823.568 65.4402 823.568 63.4584C823.568 61.4244 824.272 59.7295 825.681 58.3735C827.115 57.0175 828.901 56.3395 831.039 56.3395C833.178 56.3395 834.951 57.0175 836.359 58.3735C837.767 59.7295 838.471 61.4244 838.471 63.4584C838.471 65.3881 837.754 67.057 836.32 68.4651C834.886 69.8733 833.125 70.5773 831.039 70.5773ZM825.446 75.8578H836.633V112H825.446V75.8578ZM866.438 74.6062C870.767 74.6062 874.131 75.9621 876.53 78.6741C878.955 81.3861 880.168 85.0238 880.168 89.5872V112H868.942V92.2079C868.942 87.2533 866.908 84.776 862.84 84.776C860.701 84.776 859.085 85.4019 857.99 86.6535C856.894 87.9052 856.347 89.6524 856.347 91.8949V112H845.238V75.8578H854.508L855.251 79.8084C856.373 78.2178 857.924 76.953 859.906 76.0143C861.914 75.0755 864.091 74.6062 866.438 74.6062ZM941.695 75.8578V112H932.425L931.682 107.932C930.404 109.653 928.814 110.944 926.91 111.804C925.032 112.639 922.933 113.056 920.612 113.056C916.284 113.056 912.946 111.778 910.599 109.223C908.252 106.641 907.079 103.134 907.079 98.7009V75.8578H918.305V97.019C918.305 99.2616 918.826 100.878 919.869 101.869C920.912 102.86 922.425 103.356 924.407 103.356C926.336 103.356 927.823 102.756 928.866 101.556C929.935 100.357 930.469 98.74 930.469 96.7061V75.8578H941.695ZM964.304 113.056C959.714 113.056 955.959 111.974 953.039 109.81C950.144 107.645 948.541 104.686 948.228 100.93H959.258C959.31 102.156 959.806 103.108 960.744 103.786C961.683 104.464 962.87 104.803 964.304 104.803C965.582 104.803 966.599 104.568 967.355 104.099C968.111 103.603 968.489 102.873 968.489 101.908C968.489 101.048 968.189 100.422 967.589 100.031C967.016 99.6136 966.22 99.3007 965.203 99.0921L959.414 97.6448C952.53 96.002 949.088 92.3774 949.088 86.7709C949.088 83.1462 950.47 80.2126 953.234 77.97C956.025 75.7274 959.662 74.6062 964.147 74.6062C968.58 74.6062 972.166 75.7014 974.904 77.8918C977.668 80.0822 979.102 82.9637 979.207 86.5362H968.333C968.281 85.4671 967.85 84.6196 967.042 83.9937C966.234 83.3418 965.19 83.0159 963.913 83.0159C962.791 83.0159 961.905 83.2505 961.253 83.7199C960.627 84.1893 960.314 84.8543 960.314 85.7148C960.314 86.5753 960.575 87.1751 961.096 87.5141C961.644 87.827 962.557 88.1399 963.834 88.4528L970.562 90.0565C973.822 90.8128 976.208 92.1427 977.72 94.0463C979.259 95.9238 980.028 98.1664 980.028 100.774C980.028 104.503 978.607 107.489 975.764 109.731C972.948 111.948 969.128 113.056 964.304 113.056Z" fill="#2D3247" fill-opacity="0.05"/>
</svg>
