<svg width="319" height="237" viewBox="0 0 319 237" fill="none" xmlns="http://www.w3.org/2000/svg">
<rect x="31" width="258" height="207" rx="20" fill="#DEDEDE" fill-opacity="0.26"/>
<g opacity="0.7">
<mask id="path-2-inside-1_167_445" fill="white">
<path d="M90 73C90 62.5066 98.5066 54 109 54H210C220.493 54 229 62.5066 229 73V206H90V73Z"/>
</mask>
<path d="M90 73C90 62.5066 98.5066 54 109 54H210C220.493 54 229 62.5066 229 73V206H90V73Z" fill="#0590AD" fill-opacity="0.1"/>
<path d="M89.0252 73C89.0252 61.9682 97.9682 53.0252 109 53.0252H210C221.032 53.0252 229.975 61.9682 229.975 73H228.025C228.025 63.045 219.955 54.9748 210 54.9748H109C99.045 54.9748 90.9748 63.045 90.9748 73H89.0252ZM229 206H90H229ZM89.0252 206V73C89.0252 61.9682 97.9682 53.0252 109 53.0252V54.9748C99.045 54.9748 90.9748 63.045 90.9748 73V206H89.0252ZM210 53.0252C221.032 53.0252 229.975 61.9682 229.975 73V206H228.025V73C228.025 63.045 219.955 54.9748 210 54.9748V53.0252Z" fill="#008FAD" mask="url(#path-2-inside-1_167_445)"/>
</g>
<g filter="url(#filter0_d_167_445)">
<path d="M99 74C99 68.4772 103.477 64 109 64H210C215.523 64 220 68.4772 220 74V207H99V74Z" fill="white"/>
</g>
<mask id="mask0_167_445" style="mask-type:alpha" maskUnits="userSpaceOnUse" x="99" y="64" width="121" height="143">
<path d="M99 83.4969C99 72.729 107.729 64 118.497 64H200.503C211.271 64 220 72.729 220 83.4969V207H99V83.4969Z" fill="white"/>
</mask>
<g mask="url(#mask0_167_445)">
<g clip-path="url(#clip0_167_445)">
<rect width="118.65" height="256.917" transform="translate(100.175 65)" fill="#FAFAFA"/>
<rect x="106.503" y="99.1711" width="106.311" height="101.881" rx="2.53121" fill="white"/>
<rect x="110.142" y="104.233" width="99.0334" height="29.7417" rx="1.582" fill="#262B3E"/>
<path d="M117.636 114.546L116.685 115.503L116.822 116.061H117.186C117.437 116.061 117.629 116.105 117.762 116.192C117.898 116.28 117.967 116.407 117.967 116.574C117.967 116.726 117.914 116.845 117.807 116.933C117.705 117.02 117.57 117.064 117.403 117.064C117.198 117.064 117.019 117.024 116.868 116.944C116.719 116.861 116.577 116.741 116.44 116.585L115.837 117.161C116.008 117.366 116.218 117.533 116.469 117.662C116.723 117.787 117.031 117.85 117.391 117.85C117.612 117.85 117.811 117.817 117.989 117.753C118.168 117.688 118.318 117.597 118.439 117.479C118.565 117.362 118.66 117.223 118.724 117.064C118.793 116.904 118.827 116.73 118.827 116.54C118.827 116.354 118.796 116.196 118.736 116.067C118.675 115.934 118.595 115.824 118.496 115.737C118.398 115.646 118.284 115.575 118.155 115.526C118.026 115.477 117.893 115.441 117.756 115.418L118.764 114.455V113.795H116.07V114.546H117.636Z" fill="white"/>
<path d="M123.008 115.782C123.008 115.494 122.966 115.224 122.882 114.974C122.799 114.723 122.679 114.505 122.523 114.319C122.372 114.133 122.185 113.988 121.965 113.886C121.749 113.779 121.508 113.726 121.242 113.726C120.976 113.726 120.733 113.779 120.513 113.886C120.297 113.992 120.111 114.138 119.955 114.324C119.799 114.51 119.678 114.731 119.59 114.985C119.507 115.236 119.465 115.505 119.465 115.794C119.465 116.086 119.507 116.358 119.59 116.608C119.674 116.855 119.792 117.071 119.943 117.257C120.099 117.443 120.285 117.59 120.502 117.696C120.722 117.798 120.965 117.85 121.231 117.85C121.496 117.85 121.737 117.796 121.954 117.69C122.174 117.584 122.362 117.438 122.518 117.252C122.673 117.066 122.793 116.847 122.877 116.597C122.964 116.346 123.008 116.075 123.008 115.782ZM122.108 115.794C122.108 115.976 122.087 116.145 122.045 116.301C122.007 116.452 121.95 116.585 121.874 116.699C121.798 116.813 121.707 116.902 121.601 116.967C121.494 117.028 121.375 117.058 121.242 117.058C121.109 117.058 120.988 117.026 120.877 116.961C120.771 116.897 120.68 116.807 120.604 116.694C120.528 116.58 120.469 116.445 120.428 116.289C120.386 116.133 120.365 115.965 120.365 115.782C120.365 115.6 120.384 115.431 120.422 115.275C120.464 115.12 120.522 114.987 120.598 114.877C120.674 114.763 120.765 114.676 120.872 114.615C120.978 114.55 121.098 114.518 121.231 114.518C121.363 114.518 121.483 114.55 121.589 114.615C121.7 114.679 121.793 114.769 121.868 114.882C121.944 114.996 122.003 115.131 122.045 115.287C122.087 115.442 122.108 115.611 122.108 115.794Z" fill="white"/>
<path d="M126.649 116.659C126.649 116.42 126.592 116.23 126.479 116.09C126.368 115.946 126.211 115.82 126.006 115.714C126.162 115.619 126.285 115.503 126.376 115.367C126.467 115.23 126.513 115.053 126.513 114.837C126.513 114.685 126.479 114.543 126.41 114.41C126.346 114.273 126.251 114.155 126.125 114.057C126.004 113.958 125.856 113.88 125.681 113.823C125.51 113.766 125.321 113.738 125.112 113.738C124.899 113.738 124.707 113.766 124.536 113.823C124.366 113.88 124.218 113.958 124.092 114.057C123.971 114.155 123.876 114.273 123.808 114.41C123.743 114.543 123.711 114.685 123.711 114.837C123.711 115.053 123.756 115.23 123.847 115.367C123.938 115.503 124.062 115.619 124.218 115.714C124.005 115.813 123.844 115.938 123.733 116.09C123.627 116.238 123.574 116.435 123.574 116.682C123.574 116.857 123.612 117.016 123.688 117.161C123.768 117.301 123.876 117.423 124.013 117.525C124.149 117.624 124.311 117.702 124.497 117.759C124.686 117.812 124.891 117.838 125.112 117.838C125.332 117.838 125.535 117.812 125.721 117.759C125.911 117.705 126.074 117.629 126.211 117.531C126.348 117.428 126.454 117.305 126.53 117.161C126.61 117.012 126.649 116.845 126.649 116.659ZM125.681 114.934C125.681 115.078 125.63 115.196 125.527 115.287C125.425 115.378 125.286 115.423 125.112 115.423C124.937 115.423 124.798 115.378 124.696 115.287C124.593 115.192 124.542 115.072 124.542 114.928C124.542 114.803 124.592 114.695 124.69 114.603C124.789 114.508 124.929 114.461 125.112 114.461C125.294 114.461 125.434 114.508 125.533 114.603C125.632 114.698 125.681 114.808 125.681 114.934ZM125.801 116.614C125.801 116.758 125.74 116.878 125.619 116.973C125.497 117.068 125.328 117.115 125.112 117.115C124.895 117.115 124.726 117.068 124.605 116.973C124.483 116.878 124.423 116.758 124.423 116.614C124.423 116.454 124.487 116.333 124.616 116.249C124.745 116.162 124.91 116.118 125.112 116.118C125.313 116.118 125.478 116.162 125.607 116.249C125.736 116.333 125.801 116.454 125.801 116.614Z" fill="white"/>
<path d="M130.208 114.165C130.121 114.097 130.032 114.036 129.941 113.983C129.849 113.926 129.755 113.878 129.656 113.84C129.557 113.802 129.451 113.774 129.337 113.755C129.223 113.736 129.098 113.726 128.961 113.726C128.665 113.726 128.407 113.783 128.186 113.897C127.966 114.007 127.784 114.161 127.64 114.358C127.495 114.552 127.387 114.782 127.315 115.048C127.247 115.313 127.213 115.6 127.213 115.908C127.213 116.306 127.254 116.623 127.338 116.859C127.425 117.09 127.541 117.278 127.685 117.423C127.826 117.563 127.987 117.669 128.169 117.741C128.352 117.814 128.574 117.85 128.836 117.85C129.052 117.85 129.253 117.817 129.439 117.753C129.625 117.684 129.785 117.59 129.918 117.468C130.054 117.343 130.161 117.197 130.237 117.03C130.316 116.859 130.356 116.671 130.356 116.466C130.356 116.257 130.32 116.073 130.248 115.913C130.176 115.754 130.077 115.621 129.952 115.515C129.827 115.408 129.679 115.329 129.508 115.275C129.337 115.218 129.153 115.19 128.955 115.19C128.758 115.19 128.595 115.217 128.466 115.27C128.34 115.323 128.228 115.382 128.13 115.446C128.145 115.317 128.171 115.196 128.209 115.082C128.247 114.968 128.298 114.871 128.363 114.791C128.431 114.708 128.511 114.643 128.602 114.598C128.697 114.548 128.807 114.524 128.933 114.524C129.016 114.524 129.094 114.531 129.166 114.546C129.238 114.562 129.307 114.582 129.371 114.609C129.436 114.636 129.498 114.67 129.559 114.712C129.62 114.75 129.682 114.793 129.747 114.843L130.208 114.165ZM129.485 116.506C129.485 116.68 129.424 116.823 129.303 116.933C129.185 117.043 129.018 117.098 128.802 117.098C128.585 117.098 128.414 117.043 128.289 116.933C128.167 116.819 128.107 116.675 128.107 116.5C128.107 116.329 128.166 116.19 128.283 116.084C128.405 115.974 128.574 115.919 128.79 115.919C129.007 115.919 129.176 115.974 129.297 116.084C129.422 116.194 129.485 116.335 129.485 116.506Z" fill="white"/>
<path d="M134.542 114.991L133.904 114.723L134.542 114.455L134.303 114.045L133.75 114.467L133.841 113.783H133.374L133.465 114.467L132.913 114.045L132.674 114.455L133.312 114.723L132.674 114.991L132.913 115.401L133.465 114.979L133.374 115.663H133.841L133.75 114.979L134.303 115.401L134.542 114.991Z" fill="white"/>
<path d="M136.989 114.991L136.351 114.723L136.989 114.455L136.75 114.045L136.197 114.467L136.288 113.783H135.821L135.913 114.467L135.36 114.045L135.121 114.455L135.759 114.723L135.121 114.991L135.36 115.401L135.913 114.979L135.821 115.663H136.288L136.197 114.979L136.75 115.401L136.989 114.991Z" fill="white"/>
<path d="M139.436 114.991L138.798 114.723L139.436 114.455L139.197 114.045L138.645 114.467L138.736 113.783H138.269L138.36 114.467L137.807 114.045L137.568 114.455L138.206 114.723L137.568 114.991L137.807 115.401L138.36 114.979L138.269 115.663H138.736L138.645 114.979L139.197 115.401L139.436 114.991Z" fill="white"/>
<path d="M141.883 114.991L141.245 114.723L141.883 114.455L141.644 114.045L141.092 114.467L141.183 113.783H140.716L140.807 114.467L140.254 114.045L140.015 114.455L140.653 114.723L140.015 114.991L140.254 115.401L140.807 114.979L140.716 115.663H141.183L141.092 114.979L141.644 115.401L141.883 114.991Z" fill="white"/>
<path d="M146.038 114.991L145.4 114.723L146.038 114.455L145.799 114.045L145.246 114.467L145.337 113.783H144.87L144.962 114.467L144.409 114.045L144.17 114.455L144.808 114.723L144.17 114.991L144.409 115.401L144.962 114.979L144.87 115.663H145.337L145.246 114.979L145.799 115.401L146.038 114.991Z" fill="white"/>
<path d="M148.485 114.991L147.847 114.723L148.485 114.455L148.246 114.045L147.693 114.467L147.785 113.783H147.318L147.409 114.467L146.856 114.045L146.617 114.455L147.255 114.723L146.617 114.991L146.856 115.401L147.409 114.979L147.318 115.663H147.785L147.693 114.979L148.246 115.401L148.485 114.991Z" fill="white"/>
<path d="M150.932 114.991L150.294 114.723L150.932 114.455L150.693 114.045L150.141 114.467L150.232 113.783H149.765L149.856 114.467L149.303 114.045L149.064 114.455L149.702 114.723L149.064 114.991L149.303 115.401L149.856 114.979L149.765 115.663H150.232L150.141 114.979L150.693 115.401L150.932 114.991Z" fill="white"/>
<path d="M153.379 114.991L152.742 114.723L153.379 114.455L153.14 114.045L152.588 114.467L152.679 113.783H152.212L152.303 114.467L151.751 114.045L151.511 114.455L152.149 114.723L151.511 114.991L151.751 115.401L152.303 114.979L152.212 115.663H152.679L152.588 114.979L153.14 115.401L153.379 114.991Z" fill="white"/>
<path d="M155.763 114.552H157.637L155.854 117.781H156.845L158.633 114.455V113.795H155.763V114.552Z" fill="white"/>
<path d="M162.233 116.659C162.233 116.42 162.176 116.23 162.063 116.09C161.952 115.946 161.795 115.82 161.59 115.714C161.745 115.619 161.869 115.503 161.96 115.367C162.051 115.23 162.097 115.053 162.097 114.837C162.097 114.685 162.063 114.543 161.994 114.41C161.93 114.273 161.835 114.155 161.709 114.057C161.588 113.958 161.44 113.88 161.265 113.823C161.094 113.766 160.904 113.738 160.696 113.738C160.483 113.738 160.291 113.766 160.12 113.823C159.95 113.88 159.802 113.958 159.676 114.057C159.555 114.155 159.46 114.273 159.391 114.41C159.327 114.543 159.295 114.685 159.295 114.837C159.295 115.053 159.34 115.23 159.431 115.367C159.522 115.503 159.646 115.619 159.802 115.714C159.589 115.813 159.428 115.938 159.317 116.09C159.211 116.238 159.158 116.435 159.158 116.682C159.158 116.857 159.196 117.016 159.272 117.161C159.352 117.301 159.46 117.423 159.596 117.525C159.733 117.624 159.895 117.702 160.081 117.759C160.27 117.812 160.475 117.838 160.696 117.838C160.916 117.838 161.119 117.812 161.305 117.759C161.495 117.705 161.658 117.629 161.795 117.531C161.932 117.428 162.038 117.305 162.114 117.161C162.193 117.012 162.233 116.845 162.233 116.659ZM161.265 114.934C161.265 115.078 161.214 115.196 161.111 115.287C161.009 115.378 160.87 115.423 160.696 115.423C160.521 115.423 160.382 115.378 160.28 115.287C160.177 115.192 160.126 115.072 160.126 114.928C160.126 114.803 160.175 114.695 160.274 114.603C160.373 114.508 160.513 114.461 160.696 114.461C160.878 114.461 161.018 114.508 161.117 114.603C161.216 114.698 161.265 114.808 161.265 114.934ZM161.385 116.614C161.385 116.758 161.324 116.878 161.203 116.973C161.081 117.068 160.912 117.115 160.696 117.115C160.479 117.115 160.31 117.068 160.189 116.973C160.067 116.878 160.007 116.758 160.007 116.614C160.007 116.454 160.071 116.333 160.2 116.249C160.329 116.162 160.494 116.118 160.696 116.118C160.897 116.118 161.062 116.162 161.191 116.249C161.32 116.333 161.385 116.454 161.385 116.614Z" fill="white"/>
<path d="M165.821 116.659C165.821 116.42 165.764 116.23 165.65 116.09C165.54 115.946 165.382 115.82 165.177 115.714C165.333 115.619 165.456 115.503 165.547 115.367C165.638 115.23 165.684 115.053 165.684 114.837C165.684 114.685 165.65 114.543 165.581 114.41C165.517 114.273 165.422 114.155 165.297 114.057C165.175 113.958 165.027 113.88 164.852 113.823C164.682 113.766 164.492 113.738 164.283 113.738C164.07 113.738 163.879 113.766 163.708 113.823C163.537 113.88 163.389 113.958 163.264 114.057C163.142 114.155 163.047 114.273 162.979 114.41C162.914 114.543 162.882 114.685 162.882 114.837C162.882 115.053 162.928 115.23 163.019 115.367C163.11 115.503 163.233 115.619 163.389 115.714C163.176 115.813 163.015 115.938 162.905 116.09C162.798 116.238 162.745 116.435 162.745 116.682C162.745 116.857 162.783 117.016 162.859 117.161C162.939 117.301 163.047 117.423 163.184 117.525C163.32 117.624 163.482 117.702 163.668 117.759C163.858 117.812 164.063 117.838 164.283 117.838C164.503 117.838 164.706 117.812 164.892 117.759C165.082 117.705 165.245 117.629 165.382 117.531C165.519 117.428 165.625 117.305 165.701 117.161C165.781 117.012 165.821 116.845 165.821 116.659ZM164.852 114.934C164.852 115.078 164.801 115.196 164.699 115.287C164.596 115.378 164.458 115.423 164.283 115.423C164.108 115.423 163.97 115.378 163.867 115.287C163.765 115.192 163.713 115.072 163.713 114.928C163.713 114.803 163.763 114.695 163.862 114.603C163.96 114.508 164.101 114.461 164.283 114.461C164.465 114.461 164.606 114.508 164.704 114.603C164.803 114.698 164.852 114.808 164.852 114.934ZM164.972 116.614C164.972 116.758 164.911 116.878 164.79 116.973C164.668 117.068 164.499 117.115 164.283 117.115C164.067 117.115 163.898 117.068 163.776 116.973C163.655 116.878 163.594 116.758 163.594 116.614C163.594 116.454 163.658 116.333 163.787 116.249C163.917 116.162 164.082 116.118 164.283 116.118C164.484 116.118 164.649 116.162 164.778 116.249C164.908 116.333 164.972 116.454 164.972 116.614Z" fill="white"/>
<path d="M169.408 116.659C169.408 116.42 169.351 116.23 169.237 116.09C169.127 115.946 168.969 115.82 168.764 115.714C168.92 115.619 169.044 115.503 169.135 115.367C169.226 115.23 169.271 115.053 169.271 114.837C169.271 114.685 169.237 114.543 169.169 114.41C169.104 114.273 169.009 114.155 168.884 114.057C168.763 113.958 168.614 113.88 168.44 113.823C168.269 113.766 168.079 113.738 167.87 113.738C167.658 113.738 167.466 113.766 167.295 113.823C167.124 113.88 166.976 113.958 166.851 114.057C166.729 114.155 166.634 114.273 166.566 114.41C166.502 114.543 166.469 114.685 166.469 114.837C166.469 115.053 166.515 115.23 166.606 115.367C166.697 115.503 166.82 115.619 166.976 115.714C166.764 115.813 166.602 115.938 166.492 116.09C166.386 116.238 166.333 116.435 166.333 116.682C166.333 116.857 166.371 117.016 166.446 117.161C166.526 117.301 166.634 117.423 166.771 117.525C166.908 117.624 167.069 117.702 167.255 117.759C167.445 117.812 167.65 117.838 167.87 117.838C168.091 117.838 168.294 117.812 168.48 117.759C168.67 117.705 168.833 117.629 168.969 117.531C169.106 117.428 169.212 117.305 169.288 117.161C169.368 117.012 169.408 116.845 169.408 116.659ZM168.44 114.934C168.44 115.078 168.389 115.196 168.286 115.287C168.184 115.378 168.045 115.423 167.87 115.423C167.696 115.423 167.557 115.378 167.455 115.287C167.352 115.192 167.301 115.072 167.301 114.928C167.301 114.803 167.35 114.695 167.449 114.603C167.548 114.508 167.688 114.461 167.87 114.461C168.053 114.461 168.193 114.508 168.292 114.603C168.39 114.698 168.44 114.808 168.44 114.934ZM168.559 116.614C168.559 116.758 168.499 116.878 168.377 116.973C168.256 117.068 168.087 117.115 167.87 117.115C167.654 117.115 167.485 117.068 167.363 116.973C167.242 116.878 167.181 116.758 167.181 116.614C167.181 116.454 167.246 116.333 167.375 116.249C167.504 116.162 167.669 116.118 167.87 116.118C168.072 116.118 168.237 116.162 168.366 116.249C168.495 116.333 168.559 116.454 168.559 116.614Z" fill="white"/>
<path d="M117.329 123.486L116.227 120.815H115.837L117.17 123.938H117.48L118.813 120.815H118.437L117.329 123.486Z" fill="white" fill-opacity="0.7"/>
<path d="M119.679 121.125V120.749H119.289V121.125H119.679ZM119.653 123.916V121.626H119.312V123.916H119.653Z" fill="white" fill-opacity="0.7"/>
<path d="M122.017 123.273V123.265C122.017 123.161 121.995 123.074 121.95 123.003C121.909 122.932 121.853 122.872 121.782 122.822C121.711 122.771 121.631 122.73 121.543 122.698C121.457 122.665 121.37 122.636 121.281 122.609C121.205 122.585 121.131 122.562 121.06 122.538C120.989 122.514 120.926 122.488 120.869 122.458C120.816 122.429 120.773 122.395 120.741 122.356C120.709 122.315 120.692 122.268 120.692 122.215V122.206C120.692 122.111 120.732 122.033 120.812 121.971C120.892 121.906 120.999 121.874 121.135 121.874C121.247 121.874 121.361 121.894 121.476 121.936C121.594 121.974 121.707 122.027 121.813 122.095L121.968 121.838C121.85 121.761 121.718 121.701 121.574 121.657C121.429 121.609 121.286 121.586 121.144 121.586C121.032 121.586 120.927 121.602 120.83 121.634C120.735 121.664 120.652 121.708 120.582 121.767C120.514 121.823 120.46 121.893 120.422 121.976C120.384 122.055 120.364 122.144 120.364 122.241V122.25C120.364 122.356 120.387 122.445 120.431 122.516C120.478 122.587 120.537 122.646 120.608 122.693C120.682 122.74 120.763 122.78 120.852 122.813C120.943 122.842 121.033 122.87 121.122 122.897C121.196 122.918 121.267 122.94 121.335 122.963C121.405 122.987 121.467 123.015 121.521 123.047C121.574 123.077 121.615 123.112 121.645 123.154C121.677 123.195 121.693 123.244 121.693 123.3V123.309C121.693 123.421 121.649 123.51 121.56 123.575C121.472 123.64 121.358 123.672 121.219 123.672C121.084 123.672 120.948 123.647 120.812 123.597C120.679 123.547 120.551 123.474 120.427 123.38L120.254 123.623C120.384 123.727 120.533 123.809 120.701 123.871C120.869 123.93 121.036 123.96 121.202 123.96C121.317 123.96 121.423 123.945 121.521 123.916C121.621 123.883 121.707 123.837 121.778 123.778C121.851 123.719 121.909 123.648 121.95 123.566C121.995 123.48 122.017 123.383 122.017 123.273Z" fill="white" fill-opacity="0.7"/>
<path d="M123.479 121.896C123.694 121.896 123.861 121.949 123.979 122.055C124.1 122.159 124.161 122.314 124.161 122.52V122.6C124.058 122.571 123.951 122.547 123.842 122.529C123.733 122.512 123.604 122.503 123.457 122.503C123.312 122.503 123.179 122.519 123.058 122.551C122.94 122.584 122.836 122.631 122.748 122.693C122.662 122.755 122.596 122.833 122.548 122.928C122.501 123.019 122.478 123.126 122.478 123.247C122.478 123.368 122.501 123.473 122.548 123.561C122.599 123.65 122.664 123.725 122.743 123.787C122.826 123.846 122.918 123.891 123.018 123.92C123.121 123.95 123.226 123.964 123.333 123.964C123.536 123.964 123.705 123.925 123.838 123.845C123.973 123.765 124.081 123.674 124.161 123.57V123.916H124.489V122.516C124.489 122.212 124.405 121.983 124.236 121.829C124.068 121.673 123.827 121.595 123.514 121.595C123.346 121.595 123.197 121.612 123.067 121.648C122.937 121.68 122.808 121.726 122.681 121.785L122.783 122.064C122.89 122.014 122.997 121.974 123.107 121.945C123.219 121.912 123.343 121.896 123.479 121.896ZM123.492 122.755C123.634 122.755 123.759 122.765 123.869 122.786C123.981 122.807 124.08 122.829 124.165 122.853V123.074C124.165 123.166 124.145 123.25 124.103 123.327C124.065 123.4 124.01 123.465 123.939 123.521C123.871 123.575 123.79 123.617 123.696 123.65C123.604 123.679 123.505 123.694 123.399 123.694C123.322 123.694 123.248 123.684 123.177 123.663C123.11 123.643 123.049 123.613 122.996 123.575C122.943 123.533 122.9 123.485 122.867 123.428C122.838 123.372 122.823 123.307 122.823 123.234C122.823 123.086 122.881 122.969 122.996 122.884C123.111 122.798 123.276 122.755 123.492 122.755Z" fill="white" fill-opacity="0.7"/>
<path d="M128.882 123.3L126.929 120.815H126.601V123.916H126.942V121.373L128.944 123.916H129.223V120.815H128.882V123.3Z" fill="white" fill-opacity="0.7"/>
<path d="M132.289 122.768C132.289 122.606 132.259 122.452 132.2 122.308C132.141 122.163 132.059 122.038 131.952 121.931C131.846 121.822 131.719 121.736 131.571 121.674C131.427 121.609 131.269 121.577 131.097 121.577C130.923 121.577 130.762 121.609 130.615 121.674C130.47 121.736 130.344 121.822 130.238 121.931C130.132 122.04 130.049 122.169 129.99 122.317C129.931 122.461 129.901 122.615 129.901 122.777C129.901 122.94 129.931 123.093 129.99 123.238C130.049 123.383 130.132 123.51 130.238 123.619C130.344 123.725 130.47 123.811 130.615 123.876C130.759 123.938 130.917 123.969 131.089 123.969C131.26 123.969 131.419 123.938 131.567 123.876C131.715 123.811 131.842 123.724 131.948 123.614C132.054 123.505 132.137 123.378 132.196 123.234C132.258 123.086 132.289 122.931 132.289 122.768ZM131.939 122.777C131.939 122.901 131.918 123.018 131.877 123.127C131.836 123.234 131.778 123.327 131.704 123.406C131.63 123.486 131.542 123.55 131.438 123.597C131.335 123.641 131.221 123.663 131.097 123.663C130.976 123.663 130.864 123.64 130.761 123.592C130.657 123.545 130.567 123.482 130.491 123.402C130.417 123.322 130.358 123.228 130.313 123.118C130.272 123.009 130.251 122.892 130.251 122.768C130.251 122.644 130.272 122.529 130.313 122.423C130.355 122.314 130.411 122.219 130.482 122.139C130.556 122.057 130.644 121.993 130.747 121.949C130.851 121.902 130.965 121.878 131.089 121.878C131.21 121.878 131.322 121.902 131.425 121.949C131.529 121.996 131.619 122.061 131.695 122.144C131.772 122.224 131.831 122.318 131.873 122.427C131.917 122.537 131.939 122.653 131.939 122.777Z" fill="white" fill-opacity="0.7"/>
<path d="M133.694 123.526L132.923 121.626H132.547L133.539 123.933H133.84L134.837 121.626H134.469L133.694 123.526Z" fill="white" fill-opacity="0.7"/>
<path d="M136.642 120.381L134.587 124.483H134.902L136.957 120.381H136.642Z" fill="white" fill-opacity="0.7"/>
<path d="M138.203 121.085C138.286 121.085 138.365 121.1 138.442 121.129C138.519 121.156 138.585 121.196 138.641 121.249C138.698 121.299 138.742 121.361 138.774 121.435C138.81 121.506 138.827 121.587 138.827 121.679C138.827 121.756 138.816 121.831 138.792 121.905C138.771 121.976 138.734 122.049 138.681 122.126C138.631 122.2 138.565 122.28 138.482 122.365C138.399 122.451 138.299 122.547 138.181 122.653L137.056 123.645V123.916H139.222V123.597H137.578L138.407 122.861C138.543 122.743 138.659 122.636 138.757 122.538C138.854 122.438 138.935 122.342 139 122.25C139.065 122.156 139.112 122.061 139.142 121.967C139.174 121.872 139.191 121.767 139.191 121.652C139.191 121.525 139.167 121.409 139.12 121.302C139.073 121.193 139.006 121.1 138.921 121.023C138.835 120.943 138.733 120.881 138.615 120.837C138.5 120.793 138.371 120.771 138.229 120.771C138.094 120.771 137.971 120.785 137.862 120.815C137.756 120.844 137.658 120.887 137.569 120.943C137.484 121 137.404 121.069 137.33 121.152C137.256 121.234 137.184 121.327 137.113 121.431L137.37 121.617C137.494 121.442 137.62 121.311 137.747 121.222C137.874 121.131 138.026 121.085 138.203 121.085Z" fill="white" fill-opacity="0.7"/>
<path d="M142.387 122.361C142.387 122.142 142.356 121.937 142.294 121.745C142.235 121.55 142.148 121.38 142.033 121.236C141.921 121.088 141.783 120.973 141.621 120.89C141.461 120.805 141.283 120.762 141.085 120.762C140.884 120.762 140.703 120.805 140.54 120.89C140.378 120.976 140.239 121.093 140.124 121.24C140.012 121.385 139.924 121.555 139.862 121.75C139.8 121.945 139.769 122.151 139.769 122.37C139.769 122.588 139.799 122.795 139.858 122.99C139.92 123.182 140.007 123.352 140.119 123.499C140.234 123.644 140.372 123.759 140.531 123.845C140.694 123.928 140.875 123.969 141.076 123.969C141.274 123.969 141.454 123.926 141.617 123.84C141.779 123.755 141.916 123.64 142.028 123.495C142.144 123.347 142.232 123.176 142.294 122.981C142.356 122.786 142.387 122.579 142.387 122.361ZM142.024 122.37C142.024 122.541 142.002 122.705 141.958 122.861C141.916 123.015 141.854 123.151 141.772 123.269C141.692 123.384 141.593 123.477 141.475 123.548C141.36 123.616 141.23 123.65 141.085 123.65C140.94 123.65 140.809 123.616 140.691 123.548C140.573 123.477 140.472 123.383 140.39 123.265C140.307 123.146 140.243 123.009 140.199 122.853C140.155 122.696 140.133 122.532 140.133 122.361C140.133 122.19 140.155 122.027 140.199 121.874C140.243 121.717 140.305 121.581 140.385 121.466C140.468 121.348 140.567 121.255 140.682 121.187C140.8 121.116 140.931 121.081 141.076 121.081C141.221 121.081 141.351 121.116 141.466 121.187C141.584 121.258 141.684 121.352 141.767 121.471C141.85 121.589 141.913 121.726 141.958 121.882C142.002 122.036 142.024 122.198 142.024 122.37Z" fill="white" fill-opacity="0.7"/>
<path d="M143.978 121.085C144.061 121.085 144.14 121.1 144.217 121.129C144.294 121.156 144.36 121.196 144.416 121.249C144.472 121.299 144.517 121.361 144.549 121.435C144.585 121.506 144.602 121.587 144.602 121.679C144.602 121.756 144.591 121.831 144.567 121.905C144.546 121.976 144.509 122.049 144.456 122.126C144.406 122.2 144.34 122.28 144.257 122.365C144.174 122.451 144.074 122.547 143.956 122.653L142.831 123.645V123.916H144.997V123.597H143.353L144.182 122.861C144.317 122.743 144.434 122.636 144.532 122.538C144.629 122.438 144.71 122.342 144.775 122.25C144.84 122.156 144.887 122.061 144.917 121.967C144.949 121.872 144.966 121.767 144.966 121.652C144.966 121.525 144.942 121.409 144.895 121.302C144.848 121.193 144.781 121.1 144.695 121.023C144.61 120.943 144.508 120.881 144.39 120.837C144.275 120.793 144.146 120.771 144.004 120.771C143.869 120.771 143.746 120.785 143.637 120.815C143.53 120.844 143.433 120.887 143.344 120.943C143.259 121 143.179 121.069 143.105 121.152C143.031 121.234 142.959 121.327 142.888 121.431L143.145 121.617C143.269 121.442 143.395 121.311 143.522 121.222C143.649 121.131 143.801 121.085 143.978 121.085Z" fill="white" fill-opacity="0.7"/>
<path d="M145.394 121.054L145.478 121.338L146.063 121.156V123.916H146.408V120.793H146.151L145.394 121.054Z" fill="white" fill-opacity="0.7"/>
<rect x="110.142" y="141.569" width="99.0334" height="29.7417" rx="1.582" fill="#262B3E"/>
<path d="M117.636 151.876L116.685 152.833L116.822 153.391H117.186C117.437 153.391 117.629 153.435 117.762 153.522C117.898 153.609 117.967 153.737 117.967 153.904C117.967 154.055 117.914 154.175 117.807 154.262C117.705 154.35 117.57 154.393 117.403 154.393C117.198 154.393 117.019 154.354 116.868 154.274C116.719 154.19 116.577 154.071 116.44 153.915L115.837 154.49C116.008 154.695 116.218 154.862 116.469 154.991C116.723 155.117 117.031 155.179 117.391 155.179C117.612 155.179 117.811 155.147 117.989 155.083C118.168 155.018 118.318 154.927 118.439 154.809C118.565 154.691 118.66 154.553 118.724 154.393C118.793 154.234 118.827 154.059 118.827 153.869C118.827 153.683 118.796 153.526 118.736 153.397C118.675 153.264 118.595 153.154 118.496 153.066C118.398 152.975 118.284 152.905 118.155 152.856C118.026 152.806 117.893 152.77 117.756 152.747L118.764 151.785V151.124H116.07V151.876H117.636Z" fill="white"/>
<path d="M120.917 151.853C121.077 151.853 121.206 151.897 121.305 151.984C121.403 152.072 121.453 152.201 121.453 152.372C121.453 152.455 121.439 152.533 121.413 152.605C121.39 152.673 121.35 152.746 121.293 152.822C121.24 152.894 121.17 152.971 121.083 153.055C120.995 153.135 120.889 153.226 120.764 153.328L119.437 154.416V155.111H122.387V154.354H120.65L121.299 153.852C121.474 153.716 121.627 153.59 121.76 153.476C121.893 153.359 122.001 153.241 122.085 153.123C122.172 153.006 122.237 152.882 122.279 152.753C122.324 152.62 122.347 152.47 122.347 152.303C122.347 152.117 122.315 151.948 122.25 151.796C122.189 151.644 122.098 151.515 121.977 151.409C121.859 151.299 121.715 151.215 121.544 151.159C121.377 151.098 121.187 151.067 120.974 151.067C120.796 151.067 120.636 151.086 120.496 151.124C120.355 151.159 120.226 151.212 120.109 151.284C119.995 151.352 119.887 151.438 119.784 151.54C119.685 151.643 119.587 151.76 119.488 151.893L120.103 152.389C120.251 152.206 120.384 152.072 120.502 151.984C120.623 151.897 120.762 151.853 120.917 151.853Z" fill="white"/>
<path d="M124.722 151.876L123.771 152.833L123.908 153.391H124.272C124.523 153.391 124.714 153.435 124.847 153.522C124.984 153.609 125.052 153.737 125.052 153.904C125.052 154.055 124.999 154.175 124.893 154.262C124.79 154.35 124.656 154.393 124.489 154.393C124.284 154.393 124.105 154.354 123.953 154.274C123.805 154.19 123.663 154.071 123.526 153.915L122.922 154.49C123.093 154.695 123.304 154.862 123.555 154.991C123.809 155.117 124.116 155.179 124.477 155.179C124.697 155.179 124.897 155.147 125.075 155.083C125.254 155.018 125.404 154.927 125.525 154.809C125.65 154.691 125.745 154.553 125.81 154.393C125.878 154.234 125.912 154.059 125.912 153.869C125.912 153.683 125.882 153.526 125.821 153.397C125.76 153.264 125.681 153.154 125.582 153.066C125.483 152.975 125.369 152.905 125.24 152.856C125.111 152.806 124.978 152.77 124.842 152.747L125.85 151.785V151.124H123.156V151.876H124.722Z" fill="white"/>
<path d="M128.259 151.876L127.308 152.833L127.445 153.391H127.809C128.06 153.391 128.252 153.435 128.385 153.522C128.521 153.609 128.59 153.737 128.59 153.904C128.59 154.055 128.536 154.175 128.43 154.262C128.328 154.35 128.193 154.393 128.026 154.393C127.821 154.393 127.642 154.354 127.49 154.274C127.342 154.19 127.2 154.071 127.063 153.915L126.46 154.49C126.63 154.695 126.841 154.862 127.092 154.991C127.346 155.117 127.654 155.179 128.014 155.179C128.235 155.179 128.434 155.147 128.612 155.083C128.791 155.018 128.941 154.927 129.062 154.809C129.188 154.691 129.283 154.553 129.347 154.393C129.415 154.234 129.45 154.059 129.45 153.869C129.45 153.683 129.419 153.526 129.358 153.397C129.298 153.264 129.218 153.154 129.119 153.066C129.021 152.975 128.907 152.905 128.778 152.856C128.648 152.806 128.516 152.77 128.379 152.747L129.387 151.785V151.124H126.693V151.876H128.259Z" fill="white"/>
<path d="M133.646 152.32L133.009 152.053L133.646 151.785L133.407 151.375L132.855 151.796L132.946 151.113H132.479L132.57 151.796L132.018 151.375L131.778 151.785L132.416 152.053L131.778 152.32L132.018 152.73L132.57 152.309L132.479 152.992H132.946L132.855 152.309L133.407 152.73L133.646 152.32Z" fill="white"/>
<path d="M136.094 152.32L135.456 152.053L136.094 151.785L135.854 151.375L135.302 151.796L135.393 151.113H134.926L135.017 151.796L134.465 151.375L134.226 151.785L134.863 152.053L134.226 152.32L134.465 152.73L135.017 152.309L134.926 152.992H135.393L135.302 152.309L135.854 152.73L136.094 152.32Z" fill="white"/>
<path d="M138.541 152.32L137.903 152.053L138.541 151.785L138.302 151.375L137.749 151.796L137.84 151.113H137.373L137.464 151.796L136.912 151.375L136.673 151.785L137.311 152.053L136.673 152.32L136.912 152.73L137.464 152.309L137.373 152.992H137.84L137.749 152.309L138.302 152.73L138.541 152.32Z" fill="white"/>
<path d="M140.988 152.32L140.35 152.053L140.988 151.785L140.749 151.375L140.196 151.796L140.287 151.113H139.82L139.911 151.796L139.359 151.375L139.12 151.785L139.758 152.053L139.12 152.32L139.359 152.73L139.911 152.309L139.82 152.992H140.287L140.196 152.309L140.749 152.73L140.988 152.32Z" fill="white"/>
<path d="M145.142 152.32L144.505 152.053L145.142 151.785L144.903 151.375L144.351 151.796L144.442 151.113H143.975L144.066 151.796L143.514 151.375L143.274 151.785L143.912 152.053L143.274 152.32L143.514 152.73L144.066 152.309L143.975 152.992H144.442L144.351 152.309L144.903 152.73L145.142 152.32Z" fill="white"/>
<path d="M147.59 152.32L146.952 152.053L147.59 151.785L147.35 151.375L146.798 151.796L146.889 151.113H146.422L146.513 151.796L145.961 151.375L145.722 151.785L146.359 152.053L145.722 152.32L145.961 152.73L146.513 152.309L146.422 152.992H146.889L146.798 152.309L147.35 152.73L147.59 152.32Z" fill="white"/>
<path d="M150.037 152.32L149.399 152.053L150.037 151.785L149.798 151.375L149.245 151.796L149.336 151.113H148.869L148.96 151.796L148.408 151.375L148.169 151.785L148.807 152.053L148.169 152.32L148.408 152.73L148.96 152.309L148.869 152.992H149.336L149.245 152.309L149.798 152.73L150.037 152.32Z" fill="white"/>
<path d="M152.484 152.32L151.846 152.053L152.484 151.785L152.245 151.375L151.692 151.796L151.783 151.113H151.316L151.408 151.796L150.855 151.375L150.616 151.785L151.254 152.053L150.616 152.32L150.855 152.73L151.408 152.309L151.316 152.992H151.783L151.692 152.309L152.245 152.73L152.484 152.32Z" fill="white"/>
<path d="M157.812 153.989C157.812 153.75 157.755 153.56 157.641 153.42C157.531 153.275 157.373 153.15 157.168 153.044C157.324 152.949 157.447 152.833 157.538 152.696C157.63 152.56 157.675 152.383 157.675 152.167C157.675 152.015 157.641 151.872 157.573 151.739C157.508 151.603 157.413 151.485 157.288 151.386C157.166 151.288 157.018 151.21 156.844 151.153C156.673 151.096 156.483 151.067 156.274 151.067C156.061 151.067 155.87 151.096 155.699 151.153C155.528 151.21 155.38 151.288 155.255 151.386C155.133 151.485 155.038 151.603 154.97 151.739C154.905 151.872 154.873 152.015 154.873 152.167C154.873 152.383 154.919 152.56 155.01 152.696C155.101 152.833 155.224 152.949 155.38 153.044C155.167 153.142 155.006 153.268 154.896 153.42C154.79 153.568 154.736 153.765 154.736 154.012C154.736 154.186 154.774 154.346 154.85 154.49C154.93 154.631 155.038 154.752 155.175 154.855C155.312 154.953 155.473 155.031 155.659 155.088C155.849 155.141 156.054 155.168 156.274 155.168C156.494 155.168 156.697 155.141 156.883 155.088C157.073 155.035 157.237 154.959 157.373 154.86C157.51 154.758 157.616 154.634 157.692 154.49C157.772 154.342 157.812 154.175 157.812 153.989ZM156.844 152.263C156.844 152.408 156.792 152.525 156.69 152.616C156.587 152.708 156.449 152.753 156.274 152.753C156.099 152.753 155.961 152.708 155.858 152.616C155.756 152.522 155.705 152.402 155.705 152.258C155.705 152.132 155.754 152.024 155.853 151.933C155.951 151.838 156.092 151.791 156.274 151.791C156.456 151.791 156.597 151.838 156.696 151.933C156.794 152.028 156.844 152.138 156.844 152.263ZM156.963 153.943C156.963 154.088 156.902 154.207 156.781 154.302C156.659 154.397 156.491 154.445 156.274 154.445C156.058 154.445 155.889 154.397 155.767 154.302C155.646 154.207 155.585 154.088 155.585 153.943C155.585 153.784 155.65 153.663 155.779 153.579C155.908 153.492 156.073 153.448 156.274 153.448C156.475 153.448 156.64 153.492 156.77 153.579C156.899 153.663 156.963 153.784 156.963 153.943Z" fill="white"/>
<path d="M161.399 153.989C161.399 153.75 161.342 153.56 161.228 153.42C161.118 153.275 160.961 153.15 160.756 153.044C160.911 152.949 161.035 152.833 161.126 152.696C161.217 152.56 161.262 152.383 161.262 152.167C161.262 152.015 161.228 151.872 161.16 151.739C161.095 151.603 161 151.485 160.875 151.386C160.754 151.288 160.606 151.21 160.431 151.153C160.26 151.096 160.07 151.067 159.861 151.067C159.649 151.067 159.457 151.096 159.286 151.153C159.115 151.21 158.967 151.288 158.842 151.386C158.72 151.485 158.626 151.603 158.557 151.739C158.493 151.872 158.46 152.015 158.46 152.167C158.46 152.383 158.506 152.56 158.597 152.696C158.688 152.833 158.812 152.949 158.967 153.044C158.755 153.142 158.593 153.268 158.483 153.42C158.377 153.568 158.324 153.765 158.324 154.012C158.324 154.186 158.362 154.346 158.438 154.49C158.517 154.631 158.626 154.752 158.762 154.855C158.899 154.953 159.06 155.031 159.246 155.088C159.436 155.141 159.641 155.168 159.861 155.168C160.082 155.168 160.285 155.141 160.471 155.088C160.661 155.035 160.824 154.959 160.961 154.86C161.097 154.758 161.204 154.634 161.28 154.49C161.359 154.342 161.399 154.175 161.399 153.989ZM160.431 152.263C160.431 152.408 160.38 152.525 160.277 152.616C160.175 152.708 160.036 152.753 159.861 152.753C159.687 152.753 159.548 152.708 159.446 152.616C159.343 152.522 159.292 152.402 159.292 152.258C159.292 152.132 159.341 152.024 159.44 151.933C159.539 151.838 159.679 151.791 159.861 151.791C160.044 151.791 160.184 151.838 160.283 151.933C160.382 152.028 160.431 152.138 160.431 152.263ZM160.551 153.943C160.551 154.088 160.49 154.207 160.368 154.302C160.247 154.397 160.078 154.445 159.861 154.445C159.645 154.445 159.476 154.397 159.355 154.302C159.233 154.207 159.172 154.088 159.172 153.943C159.172 153.784 159.237 153.663 159.366 153.579C159.495 153.492 159.66 153.448 159.861 153.448C160.063 153.448 160.228 153.492 160.357 153.579C160.486 153.663 160.551 153.784 160.551 153.943Z" fill="white"/>
<path d="M164.986 153.989C164.986 153.75 164.929 153.56 164.816 153.42C164.705 153.275 164.548 153.15 164.343 153.044C164.499 152.949 164.622 152.833 164.713 152.696C164.804 152.56 164.85 152.383 164.85 152.167C164.85 152.015 164.816 151.872 164.747 151.739C164.683 151.603 164.588 151.485 164.462 151.386C164.341 151.288 164.193 151.21 164.018 151.153C163.847 151.096 163.658 151.067 163.449 151.067C163.236 151.067 163.044 151.096 162.873 151.153C162.703 151.21 162.555 151.288 162.429 151.386C162.308 151.485 162.213 151.603 162.145 151.739C162.08 151.872 162.048 152.015 162.048 152.167C162.048 152.383 162.093 152.56 162.184 152.696C162.275 152.833 162.399 152.949 162.555 153.044C162.342 153.142 162.181 153.268 162.07 153.42C161.964 153.568 161.911 153.765 161.911 154.012C161.911 154.186 161.949 154.346 162.025 154.49C162.105 154.631 162.213 154.752 162.35 154.855C162.486 154.953 162.648 155.031 162.834 155.088C163.023 155.141 163.228 155.168 163.449 155.168C163.669 155.168 163.872 155.141 164.058 155.088C164.248 155.035 164.411 154.959 164.548 154.86C164.685 154.758 164.791 154.634 164.867 154.49C164.947 154.342 164.986 154.175 164.986 153.989ZM164.018 152.263C164.018 152.408 163.967 152.525 163.864 152.616C163.762 152.708 163.623 152.753 163.449 152.753C163.274 152.753 163.135 152.708 163.033 152.616C162.93 152.522 162.879 152.402 162.879 152.258C162.879 152.132 162.929 152.024 163.027 151.933C163.126 151.838 163.266 151.791 163.449 151.791C163.631 151.791 163.771 151.838 163.87 151.933C163.969 152.028 164.018 152.138 164.018 152.263ZM164.138 153.943C164.138 154.088 164.077 154.207 163.956 154.302C163.834 154.397 163.665 154.445 163.449 154.445C163.232 154.445 163.063 154.397 162.942 154.302C162.82 154.207 162.76 154.088 162.76 153.943C162.76 153.784 162.824 153.663 162.953 153.579C163.082 153.492 163.247 153.448 163.449 153.448C163.65 153.448 163.815 153.492 163.944 153.579C164.073 153.663 164.138 153.784 164.138 153.943Z" fill="white"/>
<path d="M165.755 153.089L166.261 153.425C166.356 153.383 166.459 153.349 166.569 153.323C166.683 153.292 166.803 153.277 166.928 153.277C167.144 153.277 167.315 153.325 167.44 153.42C167.569 153.514 167.634 153.649 167.634 153.824C167.634 154.006 167.573 154.145 167.452 154.24C167.334 154.335 167.173 154.382 166.968 154.382C166.789 154.382 166.624 154.344 166.472 154.268C166.32 154.192 166.168 154.086 166.017 153.949L165.487 154.581C165.681 154.767 165.897 154.914 166.136 155.02C166.375 155.126 166.656 155.179 166.979 155.179C167.207 155.179 167.414 155.147 167.6 155.083C167.79 155.018 167.949 154.927 168.078 154.809C168.211 154.688 168.314 154.541 168.386 154.371C168.458 154.2 168.494 154.008 168.494 153.795C168.494 153.568 168.458 153.374 168.386 153.214C168.314 153.051 168.215 152.918 168.09 152.816C167.964 152.713 167.816 152.637 167.645 152.588C167.478 152.539 167.296 152.514 167.099 152.514C166.989 152.514 166.894 152.522 166.814 152.537C166.734 152.548 166.654 152.563 166.575 152.582L166.62 151.893H168.317V151.124H165.869L165.755 153.089Z" fill="white"/>
<path d="M118.455 158.734V161.245H118.805V158.145H118.45L117.321 159.837L116.191 158.145H115.837V161.245H116.178V158.738L117.307 160.395H117.325L118.455 158.734Z" fill="white" fill-opacity="0.7"/>
<path d="M120.453 159.225C120.669 159.225 120.836 159.279 120.954 159.385C121.075 159.488 121.135 159.643 121.135 159.85V159.93C121.032 159.9 120.926 159.877 120.816 159.859C120.707 159.841 120.579 159.832 120.431 159.832C120.286 159.832 120.153 159.848 120.032 159.881C119.914 159.913 119.811 159.961 119.722 160.023C119.637 160.085 119.57 160.163 119.523 160.257C119.476 160.349 119.452 160.455 119.452 160.576C119.452 160.697 119.476 160.802 119.523 160.891C119.573 160.98 119.638 161.055 119.718 161.117C119.8 161.176 119.892 161.22 119.992 161.25C120.096 161.279 120.201 161.294 120.307 161.294C120.511 161.294 120.679 161.254 120.812 161.174C120.948 161.095 121.056 161.003 121.135 160.9V161.245H121.463V159.846C121.463 159.541 121.379 159.312 121.211 159.159C121.042 159.002 120.802 158.924 120.489 158.924C120.32 158.924 120.171 158.942 120.041 158.977C119.911 159.01 119.783 159.056 119.656 159.115L119.758 159.394C119.864 159.343 119.972 159.304 120.081 159.274C120.193 159.242 120.317 159.225 120.453 159.225ZM120.466 160.085C120.608 160.085 120.734 160.095 120.843 160.116C120.955 160.136 121.054 160.159 121.14 160.182V160.404C121.14 160.495 121.119 160.579 121.078 160.656C121.039 160.73 120.985 160.795 120.914 160.851C120.846 160.904 120.765 160.947 120.67 160.98C120.579 161.009 120.48 161.024 120.373 161.024C120.297 161.024 120.223 161.013 120.152 160.993C120.084 160.972 120.023 160.943 119.97 160.904C119.917 160.863 119.874 160.814 119.842 160.758C119.812 160.702 119.797 160.637 119.797 160.563C119.797 160.415 119.855 160.299 119.97 160.213C120.085 160.128 120.251 160.085 120.466 160.085Z" fill="white" fill-opacity="0.7"/>
<path d="M123.762 160.603V160.594C123.762 160.491 123.74 160.404 123.696 160.333C123.655 160.262 123.599 160.201 123.528 160.151C123.457 160.101 123.377 160.06 123.288 160.027C123.203 159.995 123.116 159.965 123.027 159.939C122.95 159.915 122.877 159.891 122.806 159.868C122.735 159.844 122.671 159.817 122.615 159.788C122.562 159.758 122.519 159.724 122.487 159.686C122.454 159.645 122.438 159.597 122.438 159.544V159.535C122.438 159.441 122.478 159.363 122.558 159.301C122.637 159.236 122.745 159.203 122.881 159.203C122.993 159.203 123.107 159.224 123.222 159.265C123.34 159.304 123.452 159.357 123.559 159.425L123.714 159.168C123.596 159.091 123.464 159.03 123.319 158.986C123.175 158.939 123.032 158.915 122.89 158.915C122.778 158.915 122.673 158.932 122.575 158.964C122.481 158.994 122.398 159.038 122.327 159.097C122.259 159.153 122.206 159.222 122.168 159.305C122.129 159.385 122.11 159.473 122.11 159.571V159.58C122.11 159.686 122.132 159.775 122.177 159.846C122.224 159.916 122.283 159.975 122.354 160.023C122.428 160.07 122.509 160.11 122.597 160.142C122.689 160.172 122.779 160.2 122.868 160.226C122.941 160.247 123.012 160.269 123.08 160.293C123.151 160.317 123.213 160.345 123.266 160.377C123.319 160.407 123.361 160.442 123.39 160.483C123.423 160.525 123.439 160.573 123.439 160.63V160.638C123.439 160.751 123.395 160.839 123.306 160.904C123.218 160.969 123.104 161.002 122.965 161.002C122.829 161.002 122.693 160.977 122.558 160.926C122.425 160.876 122.296 160.804 122.172 160.709L121.999 160.953C122.129 161.056 122.279 161.139 122.447 161.201C122.615 161.26 122.782 161.29 122.947 161.29C123.063 161.29 123.169 161.275 123.266 161.245C123.367 161.213 123.452 161.167 123.523 161.108C123.597 161.049 123.655 160.978 123.696 160.895C123.74 160.81 123.762 160.712 123.762 160.603Z" fill="white" fill-opacity="0.7"/>
<path d="M124.814 159.256H125.54V158.955H124.814V158.264H124.472V158.955H124.153V159.256H124.472V160.638C124.472 160.754 124.489 160.853 124.521 160.935C124.554 161.018 124.598 161.086 124.654 161.139C124.713 161.189 124.783 161.226 124.862 161.25C124.942 161.273 125.028 161.285 125.119 161.285C125.202 161.285 125.276 161.276 125.341 161.259C125.409 161.244 125.472 161.22 125.531 161.188V160.895C125.472 160.925 125.416 160.946 125.363 160.957C125.313 160.969 125.258 160.975 125.199 160.975C125.084 160.975 124.991 160.947 124.92 160.891C124.849 160.835 124.814 160.736 124.814 160.594V159.256Z" fill="white" fill-opacity="0.7"/>
<path d="M126.283 160.226H128.099C128.102 160.206 128.103 160.187 128.103 160.169C128.103 160.151 128.103 160.135 128.103 160.12C128.103 159.952 128.08 159.794 128.032 159.646C127.985 159.499 127.916 159.37 127.824 159.261C127.733 159.152 127.62 159.066 127.487 159.004C127.355 158.939 127.204 158.906 127.036 158.906C126.876 158.906 126.728 158.937 126.593 158.999C126.46 159.061 126.345 159.147 126.247 159.256C126.15 159.363 126.073 159.49 126.017 159.637C125.964 159.782 125.937 159.937 125.937 160.102C125.937 160.28 125.967 160.442 126.026 160.59C126.088 160.737 126.17 160.864 126.274 160.971C126.377 161.074 126.498 161.155 126.637 161.214C126.776 161.27 126.923 161.298 127.08 161.298C127.298 161.298 127.482 161.26 127.629 161.183C127.777 161.104 127.908 160.999 128.023 160.869L127.811 160.678C127.716 160.776 127.611 160.854 127.496 160.913C127.384 160.972 127.248 161.002 127.089 161.002C126.988 161.002 126.892 160.985 126.801 160.953C126.709 160.917 126.627 160.867 126.553 160.802C126.479 160.734 126.418 160.653 126.371 160.559C126.324 160.461 126.294 160.35 126.283 160.226ZM126.283 159.974C126.294 159.862 126.321 159.758 126.362 159.664C126.404 159.569 126.457 159.488 126.522 159.42C126.587 159.349 126.662 159.295 126.748 159.256C126.833 159.215 126.926 159.194 127.027 159.194C127.142 159.194 127.242 159.217 127.328 159.261C127.417 159.302 127.49 159.358 127.549 159.429C127.611 159.5 127.659 159.583 127.691 159.677C127.727 159.772 127.749 159.871 127.758 159.974H126.283Z" fill="white" fill-opacity="0.7"/>
<path d="M129.041 160.333C129.041 160.161 129.065 160.011 129.112 159.881C129.159 159.748 129.224 159.637 129.307 159.549C129.39 159.46 129.486 159.394 129.595 159.349C129.707 159.305 129.825 159.283 129.949 159.283H129.976V158.915C129.867 158.912 129.765 158.926 129.67 158.955C129.576 158.985 129.489 159.029 129.409 159.088C129.329 159.144 129.258 159.212 129.196 159.292C129.134 159.372 129.083 159.459 129.041 159.553V158.955H128.7V161.245H129.041V160.333Z" fill="white" fill-opacity="0.7"/>
<path d="M134.539 160.754L134.308 160.528C134.161 160.669 134.01 160.78 133.857 160.86C133.703 160.937 133.52 160.975 133.307 160.975C133.136 160.975 132.977 160.943 132.829 160.878C132.684 160.81 132.557 160.718 132.448 160.603C132.342 160.488 132.258 160.352 132.196 160.195C132.136 160.039 132.107 159.871 132.107 159.69C132.107 159.51 132.136 159.343 132.196 159.19C132.258 159.033 132.342 158.898 132.448 158.782C132.557 158.667 132.684 158.577 132.829 158.512C132.977 158.447 133.136 158.415 133.307 158.415C133.52 158.415 133.702 158.455 133.852 158.534C134.006 158.614 134.149 158.716 134.282 158.84L134.521 158.583C134.444 158.509 134.365 158.443 134.282 158.384C134.199 158.322 134.109 158.27 134.012 158.229C133.914 158.184 133.808 158.15 133.693 158.127C133.581 158.103 133.454 158.091 133.312 158.091C133.084 158.091 132.875 158.134 132.683 158.22C132.491 158.303 132.325 158.418 132.187 158.565C132.048 158.71 131.939 158.88 131.859 159.075C131.782 159.27 131.744 159.478 131.744 159.699C131.744 159.924 131.782 160.133 131.859 160.328C131.939 160.523 132.048 160.693 132.187 160.838C132.325 160.98 132.489 161.092 132.678 161.174C132.867 161.257 133.074 161.298 133.299 161.298C133.44 161.298 133.569 161.285 133.684 161.259C133.799 161.232 133.907 161.195 134.007 161.148C134.108 161.101 134.201 161.044 134.286 160.98C134.375 160.912 134.459 160.836 134.539 160.754Z" fill="white" fill-opacity="0.7"/>
<path d="M135.922 159.225C136.138 159.225 136.305 159.279 136.423 159.385C136.544 159.488 136.604 159.643 136.604 159.85V159.93C136.501 159.9 136.395 159.877 136.285 159.859C136.176 159.841 136.048 159.832 135.9 159.832C135.755 159.832 135.622 159.848 135.501 159.881C135.383 159.913 135.28 159.961 135.191 160.023C135.106 160.085 135.039 160.163 134.992 160.257C134.945 160.349 134.921 160.455 134.921 160.576C134.921 160.697 134.945 160.802 134.992 160.891C135.042 160.98 135.107 161.055 135.187 161.117C135.269 161.176 135.361 161.22 135.461 161.25C135.565 161.279 135.67 161.294 135.776 161.294C135.98 161.294 136.148 161.254 136.281 161.174C136.417 161.095 136.525 161.003 136.604 160.9V161.245H136.932V159.846C136.932 159.541 136.848 159.312 136.68 159.159C136.511 159.002 136.271 158.924 135.958 158.924C135.789 158.924 135.64 158.942 135.51 158.977C135.38 159.01 135.252 159.056 135.125 159.115L135.227 159.394C135.333 159.343 135.441 159.304 135.55 159.274C135.662 159.242 135.786 159.225 135.922 159.225ZM135.935 160.085C136.077 160.085 136.203 160.095 136.312 160.116C136.424 160.136 136.523 160.159 136.609 160.182V160.404C136.609 160.495 136.588 160.579 136.547 160.656C136.508 160.73 136.454 160.795 136.383 160.851C136.315 160.904 136.234 160.947 136.139 160.98C136.048 161.009 135.949 161.024 135.842 161.024C135.766 161.024 135.692 161.013 135.621 160.993C135.553 160.972 135.492 160.943 135.439 160.904C135.386 160.863 135.343 160.814 135.311 160.758C135.281 160.702 135.267 160.637 135.267 160.563C135.267 160.415 135.324 160.299 135.439 160.213C135.554 160.128 135.72 160.085 135.935 160.085Z" fill="white" fill-opacity="0.7"/>
<path d="M138 160.333C138 160.161 138.024 160.011 138.071 159.881C138.118 159.748 138.183 159.637 138.266 159.549C138.349 159.46 138.444 159.394 138.554 159.349C138.666 159.305 138.784 159.283 138.908 159.283H138.935V158.915C138.825 158.912 138.724 158.926 138.629 158.955C138.535 158.985 138.447 159.029 138.368 159.088C138.288 159.144 138.217 159.212 138.155 159.292C138.093 159.372 138.041 159.459 138 159.553V158.955H137.659V161.245H138V160.333Z" fill="white" fill-opacity="0.7"/>
<path d="M141.538 161.245V158.012H141.197V159.394C141.153 159.329 141.101 159.267 141.042 159.208C140.986 159.149 140.923 159.097 140.852 159.053C140.781 159.008 140.701 158.973 140.613 158.946C140.524 158.92 140.427 158.906 140.32 158.906C140.181 158.906 140.047 158.934 139.917 158.991C139.787 159.044 139.671 159.122 139.567 159.225C139.464 159.326 139.381 159.45 139.319 159.597C139.257 159.745 139.226 159.913 139.226 160.102C139.226 160.291 139.257 160.46 139.319 160.607C139.381 160.755 139.464 160.881 139.567 160.984C139.671 161.084 139.787 161.161 139.917 161.214C140.047 161.267 140.181 161.294 140.32 161.294C140.427 161.294 140.523 161.281 140.608 161.254C140.697 161.228 140.776 161.191 140.847 161.143C140.918 161.096 140.982 161.042 141.038 160.98C141.097 160.917 141.15 160.853 141.197 160.785V161.245H141.538ZM141.211 160.098C141.211 160.231 141.187 160.353 141.14 160.466C141.095 160.575 141.033 160.668 140.954 160.745C140.877 160.822 140.788 160.882 140.688 160.926C140.59 160.968 140.489 160.988 140.382 160.988C140.273 160.988 140.17 160.968 140.072 160.926C139.975 160.885 139.889 160.826 139.815 160.749C139.741 160.669 139.682 160.575 139.638 160.466C139.597 160.356 139.576 160.234 139.576 160.098C139.576 159.959 139.597 159.835 139.638 159.726C139.682 159.614 139.74 159.521 139.811 159.447C139.885 159.37 139.97 159.312 140.068 159.274C140.165 159.233 140.27 159.212 140.382 159.212C140.489 159.212 140.59 159.234 140.688 159.279C140.788 159.32 140.877 159.379 140.954 159.456C141.033 159.532 141.095 159.626 141.14 159.735C141.187 159.844 141.211 159.965 141.211 160.098Z" fill="white" fill-opacity="0.7"/>
<path d="M146.712 159.69C146.712 159.475 146.673 159.271 146.596 159.079C146.523 158.884 146.416 158.714 146.277 158.57C146.139 158.422 145.972 158.305 145.777 158.22C145.585 158.134 145.371 158.091 145.135 158.091C144.898 158.091 144.683 158.136 144.488 158.224C144.293 158.31 144.126 158.427 143.987 158.574C143.849 158.722 143.741 158.893 143.664 159.088C143.587 159.28 143.549 159.484 143.549 159.699C143.549 159.915 143.586 160.12 143.66 160.315C143.736 160.507 143.844 160.677 143.983 160.824C144.122 160.969 144.287 161.084 144.479 161.17C144.674 161.256 144.89 161.298 145.126 161.298C145.362 161.298 145.578 161.256 145.772 161.17C145.967 161.081 146.134 160.963 146.273 160.816C146.412 160.668 146.52 160.498 146.596 160.306C146.673 160.111 146.712 159.906 146.712 159.69ZM146.348 159.699C146.348 159.877 146.317 160.043 146.255 160.2C146.196 160.353 146.114 160.488 146.007 160.603C145.901 160.718 145.772 160.81 145.622 160.878C145.474 160.943 145.312 160.975 145.135 160.975C144.957 160.975 144.794 160.941 144.643 160.873C144.495 160.805 144.367 160.714 144.258 160.599C144.148 160.483 144.063 160.348 144.001 160.191C143.942 160.035 143.912 159.868 143.912 159.69C143.912 159.513 143.942 159.348 144.001 159.194C144.063 159.038 144.147 158.902 144.253 158.787C144.359 158.672 144.486 158.582 144.634 158.517C144.785 158.449 144.949 158.415 145.126 158.415C145.303 158.415 145.465 158.449 145.613 158.517C145.764 158.585 145.894 158.676 146.003 158.791C146.112 158.906 146.196 159.042 146.255 159.199C146.317 159.355 146.348 159.522 146.348 159.699Z" fill="white" fill-opacity="0.7"/>
<path d="M149.359 160.855L149.142 160.652C149.05 160.749 148.947 160.83 148.832 160.895C148.719 160.96 148.589 160.993 148.442 160.993C148.321 160.993 148.209 160.971 148.105 160.926C148.005 160.879 147.916 160.816 147.839 160.736C147.766 160.653 147.706 160.557 147.662 160.448C147.621 160.339 147.6 160.222 147.6 160.098C147.6 159.974 147.621 159.859 147.662 159.752C147.704 159.643 147.761 159.549 147.835 159.469C147.909 159.386 147.996 159.323 148.096 159.279C148.197 159.231 148.304 159.208 148.42 159.208C148.576 159.208 148.708 159.242 148.814 159.31C148.923 159.377 149.024 159.459 149.115 159.553L149.341 159.314C149.288 159.258 149.23 159.205 149.168 159.155C149.106 159.104 149.038 159.061 148.965 159.026C148.891 158.988 148.809 158.958 148.721 158.937C148.632 158.917 148.533 158.906 148.424 158.906C148.256 158.906 148.099 158.939 147.955 159.004C147.813 159.066 147.689 159.152 147.582 159.261C147.479 159.37 147.398 159.499 147.339 159.646C147.28 159.791 147.25 159.944 147.25 160.107C147.25 160.269 147.28 160.423 147.339 160.568C147.398 160.712 147.479 160.839 147.582 160.948C147.689 161.055 147.813 161.14 147.955 161.205C148.099 161.267 148.256 161.298 148.424 161.298C148.64 161.298 148.82 161.257 148.965 161.174C149.112 161.092 149.244 160.985 149.359 160.855Z" fill="white" fill-opacity="0.7"/>
<path d="M150.383 159.256H151.11V158.955H150.383V158.264H150.042V158.955H149.723V159.256H150.042V160.638C150.042 160.754 150.058 160.853 150.091 160.935C150.123 161.018 150.168 161.086 150.224 161.139C150.283 161.189 150.352 161.226 150.432 161.25C150.512 161.273 150.597 161.285 150.689 161.285C150.772 161.285 150.845 161.276 150.91 161.259C150.978 161.244 151.042 161.22 151.101 161.188V160.895C151.042 160.925 150.986 160.946 150.933 160.957C150.882 160.969 150.828 160.975 150.769 160.975C150.653 160.975 150.56 160.947 150.49 160.891C150.419 160.835 150.383 160.736 150.383 160.594V159.256Z" fill="white" fill-opacity="0.7"/>
<path d="M153.295 157.71L151.239 161.812H151.554L153.609 157.71H153.295Z" fill="white" fill-opacity="0.7"/>
<path d="M154.855 158.415C154.938 158.415 155.018 158.43 155.094 158.459C155.171 158.486 155.238 158.525 155.294 158.579C155.35 158.629 155.394 158.691 155.427 158.765C155.462 158.836 155.48 158.917 155.48 159.008C155.48 159.085 155.468 159.16 155.444 159.234C155.424 159.305 155.387 159.379 155.334 159.456C155.283 159.53 155.217 159.609 155.134 159.695C155.052 159.781 154.951 159.877 154.833 159.983L153.708 160.975V161.245H155.874V160.926H154.231L155.059 160.191C155.195 160.073 155.312 159.965 155.409 159.868C155.506 159.767 155.588 159.671 155.653 159.58C155.718 159.485 155.765 159.391 155.794 159.296C155.827 159.202 155.843 159.097 155.843 158.982C155.843 158.855 155.819 158.738 155.772 158.632C155.725 158.523 155.659 158.43 155.573 158.353C155.487 158.273 155.385 158.211 155.267 158.167C155.152 158.122 155.024 158.1 154.882 158.1C154.746 158.1 154.623 158.115 154.514 158.145C154.408 158.174 154.31 158.217 154.222 158.273C154.136 158.329 154.056 158.399 153.983 158.481C153.909 158.564 153.836 158.657 153.766 158.76L154.023 158.946C154.147 158.772 154.272 158.641 154.399 158.552C154.526 158.461 154.678 158.415 154.855 158.415Z" fill="white" fill-opacity="0.7"/>
<path d="M159.04 159.69C159.04 159.472 159.009 159.267 158.947 159.075C158.888 158.88 158.8 158.71 158.685 158.565C158.573 158.418 158.436 158.303 158.273 158.22C158.114 158.134 157.935 158.091 157.737 158.091C157.537 158.091 157.355 158.134 157.193 158.22C157.03 158.305 156.891 158.422 156.776 158.57C156.664 158.714 156.577 158.884 156.515 159.079C156.453 159.274 156.422 159.481 156.422 159.699C156.422 159.918 156.451 160.125 156.51 160.319C156.572 160.511 156.659 160.681 156.772 160.829C156.887 160.974 157.024 161.089 157.184 161.174C157.346 161.257 157.528 161.298 157.728 161.298C157.926 161.298 158.106 161.256 158.269 161.17C158.431 161.084 158.569 160.969 158.681 160.824C158.796 160.677 158.885 160.506 158.947 160.311C159.009 160.116 159.04 159.909 159.04 159.69ZM158.676 159.699C158.676 159.871 158.654 160.035 158.61 160.191C158.569 160.345 158.507 160.48 158.424 160.599C158.344 160.714 158.245 160.807 158.127 160.878C158.012 160.946 157.882 160.98 157.737 160.98C157.593 160.98 157.461 160.946 157.343 160.878C157.225 160.807 157.125 160.712 157.042 160.594C156.959 160.476 156.896 160.339 156.851 160.182C156.807 160.026 156.785 159.862 156.785 159.69C156.785 159.519 156.807 159.357 156.851 159.203C156.896 159.047 156.958 158.911 157.037 158.796C157.12 158.678 157.219 158.585 157.334 158.517C157.452 158.446 157.584 158.41 157.728 158.41C157.873 158.41 158.003 158.446 158.118 158.517C158.236 158.588 158.337 158.682 158.42 158.8C158.502 158.918 158.566 159.056 158.61 159.212C158.654 159.366 158.676 159.528 158.676 159.699Z" fill="white" fill-opacity="0.7"/>
<path d="M160.63 158.415C160.713 158.415 160.793 158.43 160.869 158.459C160.946 158.486 161.013 158.525 161.069 158.579C161.125 158.629 161.169 158.691 161.202 158.765C161.237 158.836 161.255 158.917 161.255 159.008C161.255 159.085 161.243 159.16 161.219 159.234C161.199 159.305 161.162 159.379 161.109 159.456C161.058 159.53 160.992 159.609 160.909 159.695C160.827 159.781 160.726 159.877 160.608 159.983L159.483 160.975V161.245H161.649V160.926H160.006L160.834 160.191C160.97 160.073 161.086 159.965 161.184 159.868C161.281 159.767 161.363 159.671 161.428 159.58C161.493 159.485 161.54 159.391 161.569 159.296C161.602 159.202 161.618 159.097 161.618 158.982C161.618 158.855 161.594 158.738 161.547 158.632C161.5 158.523 161.433 158.43 161.348 158.353C161.262 158.273 161.16 158.211 161.042 158.167C160.927 158.122 160.799 158.1 160.657 158.1C160.521 158.1 160.398 158.115 160.289 158.145C160.183 158.174 160.085 158.217 159.997 158.273C159.911 158.329 159.831 158.399 159.758 158.481C159.684 158.564 159.611 158.657 159.541 158.76L159.797 158.946C159.921 158.772 160.047 158.641 160.174 158.552C160.301 158.461 160.453 158.415 160.63 158.415Z" fill="white" fill-opacity="0.7"/>
<path d="M163.822 158.459L162.843 159.562L162.914 159.77H163.114C163.371 159.77 163.579 159.822 163.738 159.925C163.901 160.029 163.982 160.178 163.982 160.373C163.982 160.464 163.964 160.548 163.929 160.625C163.893 160.699 163.844 160.762 163.782 160.816C163.723 160.869 163.653 160.91 163.57 160.94C163.487 160.966 163.399 160.98 163.304 160.98C163.112 160.98 162.942 160.94 162.795 160.86C162.65 160.78 162.517 160.666 162.396 160.519L162.144 160.745C162.271 160.91 162.43 161.044 162.622 161.148C162.814 161.248 163.04 161.298 163.3 161.298C163.444 161.298 163.579 161.276 163.703 161.232C163.83 161.185 163.939 161.12 164.031 161.037C164.125 160.954 164.199 160.855 164.252 160.74C164.308 160.625 164.336 160.498 164.336 160.359C164.336 160.218 164.308 160.094 164.252 159.987C164.196 159.881 164.121 159.792 164.026 159.721C163.935 159.651 163.827 159.596 163.703 159.558C163.579 159.519 163.449 159.494 163.313 159.482L164.287 158.401V158.145H162.307V158.459H163.822Z" fill="white" fill-opacity="0.7"/>
<rect x="110.142" y="178.904" width="99.0334" height="17.0856" rx="1.582" fill="#ECECEC"/>
<path d="M142.556 190.611C140.809 190.611 139.392 189.194 139.392 187.447C139.392 185.7 140.809 184.283 142.556 184.283C144.303 184.283 145.72 185.7 145.72 187.447C145.718 189.194 144.303 190.609 142.556 190.611ZM140.025 187.501C140.04 188.894 141.177 190.013 142.569 190.005C143.962 189.998 145.087 188.867 145.087 187.474C145.087 186.082 143.962 184.95 142.569 184.943C141.177 184.936 140.04 186.054 140.025 187.447V187.501ZM142.872 189.029H142.24V187.763H140.974V187.131H142.24V185.865H142.872V187.131H144.138V187.763H142.872V189.029Z" fill="#525566"/>
<path d="M150.625 185.914H150.297L148.884 189.037H149.243L149.61 188.218H151.298L151.661 189.037H152.038L150.625 185.914ZM151.161 187.903H149.748L150.457 186.322L151.161 187.903Z" fill="#262B3E"/>
<path d="M154.659 189.037V185.803H154.318V187.186C154.273 187.121 154.222 187.059 154.163 186.999C154.106 186.94 154.043 186.889 153.972 186.844C153.901 186.8 153.821 186.765 153.733 186.738C153.644 186.712 153.547 186.698 153.441 186.698C153.302 186.698 153.167 186.726 153.037 186.782C152.908 186.836 152.791 186.914 152.688 187.017C152.584 187.118 152.501 187.242 152.439 187.389C152.377 187.537 152.346 187.705 152.346 187.894C152.346 188.083 152.377 188.252 152.439 188.399C152.501 188.547 152.584 188.672 152.688 188.776C152.791 188.876 152.908 188.953 153.037 189.006C153.167 189.059 153.302 189.086 153.441 189.086C153.547 189.086 153.643 189.073 153.728 189.046C153.817 189.019 153.897 188.982 153.968 188.935C154.039 188.888 154.102 188.833 154.158 188.771C154.217 188.709 154.27 188.644 154.318 188.576V189.037H154.659ZM154.331 187.89C154.331 188.023 154.307 188.145 154.26 188.257C154.216 188.367 154.154 188.46 154.074 188.537C153.997 188.613 153.909 188.674 153.808 188.718C153.711 188.759 153.609 188.78 153.503 188.78C153.393 188.78 153.29 188.759 153.192 188.718C153.095 188.677 153.009 188.618 152.936 188.541C152.862 188.461 152.803 188.367 152.758 188.257C152.717 188.148 152.696 188.026 152.696 187.89C152.696 187.751 152.717 187.627 152.758 187.518C152.803 187.406 152.86 187.312 152.931 187.239C153.005 187.162 153.091 187.104 153.188 187.066C153.286 187.025 153.39 187.004 153.503 187.004C153.609 187.004 153.711 187.026 153.808 187.07C153.909 187.112 153.997 187.171 154.074 187.248C154.154 187.324 154.216 187.417 154.26 187.527C154.307 187.636 154.331 187.757 154.331 187.89Z" fill="#262B3E"/>
<path d="M157.6 189.037V185.803H157.259V187.186C157.215 187.121 157.163 187.059 157.104 186.999C157.048 186.94 156.985 186.889 156.914 186.844C156.843 186.8 156.763 186.765 156.674 186.738C156.586 186.712 156.488 186.698 156.382 186.698C156.243 186.698 156.109 186.726 155.979 186.782C155.849 186.836 155.732 186.914 155.629 187.017C155.526 187.118 155.443 187.242 155.381 187.389C155.319 187.537 155.288 187.705 155.288 187.894C155.288 188.083 155.319 188.252 155.381 188.399C155.443 188.547 155.526 188.672 155.629 188.776C155.732 188.876 155.849 188.953 155.979 189.006C156.109 189.059 156.243 189.086 156.382 189.086C156.488 189.086 156.584 189.073 156.67 189.046C156.759 189.019 156.838 188.982 156.909 188.935C156.98 188.888 157.044 188.833 157.1 188.771C157.159 188.709 157.212 188.644 157.259 188.576V189.037H157.6ZM157.272 187.89C157.272 188.023 157.249 188.145 157.202 188.257C157.157 188.367 157.095 188.46 157.016 188.537C156.939 188.613 156.85 188.674 156.75 188.718C156.652 188.759 156.55 188.78 156.444 188.78C156.335 188.78 156.231 188.759 156.134 188.718C156.037 188.677 155.951 188.618 155.877 188.541C155.803 188.461 155.744 188.367 155.7 188.257C155.659 188.148 155.638 188.026 155.638 187.89C155.638 187.751 155.659 187.627 155.7 187.518C155.744 187.406 155.802 187.312 155.873 187.239C155.947 187.162 156.032 187.104 156.13 187.066C156.227 187.025 156.332 187.004 156.444 187.004C156.55 187.004 156.652 187.026 156.75 187.07C156.85 187.112 156.939 187.171 157.016 187.248C157.095 187.324 157.157 187.417 157.202 187.527C157.249 187.636 157.272 187.757 157.272 187.89Z" fill="#262B3E"/>
<path d="M162.029 188.421L160.076 185.936H159.748V189.037H160.089V186.494L162.091 189.037H162.37V185.936H162.029V188.421Z" fill="#262B3E"/>
<path d="M163.394 188.018H165.21C165.213 187.998 165.214 187.978 165.214 187.961C165.214 187.943 165.214 187.927 165.214 187.912C165.214 187.744 165.191 187.586 165.143 187.438C165.096 187.29 165.027 187.162 164.935 187.053C164.844 186.943 164.731 186.858 164.599 186.796C164.466 186.731 164.315 186.698 164.147 186.698C163.987 186.698 163.84 186.729 163.704 186.791C163.571 186.853 163.456 186.939 163.358 187.048C163.261 187.154 163.184 187.281 163.128 187.429C163.075 187.574 163.048 187.729 163.048 187.894C163.048 188.071 163.078 188.234 163.137 188.381C163.199 188.529 163.282 188.656 163.385 188.762C163.488 188.866 163.609 188.947 163.748 189.006C163.887 189.062 164.035 189.09 164.191 189.09C164.41 189.09 164.593 189.052 164.74 188.975C164.888 188.895 165.019 188.791 165.135 188.661L164.922 188.47C164.827 188.568 164.723 188.646 164.607 188.705C164.495 188.764 164.359 188.793 164.2 188.793C164.1 188.793 164.004 188.777 163.912 188.745C163.82 188.709 163.738 188.659 163.664 188.594C163.59 188.526 163.53 188.445 163.482 188.35C163.435 188.253 163.406 188.142 163.394 188.018ZM163.394 187.766C163.406 187.654 163.432 187.55 163.473 187.456C163.515 187.361 163.568 187.28 163.633 187.212C163.698 187.141 163.773 187.087 163.859 187.048C163.944 187.007 164.038 186.986 164.138 186.986C164.253 186.986 164.353 187.008 164.439 187.053C164.528 187.094 164.602 187.15 164.661 187.221C164.723 187.292 164.77 187.375 164.802 187.469C164.838 187.563 164.86 187.662 164.869 187.766H163.394Z" fill="#262B3E"/>
<path d="M167.369 186.738H167.085L166.47 188.585L165.867 186.747H165.504L166.306 189.055H166.607L167.227 187.248L167.843 189.055H168.14L168.946 186.747H168.591L167.989 188.585L167.369 186.738Z" fill="#262B3E"/>
<path d="M173.558 188.545L173.327 188.319C173.18 188.461 173.029 188.572 172.875 188.652C172.722 188.728 172.539 188.767 172.326 188.767C172.155 188.767 171.995 188.734 171.848 188.669C171.703 188.602 171.576 188.51 171.467 188.395C171.361 188.28 171.276 188.144 171.214 187.987C171.155 187.831 171.126 187.662 171.126 187.482C171.126 187.302 171.155 187.135 171.214 186.982C171.276 186.825 171.361 186.689 171.467 186.574C171.576 186.459 171.703 186.369 171.848 186.304C171.995 186.239 172.155 186.207 172.326 186.207C172.539 186.207 172.72 186.246 172.871 186.326C173.025 186.406 173.168 186.508 173.301 186.632L173.54 186.375C173.463 186.301 173.383 186.235 173.301 186.176C173.218 186.114 173.128 186.062 173.031 186.021C172.933 185.976 172.827 185.942 172.712 185.919C172.599 185.895 172.472 185.883 172.331 185.883C172.103 185.883 171.894 185.926 171.702 186.012C171.51 186.094 171.344 186.21 171.206 186.357C171.067 186.502 170.957 186.672 170.878 186.867C170.801 187.061 170.763 187.27 170.763 187.491C170.763 187.716 170.801 187.925 170.878 188.12C170.957 188.315 171.067 188.485 171.206 188.63C171.344 188.771 171.508 188.884 171.697 188.966C171.886 189.049 172.093 189.09 172.317 189.09C172.459 189.09 172.588 189.077 172.703 189.05C172.818 189.024 172.926 188.987 173.026 188.94C173.127 188.892 173.22 188.836 173.305 188.771C173.394 188.703 173.478 188.628 173.558 188.545Z" fill="#262B3E"/>
<path d="M174.941 187.017C175.157 187.017 175.323 187.07 175.441 187.177C175.563 187.28 175.623 187.435 175.623 187.642V187.721C175.52 187.692 175.413 187.668 175.304 187.651C175.195 187.633 175.066 187.624 174.919 187.624C174.774 187.624 174.641 187.64 174.52 187.673C174.402 187.705 174.299 187.752 174.21 187.815C174.124 187.877 174.058 187.955 174.011 188.049C173.963 188.141 173.94 188.247 173.94 188.368C173.94 188.489 173.963 188.594 174.011 188.683C174.061 188.771 174.126 188.847 174.206 188.909C174.288 188.968 174.38 189.012 174.48 189.042C174.584 189.071 174.688 189.086 174.795 189.086C174.999 189.086 175.167 189.046 175.3 188.966C175.436 188.886 175.543 188.795 175.623 188.692V189.037H175.951V187.637C175.951 187.333 175.867 187.104 175.698 186.951C175.53 186.794 175.289 186.716 174.976 186.716C174.808 186.716 174.659 186.734 174.529 186.769C174.399 186.802 174.271 186.847 174.144 186.906L174.245 187.186C174.352 187.135 174.46 187.095 174.569 187.066C174.681 187.033 174.805 187.017 174.941 187.017ZM174.954 187.877C175.096 187.877 175.221 187.887 175.331 187.908C175.443 187.928 175.542 187.95 175.628 187.974V188.195C175.628 188.287 175.607 188.371 175.566 188.448C175.527 188.522 175.472 188.587 175.402 188.643C175.334 188.696 175.252 188.739 175.158 188.771C175.066 188.801 174.968 188.816 174.861 188.816C174.784 188.816 174.711 188.805 174.64 188.785C174.572 188.764 174.511 188.734 174.458 188.696C174.405 188.655 174.362 188.606 174.33 188.55C174.3 188.494 174.285 188.429 174.285 188.355C174.285 188.207 174.343 188.091 174.458 188.005C174.573 187.919 174.739 187.877 174.954 187.877Z" fill="#262B3E"/>
<path d="M177.019 188.125C177.019 187.953 177.042 187.803 177.09 187.673C177.137 187.54 177.202 187.429 177.285 187.341C177.367 187.252 177.463 187.186 177.573 187.141C177.685 187.097 177.803 187.075 177.927 187.075H177.954V186.707C177.844 186.704 177.742 186.717 177.648 186.747C177.553 186.777 177.466 186.821 177.387 186.88C177.307 186.936 177.236 187.004 177.174 187.084C177.112 187.163 177.06 187.25 177.019 187.345V186.747H176.678V189.037H177.019V188.125Z" fill="#262B3E"/>
<path d="M180.557 189.037V185.803H180.216V187.186C180.172 187.121 180.12 187.059 180.061 186.999C180.005 186.94 179.941 186.889 179.871 186.844C179.8 186.8 179.72 186.765 179.631 186.738C179.543 186.712 179.445 186.698 179.339 186.698C179.2 186.698 179.066 186.726 178.936 186.782C178.806 186.836 178.689 186.914 178.586 187.017C178.483 187.118 178.4 187.242 178.338 187.389C178.276 187.537 178.245 187.705 178.245 187.894C178.245 188.083 178.276 188.252 178.338 188.399C178.4 188.547 178.483 188.672 178.586 188.776C178.689 188.876 178.806 188.953 178.936 189.006C179.066 189.059 179.2 189.086 179.339 189.086C179.445 189.086 179.541 189.073 179.627 189.046C179.716 189.019 179.795 188.982 179.866 188.935C179.937 188.888 180.001 188.833 180.057 188.771C180.116 188.709 180.169 188.644 180.216 188.576V189.037H180.557ZM180.229 187.89C180.229 188.023 180.206 188.145 180.159 188.257C180.114 188.367 180.052 188.46 179.972 188.537C179.896 188.613 179.807 188.674 179.707 188.718C179.609 188.759 179.507 188.78 179.401 188.78C179.292 188.78 179.188 188.759 179.091 188.718C178.994 188.677 178.908 188.618 178.834 188.541C178.76 188.461 178.701 188.367 178.657 188.257C178.616 188.148 178.595 188.026 178.595 187.89C178.595 187.751 178.616 187.627 178.657 187.518C178.701 187.406 178.759 187.312 178.83 187.239C178.903 187.162 178.989 187.104 179.087 187.066C179.184 187.025 179.289 187.004 179.401 187.004C179.507 187.004 179.609 187.026 179.707 187.07C179.807 187.112 179.896 187.171 179.972 187.248C180.052 187.324 180.114 187.417 180.159 187.527C180.206 187.636 180.229 187.757 180.229 187.89Z" fill="#262B3E"/>
<rect width="118.65" height="30.6909" transform="translate(100.175 65)" fill="white"/>
<g clip-path="url(#clip1_167_445)">
<path opacity="0.36" fill-rule="evenodd" clip-rule="evenodd" d="M207.971 70.4971H212.66C213.055 70.4971 213.198 70.5382 213.343 70.6154C213.487 70.6926 213.601 70.8059 213.678 70.9503C213.755 71.0947 213.796 71.2379 213.796 71.6328V73C213.796 73.3949 213.755 73.5381 213.678 73.6825C213.601 73.8268 213.487 73.9401 213.343 74.0173C213.198 74.0946 213.055 74.1357 212.66 74.1357H207.971C207.576 74.1357 207.433 74.0946 207.288 74.0173C207.144 73.9401 207.031 73.8268 206.954 73.6825C206.876 73.5381 206.835 73.3949 206.835 73V71.6328C206.835 71.2379 206.876 71.0947 206.954 70.9503C207.031 70.8059 207.144 70.6926 207.288 70.6154C207.433 70.5382 207.576 70.4971 207.971 70.4971ZM207.971 70.8135C207.659 70.8135 207.55 70.8345 207.438 70.8944C207.348 70.9421 207.28 71.0103 207.233 71.0995C207.173 71.2115 207.152 71.3205 207.152 71.6328V73C207.152 73.3123 207.173 73.4213 207.233 73.5333C207.28 73.6225 207.348 73.6906 207.438 73.7383C207.55 73.7982 207.659 73.8193 207.971 73.8193H212.66C212.973 73.8193 213.082 73.7982 213.194 73.7383C213.283 73.6906 213.351 73.6225 213.399 73.5333C213.459 73.4213 213.48 73.3123 213.48 73V71.6328C213.48 71.3205 213.459 71.2115 213.399 71.0995C213.351 71.0103 213.283 70.9421 213.194 70.8944C213.082 70.8345 212.973 70.8135 212.66 70.8135H207.971ZM214.587 72.2974C214.587 72.6886 214.112 72.9302 214.112 72.9302V71.6646C214.112 71.6646 214.587 71.9061 214.587 72.2974Z" fill="black"/>
<rect x="207.468" y="71.1035" width="5.69521" height="2.42574" rx="0.506241" fill="black"/>
<path fill-rule="evenodd" clip-rule="evenodd" d="M202.817 71.2932C203.524 71.2933 204.204 71.5649 204.716 72.052C204.755 72.0896 204.817 72.0891 204.855 72.051L205.223 71.6787C205.243 71.6594 205.253 71.6331 205.253 71.6058C205.253 71.5785 205.242 71.5524 205.223 71.5332C203.878 70.2445 201.756 70.2445 200.411 71.5332C200.392 71.5524 200.381 71.5785 200.381 71.6058C200.38 71.6331 200.391 71.6593 200.41 71.6787L200.779 72.051C200.817 72.0892 200.879 72.0897 200.918 72.052C201.43 71.5649 202.11 71.2932 202.817 71.2932ZM202.817 72.5042C203.206 72.5042 203.58 72.6486 203.868 72.9093C203.907 72.9463 203.968 72.9455 204.006 72.9075L204.375 72.5353C204.394 72.5157 204.405 72.4893 204.405 72.4617C204.404 72.4342 204.393 72.4079 204.373 72.3888C203.496 71.5732 202.139 71.5732 201.262 72.3888C201.242 72.4079 201.231 72.4342 201.23 72.4618C201.23 72.4893 201.241 72.5158 201.26 72.5353L201.629 72.9075C201.667 72.9455 201.728 72.9463 201.767 72.9093C202.055 72.6487 202.429 72.5044 202.817 72.5042ZM203.525 73.3925C203.545 73.3732 203.556 73.3466 203.555 73.319C203.554 73.2914 203.543 73.2653 203.522 73.2467C203.115 72.9025 202.519 72.9025 202.112 73.2467C202.092 73.2652 202.08 73.2914 202.079 73.319C202.078 73.3466 202.089 73.3732 202.109 73.3925L202.746 74.0356C202.765 74.0545 202.79 74.0652 202.817 74.0652C202.844 74.0652 202.869 74.0545 202.888 74.0356L203.525 73.3925Z" fill="black"/>
<path fill-rule="evenodd" clip-rule="evenodd" d="M197.857 70.9291C197.849 70.9658 197.849 71.0099 197.849 71.0981V73.5344C197.849 73.6226 197.849 73.6667 197.857 73.7034C197.887 73.854 198.004 73.9718 198.155 74.0017C198.192 74.009 198.236 74.009 198.324 74.009C198.412 74.009 198.456 74.009 198.493 74.0017C198.644 73.9718 198.761 73.854 198.791 73.7034C198.799 73.6667 198.799 73.6226 198.799 73.5344V71.0981C198.799 71.0099 198.799 70.9658 198.791 70.9291C198.761 70.7785 198.644 70.6608 198.493 70.6308C198.456 70.6235 198.412 70.6235 198.324 70.6235C198.236 70.6235 198.192 70.6235 198.155 70.6308C198.004 70.6608 197.887 70.7785 197.857 70.9291ZM196.362 71.8575C196.362 71.7693 196.362 71.7252 196.37 71.6885C196.4 71.5379 196.517 71.4201 196.668 71.3902C196.705 71.3829 196.749 71.3829 196.837 71.3829C196.925 71.3829 196.969 71.3829 197.006 71.3902C197.157 71.4201 197.274 71.5379 197.304 71.6885C197.312 71.7252 197.312 71.7693 197.312 71.8575V73.5344C197.312 73.6226 197.312 73.6667 197.304 73.7034C197.274 73.854 197.157 73.9717 197.006 74.0017C196.969 74.009 196.925 74.009 196.837 74.009C196.749 74.009 196.705 74.009 196.668 74.0017C196.517 73.9717 196.4 73.854 196.37 73.7034C196.362 73.6667 196.362 73.6226 196.362 73.5344V71.8575ZM194.914 72.4162C194.907 72.4529 194.907 72.497 194.907 72.5852V73.5344C194.907 73.6226 194.907 73.6667 194.914 73.7034C194.944 73.854 195.062 73.9718 195.213 74.0017C195.249 74.009 195.293 74.009 195.382 74.009C195.47 74.009 195.514 74.009 195.551 74.0017C195.701 73.9718 195.819 73.854 195.849 73.7034C195.856 73.6667 195.856 73.6226 195.856 73.5344V72.5852C195.856 72.497 195.856 72.4529 195.849 72.4162C195.819 72.2656 195.701 72.1479 195.551 72.1179C195.514 72.1106 195.47 72.1106 195.382 72.1106C195.293 72.1106 195.249 72.1106 195.213 72.1179C195.062 72.1479 194.944 72.2656 194.914 72.4162ZM193.396 73.049C193.388 73.0857 193.388 73.1298 193.388 73.218V73.5344C193.388 73.6226 193.388 73.6667 193.396 73.7034C193.425 73.854 193.543 73.9718 193.694 74.0017C193.73 74.009 193.775 74.009 193.863 74.009C193.951 74.009 193.995 74.009 194.032 74.0017C194.182 73.9718 194.3 73.854 194.33 73.7034C194.337 73.6667 194.337 73.6226 194.337 73.5344V73.218C194.337 73.1298 194.337 73.0857 194.33 73.049C194.3 72.8984 194.182 72.7807 194.032 72.7507C193.995 72.7434 193.951 72.7434 193.863 72.7434C193.775 72.7434 193.73 72.7434 193.694 72.7507C193.543 72.7807 193.425 72.8984 193.396 73.049Z" fill="black"/>
</g>
<path d="M110.782 70.2048C110.057 70.2048 109.54 70.7008 109.54 71.3797V71.3844C109.54 72.0193 109.99 72.4875 110.632 72.4875C111.091 72.4875 111.383 72.2534 111.505 71.9892H111.552C111.552 72.0147 111.549 72.0402 111.549 72.0657C111.524 72.7053 111.299 73.2244 110.769 73.2244C110.474 73.2244 110.268 73.0714 110.18 72.8374L110.173 72.8142H109.584L109.589 72.8397C109.696 73.3518 110.154 73.7157 110.769 73.7157C111.61 73.7157 112.117 73.0483 112.117 71.922V71.9174C112.117 70.7123 111.496 70.2048 110.782 70.2048ZM110.78 72.0286C110.4 72.0286 110.124 71.7505 110.124 71.3635V71.3589C110.124 70.9858 110.419 70.6915 110.787 70.6915C111.158 70.6915 111.448 70.9904 111.448 71.3728V71.3774C111.448 71.7552 111.158 72.0286 110.78 72.0286Z" fill="black"/>
<path d="M113.117 71.4655C113.33 71.4655 113.486 71.3033 113.486 71.0993C113.486 70.8931 113.33 70.7332 113.117 70.7332C112.906 70.7332 112.749 70.8931 112.749 71.0993C112.749 71.3033 112.906 71.4655 113.117 71.4655ZM113.117 73.185C113.33 73.185 113.486 73.0251 113.486 72.8188C113.486 72.6126 113.33 72.4527 113.117 72.4527C112.906 72.4527 112.749 72.6126 112.749 72.8188C112.749 73.0251 112.906 73.185 113.117 73.185Z" fill="black"/>
<path d="M115.739 73.6323H116.312V72.9903H116.761V72.4967H116.312V70.2883H115.466C115.012 70.9788 114.536 71.7482 114.103 72.5014V72.9903H115.739V73.6323ZM114.659 72.5106V72.4759C114.984 71.9081 115.371 71.2894 115.714 70.7656H115.748V72.5106H114.659Z" fill="black"/>
<path d="M118.095 73.6323H118.693V70.2883H118.097L117.223 70.9024V71.4655L118.055 70.8769H118.095V73.6323Z" fill="black"/>
<path d="M146.995 89.9956V86.8949H146.259L145.444 88.206L144.629 86.8949H143.894V89.9956H144.563V87.9845L145.426 89.2957H145.444L146.317 87.9712V89.9956H146.995Z" fill="#262B3E"/>
<path d="M149.711 89.9956V88.618C149.711 88.2961 149.626 88.0451 149.458 87.8649C149.29 87.6848 149.021 87.5947 148.652 87.5947C148.451 87.5947 148.28 87.6124 148.138 87.6479C147.996 87.6833 147.861 87.7291 147.731 87.7852L147.899 88.299C148.008 88.2577 148.112 88.2267 148.209 88.206C148.309 88.1824 148.425 88.1706 148.555 88.1706C148.723 88.1706 148.85 88.2075 148.935 88.2813C149.021 88.3551 149.064 88.4629 149.064 88.6047V88.6445C148.978 88.615 148.89 88.5914 148.798 88.5737C148.71 88.556 148.605 88.5471 148.484 88.5471C148.342 88.5471 148.212 88.5633 148.094 88.5958C147.979 88.6254 147.878 88.6711 147.793 88.7331C147.71 88.7952 147.645 88.8734 147.598 88.9679C147.55 89.0624 147.527 89.1746 147.527 89.3046V89.3134C147.527 89.4315 147.548 89.5364 147.589 89.6279C147.633 89.7165 147.692 89.7918 147.766 89.8538C147.84 89.9158 147.926 89.9631 148.023 89.9956C148.123 90.0251 148.23 90.0399 148.342 90.0399C148.507 90.0399 148.648 90.0133 148.763 89.9601C148.878 89.904 148.977 89.8302 149.059 89.7387V89.9956H149.711ZM149.073 89.1584C149.073 89.2824 149.024 89.3828 148.927 89.4596C148.832 89.5364 148.705 89.5748 148.546 89.5748C148.436 89.5748 148.348 89.5497 148.28 89.4995C148.212 89.4493 148.178 89.3784 148.178 89.2868V89.278C148.178 89.1717 148.219 89.0905 148.302 89.0344C148.385 88.9782 148.498 88.9502 148.643 88.9502C148.726 88.9502 148.803 88.959 148.873 88.9768C148.947 88.9915 149.014 89.0122 149.073 89.0388V89.1584Z" fill="#262B3E"/>
<path d="M152.465 89.9956V88.4585C152.465 88.1839 152.394 87.9683 152.252 87.8118C152.114 87.6553 151.916 87.577 151.659 87.577C151.573 87.577 151.496 87.5873 151.428 87.608C151.361 87.6287 151.298 87.6567 151.242 87.6922C151.186 87.7276 151.135 87.769 151.087 87.8162C151.043 87.8605 151.002 87.9078 150.963 87.958V87.6213H150.29V89.9956H150.963V88.6711C150.963 88.5117 151 88.3921 151.074 88.3123C151.151 88.2296 151.254 88.1883 151.384 88.1883C151.514 88.1883 151.614 88.2296 151.685 88.3123C151.756 88.3921 151.792 88.5117 151.792 88.6711V89.9956H152.465Z" fill="#262B3E"/>
<path d="M155.092 89.9956V88.618C155.092 88.2961 155.008 88.0451 154.839 87.8649C154.671 87.6848 154.402 87.5947 154.033 87.5947C153.832 87.5947 153.661 87.6124 153.519 87.6479C153.378 87.6833 153.242 87.7291 153.112 87.7852L153.28 88.299C153.389 88.2577 153.493 88.2267 153.59 88.206C153.691 88.1824 153.806 88.1706 153.936 88.1706C154.104 88.1706 154.231 88.2075 154.317 88.2813C154.402 88.3551 154.445 88.4629 154.445 88.6047V88.6445C154.36 88.615 154.271 88.5914 154.179 88.5737C154.091 88.556 153.986 88.5471 153.865 88.5471C153.723 88.5471 153.593 88.5633 153.475 88.5958C153.36 88.6254 153.26 88.6711 153.174 88.7331C153.091 88.7952 153.026 88.8734 152.979 88.9679C152.932 89.0624 152.908 89.1746 152.908 89.3046V89.3134C152.908 89.4315 152.929 89.5364 152.97 89.6279C153.014 89.7165 153.073 89.7918 153.147 89.8538C153.221 89.9158 153.307 89.9631 153.404 89.9956C153.505 90.0251 153.611 90.0399 153.723 90.0399C153.889 90.0399 154.029 90.0133 154.144 89.9601C154.259 89.904 154.358 89.8302 154.441 89.7387V89.9956H155.092ZM154.454 89.1584C154.454 89.2824 154.405 89.3828 154.308 89.4596C154.213 89.5364 154.086 89.5748 153.927 89.5748C153.818 89.5748 153.729 89.5497 153.661 89.4995C153.593 89.4493 153.559 89.3784 153.559 89.2868V89.278C153.559 89.1717 153.601 89.0905 153.683 89.0344C153.766 88.9782 153.88 88.9502 154.024 88.9502C154.107 88.9502 154.184 88.959 154.255 88.9768C154.329 88.9915 154.395 89.0122 154.454 89.0388V89.1584Z" fill="#262B3E"/>
<path d="M158.059 89.4596V87.6213H157.386V87.9314C157.294 87.831 157.189 87.7468 157.071 87.6789C156.953 87.611 156.802 87.577 156.619 87.577C156.483 87.577 156.352 87.6021 156.225 87.6523C156.098 87.6996 155.986 87.7704 155.888 87.8649C155.791 87.9594 155.713 88.0761 155.654 88.2149C155.595 88.3507 155.565 88.5072 155.565 88.6844V88.6933C155.565 88.8705 155.593 89.0284 155.649 89.1672C155.708 89.3031 155.786 89.4183 155.884 89.5128C155.981 89.6072 156.094 89.6796 156.221 89.7298C156.348 89.7771 156.48 89.8007 156.619 89.8007C156.799 89.8007 156.948 89.7667 157.067 89.6988C157.185 89.6309 157.294 89.5364 157.394 89.4153V89.5305C157.394 89.7431 157.338 89.904 157.226 90.0133C157.117 90.1226 156.947 90.1772 156.717 90.1772C156.557 90.1772 156.414 90.158 156.287 90.1196C156.163 90.0812 156.039 90.0281 155.915 89.9601L155.685 90.4651C155.835 90.5448 155.999 90.6054 156.176 90.6467C156.353 90.691 156.539 90.7132 156.734 90.7132C156.956 90.7132 157.149 90.6896 157.315 90.6423C157.48 90.5951 157.617 90.5212 157.727 90.4208C157.839 90.3204 157.922 90.1905 157.975 90.031C158.031 89.8745 158.059 89.684 158.059 89.4596ZM157.394 88.6933C157.394 88.773 157.38 88.8468 157.35 88.9148C157.321 88.9827 157.279 89.0417 157.226 89.0919C157.176 89.1392 157.115 89.1761 157.044 89.2027C156.974 89.2293 156.897 89.2425 156.814 89.2425C156.649 89.2425 156.511 89.1923 156.402 89.0919C156.293 88.9915 156.238 88.8586 156.238 88.6933V88.6844C156.238 88.6047 156.253 88.5309 156.283 88.4629C156.312 88.395 156.352 88.3374 156.402 88.2902C156.455 88.24 156.516 88.2016 156.584 88.175C156.655 88.1484 156.731 88.1351 156.814 88.1351C156.897 88.1351 156.974 88.1484 157.044 88.175C157.115 88.2016 157.176 88.24 157.226 88.2902C157.279 88.3374 157.321 88.395 157.35 88.4629C157.38 88.5309 157.394 88.6047 157.394 88.6844V88.6933Z" fill="#262B3E"/>
<path d="M160.875 88.8749V88.866C160.875 88.6977 160.852 88.5368 160.804 88.3832C160.76 88.2267 160.689 88.0894 160.592 87.9712C160.497 87.8502 160.378 87.7542 160.233 87.6833C160.088 87.6124 159.917 87.577 159.719 87.577C159.545 87.577 159.385 87.6095 159.241 87.6745C159.099 87.7394 158.976 87.828 158.873 87.9402C158.77 88.0525 158.688 88.1839 158.629 88.3345C158.573 88.4851 158.545 88.6445 158.545 88.8129V88.8217C158.545 89.0048 158.576 89.1717 158.638 89.3223C158.7 89.4699 158.786 89.5984 158.895 89.7077C159.007 89.8169 159.139 89.9011 159.289 89.9601C159.443 90.0192 159.608 90.0487 159.786 90.0487C160.001 90.0487 160.189 90.0103 160.348 89.9336C160.508 89.8538 160.643 89.7446 160.756 89.6058L160.37 89.2647C160.276 89.3503 160.184 89.4123 160.096 89.4507C160.007 89.4891 159.907 89.5083 159.794 89.5083C159.644 89.5083 159.517 89.4699 159.413 89.3932C159.313 89.3134 159.247 89.1968 159.214 89.0432H160.866C160.869 89.0107 160.871 88.9827 160.871 88.959C160.874 88.9354 160.875 88.9074 160.875 88.8749ZM160.22 88.6224H159.205C159.232 88.4688 159.288 88.3463 159.374 88.2547C159.462 88.1632 159.577 88.1174 159.719 88.1174C159.861 88.1174 159.975 88.1647 160.06 88.2592C160.146 88.3507 160.199 88.4718 160.22 88.6224Z" fill="#262B3E"/>
<path d="M165.5 89.495L165.066 89.0565C164.945 89.1687 164.822 89.2573 164.698 89.3223C164.577 89.3872 164.428 89.4197 164.251 89.4197C164.118 89.4197 163.996 89.3946 163.883 89.3444C163.774 89.2913 163.68 89.2204 163.6 89.1318C163.523 89.0432 163.462 88.9399 163.418 88.8217C163.374 88.7036 163.352 88.5781 163.352 88.4452V88.4364C163.352 88.3035 163.374 88.1794 163.418 88.0643C163.462 87.9461 163.525 87.8428 163.604 87.7542C163.684 87.6656 163.778 87.5962 163.888 87.546C164 87.4958 164.121 87.4707 164.251 87.4707C164.407 87.4707 164.548 87.5017 164.672 87.5637C164.799 87.6257 164.923 87.7114 165.044 87.8206L165.478 87.3201C165.407 87.2492 165.33 87.1843 165.248 87.1252C165.165 87.0661 165.075 87.0159 164.977 86.9746C164.88 86.9332 164.771 86.9008 164.65 86.8771C164.532 86.8535 164.4 86.8417 164.255 86.8417C164.016 86.8417 163.798 86.8845 163.6 86.9702C163.402 87.0528 163.232 87.168 163.09 87.3157C162.949 87.4604 162.838 87.6302 162.758 87.8251C162.678 88.017 162.639 88.2237 162.639 88.4452V88.4541C162.639 88.6756 162.678 88.8837 162.758 89.0786C162.838 89.2736 162.949 89.4434 163.09 89.5881C163.232 89.7298 163.4 89.842 163.595 89.9247C163.79 90.0074 164.001 90.0487 164.229 90.0487C164.379 90.0487 164.515 90.0354 164.636 90.0089C164.757 89.9852 164.868 89.9498 164.969 89.9026C165.072 89.8524 165.166 89.7933 165.252 89.7254C165.338 89.6575 165.42 89.5807 165.5 89.495Z" fill="#262B3E"/>
<path d="M168.017 89.9956V88.618C168.017 88.2961 167.933 88.0451 167.765 87.8649C167.597 87.6848 167.328 87.5947 166.959 87.5947C166.758 87.5947 166.587 87.6124 166.445 87.6479C166.303 87.6833 166.167 87.7291 166.037 87.7852L166.206 88.299C166.315 88.2577 166.418 88.2267 166.516 88.206C166.616 88.1824 166.731 88.1706 166.861 88.1706C167.03 88.1706 167.157 88.2075 167.242 88.2813C167.328 88.3551 167.371 88.4629 167.371 88.6047V88.6445C167.285 88.615 167.196 88.5914 167.105 88.5737C167.016 88.556 166.911 88.5471 166.79 88.5471C166.649 88.5471 166.519 88.5633 166.401 88.5958C166.285 88.6254 166.185 88.6711 166.099 88.7331C166.017 88.7952 165.952 88.8734 165.904 88.9679C165.857 89.0624 165.834 89.1746 165.834 89.3046V89.3134C165.834 89.4315 165.854 89.5364 165.896 89.6279C165.94 89.7165 165.999 89.7918 166.073 89.8538C166.147 89.9158 166.232 89.9631 166.33 89.9956C166.43 90.0251 166.536 90.0399 166.649 90.0399C166.814 90.0399 166.954 90.0133 167.069 89.9601C167.185 89.904 167.284 89.8302 167.366 89.7387V89.9956H168.017ZM167.38 89.1584C167.38 89.2824 167.331 89.3828 167.233 89.4596C167.139 89.5364 167.012 89.5748 166.852 89.5748C166.743 89.5748 166.655 89.5497 166.587 89.4995C166.519 89.4493 166.485 89.3784 166.485 89.2868V89.278C166.485 89.1717 166.526 89.0905 166.609 89.0344C166.691 88.9782 166.805 88.9502 166.95 88.9502C167.033 88.9502 167.109 88.959 167.18 88.9768C167.254 88.9915 167.32 89.0122 167.38 89.0388V89.1584Z" fill="#262B3E"/>
<path d="M170.028 88.2813V87.577C169.827 87.5682 169.667 87.6124 169.549 87.7099C169.431 87.8074 169.338 87.9373 169.27 88.0997V87.6213H168.597V89.9956H169.27V89.1185C169.27 88.8321 169.334 88.6209 169.461 88.4851C169.59 88.3492 169.768 88.2813 169.992 88.2813H170.028Z" fill="#262B3E"/>
<path d="M172.836 89.9956V86.762H172.162V87.9314C172.083 87.8369 171.984 87.7542 171.866 87.6833C171.75 87.6124 171.603 87.577 171.423 87.577C171.281 87.577 171.145 87.6036 171.015 87.6567C170.885 87.7099 170.77 87.7896 170.67 87.8959C170.572 87.9993 170.492 88.1278 170.43 88.2813C170.371 88.4319 170.342 88.6062 170.342 88.804V88.8129C170.342 89.0107 170.371 89.1864 170.43 89.34C170.492 89.4906 170.574 89.6191 170.674 89.7254C170.775 89.8287 170.89 89.907 171.02 89.9601C171.15 90.0133 171.284 90.0399 171.423 90.0399C171.6 90.0399 171.746 90.0044 171.861 89.9336C171.979 89.8597 172.08 89.7667 172.162 89.6545V89.9956H172.836ZM172.171 88.8129C172.171 88.9103 172.155 89.0004 172.123 89.0831C172.093 89.1628 172.052 89.2322 171.999 89.2913C171.948 89.3474 171.888 89.3917 171.817 89.4242C171.749 89.4537 171.675 89.4685 171.595 89.4685C171.516 89.4685 171.44 89.4537 171.37 89.4242C171.302 89.3917 171.241 89.3474 171.188 89.2913C171.135 89.2322 171.092 89.1628 171.059 89.0831C171.03 89.0004 171.015 88.9103 171.015 88.8129V88.804C171.015 88.7036 171.03 88.6135 171.059 88.5338C171.092 88.4541 171.135 88.3862 171.188 88.33C171.241 88.271 171.302 88.2267 171.37 88.1972C171.44 88.1647 171.516 88.1484 171.595 88.1484C171.675 88.1484 171.749 88.1647 171.817 88.1972C171.888 88.2267 171.948 88.271 171.999 88.33C172.052 88.3862 172.093 88.4556 172.123 88.5382C172.155 88.618 172.171 88.7066 172.171 88.804V88.8129Z" fill="#262B3E"/>
<path d="M107.715 88.4135L108.625 87.5009C108.748 87.3776 108.748 87.1779 108.624 87.0548C108.501 86.9315 108.301 86.9315 108.178 87.0548L106.503 88.7299L108.178 90.4051C108.301 90.5284 108.501 90.5284 108.624 90.4051C108.748 90.282 108.748 90.0823 108.625 89.959L107.715 89.0463H111.249C111.424 89.0463 111.565 88.9047 111.565 88.7299C111.565 88.5552 111.424 88.4135 111.249 88.4135H107.715Z" fill="#525566"/>
</g>
</g>
<g opacity="0.8" filter="url(#filter1_f_167_445)">
<path d="M30 166H289V187C289 198.046 280.046 207 269 207H50C38.9543 207 30 198.046 30 187V166Z" fill="url(#paint0_linear_167_445)" fill-opacity="0.15"/>
</g>
<defs>
<filter id="filter0_d_167_445" x="95.1006" y="59.1258" width="128.799" height="150.799" filterUnits="userSpaceOnUse" color-interpolation-filters="sRGB">
<feFlood flood-opacity="0" result="BackgroundImageFix"/>
<feColorMatrix in="SourceAlpha" type="matrix" values="0 0 0 0 0 0 0 0 0 0 0 0 0 0 0 0 0 0 127 0" result="hardAlpha"/>
<feOffset dy="-0.974843"/>
<feGaussianBlur stdDeviation="1.94969"/>
<feComposite in2="hardAlpha" operator="out"/>
<feColorMatrix type="matrix" values="0 0 0 0 0 0 0 0 0 0 0 0 0 0 0 0 0 0 0.09 0"/>
<feBlend mode="normal" in2="BackgroundImageFix" result="effect1_dropShadow_167_445"/>
<feBlend mode="normal" in="SourceGraphic" in2="effect1_dropShadow_167_445" result="shape"/>
</filter>
<filter id="filter1_f_167_445" x="0" y="136" width="319" height="101" filterUnits="userSpaceOnUse" color-interpolation-filters="sRGB">
<feFlood flood-opacity="0" result="BackgroundImageFix"/>
<feBlend mode="normal" in="SourceGraphic" in2="BackgroundImageFix" result="shape"/>
<feGaussianBlur stdDeviation="15" result="effect1_foregroundBlur_167_445"/>
</filter>
<linearGradient id="paint0_linear_167_445" x1="159" y1="184" x2="158.219" y2="206.973" gradientUnits="userSpaceOnUse">
<stop stop-color="#2C2C2C" stop-opacity="0"/>
<stop offset="1" stop-color="#292929"/>
</linearGradient>
<clipPath id="clip0_167_445">
<rect width="118.65" height="256.917" fill="white" transform="translate(100.175 65)"/>
</clipPath>
<clipPath id="clip1_167_445">
<rect width="21.5152" height="4.42961" fill="white" transform="translate(193.23 70.1016)"/>
</clipPath>
</defs>
</svg>
