<svg width="430" height="447" viewBox="0 0 430 447" fill="none" xmlns="http://www.w3.org/2000/svg">
<g filter="url(#filter0_d_67_562)">
<rect x="30" y="50" width="370" height="357" rx="20" fill="white"/>
</g>
<g filter="url(#filter1_di_67_562)">
<rect x="165" width="100" height="100" rx="20" fill="white"/>
</g>
<path d="M170.921 172.3C170.921 173.4 170.737 174.427 170.371 175.38C170.004 176.333 169.483 177.177 168.809 177.91C168.149 178.629 167.357 179.193 166.433 179.604C165.523 180.015 164.526 180.22 163.441 180.22C162.355 180.22 161.358 180.015 160.449 179.604C159.539 179.193 158.747 178.629 158.073 177.91C157.413 177.177 156.899 176.333 156.533 175.38C156.166 174.427 155.983 173.4 155.983 172.3C155.983 171.2 156.166 170.173 156.533 169.22C156.899 168.267 157.413 167.431 158.073 166.712C158.747 165.979 159.539 165.407 160.449 164.996C161.358 164.585 162.355 164.38 163.441 164.38C164.526 164.38 165.523 164.585 166.433 164.996C167.357 165.407 168.149 165.979 168.809 166.712C169.483 167.431 170.004 168.267 170.371 169.22C170.737 170.173 170.921 171.2 170.921 172.3ZM168.061 172.3C168.061 171.317 167.863 170.43 167.467 169.638C167.071 168.831 166.528 168.193 165.839 167.724C165.149 167.255 164.35 167.02 163.441 167.02C162.531 167.02 161.732 167.255 161.043 167.724C160.353 168.193 159.811 168.824 159.415 169.616C159.033 170.408 158.843 171.303 158.843 172.3C158.843 173.283 159.033 174.177 159.415 174.984C159.811 175.776 160.353 176.407 161.043 176.876C161.732 177.345 162.531 177.58 163.441 177.58C164.35 177.58 165.149 177.345 165.839 176.876C166.528 176.407 167.071 175.776 167.467 174.984C167.863 174.177 168.061 173.283 168.061 172.3ZM181.96 168.23C182.341 168.23 182.657 168.362 182.906 168.626C183.155 168.875 183.28 169.191 183.28 169.572V175.16C183.28 176.715 182.847 177.947 181.982 178.856C181.117 179.765 179.87 180.22 178.242 180.22C176.614 180.22 175.367 179.765 174.502 178.856C173.651 177.947 173.226 176.715 173.226 175.16V169.572C173.226 169.191 173.351 168.875 173.6 168.626C173.849 168.362 174.165 168.23 174.546 168.23C174.927 168.23 175.243 168.362 175.492 168.626C175.741 168.875 175.866 169.191 175.866 169.572V175.16C175.866 176.055 176.064 176.722 176.46 177.162C176.856 177.587 177.45 177.8 178.242 177.8C179.049 177.8 179.65 177.587 180.046 177.162C180.442 176.722 180.64 176.055 180.64 175.16V169.572C180.64 169.191 180.765 168.875 181.014 168.626C181.263 168.362 181.579 168.23 181.96 168.23ZM187.458 180C187.077 180 186.761 179.875 186.512 179.626C186.263 179.362 186.138 179.039 186.138 178.658V169.572C186.138 169.191 186.263 168.875 186.512 168.626C186.761 168.362 187.077 168.23 187.458 168.23C187.839 168.23 188.155 168.362 188.404 168.626C188.653 168.875 188.778 169.191 188.778 169.572V171.64L188.624 170.166C188.785 169.814 188.991 169.506 189.24 169.242C189.504 168.963 189.797 168.736 190.12 168.56C190.443 168.369 190.787 168.23 191.154 168.142C191.521 168.054 191.887 168.01 192.254 168.01C192.694 168.01 193.061 168.135 193.354 168.384C193.662 168.633 193.816 168.927 193.816 169.264C193.816 169.748 193.691 170.1 193.442 170.32C193.193 170.525 192.921 170.628 192.628 170.628C192.349 170.628 192.093 170.577 191.858 170.474C191.638 170.371 191.381 170.32 191.088 170.32C190.824 170.32 190.553 170.386 190.274 170.518C190.01 170.635 189.761 170.826 189.526 171.09C189.306 171.354 189.123 171.684 188.976 172.08C188.844 172.461 188.778 172.916 188.778 173.444V178.658C188.778 179.039 188.653 179.362 188.404 179.626C188.155 179.875 187.839 180 187.458 180ZM203.449 164.578C203.654 164.578 203.867 164.637 204.087 164.754C204.322 164.857 204.498 164.996 204.615 165.172L209.961 173.4L208.861 173.356L214.339 165.172C214.618 164.776 214.977 164.578 215.417 164.578C215.769 164.578 216.084 164.703 216.363 164.952C216.642 165.201 216.781 165.524 216.781 165.92V178.658C216.781 179.039 216.656 179.362 216.407 179.626C216.158 179.875 215.828 180 215.417 180C215.006 180 214.669 179.875 214.405 179.626C214.156 179.362 214.031 179.039 214.031 178.658V168.296L214.889 168.494L210.401 175.336C210.269 175.497 210.1 175.637 209.895 175.754C209.704 175.871 209.506 175.923 209.301 175.908C209.11 175.923 208.912 175.871 208.707 175.754C208.516 175.637 208.355 175.497 208.223 175.336L204.021 168.692L204.593 167.526V178.658C204.593 179.039 204.476 179.362 204.241 179.626C204.006 179.875 203.698 180 203.317 180C202.95 180 202.65 179.875 202.415 179.626C202.18 179.362 202.063 179.039 202.063 178.658V165.92C202.063 165.553 202.195 165.238 202.459 164.974C202.738 164.71 203.068 164.578 203.449 164.578ZM222.354 178.658C222.354 179.039 222.23 179.362 221.98 179.626C221.731 179.875 221.416 180 221.034 180C220.653 180 220.338 179.875 220.088 179.626C219.839 179.362 219.714 179.039 219.714 178.658V169.572C219.714 169.191 219.839 168.875 220.088 168.626C220.338 168.362 220.653 168.23 221.034 168.23C221.416 168.23 221.731 168.362 221.98 168.626C222.23 168.875 222.354 169.191 222.354 169.572V178.658ZM221.012 166.8C220.514 166.8 220.162 166.719 219.956 166.558C219.751 166.397 219.648 166.111 219.648 165.7V165.282C219.648 164.857 219.758 164.571 219.978 164.424C220.213 164.263 220.565 164.182 221.034 164.182C221.548 164.182 221.907 164.263 222.112 164.424C222.318 164.585 222.42 164.871 222.42 165.282V165.7C222.42 166.125 222.31 166.419 222.09 166.58C221.87 166.727 221.511 166.8 221.012 166.8ZM224.386 178.174C224.239 177.969 224.173 177.705 224.188 177.382C224.202 177.059 224.393 176.781 224.76 176.546C224.994 176.399 225.244 176.341 225.508 176.37C225.772 176.385 226.028 176.517 226.278 176.766C226.703 177.191 227.15 177.521 227.62 177.756C228.089 177.991 228.676 178.108 229.38 178.108C229.6 178.093 229.842 178.064 230.106 178.02C230.37 177.961 230.597 177.844 230.788 177.668C230.993 177.477 231.096 177.191 231.096 176.81C231.096 176.487 230.986 176.231 230.766 176.04C230.546 175.849 230.252 175.688 229.886 175.556C229.534 175.424 229.138 175.299 228.698 175.182C228.243 175.05 227.774 174.903 227.29 174.742C226.82 174.581 226.388 174.375 225.992 174.126C225.596 173.862 225.273 173.517 225.024 173.092C224.774 172.667 224.65 172.131 224.65 171.486C224.65 170.753 224.855 170.129 225.266 169.616C225.676 169.103 226.204 168.707 226.85 168.428C227.51 168.149 228.199 168.01 228.918 168.01C229.372 168.01 229.849 168.069 230.348 168.186C230.846 168.289 231.323 168.465 231.778 168.714C232.232 168.949 232.614 169.264 232.922 169.66C233.083 169.88 233.178 170.144 233.208 170.452C233.237 170.76 233.098 171.039 232.79 171.288C232.57 171.464 232.313 171.545 232.02 171.53C231.726 171.501 231.484 171.398 231.294 171.222C231.044 170.899 230.707 170.643 230.282 170.452C229.871 170.261 229.394 170.166 228.852 170.166C228.632 170.166 228.39 170.195 228.126 170.254C227.876 170.298 227.656 170.408 227.466 170.584C227.275 170.745 227.18 171.009 227.18 171.376C227.18 171.713 227.29 171.985 227.51 172.19C227.73 172.381 228.023 172.542 228.39 172.674C228.771 172.791 229.174 172.909 229.6 173.026C230.04 173.143 230.487 173.283 230.942 173.444C231.396 173.605 231.814 173.818 232.196 174.082C232.577 174.346 232.885 174.691 233.12 175.116C233.354 175.527 233.472 176.055 233.472 176.7C233.472 177.448 233.252 178.086 232.812 178.614C232.372 179.142 231.822 179.545 231.162 179.824C230.502 180.088 229.827 180.22 229.138 180.22C228.272 180.22 227.407 180.073 226.542 179.78C225.676 179.472 224.958 178.937 224.386 178.174ZM234.999 178.174C234.852 177.969 234.786 177.705 234.801 177.382C234.816 177.059 235.006 176.781 235.373 176.546C235.608 176.399 235.857 176.341 236.121 176.37C236.385 176.385 236.642 176.517 236.891 176.766C237.316 177.191 237.764 177.521 238.233 177.756C238.702 177.991 239.289 178.108 239.993 178.108C240.213 178.093 240.455 178.064 240.719 178.02C240.983 177.961 241.21 177.844 241.401 177.668C241.606 177.477 241.709 177.191 241.709 176.81C241.709 176.487 241.599 176.231 241.379 176.04C241.159 175.849 240.866 175.688 240.499 175.556C240.147 175.424 239.751 175.299 239.311 175.182C238.856 175.05 238.387 174.903 237.903 174.742C237.434 174.581 237.001 174.375 236.605 174.126C236.209 173.862 235.886 173.517 235.637 173.092C235.388 172.667 235.263 172.131 235.263 171.486C235.263 170.753 235.468 170.129 235.879 169.616C236.29 169.103 236.818 168.707 237.463 168.428C238.123 168.149 238.812 168.01 239.531 168.01C239.986 168.01 240.462 168.069 240.961 168.186C241.46 168.289 241.936 168.465 242.391 168.714C242.846 168.949 243.227 169.264 243.535 169.66C243.696 169.88 243.792 170.144 243.821 170.452C243.85 170.76 243.711 171.039 243.403 171.288C243.183 171.464 242.926 171.545 242.633 171.53C242.34 171.501 242.098 171.398 241.907 171.222C241.658 170.899 241.32 170.643 240.895 170.452C240.484 170.261 240.008 170.166 239.465 170.166C239.245 170.166 239.003 170.195 238.739 170.254C238.49 170.298 238.27 170.408 238.079 170.584C237.888 170.745 237.793 171.009 237.793 171.376C237.793 171.713 237.903 171.985 238.123 172.19C238.343 172.381 238.636 172.542 239.003 172.674C239.384 172.791 239.788 172.909 240.213 173.026C240.653 173.143 241.1 173.283 241.555 173.444C242.01 173.605 242.428 173.818 242.809 174.082C243.19 174.346 243.498 174.691 243.733 175.116C243.968 175.527 244.085 176.055 244.085 176.7C244.085 177.448 243.865 178.086 243.425 178.614C242.985 179.142 242.435 179.545 241.775 179.824C241.115 180.088 240.44 180.22 239.751 180.22C238.886 180.22 238.02 180.073 237.155 179.78C236.29 179.472 235.571 178.937 234.999 178.174ZM248.78 178.658C248.78 179.039 248.656 179.362 248.406 179.626C248.157 179.875 247.842 180 247.46 180C247.079 180 246.764 179.875 246.514 179.626C246.265 179.362 246.14 179.039 246.14 178.658V169.572C246.14 169.191 246.265 168.875 246.514 168.626C246.764 168.362 247.079 168.23 247.46 168.23C247.842 168.23 248.157 168.362 248.406 168.626C248.656 168.875 248.78 169.191 248.78 169.572V178.658ZM247.438 166.8C246.94 166.8 246.588 166.719 246.382 166.558C246.177 166.397 246.074 166.111 246.074 165.7V165.282C246.074 164.857 246.184 164.571 246.404 164.424C246.639 164.263 246.991 164.182 247.46 164.182C247.974 164.182 248.333 164.263 248.538 164.424C248.744 164.585 248.846 164.871 248.846 165.282V165.7C248.846 166.125 248.736 166.419 248.516 166.58C248.296 166.727 247.937 166.8 247.438 166.8ZM262.911 174.126C262.911 175.329 262.64 176.392 262.097 177.316C261.569 178.225 260.851 178.937 259.941 179.45C259.047 179.963 258.042 180.22 256.927 180.22C255.813 180.22 254.801 179.963 253.891 179.45C252.997 178.937 252.278 178.225 251.735 177.316C251.207 176.392 250.943 175.329 250.943 174.126C250.943 172.923 251.207 171.867 251.735 170.958C252.278 170.034 252.997 169.315 253.891 168.802C254.801 168.274 255.813 168.01 256.927 168.01C258.042 168.01 259.047 168.274 259.941 168.802C260.851 169.315 261.569 170.034 262.097 170.958C262.64 171.867 262.911 172.923 262.911 174.126ZM260.271 174.126C260.271 173.378 260.117 172.733 259.809 172.19C259.516 171.633 259.113 171.2 258.599 170.892C258.101 170.584 257.543 170.43 256.927 170.43C256.311 170.43 255.747 170.584 255.233 170.892C254.735 171.2 254.331 171.633 254.023 172.19C253.73 172.733 253.583 173.378 253.583 174.126C253.583 174.859 253.73 175.505 254.023 176.062C254.331 176.605 254.735 177.03 255.233 177.338C255.747 177.646 256.311 177.8 256.927 177.8C257.543 177.8 258.101 177.646 258.599 177.338C259.113 177.03 259.516 176.605 259.809 176.062C260.117 175.505 260.271 174.859 260.271 174.126ZM271.514 168.01C272.599 168.01 273.421 168.237 273.978 168.692C274.55 169.147 274.939 169.755 275.144 170.518C275.364 171.266 275.474 172.102 275.474 173.026V178.658C275.474 179.039 275.349 179.362 275.1 179.626C274.851 179.875 274.535 180 274.154 180C273.773 180 273.457 179.875 273.208 179.626C272.959 179.362 272.834 179.039 272.834 178.658V173.026C272.834 172.542 272.768 172.109 272.636 171.728C272.519 171.332 272.299 171.017 271.976 170.782C271.653 170.547 271.191 170.43 270.59 170.43C270.003 170.43 269.505 170.547 269.094 170.782C268.698 171.017 268.39 171.332 268.17 171.728C267.965 172.109 267.862 172.542 267.862 173.026V178.658C267.862 179.039 267.737 179.362 267.488 179.626C267.239 179.875 266.923 180 266.542 180C266.161 180 265.845 179.875 265.596 179.626C265.347 179.362 265.222 179.039 265.222 178.658V169.572C265.222 169.191 265.347 168.875 265.596 168.626C265.845 168.362 266.161 168.23 266.542 168.23C266.923 168.23 267.239 168.362 267.488 168.626C267.737 168.875 267.862 169.191 267.862 169.572V170.518L267.532 170.452C267.664 170.203 267.855 169.939 268.104 169.66C268.353 169.367 268.647 169.095 268.984 168.846C269.321 168.597 269.703 168.399 270.128 168.252C270.553 168.091 271.015 168.01 271.514 168.01Z" fill="black" fill-opacity="0.7"/>
<path d="M89.3125 235H87.9844V223.578H94.3516V224.758H89.3125V228.938H94.0469V230.117H89.3125V235ZM99.6719 235.156C98.4062 235.156 97.4062 234.771 96.6719 234C95.9427 233.229 95.5781 232.159 95.5781 230.789C95.5781 229.409 95.9167 228.312 96.5938 227.5C97.276 226.688 98.1901 226.281 99.3359 226.281C100.409 226.281 101.258 226.635 101.883 227.344C102.508 228.047 102.82 228.977 102.82 230.133V230.953H96.9219C96.9479 231.958 97.2005 232.721 97.6797 233.242C98.1641 233.763 98.8438 234.023 99.7188 234.023C100.641 234.023 101.552 233.831 102.453 233.445V234.602C101.995 234.799 101.56 234.94 101.148 235.023C100.742 235.112 100.25 235.156 99.6719 235.156ZM99.3203 227.367C98.6328 227.367 98.0833 227.591 97.6719 228.039C97.2656 228.487 97.026 229.107 96.9531 229.898H101.43C101.43 229.081 101.247 228.456 100.883 228.023C100.518 227.586 99.9974 227.367 99.3203 227.367ZM110.562 232.664C110.562 233.461 110.266 234.076 109.672 234.508C109.078 234.94 108.245 235.156 107.172 235.156C106.036 235.156 105.151 234.977 104.516 234.617V233.414C104.927 233.622 105.367 233.786 105.836 233.906C106.31 234.026 106.766 234.086 107.203 234.086C107.88 234.086 108.401 233.979 108.766 233.766C109.13 233.547 109.312 233.216 109.312 232.773C109.312 232.44 109.167 232.156 108.875 231.922C108.589 231.682 108.026 231.401 107.188 231.078C106.391 230.781 105.823 230.523 105.484 230.305C105.151 230.081 104.901 229.828 104.734 229.547C104.573 229.266 104.492 228.93 104.492 228.539C104.492 227.841 104.776 227.292 105.344 226.891C105.911 226.484 106.69 226.281 107.68 226.281C108.602 226.281 109.503 226.469 110.383 226.844L109.922 227.898C109.062 227.544 108.284 227.367 107.586 227.367C106.971 227.367 106.508 227.464 106.195 227.656C105.883 227.849 105.727 228.115 105.727 228.453C105.727 228.682 105.784 228.878 105.898 229.039C106.018 229.201 106.208 229.354 106.469 229.5C106.729 229.646 107.229 229.857 107.969 230.133C108.984 230.503 109.669 230.875 110.023 231.25C110.383 231.625 110.562 232.096 110.562 232.664ZM115.445 234.086C115.674 234.086 115.896 234.07 116.109 234.039C116.323 234.003 116.492 233.966 116.617 233.93V234.922C116.477 234.99 116.268 235.044 115.992 235.086C115.721 235.133 115.477 235.156 115.258 235.156C113.602 235.156 112.773 234.284 112.773 232.539V227.445H111.547V226.82L112.773 226.281L113.32 224.453H114.07V226.438H116.555V227.445H114.07V232.484C114.07 233 114.193 233.396 114.438 233.672C114.682 233.948 115.018 234.086 115.445 234.086ZM119.633 235H118.336V226.438H119.633V235ZM118.227 224.117C118.227 223.82 118.299 223.604 118.445 223.469C118.591 223.328 118.773 223.258 118.992 223.258C119.201 223.258 119.38 223.328 119.531 223.469C119.682 223.609 119.758 223.826 119.758 224.117C119.758 224.409 119.682 224.628 119.531 224.773C119.38 224.914 119.201 224.984 118.992 224.984C118.773 224.984 118.591 224.914 118.445 224.773C118.299 224.628 118.227 224.409 118.227 224.117ZM124.258 235L121.008 226.438H122.398L124.242 231.516C124.659 232.703 124.904 233.474 124.977 233.828H125.039C125.096 233.552 125.276 232.982 125.578 232.117C125.885 231.247 126.57 229.354 127.633 226.438H129.023L125.773 235H124.258ZM134.016 235.156C132.75 235.156 131.75 234.771 131.016 234C130.286 233.229 129.922 232.159 129.922 230.789C129.922 229.409 130.26 228.312 130.938 227.5C131.62 226.688 132.534 226.281 133.68 226.281C134.753 226.281 135.602 226.635 136.227 227.344C136.852 228.047 137.164 228.977 137.164 230.133V230.953H131.266C131.292 231.958 131.544 232.721 132.023 233.242C132.508 233.763 133.188 234.023 134.062 234.023C134.984 234.023 135.896 233.831 136.797 233.445V234.602C136.339 234.799 135.904 234.94 135.492 235.023C135.086 235.112 134.594 235.156 134.016 235.156ZM133.664 227.367C132.977 227.367 132.427 227.591 132.016 228.039C131.609 228.487 131.37 229.107 131.297 229.898H135.773C135.773 229.081 135.591 228.456 135.227 228.023C134.862 227.586 134.341 227.367 133.664 227.367ZM144.906 232.664C144.906 233.461 144.609 234.076 144.016 234.508C143.422 234.94 142.589 235.156 141.516 235.156C140.38 235.156 139.495 234.977 138.859 234.617V233.414C139.271 233.622 139.711 233.786 140.18 233.906C140.654 234.026 141.109 234.086 141.547 234.086C142.224 234.086 142.745 233.979 143.109 233.766C143.474 233.547 143.656 233.216 143.656 232.773C143.656 232.44 143.51 232.156 143.219 231.922C142.932 231.682 142.37 231.401 141.531 231.078C140.734 230.781 140.167 230.523 139.828 230.305C139.495 230.081 139.245 229.828 139.078 229.547C138.917 229.266 138.836 228.93 138.836 228.539C138.836 227.841 139.12 227.292 139.688 226.891C140.255 226.484 141.034 226.281 142.023 226.281C142.945 226.281 143.846 226.469 144.727 226.844L144.266 227.898C143.406 227.544 142.628 227.367 141.93 227.367C141.315 227.367 140.852 227.464 140.539 227.656C140.227 227.849 140.07 228.115 140.07 228.453C140.07 228.682 140.128 228.878 140.242 229.039C140.362 229.201 140.552 229.354 140.812 229.5C141.073 229.646 141.573 229.857 142.312 230.133C143.328 230.503 144.013 230.875 144.367 231.25C144.727 231.625 144.906 232.096 144.906 232.664ZM152.289 235L152.031 233.781H151.969C151.542 234.318 151.115 234.682 150.688 234.875C150.266 235.062 149.737 235.156 149.102 235.156C148.253 235.156 147.586 234.938 147.102 234.5C146.622 234.062 146.383 233.44 146.383 232.633C146.383 230.904 147.766 229.997 150.531 229.914L151.984 229.867V229.336C151.984 228.664 151.839 228.169 151.547 227.852C151.26 227.529 150.799 227.367 150.164 227.367C149.451 227.367 148.643 227.586 147.742 228.023L147.344 227.031C147.766 226.802 148.227 226.622 148.727 226.492C149.232 226.362 149.737 226.297 150.242 226.297C151.263 226.297 152.018 226.523 152.508 226.977C153.003 227.43 153.25 228.156 153.25 229.156V235H152.289ZM149.359 234.086C150.167 234.086 150.799 233.865 151.258 233.422C151.721 232.979 151.953 232.359 151.953 231.562V230.789L150.656 230.844C149.625 230.88 148.88 231.042 148.422 231.328C147.969 231.609 147.742 232.049 147.742 232.648C147.742 233.117 147.883 233.474 148.164 233.719C148.451 233.964 148.849 234.086 149.359 234.086ZM157.805 235L154.555 226.438H155.945L157.789 231.516C158.206 232.703 158.451 233.474 158.523 233.828H158.586C158.643 233.552 158.823 232.982 159.125 232.117C159.432 231.247 160.117 229.354 161.18 226.438H162.57L159.32 235H157.805ZM167.562 235.156C166.297 235.156 165.297 234.771 164.562 234C163.833 233.229 163.469 232.159 163.469 230.789C163.469 229.409 163.807 228.312 164.484 227.5C165.167 226.688 166.081 226.281 167.227 226.281C168.299 226.281 169.148 226.635 169.773 227.344C170.398 228.047 170.711 228.977 170.711 230.133V230.953H164.812C164.839 231.958 165.091 232.721 165.57 233.242C166.055 233.763 166.734 234.023 167.609 234.023C168.531 234.023 169.443 233.831 170.344 233.445V234.602C169.885 234.799 169.451 234.94 169.039 235.023C168.633 235.112 168.141 235.156 167.562 235.156ZM167.211 227.367C166.523 227.367 165.974 227.591 165.562 228.039C165.156 228.487 164.917 229.107 164.844 229.898H169.32C169.32 229.081 169.138 228.456 168.773 228.023C168.409 227.586 167.888 227.367 167.211 227.367ZM178.383 235H177.086V226.438H178.383V235ZM176.977 224.117C176.977 223.82 177.049 223.604 177.195 223.469C177.341 223.328 177.523 223.258 177.742 223.258C177.951 223.258 178.13 223.328 178.281 223.469C178.432 223.609 178.508 223.826 178.508 224.117C178.508 224.409 178.432 224.628 178.281 224.773C178.13 224.914 177.951 224.984 177.742 224.984C177.523 224.984 177.341 224.914 177.195 224.773C177.049 224.628 176.977 224.409 176.977 224.117ZM186.656 232.664C186.656 233.461 186.359 234.076 185.766 234.508C185.172 234.94 184.339 235.156 183.266 235.156C182.13 235.156 181.245 234.977 180.609 234.617V233.414C181.021 233.622 181.461 233.786 181.93 233.906C182.404 234.026 182.859 234.086 183.297 234.086C183.974 234.086 184.495 233.979 184.859 233.766C185.224 233.547 185.406 233.216 185.406 232.773C185.406 232.44 185.26 232.156 184.969 231.922C184.682 231.682 184.12 231.401 183.281 231.078C182.484 230.781 181.917 230.523 181.578 230.305C181.245 230.081 180.995 229.828 180.828 229.547C180.667 229.266 180.586 228.93 180.586 228.539C180.586 227.841 180.87 227.292 181.438 226.891C182.005 226.484 182.784 226.281 183.773 226.281C184.695 226.281 185.596 226.469 186.477 226.844L186.016 227.898C185.156 227.544 184.378 227.367 183.68 227.367C183.065 227.367 182.602 227.464 182.289 227.656C181.977 227.849 181.82 228.115 181.82 228.453C181.82 228.682 181.878 228.878 181.992 229.039C182.112 229.201 182.302 229.354 182.562 229.5C182.823 229.646 183.323 229.857 184.062 230.133C185.078 230.503 185.763 230.875 186.117 231.25C186.477 231.625 186.656 232.096 186.656 232.664ZM196.914 235.156C196.357 235.156 195.846 235.055 195.383 234.852C194.924 234.643 194.539 234.326 194.227 233.898H194.133C194.195 234.398 194.227 234.872 194.227 235.32V238.844H192.93V226.438H193.984L194.164 227.609H194.227C194.56 227.141 194.948 226.802 195.391 226.594C195.833 226.385 196.341 226.281 196.914 226.281C198.049 226.281 198.924 226.669 199.539 227.445C200.159 228.221 200.469 229.31 200.469 230.711C200.469 232.117 200.154 233.211 199.523 233.992C198.898 234.768 198.029 235.156 196.914 235.156ZM196.727 227.383C195.852 227.383 195.219 227.625 194.828 228.109C194.438 228.594 194.237 229.365 194.227 230.422V230.711C194.227 231.914 194.427 232.776 194.828 233.297C195.229 233.812 195.872 234.07 196.758 234.07C197.497 234.07 198.076 233.771 198.492 233.172C198.914 232.573 199.125 231.747 199.125 230.695C199.125 229.628 198.914 228.81 198.492 228.242C198.076 227.669 197.487 227.383 196.727 227.383ZM210.133 230.711C210.133 232.107 209.781 233.198 209.078 233.984C208.375 234.766 207.404 235.156 206.164 235.156C205.398 235.156 204.719 234.977 204.125 234.617C203.531 234.258 203.073 233.742 202.75 233.07C202.427 232.398 202.266 231.612 202.266 230.711C202.266 229.315 202.615 228.229 203.312 227.453C204.01 226.672 204.979 226.281 206.219 226.281C207.417 226.281 208.367 226.68 209.07 227.477C209.779 228.273 210.133 229.352 210.133 230.711ZM203.609 230.711C203.609 231.805 203.828 232.638 204.266 233.211C204.703 233.784 205.346 234.07 206.195 234.07C207.044 234.07 207.688 233.786 208.125 233.219C208.568 232.646 208.789 231.81 208.789 230.711C208.789 229.622 208.568 228.797 208.125 228.234C207.688 227.667 207.039 227.383 206.18 227.383C205.331 227.383 204.69 227.661 204.258 228.219C203.826 228.776 203.609 229.607 203.609 230.711ZM219.406 235L217.836 229.977C217.737 229.669 217.552 228.971 217.281 227.883H217.219C217.01 228.794 216.828 229.497 216.672 229.992L215.055 235H213.555L211.219 226.438H212.578C213.13 228.589 213.549 230.227 213.836 231.352C214.128 232.477 214.294 233.234 214.336 233.625H214.398C214.456 233.328 214.547 232.945 214.672 232.477C214.802 232.003 214.914 231.628 215.008 231.352L216.578 226.438H217.984L219.516 231.352C219.807 232.247 220.005 233 220.109 233.609H220.172C220.193 233.422 220.247 233.133 220.336 232.742C220.43 232.352 220.974 230.25 221.969 226.438H223.312L220.945 235H219.406ZM228.484 235.156C227.219 235.156 226.219 234.771 225.484 234C224.755 233.229 224.391 232.159 224.391 230.789C224.391 229.409 224.729 228.312 225.406 227.5C226.089 226.688 227.003 226.281 228.148 226.281C229.221 226.281 230.07 226.635 230.695 227.344C231.32 228.047 231.633 228.977 231.633 230.133V230.953H225.734C225.76 231.958 226.013 232.721 226.492 233.242C226.977 233.763 227.656 234.023 228.531 234.023C229.453 234.023 230.365 233.831 231.266 233.445V234.602C230.807 234.799 230.372 234.94 229.961 235.023C229.555 235.112 229.062 235.156 228.484 235.156ZM228.133 227.367C227.445 227.367 226.896 227.591 226.484 228.039C226.078 228.487 225.839 229.107 225.766 229.898H230.242C230.242 229.081 230.06 228.456 229.695 228.023C229.331 227.586 228.81 227.367 228.133 227.367ZM237.758 226.281C238.138 226.281 238.479 226.312 238.781 226.375L238.602 227.578C238.247 227.5 237.935 227.461 237.664 227.461C236.971 227.461 236.378 227.742 235.883 228.305C235.393 228.867 235.148 229.568 235.148 230.406V235H233.852V226.438H234.922L235.07 228.023H235.133C235.451 227.466 235.833 227.036 236.281 226.734C236.729 226.432 237.221 226.281 237.758 226.281ZM244 235.156C242.734 235.156 241.734 234.771 241 234C240.271 233.229 239.906 232.159 239.906 230.789C239.906 229.409 240.245 228.312 240.922 227.5C241.604 226.688 242.518 226.281 243.664 226.281C244.737 226.281 245.586 226.635 246.211 227.344C246.836 228.047 247.148 228.977 247.148 230.133V230.953H241.25C241.276 231.958 241.529 232.721 242.008 233.242C242.492 233.763 243.172 234.023 244.047 234.023C244.969 234.023 245.88 233.831 246.781 233.445V234.602C246.323 234.799 245.888 234.94 245.477 235.023C245.07 235.112 244.578 235.156 244 235.156ZM243.648 227.367C242.961 227.367 242.411 227.591 242 228.039C241.594 228.487 241.354 229.107 241.281 229.898H245.758C245.758 229.081 245.576 228.456 245.211 228.023C244.846 227.586 244.326 227.367 243.648 227.367ZM255.195 233.852H255.125C254.526 234.721 253.63 235.156 252.438 235.156C251.318 235.156 250.445 234.773 249.82 234.008C249.201 233.242 248.891 232.154 248.891 230.742C248.891 229.331 249.203 228.234 249.828 227.453C250.453 226.672 251.323 226.281 252.438 226.281C253.599 226.281 254.49 226.703 255.109 227.547H255.211L255.156 226.93L255.125 226.328V222.844H256.422V235H255.367L255.195 233.852ZM252.602 234.07C253.487 234.07 254.128 233.831 254.523 233.352C254.924 232.867 255.125 232.089 255.125 231.016V230.742C255.125 229.529 254.922 228.664 254.516 228.148C254.115 227.628 253.471 227.367 252.586 227.367C251.826 227.367 251.242 227.664 250.836 228.258C250.435 228.846 250.234 229.68 250.234 230.758C250.234 231.852 250.435 232.677 250.836 233.234C251.237 233.792 251.826 234.07 252.602 234.07ZM267.32 226.297C268.445 226.297 269.318 226.682 269.938 227.453C270.562 228.219 270.875 229.305 270.875 230.711C270.875 232.117 270.56 233.211 269.93 233.992C269.305 234.768 268.435 235.156 267.32 235.156C266.763 235.156 266.253 235.055 265.789 234.852C265.331 234.643 264.945 234.326 264.633 233.898H264.539L264.266 235H263.336V222.844H264.633V225.797C264.633 226.458 264.612 227.052 264.57 227.578H264.633C265.237 226.724 266.133 226.297 267.32 226.297ZM267.133 227.383C266.247 227.383 265.609 227.638 265.219 228.148C264.828 228.654 264.633 229.508 264.633 230.711C264.633 231.914 264.833 232.776 265.234 233.297C265.635 233.812 266.279 234.07 267.164 234.07C267.961 234.07 268.555 233.781 268.945 233.203C269.336 232.62 269.531 231.784 269.531 230.695C269.531 229.581 269.336 228.75 268.945 228.203C268.555 227.656 267.951 227.383 267.133 227.383ZM271.789 226.438H273.18L275.055 231.32C275.466 232.435 275.721 233.24 275.82 233.734H275.883C275.951 233.469 276.091 233.016 276.305 232.375C276.523 231.729 277.232 229.75 278.43 226.438H279.82L276.141 236.188C275.776 237.151 275.349 237.833 274.859 238.234C274.375 238.641 273.779 238.844 273.07 238.844C272.674 238.844 272.284 238.799 271.898 238.711V237.672C272.185 237.734 272.505 237.766 272.859 237.766C273.75 237.766 274.385 237.266 274.766 236.266L275.242 235.047L271.789 226.438ZM290.617 235L286.742 224.875H286.68C286.753 225.677 286.789 226.63 286.789 227.734V235H285.562V223.578H287.562L291.18 233H291.242L294.891 223.578H296.875V235H295.547V227.641C295.547 226.797 295.583 225.88 295.656 224.891H295.594L291.688 235H290.617ZM308.266 235H306.703L302.539 229.461L301.344 230.523V235H300.016V223.578H301.344V229.242L306.523 223.578H308.094L303.5 228.539L308.266 235ZM319.758 229.273C319.758 231.102 319.294 232.539 318.367 233.586C317.445 234.633 316.161 235.156 314.516 235.156C312.833 235.156 311.534 234.643 310.617 233.617C309.706 232.586 309.25 231.133 309.25 229.258C309.25 227.398 309.708 225.958 310.625 224.938C311.542 223.911 312.844 223.398 314.531 223.398C316.172 223.398 317.453 223.919 318.375 224.961C319.297 226.003 319.758 227.44 319.758 229.273ZM310.656 229.273C310.656 230.82 310.984 231.995 311.641 232.797C312.302 233.594 313.26 233.992 314.516 233.992C315.781 233.992 316.737 233.594 317.383 232.797C318.029 232 318.352 230.826 318.352 229.273C318.352 227.737 318.029 226.573 317.383 225.781C316.742 224.984 315.792 224.586 314.531 224.586C313.266 224.586 312.302 224.987 311.641 225.789C310.984 226.586 310.656 227.747 310.656 229.273ZM322.312 223.578H325.539C327.055 223.578 328.151 223.805 328.828 224.258C329.505 224.711 329.844 225.427 329.844 226.406C329.844 227.083 329.654 227.643 329.273 228.086C328.898 228.523 328.349 228.807 327.625 228.938V229.016C329.359 229.312 330.227 230.224 330.227 231.75C330.227 232.771 329.88 233.568 329.188 234.141C328.5 234.714 327.536 235 326.297 235H322.312V223.578ZM323.641 228.469H325.828C326.766 228.469 327.44 228.323 327.852 228.031C328.263 227.734 328.469 227.237 328.469 226.539C328.469 225.898 328.24 225.438 327.781 225.156C327.323 224.87 326.594 224.727 325.594 224.727H323.641V228.469ZM323.641 229.594V233.867H326.023C326.945 233.867 327.638 233.69 328.102 233.336C328.57 232.977 328.805 232.417 328.805 231.656C328.805 230.948 328.565 230.427 328.086 230.094C327.612 229.76 326.888 229.594 325.914 229.594H323.641ZM342.602 229.273C342.602 231.102 342.138 232.539 341.211 233.586C340.289 234.633 339.005 235.156 337.359 235.156C335.677 235.156 334.378 234.643 333.461 233.617C332.549 232.586 332.094 231.133 332.094 229.258C332.094 227.398 332.552 225.958 333.469 224.938C334.385 223.911 335.688 223.398 337.375 223.398C339.016 223.398 340.297 223.919 341.219 224.961C342.141 226.003 342.602 227.44 342.602 229.273ZM333.5 229.273C333.5 230.82 333.828 231.995 334.484 232.797C335.146 233.594 336.104 233.992 337.359 233.992C338.625 233.992 339.581 233.594 340.227 232.797C340.872 232 341.195 230.826 341.195 229.273C341.195 227.737 340.872 226.573 340.227 225.781C339.586 224.984 338.635 224.586 337.375 224.586C336.109 224.586 335.146 224.987 334.484 225.789C333.828 226.586 333.5 227.747 333.5 229.273ZM85.8906 262L82.0156 251.875H81.9531C82.026 252.677 82.0625 253.63 82.0625 254.734V262H80.8359V250.578H82.8359L86.4531 260H86.5156L90.1641 250.578H92.1484V262H90.8203V254.641C90.8203 253.797 90.8568 252.88 90.9297 251.891H90.8672L86.9609 262H85.8906ZM96.3906 262H95.0938V253.438H96.3906V262ZM94.9844 251.117C94.9844 250.82 95.0573 250.604 95.2031 250.469C95.349 250.328 95.5312 250.258 95.75 250.258C95.9583 250.258 96.138 250.328 96.2891 250.469C96.4401 250.609 96.5156 250.826 96.5156 251.117C96.5156 251.409 96.4401 251.628 96.2891 251.773C96.138 251.914 95.9583 251.984 95.75 251.984C95.5312 251.984 95.349 251.914 95.2031 251.773C95.0573 251.628 94.9844 251.409 94.9844 251.117ZM102.562 262.156C101.323 262.156 100.362 261.776 99.6797 261.016C99.0026 260.25 98.6641 259.169 98.6641 257.773C98.6641 256.341 99.0078 255.234 99.6953 254.453C100.388 253.672 101.372 253.281 102.648 253.281C103.06 253.281 103.471 253.326 103.883 253.414C104.294 253.503 104.617 253.607 104.852 253.727L104.453 254.828C104.167 254.714 103.854 254.62 103.516 254.547C103.177 254.469 102.878 254.43 102.617 254.43C100.878 254.43 100.008 255.539 100.008 257.758C100.008 258.81 100.219 259.617 100.641 260.18C101.068 260.742 101.698 261.023 102.531 261.023C103.245 261.023 103.977 260.87 104.727 260.562V261.711C104.154 262.008 103.432 262.156 102.562 262.156ZM110.672 253.281C111.052 253.281 111.393 253.312 111.695 253.375L111.516 254.578C111.161 254.5 110.849 254.461 110.578 254.461C109.885 254.461 109.292 254.742 108.797 255.305C108.307 255.867 108.062 256.568 108.062 257.406V262H106.766V253.438H107.836L107.984 255.023H108.047C108.365 254.466 108.747 254.036 109.195 253.734C109.643 253.432 110.135 253.281 110.672 253.281ZM120.688 257.711C120.688 259.107 120.336 260.198 119.633 260.984C118.93 261.766 117.958 262.156 116.719 262.156C115.953 262.156 115.273 261.977 114.68 261.617C114.086 261.258 113.628 260.742 113.305 260.07C112.982 259.398 112.82 258.612 112.82 257.711C112.82 256.315 113.169 255.229 113.867 254.453C114.565 253.672 115.534 253.281 116.773 253.281C117.971 253.281 118.922 253.68 119.625 254.477C120.333 255.273 120.688 256.352 120.688 257.711ZM114.164 257.711C114.164 258.805 114.383 259.638 114.82 260.211C115.258 260.784 115.901 261.07 116.75 261.07C117.599 261.07 118.242 260.786 118.68 260.219C119.122 259.646 119.344 258.81 119.344 257.711C119.344 256.622 119.122 255.797 118.68 255.234C118.242 254.667 117.594 254.383 116.734 254.383C115.885 254.383 115.245 254.661 114.812 255.219C114.38 255.776 114.164 256.607 114.164 257.711ZM126.828 254.445H124.648V262H123.352V254.445H121.82V253.859L123.352 253.391V252.914C123.352 250.81 124.271 249.758 126.109 249.758C126.562 249.758 127.094 249.849 127.703 250.031L127.367 251.07C126.867 250.909 126.44 250.828 126.086 250.828C125.596 250.828 125.234 250.992 125 251.32C124.766 251.643 124.648 252.164 124.648 252.883V253.438H126.828V254.445ZM129.688 262H128.391V253.438H129.688V262ZM128.281 251.117C128.281 250.82 128.354 250.604 128.5 250.469C128.646 250.328 128.828 250.258 129.047 250.258C129.255 250.258 129.435 250.328 129.586 250.469C129.737 250.609 129.812 250.826 129.812 251.117C129.812 251.409 129.737 251.628 129.586 251.773C129.435 251.914 129.255 251.984 129.047 251.984C128.828 251.984 128.646 251.914 128.5 251.773C128.354 251.628 128.281 251.409 128.281 251.117ZM138.297 262V256.461C138.297 255.763 138.138 255.242 137.82 254.898C137.503 254.555 137.005 254.383 136.328 254.383C135.432 254.383 134.776 254.625 134.359 255.109C133.943 255.594 133.734 256.393 133.734 257.508V262H132.438V253.438H133.492L133.703 254.609H133.766C134.031 254.188 134.404 253.862 134.883 253.633C135.362 253.398 135.896 253.281 136.484 253.281C137.516 253.281 138.292 253.531 138.812 254.031C139.333 254.526 139.594 255.32 139.594 256.414V262H138.297ZM147.531 262L147.273 260.781H147.211C146.784 261.318 146.357 261.682 145.93 261.875C145.508 262.062 144.979 262.156 144.344 262.156C143.495 262.156 142.828 261.938 142.344 261.5C141.865 261.062 141.625 260.44 141.625 259.633C141.625 257.904 143.008 256.997 145.773 256.914L147.227 256.867V256.336C147.227 255.664 147.081 255.169 146.789 254.852C146.503 254.529 146.042 254.367 145.406 254.367C144.693 254.367 143.885 254.586 142.984 255.023L142.586 254.031C143.008 253.802 143.469 253.622 143.969 253.492C144.474 253.362 144.979 253.297 145.484 253.297C146.505 253.297 147.26 253.523 147.75 253.977C148.245 254.43 148.492 255.156 148.492 256.156V262H147.531ZM144.602 261.086C145.409 261.086 146.042 260.865 146.5 260.422C146.964 259.979 147.195 259.359 147.195 258.562V257.789L145.898 257.844C144.867 257.88 144.122 258.042 143.664 258.328C143.211 258.609 142.984 259.049 142.984 259.648C142.984 260.117 143.125 260.474 143.406 260.719C143.693 260.964 144.091 261.086 144.602 261.086ZM157.031 262V256.461C157.031 255.763 156.872 255.242 156.555 254.898C156.237 254.555 155.74 254.383 155.062 254.383C154.167 254.383 153.51 254.625 153.094 255.109C152.677 255.594 152.469 256.393 152.469 257.508V262H151.172V253.438H152.227L152.438 254.609H152.5C152.766 254.188 153.138 253.862 153.617 253.633C154.096 253.398 154.63 253.281 155.219 253.281C156.25 253.281 157.026 253.531 157.547 254.031C158.068 254.526 158.328 255.32 158.328 256.414V262H157.031ZM164.422 262.156C163.182 262.156 162.221 261.776 161.539 261.016C160.862 260.25 160.523 259.169 160.523 257.773C160.523 256.341 160.867 255.234 161.555 254.453C162.247 253.672 163.232 253.281 164.508 253.281C164.919 253.281 165.331 253.326 165.742 253.414C166.154 253.503 166.477 253.607 166.711 253.727L166.312 254.828C166.026 254.714 165.714 254.62 165.375 254.547C165.036 254.469 164.737 254.43 164.477 254.43C162.737 254.43 161.867 255.539 161.867 257.758C161.867 258.81 162.078 259.617 162.5 260.18C162.927 260.742 163.557 261.023 164.391 261.023C165.104 261.023 165.836 260.87 166.586 260.562V261.711C166.013 262.008 165.292 262.156 164.422 262.156ZM172.242 262.156C170.977 262.156 169.977 261.771 169.242 261C168.513 260.229 168.148 259.159 168.148 257.789C168.148 256.409 168.487 255.312 169.164 254.5C169.846 253.688 170.76 253.281 171.906 253.281C172.979 253.281 173.828 253.635 174.453 254.344C175.078 255.047 175.391 255.977 175.391 257.133V257.953H169.492C169.518 258.958 169.771 259.721 170.25 260.242C170.734 260.763 171.414 261.023 172.289 261.023C173.211 261.023 174.122 260.831 175.023 260.445V261.602C174.565 261.799 174.13 261.94 173.719 262.023C173.312 262.112 172.82 262.156 172.242 262.156ZM171.891 254.367C171.203 254.367 170.654 254.591 170.242 255.039C169.836 255.487 169.596 256.107 169.523 256.898H174C174 256.081 173.818 255.456 173.453 255.023C173.089 254.586 172.568 254.367 171.891 254.367ZM181.961 250.578H185.188C186.703 250.578 187.799 250.805 188.477 251.258C189.154 251.711 189.492 252.427 189.492 253.406C189.492 254.083 189.302 254.643 188.922 255.086C188.547 255.523 187.997 255.807 187.273 255.938V256.016C189.008 256.312 189.875 257.224 189.875 258.75C189.875 259.771 189.529 260.568 188.836 261.141C188.148 261.714 187.185 262 185.945 262H181.961V250.578ZM183.289 255.469H185.477C186.414 255.469 187.089 255.323 187.5 255.031C187.911 254.734 188.117 254.237 188.117 253.539C188.117 252.898 187.888 252.438 187.43 252.156C186.971 251.87 186.242 251.727 185.242 251.727H183.289V255.469ZM183.289 256.594V260.867H185.672C186.594 260.867 187.286 260.69 187.75 260.336C188.219 259.977 188.453 259.417 188.453 258.656C188.453 257.948 188.214 257.427 187.734 257.094C187.26 256.76 186.536 256.594 185.562 256.594H183.289ZM197.406 262L197.148 260.781H197.086C196.659 261.318 196.232 261.682 195.805 261.875C195.383 262.062 194.854 262.156 194.219 262.156C193.37 262.156 192.703 261.938 192.219 261.5C191.74 261.062 191.5 260.44 191.5 259.633C191.5 257.904 192.883 256.997 195.648 256.914L197.102 256.867V256.336C197.102 255.664 196.956 255.169 196.664 254.852C196.378 254.529 195.917 254.367 195.281 254.367C194.568 254.367 193.76 254.586 192.859 255.023L192.461 254.031C192.883 253.802 193.344 253.622 193.844 253.492C194.349 253.362 194.854 253.297 195.359 253.297C196.38 253.297 197.135 253.523 197.625 253.977C198.12 254.43 198.367 255.156 198.367 256.156V262H197.406ZM194.477 261.086C195.284 261.086 195.917 260.865 196.375 260.422C196.839 259.979 197.07 259.359 197.07 258.562V257.789L195.773 257.844C194.742 257.88 193.997 258.042 193.539 258.328C193.086 258.609 192.859 259.049 192.859 259.648C192.859 260.117 193 260.474 193.281 260.719C193.568 260.964 193.966 261.086 194.477 261.086ZM206.906 262V256.461C206.906 255.763 206.747 255.242 206.43 254.898C206.112 254.555 205.615 254.383 204.938 254.383C204.042 254.383 203.385 254.625 202.969 255.109C202.552 255.594 202.344 256.393 202.344 257.508V262H201.047V253.438H202.102L202.312 254.609H202.375C202.641 254.188 203.013 253.862 203.492 253.633C203.971 253.398 204.505 253.281 205.094 253.281C206.125 253.281 206.901 253.531 207.422 254.031C207.943 254.526 208.203 255.32 208.203 256.414V262H206.906ZM212.156 257.617C212.38 257.299 212.721 256.883 213.18 256.367L215.945 253.438H217.484L214.016 257.086L217.727 262H216.156L213.133 257.953L212.156 258.797V262H210.875V249.844H212.156V256.289C212.156 256.576 212.135 257.018 212.094 257.617H212.156ZM220.641 260.141L220.758 260.32C220.622 260.841 220.427 261.445 220.172 262.133C219.917 262.826 219.651 263.469 219.375 264.062H218.398C218.539 263.521 218.693 262.852 218.859 262.055C219.031 261.258 219.151 260.62 219.219 260.141H220.641ZM234.352 262L232.781 256.977C232.682 256.669 232.497 255.971 232.227 254.883H232.164C231.956 255.794 231.773 256.497 231.617 256.992L230 262H228.5L226.164 253.438H227.523C228.076 255.589 228.495 257.227 228.781 258.352C229.073 259.477 229.24 260.234 229.281 260.625H229.344C229.401 260.328 229.492 259.945 229.617 259.477C229.747 259.003 229.859 258.628 229.953 258.352L231.523 253.438H232.93L234.461 258.352C234.753 259.247 234.951 260 235.055 260.609H235.117C235.138 260.422 235.193 260.133 235.281 259.742C235.375 259.352 235.919 257.25 236.914 253.438H238.258L235.891 262H234.352ZM245.672 262V256.461C245.672 255.763 245.513 255.242 245.195 254.898C244.878 254.555 244.38 254.383 243.703 254.383C242.802 254.383 242.143 254.628 241.727 255.117C241.315 255.607 241.109 256.409 241.109 257.523V262H239.812V249.844H241.109V253.523C241.109 253.966 241.089 254.333 241.047 254.625H241.125C241.38 254.214 241.742 253.891 242.211 253.656C242.685 253.417 243.224 253.297 243.828 253.297C244.875 253.297 245.659 253.547 246.18 254.047C246.706 254.542 246.969 255.331 246.969 256.414V262H245.672ZM250.938 262H249.641V253.438H250.938V262ZM249.531 251.117C249.531 250.82 249.604 250.604 249.75 250.469C249.896 250.328 250.078 250.258 250.297 250.258C250.505 250.258 250.685 250.328 250.836 250.469C250.987 250.609 251.062 250.826 251.062 251.117C251.062 251.409 250.987 251.628 250.836 251.773C250.685 251.914 250.505 251.984 250.297 251.984C250.078 251.984 249.896 251.914 249.75 251.773C249.604 251.628 249.531 251.409 249.531 251.117ZM257.109 262.156C255.87 262.156 254.909 261.776 254.227 261.016C253.549 260.25 253.211 259.169 253.211 257.773C253.211 256.341 253.555 255.234 254.242 254.453C254.935 253.672 255.919 253.281 257.195 253.281C257.607 253.281 258.018 253.326 258.43 253.414C258.841 253.503 259.164 253.607 259.398 253.727L259 254.828C258.714 254.714 258.401 254.62 258.062 254.547C257.724 254.469 257.424 254.43 257.164 254.43C255.424 254.43 254.555 255.539 254.555 257.758C254.555 258.81 254.766 259.617 255.188 260.18C255.615 260.742 256.245 261.023 257.078 261.023C257.792 261.023 258.523 260.87 259.273 260.562V261.711C258.701 262.008 257.979 262.156 257.109 262.156ZM267.172 262V256.461C267.172 255.763 267.013 255.242 266.695 254.898C266.378 254.555 265.88 254.383 265.203 254.383C264.302 254.383 263.643 254.628 263.227 255.117C262.815 255.607 262.609 256.409 262.609 257.523V262H261.312V249.844H262.609V253.523C262.609 253.966 262.589 254.333 262.547 254.625H262.625C262.88 254.214 263.242 253.891 263.711 253.656C264.185 253.417 264.724 253.297 265.328 253.297C266.375 253.297 267.159 253.547 267.68 254.047C268.206 254.542 268.469 255.331 268.469 256.414V262H267.172ZM276.594 262H275.297V253.438H276.594V262ZM275.188 251.117C275.188 250.82 275.26 250.604 275.406 250.469C275.552 250.328 275.734 250.258 275.953 250.258C276.161 250.258 276.341 250.328 276.492 250.469C276.643 250.609 276.719 250.826 276.719 251.117C276.719 251.409 276.643 251.628 276.492 251.773C276.341 251.914 276.161 251.984 275.953 251.984C275.734 251.984 275.552 251.914 275.406 251.773C275.26 251.628 275.188 251.409 275.188 251.117ZM284.867 259.664C284.867 260.461 284.57 261.076 283.977 261.508C283.383 261.94 282.549 262.156 281.477 262.156C280.341 262.156 279.456 261.977 278.82 261.617V260.414C279.232 260.622 279.672 260.786 280.141 260.906C280.615 261.026 281.07 261.086 281.508 261.086C282.185 261.086 282.706 260.979 283.07 260.766C283.435 260.547 283.617 260.216 283.617 259.773C283.617 259.44 283.471 259.156 283.18 258.922C282.893 258.682 282.331 258.401 281.492 258.078C280.695 257.781 280.128 257.523 279.789 257.305C279.456 257.081 279.206 256.828 279.039 256.547C278.878 256.266 278.797 255.93 278.797 255.539C278.797 254.841 279.081 254.292 279.648 253.891C280.216 253.484 280.995 253.281 281.984 253.281C282.906 253.281 283.807 253.469 284.688 253.844L284.227 254.898C283.367 254.544 282.589 254.367 281.891 254.367C281.276 254.367 280.812 254.464 280.5 254.656C280.188 254.849 280.031 255.115 280.031 255.453C280.031 255.682 280.089 255.878 280.203 256.039C280.323 256.201 280.513 256.354 280.773 256.5C281.034 256.646 281.534 256.857 282.273 257.133C283.289 257.503 283.974 257.875 284.328 258.25C284.688 258.625 284.867 259.096 284.867 259.664ZM292.438 262H291.141V249.844H292.438V262ZM296.484 262H295.188V253.438H296.484V262ZM295.078 251.117C295.078 250.82 295.151 250.604 295.297 250.469C295.443 250.328 295.625 250.258 295.844 250.258C296.052 250.258 296.232 250.328 296.383 250.469C296.534 250.609 296.609 250.826 296.609 251.117C296.609 251.409 296.534 251.628 296.383 251.773C296.232 251.914 296.052 251.984 295.844 251.984C295.625 251.984 295.443 251.914 295.297 251.773C295.151 251.628 295.078 251.409 295.078 251.117ZM302.656 262.156C301.417 262.156 300.456 261.776 299.773 261.016C299.096 260.25 298.758 259.169 298.758 257.773C298.758 256.341 299.102 255.234 299.789 254.453C300.482 253.672 301.466 253.281 302.742 253.281C303.154 253.281 303.565 253.326 303.977 253.414C304.388 253.503 304.711 253.607 304.945 253.727L304.547 254.828C304.26 254.714 303.948 254.62 303.609 254.547C303.271 254.469 302.971 254.43 302.711 254.43C300.971 254.43 300.102 255.539 300.102 257.758C300.102 258.81 300.312 259.617 300.734 260.18C301.161 260.742 301.792 261.023 302.625 261.023C303.339 261.023 304.07 260.87 304.82 260.562V261.711C304.247 262.008 303.526 262.156 302.656 262.156ZM310.477 262.156C309.211 262.156 308.211 261.771 307.477 261C306.747 260.229 306.383 259.159 306.383 257.789C306.383 256.409 306.721 255.312 307.398 254.5C308.081 253.688 308.995 253.281 310.141 253.281C311.214 253.281 312.062 253.635 312.688 254.344C313.312 255.047 313.625 255.977 313.625 257.133V257.953H307.727C307.753 258.958 308.005 259.721 308.484 260.242C308.969 260.763 309.648 261.023 310.523 261.023C311.445 261.023 312.357 260.831 313.258 260.445V261.602C312.799 261.799 312.365 261.94 311.953 262.023C311.547 262.112 311.055 262.156 310.477 262.156ZM310.125 254.367C309.438 254.367 308.888 254.591 308.477 255.039C308.07 255.487 307.831 256.107 307.758 256.898H312.234C312.234 256.081 312.052 255.456 311.688 255.023C311.323 254.586 310.802 254.367 310.125 254.367ZM321.703 262V256.461C321.703 255.763 321.544 255.242 321.227 254.898C320.909 254.555 320.411 254.383 319.734 254.383C318.839 254.383 318.182 254.625 317.766 255.109C317.349 255.594 317.141 256.393 317.141 257.508V262H315.844V253.438H316.898L317.109 254.609H317.172C317.438 254.188 317.81 253.862 318.289 253.633C318.768 253.398 319.302 253.281 319.891 253.281C320.922 253.281 321.698 253.531 322.219 254.031C322.74 254.526 323 255.32 323 256.414V262H321.703ZM331.195 259.664C331.195 260.461 330.898 261.076 330.305 261.508C329.711 261.94 328.878 262.156 327.805 262.156C326.669 262.156 325.784 261.977 325.148 261.617V260.414C325.56 260.622 326 260.786 326.469 260.906C326.943 261.026 327.398 261.086 327.836 261.086C328.513 261.086 329.034 260.979 329.398 260.766C329.763 260.547 329.945 260.216 329.945 259.773C329.945 259.44 329.799 259.156 329.508 258.922C329.221 258.682 328.659 258.401 327.82 258.078C327.023 257.781 326.456 257.523 326.117 257.305C325.784 257.081 325.534 256.828 325.367 256.547C325.206 256.266 325.125 255.93 325.125 255.539C325.125 254.841 325.409 254.292 325.977 253.891C326.544 253.484 327.323 253.281 328.312 253.281C329.234 253.281 330.135 253.469 331.016 253.844L330.555 254.898C329.695 254.544 328.917 254.367 328.219 254.367C327.604 254.367 327.141 254.464 326.828 254.656C326.516 254.849 326.359 255.115 326.359 255.453C326.359 255.682 326.417 255.878 326.531 256.039C326.651 256.201 326.841 256.354 327.102 256.5C327.362 256.646 327.862 256.857 328.602 257.133C329.617 257.503 330.302 257.875 330.656 258.25C331.016 258.625 331.195 259.096 331.195 259.664ZM336.93 262.156C335.664 262.156 334.664 261.771 333.93 261C333.201 260.229 332.836 259.159 332.836 257.789C332.836 256.409 333.174 255.312 333.852 254.5C334.534 253.688 335.448 253.281 336.594 253.281C337.667 253.281 338.516 253.635 339.141 254.344C339.766 255.047 340.078 255.977 340.078 257.133V257.953H334.18C334.206 258.958 334.458 259.721 334.938 260.242C335.422 260.763 336.102 261.023 336.977 261.023C337.898 261.023 338.81 260.831 339.711 260.445V261.602C339.253 261.799 338.818 261.94 338.406 262.023C338 262.112 337.508 262.156 336.93 262.156ZM336.578 254.367C335.891 254.367 335.341 254.591 334.93 255.039C334.523 255.487 334.284 256.107 334.211 256.898H338.688C338.688 256.081 338.505 255.456 338.141 255.023C337.776 254.586 337.255 254.367 336.578 254.367ZM348.125 260.852H348.055C347.456 261.721 346.56 262.156 345.367 262.156C344.247 262.156 343.375 261.773 342.75 261.008C342.13 260.242 341.82 259.154 341.82 257.742C341.82 256.331 342.133 255.234 342.758 254.453C343.383 253.672 344.253 253.281 345.367 253.281C346.529 253.281 347.419 253.703 348.039 254.547H348.141L348.086 253.93L348.055 253.328V249.844H349.352V262H348.297L348.125 260.852ZM345.531 261.07C346.417 261.07 347.057 260.831 347.453 260.352C347.854 259.867 348.055 259.089 348.055 258.016V257.742C348.055 256.529 347.852 255.664 347.445 255.148C347.044 254.628 346.401 254.367 345.516 254.367C344.755 254.367 344.172 254.664 343.766 255.258C343.365 255.846 343.164 256.68 343.164 257.758C343.164 258.852 343.365 259.677 343.766 260.234C344.167 260.792 344.755 261.07 345.531 261.07ZM84.6406 288L84.3828 286.781H84.3203C83.8932 287.318 83.4661 287.682 83.0391 287.875C82.6172 288.062 82.0885 288.156 81.4531 288.156C80.6042 288.156 79.9375 287.938 79.4531 287.5C78.974 287.062 78.7344 286.44 78.7344 285.633C78.7344 283.904 80.1172 282.997 82.8828 282.914L84.3359 282.867V282.336C84.3359 281.664 84.1901 281.169 83.8984 280.852C83.612 280.529 83.151 280.367 82.5156 280.367C81.8021 280.367 80.9948 280.586 80.0938 281.023L79.6953 280.031C80.1172 279.802 80.5781 279.622 81.0781 279.492C81.5833 279.362 82.0885 279.297 82.5938 279.297C83.6146 279.297 84.3698 279.523 84.8594 279.977C85.3542 280.43 85.6016 281.156 85.6016 282.156V288H84.6406ZM81.7109 287.086C82.5182 287.086 83.151 286.865 83.6094 286.422C84.0729 285.979 84.3047 285.359 84.3047 284.562V283.789L83.0078 283.844C81.9766 283.88 81.2318 284.042 80.7734 284.328C80.3203 284.609 80.0938 285.049 80.0938 285.648C80.0938 286.117 80.2344 286.474 80.5156 286.719C80.8021 286.964 81.2005 287.086 81.7109 287.086ZM94.1406 288V282.461C94.1406 281.763 93.9818 281.242 93.6641 280.898C93.3464 280.555 92.849 280.383 92.1719 280.383C91.276 280.383 90.6198 280.625 90.2031 281.109C89.7865 281.594 89.5781 282.393 89.5781 283.508V288H88.2812V279.438H89.3359L89.5469 280.609H89.6094C89.875 280.188 90.2474 279.862 90.7266 279.633C91.2057 279.398 91.7396 279.281 92.3281 279.281C93.3594 279.281 94.1354 279.531 94.6562 280.031C95.1771 280.526 95.4375 281.32 95.4375 282.414V288H94.1406ZM103.938 286.852H103.867C103.268 287.721 102.372 288.156 101.18 288.156C100.06 288.156 99.1875 287.773 98.5625 287.008C97.9427 286.242 97.6328 285.154 97.6328 283.742C97.6328 282.331 97.9453 281.234 98.5703 280.453C99.1953 279.672 100.065 279.281 101.18 279.281C102.341 279.281 103.232 279.703 103.852 280.547H103.953L103.898 279.93L103.867 279.328V275.844H105.164V288H104.109L103.938 286.852ZM101.344 287.07C102.229 287.07 102.87 286.831 103.266 286.352C103.667 285.867 103.867 285.089 103.867 284.016V283.742C103.867 282.529 103.664 281.664 103.258 281.148C102.857 280.628 102.214 280.367 101.328 280.367C100.568 280.367 99.9844 280.664 99.5781 281.258C99.1771 281.846 98.9766 282.68 98.9766 283.758C98.9766 284.852 99.1771 285.677 99.5781 286.234C99.9792 286.792 100.568 287.07 101.344 287.07ZM115.984 279.281C116.365 279.281 116.706 279.312 117.008 279.375L116.828 280.578C116.474 280.5 116.161 280.461 115.891 280.461C115.198 280.461 114.604 280.742 114.109 281.305C113.62 281.867 113.375 282.568 113.375 283.406V288H112.078V279.438H113.148L113.297 281.023H113.359C113.677 280.466 114.06 280.036 114.508 279.734C114.956 279.432 115.448 279.281 115.984 279.281ZM122.227 288.156C120.961 288.156 119.961 287.771 119.227 287C118.497 286.229 118.133 285.159 118.133 283.789C118.133 282.409 118.471 281.312 119.148 280.5C119.831 279.688 120.745 279.281 121.891 279.281C122.964 279.281 123.812 279.635 124.438 280.344C125.062 281.047 125.375 281.977 125.375 283.133V283.953H119.477C119.503 284.958 119.755 285.721 120.234 286.242C120.719 286.763 121.398 287.023 122.273 287.023C123.195 287.023 124.107 286.831 125.008 286.445V287.602C124.549 287.799 124.115 287.94 123.703 288.023C123.297 288.112 122.805 288.156 122.227 288.156ZM121.875 280.367C121.188 280.367 120.638 280.591 120.227 281.039C119.82 281.487 119.581 282.107 119.508 282.898H123.984C123.984 282.081 123.802 281.456 123.438 281.023C123.073 280.586 122.552 280.367 121.875 280.367ZM134.602 279.438V280.258L133.016 280.445C133.161 280.628 133.292 280.867 133.406 281.164C133.521 281.456 133.578 281.786 133.578 282.156C133.578 282.995 133.292 283.664 132.719 284.164C132.146 284.664 131.359 284.914 130.359 284.914C130.104 284.914 129.865 284.893 129.641 284.852C129.089 285.143 128.812 285.51 128.812 285.953C128.812 286.188 128.909 286.362 129.102 286.477C129.294 286.586 129.625 286.641 130.094 286.641H131.609C132.536 286.641 133.247 286.836 133.742 287.227C134.242 287.617 134.492 288.185 134.492 288.93C134.492 289.878 134.112 290.599 133.352 291.094C132.591 291.594 131.482 291.844 130.023 291.844C128.904 291.844 128.039 291.635 127.43 291.219C126.826 290.802 126.523 290.214 126.523 289.453C126.523 288.932 126.69 288.482 127.023 288.102C127.357 287.721 127.826 287.464 128.43 287.328C128.211 287.229 128.026 287.076 127.875 286.867C127.729 286.659 127.656 286.417 127.656 286.141C127.656 285.828 127.74 285.555 127.906 285.32C128.073 285.086 128.336 284.859 128.695 284.641C128.253 284.458 127.891 284.148 127.609 283.711C127.333 283.273 127.195 282.773 127.195 282.211C127.195 281.273 127.477 280.552 128.039 280.047C128.602 279.536 129.398 279.281 130.43 279.281C130.878 279.281 131.281 279.333 131.641 279.438H134.602ZM127.773 289.438C127.773 289.901 127.969 290.253 128.359 290.492C128.75 290.732 129.31 290.852 130.039 290.852C131.128 290.852 131.932 290.688 132.453 290.359C132.979 290.036 133.242 289.596 133.242 289.039C133.242 288.576 133.099 288.253 132.812 288.07C132.526 287.893 131.987 287.805 131.195 287.805H129.641C129.052 287.805 128.594 287.945 128.266 288.227C127.938 288.508 127.773 288.911 127.773 289.438ZM128.477 282.18C128.477 282.779 128.646 283.232 128.984 283.539C129.323 283.846 129.794 284 130.398 284C131.664 284 132.297 283.385 132.297 282.156C132.297 280.87 131.656 280.227 130.375 280.227C129.766 280.227 129.297 280.391 128.969 280.719C128.641 281.047 128.477 281.534 128.477 282.18ZM137.578 279.438V284.992C137.578 285.69 137.737 286.211 138.055 286.555C138.372 286.898 138.87 287.07 139.547 287.07C140.443 287.07 141.096 286.826 141.508 286.336C141.924 285.846 142.133 285.047 142.133 283.938V279.438H143.43V288H142.359L142.172 286.852H142.102C141.836 287.273 141.466 287.596 140.992 287.82C140.523 288.044 139.987 288.156 139.383 288.156C138.341 288.156 137.56 287.909 137.039 287.414C136.523 286.919 136.266 286.128 136.266 285.039V279.438H137.578ZM147.484 288H146.188V275.844H147.484V288ZM155.5 288L155.242 286.781H155.18C154.753 287.318 154.326 287.682 153.898 287.875C153.477 288.062 152.948 288.156 152.312 288.156C151.464 288.156 150.797 287.938 150.312 287.5C149.833 287.062 149.594 286.44 149.594 285.633C149.594 283.904 150.977 282.997 153.742 282.914L155.195 282.867V282.336C155.195 281.664 155.049 281.169 154.758 280.852C154.471 280.529 154.01 280.367 153.375 280.367C152.661 280.367 151.854 280.586 150.953 281.023L150.555 280.031C150.977 279.802 151.438 279.622 151.938 279.492C152.443 279.362 152.948 279.297 153.453 279.297C154.474 279.297 155.229 279.523 155.719 279.977C156.214 280.43 156.461 281.156 156.461 282.156V288H155.5ZM152.57 287.086C153.378 287.086 154.01 286.865 154.469 286.422C154.932 285.979 155.164 285.359 155.164 284.562V283.789L153.867 283.844C152.836 283.88 152.091 284.042 151.633 284.328C151.18 284.609 150.953 285.049 150.953 285.648C150.953 286.117 151.094 286.474 151.375 286.719C151.661 286.964 152.06 287.086 152.57 287.086ZM161.906 287.086C162.135 287.086 162.357 287.07 162.57 287.039C162.784 287.003 162.953 286.966 163.078 286.93V287.922C162.938 287.99 162.729 288.044 162.453 288.086C162.182 288.133 161.938 288.156 161.719 288.156C160.062 288.156 159.234 287.284 159.234 285.539V280.445H158.008V279.82L159.234 279.281L159.781 277.453H160.531V279.438H163.016V280.445H160.531V285.484C160.531 286 160.654 286.396 160.898 286.672C161.143 286.948 161.479 287.086 161.906 287.086ZM168.414 288.156C167.148 288.156 166.148 287.771 165.414 287C164.685 286.229 164.32 285.159 164.32 283.789C164.32 282.409 164.659 281.312 165.336 280.5C166.018 279.688 166.932 279.281 168.078 279.281C169.151 279.281 170 279.635 170.625 280.344C171.25 281.047 171.562 281.977 171.562 283.133V283.953H165.664C165.69 284.958 165.943 285.721 166.422 286.242C166.906 286.763 167.586 287.023 168.461 287.023C169.383 287.023 170.294 286.831 171.195 286.445V287.602C170.737 287.799 170.302 287.94 169.891 288.023C169.484 288.112 168.992 288.156 168.414 288.156ZM168.062 280.367C167.375 280.367 166.826 280.591 166.414 281.039C166.008 281.487 165.768 282.107 165.695 282.898H170.172C170.172 282.081 169.99 281.456 169.625 281.023C169.26 280.586 168.74 280.367 168.062 280.367ZM179.609 286.852H179.539C178.94 287.721 178.044 288.156 176.852 288.156C175.732 288.156 174.859 287.773 174.234 287.008C173.615 286.242 173.305 285.154 173.305 283.742C173.305 282.331 173.617 281.234 174.242 280.453C174.867 279.672 175.737 279.281 176.852 279.281C178.013 279.281 178.904 279.703 179.523 280.547H179.625L179.57 279.93L179.539 279.328V275.844H180.836V288H179.781L179.609 286.852ZM177.016 287.07C177.901 287.07 178.542 286.831 178.938 286.352C179.339 285.867 179.539 285.089 179.539 284.016V283.742C179.539 282.529 179.336 281.664 178.93 281.148C178.529 280.628 177.885 280.367 177 280.367C176.24 280.367 175.656 280.664 175.25 281.258C174.849 281.846 174.648 282.68 174.648 283.758C174.648 284.852 174.849 285.677 175.25 286.234C175.651 286.792 176.24 287.07 177.016 287.07ZM191.734 279.297C192.859 279.297 193.732 279.682 194.352 280.453C194.977 281.219 195.289 282.305 195.289 283.711C195.289 285.117 194.974 286.211 194.344 286.992C193.719 287.768 192.849 288.156 191.734 288.156C191.177 288.156 190.667 288.055 190.203 287.852C189.745 287.643 189.359 287.326 189.047 286.898H188.953L188.68 288H187.75V275.844H189.047V278.797C189.047 279.458 189.026 280.052 188.984 280.578H189.047C189.651 279.724 190.547 279.297 191.734 279.297ZM191.547 280.383C190.661 280.383 190.023 280.638 189.633 281.148C189.242 281.654 189.047 282.508 189.047 283.711C189.047 284.914 189.247 285.776 189.648 286.297C190.049 286.812 190.693 287.07 191.578 287.07C192.375 287.07 192.969 286.781 193.359 286.203C193.75 285.62 193.945 284.784 193.945 283.695C193.945 282.581 193.75 281.75 193.359 281.203C192.969 280.656 192.365 280.383 191.547 280.383ZM196.203 279.438H197.594L199.469 284.32C199.88 285.435 200.135 286.24 200.234 286.734H200.297C200.365 286.469 200.505 286.016 200.719 285.375C200.938 284.729 201.646 282.75 202.844 279.438H204.234L200.555 289.188C200.19 290.151 199.763 290.833 199.273 291.234C198.789 291.641 198.193 291.844 197.484 291.844C197.089 291.844 196.698 291.799 196.312 291.711V290.672C196.599 290.734 196.919 290.766 197.273 290.766C198.164 290.766 198.799 290.266 199.18 289.266L199.656 288.047L196.203 279.438ZM212.547 287.086C212.776 287.086 212.997 287.07 213.211 287.039C213.424 287.003 213.594 286.966 213.719 286.93V287.922C213.578 287.99 213.37 288.044 213.094 288.086C212.823 288.133 212.578 288.156 212.359 288.156C210.703 288.156 209.875 287.284 209.875 285.539V280.445H208.648V279.82L209.875 279.281L210.422 277.453H211.172V279.438H213.656V280.445H211.172V285.484C211.172 286 211.294 286.396 211.539 286.672C211.784 286.948 212.12 287.086 212.547 287.086ZM221.297 288V282.461C221.297 281.763 221.138 281.242 220.82 280.898C220.503 280.555 220.005 280.383 219.328 280.383C218.427 280.383 217.768 280.628 217.352 281.117C216.94 281.607 216.734 282.409 216.734 283.523V288H215.438V275.844H216.734V279.523C216.734 279.966 216.714 280.333 216.672 280.625H216.75C217.005 280.214 217.367 279.891 217.836 279.656C218.31 279.417 218.849 279.297 219.453 279.297C220.5 279.297 221.284 279.547 221.805 280.047C222.331 280.542 222.594 281.331 222.594 282.414V288H221.297ZM228.883 288.156C227.617 288.156 226.617 287.771 225.883 287C225.154 286.229 224.789 285.159 224.789 283.789C224.789 282.409 225.128 281.312 225.805 280.5C226.487 279.688 227.401 279.281 228.547 279.281C229.62 279.281 230.469 279.635 231.094 280.344C231.719 281.047 232.031 281.977 232.031 283.133V283.953H226.133C226.159 284.958 226.411 285.721 226.891 286.242C227.375 286.763 228.055 287.023 228.93 287.023C229.852 287.023 230.763 286.831 231.664 286.445V287.602C231.206 287.799 230.771 287.94 230.359 288.023C229.953 288.112 229.461 288.156 228.883 288.156ZM228.531 280.367C227.844 280.367 227.294 280.591 226.883 281.039C226.477 281.487 226.237 282.107 226.164 282.898H230.641C230.641 282.081 230.458 281.456 230.094 281.023C229.729 280.586 229.208 280.367 228.531 280.367ZM243.492 277.602C242.237 277.602 241.245 278.021 240.516 278.859C239.792 279.693 239.43 280.836 239.43 282.289C239.43 283.784 239.779 284.94 240.477 285.758C241.18 286.57 242.18 286.977 243.477 286.977C244.273 286.977 245.182 286.833 246.203 286.547V287.711C245.411 288.008 244.435 288.156 243.273 288.156C241.591 288.156 240.292 287.646 239.375 286.625C238.464 285.604 238.008 284.154 238.008 282.273C238.008 281.096 238.227 280.065 238.664 279.18C239.107 278.294 239.742 277.612 240.57 277.133C241.404 276.654 242.383 276.414 243.508 276.414C244.706 276.414 245.753 276.633 246.648 277.07L246.086 278.211C245.221 277.805 244.357 277.602 243.492 277.602ZM252.117 288.156C250.852 288.156 249.852 287.771 249.117 287C248.388 286.229 248.023 285.159 248.023 283.789C248.023 282.409 248.362 281.312 249.039 280.5C249.721 279.688 250.635 279.281 251.781 279.281C252.854 279.281 253.703 279.635 254.328 280.344C254.953 281.047 255.266 281.977 255.266 283.133V283.953H249.367C249.393 284.958 249.646 285.721 250.125 286.242C250.609 286.763 251.289 287.023 252.164 287.023C253.086 287.023 253.997 286.831 254.898 286.445V287.602C254.44 287.799 254.005 287.94 253.594 288.023C253.188 288.112 252.695 288.156 252.117 288.156ZM251.766 280.367C251.078 280.367 250.529 280.591 250.117 281.039C249.711 281.487 249.471 282.107 249.398 282.898H253.875C253.875 282.081 253.693 281.456 253.328 281.023C252.964 280.586 252.443 280.367 251.766 280.367ZM263.344 288V282.461C263.344 281.763 263.185 281.242 262.867 280.898C262.549 280.555 262.052 280.383 261.375 280.383C260.479 280.383 259.823 280.625 259.406 281.109C258.99 281.594 258.781 282.393 258.781 283.508V288H257.484V279.438H258.539L258.75 280.609H258.812C259.078 280.188 259.451 279.862 259.93 279.633C260.409 279.398 260.943 279.281 261.531 279.281C262.562 279.281 263.339 279.531 263.859 280.031C264.38 280.526 264.641 281.32 264.641 282.414V288H263.344ZM270.078 287.086C270.307 287.086 270.529 287.07 270.742 287.039C270.956 287.003 271.125 286.966 271.25 286.93V287.922C271.109 287.99 270.901 288.044 270.625 288.086C270.354 288.133 270.109 288.156 269.891 288.156C268.234 288.156 267.406 287.284 267.406 285.539V280.445H266.18V279.82L267.406 279.281L267.953 277.453H268.703V279.438H271.188V280.445H268.703V285.484C268.703 286 268.826 286.396 269.07 286.672C269.315 286.948 269.651 287.086 270.078 287.086ZM276.875 279.281C277.255 279.281 277.596 279.312 277.898 279.375L277.719 280.578C277.365 280.5 277.052 280.461 276.781 280.461C276.089 280.461 275.495 280.742 275 281.305C274.51 281.867 274.266 282.568 274.266 283.406V288H272.969V279.438H274.039L274.188 281.023H274.25C274.568 280.466 274.951 280.036 275.398 279.734C275.846 279.432 276.339 279.281 276.875 279.281ZM284.766 288L284.508 286.781H284.445C284.018 287.318 283.591 287.682 283.164 287.875C282.742 288.062 282.214 288.156 281.578 288.156C280.729 288.156 280.062 287.938 279.578 287.5C279.099 287.062 278.859 286.44 278.859 285.633C278.859 283.904 280.242 282.997 283.008 282.914L284.461 282.867V282.336C284.461 281.664 284.315 281.169 284.023 280.852C283.737 280.529 283.276 280.367 282.641 280.367C281.927 280.367 281.12 280.586 280.219 281.023L279.82 280.031C280.242 279.802 280.703 279.622 281.203 279.492C281.708 279.362 282.214 279.297 282.719 279.297C283.74 279.297 284.495 279.523 284.984 279.977C285.479 280.43 285.727 281.156 285.727 282.156V288H284.766ZM281.836 287.086C282.643 287.086 283.276 286.865 283.734 286.422C284.198 285.979 284.43 285.359 284.43 284.562V283.789L283.133 283.844C282.102 283.88 281.357 284.042 280.898 284.328C280.445 284.609 280.219 285.049 280.219 285.648C280.219 286.117 280.359 286.474 280.641 286.719C280.927 286.964 281.326 287.086 281.836 287.086ZM289.703 288H288.406V275.844H289.703V288ZM296.805 276.578H300.031C301.547 276.578 302.643 276.805 303.32 277.258C303.997 277.711 304.336 278.427 304.336 279.406C304.336 280.083 304.146 280.643 303.766 281.086C303.391 281.523 302.841 281.807 302.117 281.938V282.016C303.852 282.312 304.719 283.224 304.719 284.75C304.719 285.771 304.372 286.568 303.68 287.141C302.992 287.714 302.029 288 300.789 288H296.805V276.578ZM298.133 281.469H300.32C301.258 281.469 301.932 281.323 302.344 281.031C302.755 280.734 302.961 280.237 302.961 279.539C302.961 278.898 302.732 278.438 302.273 278.156C301.815 277.87 301.086 277.727 300.086 277.727H298.133V281.469ZM298.133 282.594V286.867H300.516C301.438 286.867 302.13 286.69 302.594 286.336C303.062 285.977 303.297 285.417 303.297 284.656C303.297 283.948 303.057 283.427 302.578 283.094C302.104 282.76 301.38 282.594 300.406 282.594H298.133ZM312.25 288L311.992 286.781H311.93C311.503 287.318 311.076 287.682 310.648 287.875C310.227 288.062 309.698 288.156 309.062 288.156C308.214 288.156 307.547 287.938 307.062 287.5C306.583 287.062 306.344 286.44 306.344 285.633C306.344 283.904 307.727 282.997 310.492 282.914L311.945 282.867V282.336C311.945 281.664 311.799 281.169 311.508 280.852C311.221 280.529 310.76 280.367 310.125 280.367C309.411 280.367 308.604 280.586 307.703 281.023L307.305 280.031C307.727 279.802 308.188 279.622 308.688 279.492C309.193 279.362 309.698 279.297 310.203 279.297C311.224 279.297 311.979 279.523 312.469 279.977C312.964 280.43 313.211 281.156 313.211 282.156V288H312.25ZM309.32 287.086C310.128 287.086 310.76 286.865 311.219 286.422C311.682 285.979 311.914 285.359 311.914 284.562V283.789L310.617 283.844C309.586 283.88 308.841 284.042 308.383 284.328C307.93 284.609 307.703 285.049 307.703 285.648C307.703 286.117 307.844 286.474 308.125 286.719C308.411 286.964 308.81 287.086 309.32 287.086ZM321.75 288V282.461C321.75 281.763 321.591 281.242 321.273 280.898C320.956 280.555 320.458 280.383 319.781 280.383C318.885 280.383 318.229 280.625 317.812 281.109C317.396 281.594 317.188 282.393 317.188 283.508V288H315.891V279.438H316.945L317.156 280.609H317.219C317.484 280.188 317.857 279.862 318.336 279.633C318.815 279.398 319.349 279.281 319.938 279.281C320.969 279.281 321.745 279.531 322.266 280.031C322.786 280.526 323.047 281.32 323.047 282.414V288H321.75ZM327 283.617C327.224 283.299 327.565 282.883 328.023 282.367L330.789 279.438H332.328L328.859 283.086L332.57 288H331L327.977 283.953L327 284.797V288H325.719V275.844H327V282.289C327 282.576 326.979 283.018 326.938 283.617H327ZM345.672 283.711C345.672 285.107 345.32 286.198 344.617 286.984C343.914 287.766 342.943 288.156 341.703 288.156C340.938 288.156 340.258 287.977 339.664 287.617C339.07 287.258 338.612 286.742 338.289 286.07C337.966 285.398 337.805 284.612 337.805 283.711C337.805 282.315 338.154 281.229 338.852 280.453C339.549 279.672 340.518 279.281 341.758 279.281C342.956 279.281 343.906 279.68 344.609 280.477C345.318 281.273 345.672 282.352 345.672 283.711ZM339.148 283.711C339.148 284.805 339.367 285.638 339.805 286.211C340.242 286.784 340.885 287.07 341.734 287.07C342.583 287.07 343.227 286.786 343.664 286.219C344.107 285.646 344.328 284.81 344.328 283.711C344.328 282.622 344.107 281.797 343.664 281.234C343.227 280.667 342.578 280.383 341.719 280.383C340.87 280.383 340.229 280.661 339.797 281.219C339.365 281.776 339.148 282.607 339.148 283.711ZM351.812 280.445H349.633V288H348.336V280.445H346.805V279.859L348.336 279.391V278.914C348.336 276.81 349.255 275.758 351.094 275.758C351.547 275.758 352.078 275.849 352.688 276.031L352.352 277.07C351.852 276.909 351.424 276.828 351.07 276.828C350.581 276.828 350.219 276.992 349.984 277.32C349.75 277.643 349.633 278.164 349.633 278.883V279.438H351.812V280.445ZM196.688 315H195.172L188.93 305.414H188.867C188.951 306.539 188.992 307.57 188.992 308.508V315H187.766V303.578H189.266L195.492 313.125H195.555C195.544 312.984 195.521 312.534 195.484 311.773C195.448 311.008 195.435 310.461 195.445 310.133V303.578H196.688V315ZM200.93 315H199.633V306.438H200.93V315ZM199.523 304.117C199.523 303.82 199.596 303.604 199.742 303.469C199.888 303.328 200.07 303.258 200.289 303.258C200.497 303.258 200.677 303.328 200.828 303.469C200.979 303.609 201.055 303.826 201.055 304.117C201.055 304.409 200.979 304.628 200.828 304.773C200.677 304.914 200.497 304.984 200.289 304.984C200.07 304.984 199.888 304.914 199.742 304.773C199.596 304.628 199.523 304.409 199.523 304.117ZM210.688 306.438V307.258L209.102 307.445C209.247 307.628 209.378 307.867 209.492 308.164C209.607 308.456 209.664 308.786 209.664 309.156C209.664 309.995 209.378 310.664 208.805 311.164C208.232 311.664 207.445 311.914 206.445 311.914C206.19 311.914 205.951 311.893 205.727 311.852C205.174 312.143 204.898 312.51 204.898 312.953C204.898 313.188 204.995 313.362 205.188 313.477C205.38 313.586 205.711 313.641 206.18 313.641H207.695C208.622 313.641 209.333 313.836 209.828 314.227C210.328 314.617 210.578 315.185 210.578 315.93C210.578 316.878 210.198 317.599 209.438 318.094C208.677 318.594 207.568 318.844 206.109 318.844C204.99 318.844 204.125 318.635 203.516 318.219C202.911 317.802 202.609 317.214 202.609 316.453C202.609 315.932 202.776 315.482 203.109 315.102C203.443 314.721 203.911 314.464 204.516 314.328C204.297 314.229 204.112 314.076 203.961 313.867C203.815 313.659 203.742 313.417 203.742 313.141C203.742 312.828 203.826 312.555 203.992 312.32C204.159 312.086 204.422 311.859 204.781 311.641C204.339 311.458 203.977 311.148 203.695 310.711C203.419 310.273 203.281 309.773 203.281 309.211C203.281 308.273 203.562 307.552 204.125 307.047C204.688 306.536 205.484 306.281 206.516 306.281C206.964 306.281 207.367 306.333 207.727 306.438H210.688ZM203.859 316.438C203.859 316.901 204.055 317.253 204.445 317.492C204.836 317.732 205.396 317.852 206.125 317.852C207.214 317.852 208.018 317.688 208.539 317.359C209.065 317.036 209.328 316.596 209.328 316.039C209.328 315.576 209.185 315.253 208.898 315.07C208.612 314.893 208.073 314.805 207.281 314.805H205.727C205.138 314.805 204.68 314.945 204.352 315.227C204.023 315.508 203.859 315.911 203.859 316.438ZM204.562 309.18C204.562 309.779 204.732 310.232 205.07 310.539C205.409 310.846 205.88 311 206.484 311C207.75 311 208.383 310.385 208.383 309.156C208.383 307.87 207.742 307.227 206.461 307.227C205.852 307.227 205.383 307.391 205.055 307.719C204.727 308.047 204.562 308.534 204.562 309.18ZM216.062 315.156C214.797 315.156 213.797 314.771 213.062 314C212.333 313.229 211.969 312.159 211.969 310.789C211.969 309.409 212.307 308.312 212.984 307.5C213.667 306.688 214.581 306.281 215.727 306.281C216.799 306.281 217.648 306.635 218.273 307.344C218.898 308.047 219.211 308.977 219.211 310.133V310.953H213.312C213.339 311.958 213.591 312.721 214.07 313.242C214.555 313.763 215.234 314.023 216.109 314.023C217.031 314.023 217.943 313.831 218.844 313.445V314.602C218.385 314.799 217.951 314.94 217.539 315.023C217.133 315.112 216.641 315.156 216.062 315.156ZM215.711 307.367C215.023 307.367 214.474 307.591 214.062 308.039C213.656 308.487 213.417 309.107 213.344 309.898H217.82C217.82 309.081 217.638 308.456 217.273 308.023C216.909 307.586 216.388 307.367 215.711 307.367ZM225.336 306.281C225.716 306.281 226.057 306.312 226.359 306.375L226.18 307.578C225.826 307.5 225.513 307.461 225.242 307.461C224.549 307.461 223.956 307.742 223.461 308.305C222.971 308.867 222.727 309.568 222.727 310.406V315H221.43V306.438H222.5L222.648 308.023H222.711C223.029 307.466 223.411 307.036 223.859 306.734C224.307 306.432 224.799 306.281 225.336 306.281ZM229.258 315H227.961V306.438H229.258V315ZM227.852 304.117C227.852 303.82 227.924 303.604 228.07 303.469C228.216 303.328 228.398 303.258 228.617 303.258C228.826 303.258 229.005 303.328 229.156 303.469C229.307 303.609 229.383 303.826 229.383 304.117C229.383 304.409 229.307 304.628 229.156 304.773C229.005 304.914 228.826 304.984 228.617 304.984C228.398 304.984 228.216 304.914 228.07 304.773C227.924 304.628 227.852 304.409 227.852 304.117ZM237.273 315L237.016 313.781H236.953C236.526 314.318 236.099 314.682 235.672 314.875C235.25 315.062 234.721 315.156 234.086 315.156C233.237 315.156 232.57 314.938 232.086 314.5C231.607 314.062 231.367 313.44 231.367 312.633C231.367 310.904 232.75 309.997 235.516 309.914L236.969 309.867V309.336C236.969 308.664 236.823 308.169 236.531 307.852C236.245 307.529 235.784 307.367 235.148 307.367C234.435 307.367 233.628 307.586 232.727 308.023L232.328 307.031C232.75 306.802 233.211 306.622 233.711 306.492C234.216 306.362 234.721 306.297 235.227 306.297C236.247 306.297 237.003 306.523 237.492 306.977C237.987 307.43 238.234 308.156 238.234 309.156V315H237.273ZM234.344 314.086C235.151 314.086 235.784 313.865 236.242 313.422C236.706 312.979 236.938 312.359 236.938 311.562V310.789L235.641 310.844C234.609 310.88 233.865 311.042 233.406 311.328C232.953 311.609 232.727 312.049 232.727 312.648C232.727 313.117 232.867 313.474 233.148 313.719C233.435 313.964 233.833 314.086 234.344 314.086ZM240.727 314.172C240.727 313.823 240.805 313.56 240.961 313.383C241.122 313.201 241.352 313.109 241.648 313.109C241.951 313.109 242.185 313.201 242.352 313.383C242.523 313.56 242.609 313.823 242.609 314.172C242.609 314.51 242.523 314.771 242.352 314.953C242.18 315.135 241.945 315.227 241.648 315.227C241.383 315.227 241.161 315.146 240.984 314.984C240.812 314.818 240.727 314.547 240.727 314.172Z" fill="black" fill-opacity="0.7"/>
<g clip-path="url(#clip0_67_562)">
<path d="M237.481 27.519C231.343 21.3806 223.181 18 214.5 18C205.819 18 197.657 21.3806 191.519 27.519C185.381 33.6574 182 41.8188 182 50.5C182 59.1811 185.381 67.3426 191.519 73.481C197.657 79.6194 205.819 83 214.5 83C223.181 83 231.342 79.6194 237.481 73.481C243.619 67.3426 247 59.1811 247 50.5C247 41.8188 243.619 33.6574 237.481 27.519Z" fill="#74AE0E"/>
<path d="M237.481 27.519C231.343 21.3806 223.181 18 214.5 18V83C223.181 83 231.343 79.6194 237.481 73.481C243.619 67.3426 247 59.1811 247 50.5C247 41.8188 243.619 33.6574 237.481 27.519Z" fill="#86CB0C"/>
<path d="M214.5 71.1208C225.889 71.1208 235.121 61.8886 235.121 50.5001C235.121 39.1115 225.889 29.8793 214.5 29.8793C203.112 29.8793 193.879 39.1115 193.879 50.5001C193.879 61.8886 203.112 71.1208 214.5 71.1208Z" fill="white"/>
<path d="M214.5 29.8793V71.1208C225.87 71.1208 235.121 61.8704 235.121 50.5001C235.121 39.1297 225.87 29.8793 214.5 29.8793Z" fill="#E6F6FF"/>
<path d="M214.5 59.6053C219.529 59.6053 223.606 55.5287 223.606 50.4999C223.606 45.4712 219.529 41.3945 214.5 41.3945C209.471 41.3945 205.395 45.4712 205.395 50.4999C205.395 55.5287 209.471 59.6053 214.5 59.6053Z" fill="#75B407"/>
<path d="M214.5 41.3947V59.6054C219.521 59.6054 223.605 55.5208 223.605 50.5C223.605 45.4793 219.521 41.3947 214.5 41.3947Z" fill="#86CB0C"/>
<path d="M238.105 26.8949L236.642 19.5777L226.638 29.5811L228.101 36.8985L235.419 38.3619L245.422 28.3584L238.105 26.8949Z" fill="#FBFBFB"/>
<path d="M238.105 26.8949L236.642 19.5777L226.638 29.5811L228.101 36.8985L235.419 38.3619L245.422 28.3584L238.105 26.8949Z" fill="#0A3F7D"/>
<path d="M214.511 47.7919L227.645 34.658L230.337 37.3505L217.203 50.4844L214.511 47.7919Z" fill="#3E5959"/>
<path d="M214.511 47.7919L227.645 34.658L230.337 37.3505L217.203 50.4844L214.511 47.7919Z" fill="#293939"/>
</g>
<defs>
<filter id="filter0_d_67_562" x="0" y="30" width="430" height="417" filterUnits="userSpaceOnUse" color-interpolation-filters="sRGB">
<feFlood flood-opacity="0" result="BackgroundImageFix"/>
<feColorMatrix in="SourceAlpha" type="matrix" values="0 0 0 0 0 0 0 0 0 0 0 0 0 0 0 0 0 0 127 0" result="hardAlpha"/>
<feOffset dy="10"/>
<feGaussianBlur stdDeviation="15"/>
<feColorMatrix type="matrix" values="0 0 0 0 0 0 0 0 0 0 0 0 0 0 0 0 0 0 0.1 0"/>
<feBlend mode="normal" in2="BackgroundImageFix" result="effect1_dropShadow_67_562"/>
<feBlend mode="normal" in="SourceGraphic" in2="effect1_dropShadow_67_562" result="shape"/>
</filter>
<filter id="filter1_di_67_562" x="155" y="0" width="120" height="120" filterUnits="userSpaceOnUse" color-interpolation-filters="sRGB">
<feFlood flood-opacity="0" result="BackgroundImageFix"/>
<feColorMatrix in="SourceAlpha" type="matrix" values="0 0 0 0 0 0 0 0 0 0 0 0 0 0 0 0 0 0 127 0" result="hardAlpha"/>
<feOffset dy="10"/>
<feGaussianBlur stdDeviation="5"/>
<feColorMatrix type="matrix" values="0 0 0 0 0 0 0 0 0 0 0 0 0 0 0 0 0 0 0.07 0"/>
<feBlend mode="normal" in2="BackgroundImageFix" result="effect1_dropShadow_67_562"/>
<feBlend mode="normal" in="SourceGraphic" in2="effect1_dropShadow_67_562" result="shape"/>
<feColorMatrix in="SourceAlpha" type="matrix" values="0 0 0 0 0 0 0 0 0 0 0 0 0 0 0 0 0 0 127 0" result="hardAlpha"/>
<feOffset dy="5"/>
<feGaussianBlur stdDeviation="2.5"/>
<feComposite in2="hardAlpha" operator="arithmetic" k2="-1" k3="1"/>
<feColorMatrix type="matrix" values="0 0 0 0 0 0 0 0 0 0 0 0 0 0 0 0 0 0 0.05 0"/>
<feBlend mode="normal" in2="shape" result="effect2_innerShadow_67_562"/>
</filter>
<clipPath id="clip0_67_562">
<rect width="65" height="65" fill="white" transform="translate(182 18)"/>
</clipPath>
</defs>
</svg>
