<svg width="867" height="144" viewBox="0 0 867 144" fill="none" xmlns="http://www.w3.org/2000/svg">
<g opacity="0.4" filter="url(#filter0_f_226_5363)">
<rect width="104" height="104" rx="52" transform="matrix(-1 0 0 1 124 20)" fill="white" fill-opacity="0.18"/>
</g>
<g opacity="0.7" filter="url(#filter1_bi_226_5363)">
<rect width="104" height="104" rx="52" transform="matrix(-1 0 0 1 124 20)" fill="white" fill-opacity="0.19"/>
<rect width="104" height="104" rx="52" transform="matrix(-1 0 0 1 124 20)" stroke="white" stroke-width="2"/>
</g>
<path d="M81.9998 63.9333C81.8998 63.9166 81.7831 63.9166 81.6831 63.9333C79.3831 63.8499 77.5498 61.9666 77.5498 59.6333C77.5498 57.2499 79.4665 55.3333 81.8498 55.3333C84.2331 55.3333 86.1498 57.2666 86.1498 59.6333C86.1331 61.9666 84.2998 63.8499 81.9998 63.9333Z" stroke="white" stroke-width="1.5" stroke-linecap="round" stroke-linejoin="round"/>
<path d="M80.2829 76.0666C82.5662 76.4499 85.0829 76.0499 86.8496 74.8666C89.1996 73.2999 89.1996 70.7333 86.8496 69.1666C85.0663 67.9833 82.5162 67.5833 80.2329 67.9833" stroke="white" stroke-width="1.5" stroke-linecap="round" stroke-linejoin="round"/>
<path d="M61.9498 63.9333C62.0498 63.9166 62.1665 63.9166 62.2665 63.9333C64.5665 63.8499 66.3998 61.9666 66.3998 59.6333C66.3998 57.2499 64.4831 55.3333 62.0998 55.3333C59.7165 55.3333 57.7998 57.2666 57.7998 59.6333C57.8165 61.9666 59.6498 63.8499 61.9498 63.9333Z" stroke="white" stroke-width="1.5" stroke-linecap="round" stroke-linejoin="round"/>
<path d="M63.6666 76.0666C61.3832 76.4499 58.8666 76.0499 57.0999 74.8666C54.7499 73.2999 54.7499 70.7333 57.0999 69.1666C58.8832 67.9833 61.4332 67.5833 63.7166 67.9833" stroke="white" stroke-width="1.5" stroke-linecap="round" stroke-linejoin="round"/>
<path d="M72.0003 76.3835C71.9003 76.3668 71.7836 76.3668 71.6836 76.3835C69.3836 76.3001 67.5503 74.4168 67.5503 72.0834C67.5503 69.7001 69.467 67.7834 71.8503 67.7834C74.2336 67.7834 76.1503 69.7168 76.1503 72.0834C76.1336 74.4168 74.3003 76.3168 72.0003 76.3835Z" stroke="white" stroke-width="1.5" stroke-linecap="round" stroke-linejoin="round"/>
<path d="M67.1502 81.6333C64.8002 83.2 64.8002 85.7667 67.1502 87.3333C69.8169 89.1167 74.1835 89.1167 76.8502 87.3333C79.2002 85.7667 79.2002 83.2 76.8502 81.6333C74.2002 79.8667 69.8169 79.8667 67.1502 81.6333Z" stroke="white" stroke-width="1.5" stroke-linecap="round" stroke-linejoin="round"/>
<g opacity="0.4" filter="url(#filter2_f_226_5363)">
<rect width="104" height="104" rx="52" transform="matrix(-1 0 0 1 365 20)" fill="white" fill-opacity="0.18"/>
</g>
<g opacity="0.7" filter="url(#filter3_bi_226_5363)">
<rect width="104" height="104" rx="52" transform="matrix(-1 0 0 1 365 20)" fill="white" fill-opacity="0.19"/>
<rect width="104" height="104" rx="52" transform="matrix(-1 0 0 1 365 20)" stroke="white" stroke-width="2"/>
</g>
<path d="M321.333 66.9999C321.333 73.4499 315.733 78.6666 308.833 78.6666L307.284 80.5332L306.367 81.6333C305.584 82.5666 304.083 82.3666 303.567 81.2499L301.333 76.3332C298.3 74.1999 296.333 70.8166 296.333 66.9999C296.333 60.5499 301.933 55.3333 308.833 55.3333C313.867 55.3333 318.217 58.1166 320.167 62.1166C320.917 63.5999 321.333 65.2499 321.333 66.9999Z" stroke="white" stroke-width="1.5" stroke-linecap="round" stroke-linejoin="round"/>
<path d="M329.667 73.4333C329.667 77.25 327.7 80.6334 324.667 82.7667L322.433 87.6833C321.917 88.8 320.417 89.0167 319.633 88.0667L317.167 85.1C313.133 85.1 309.533 83.3167 307.283 80.5333L308.833 78.6667C315.733 78.6667 321.333 73.45 321.333 67C321.333 65.25 320.917 63.6 320.167 62.1167C325.617 63.3667 329.667 67.9667 329.667 73.4333Z" stroke="white" stroke-width="1.5" stroke-linecap="round" stroke-linejoin="round"/>
<path d="M304.667 67H313" stroke="white" stroke-width="1.5" stroke-linecap="round" stroke-linejoin="round"/>
<g opacity="0.4" filter="url(#filter4_f_226_5363)">
<rect width="104" height="104" rx="52" transform="matrix(-1 0 0 1 606 20)" fill="white" fill-opacity="0.18"/>
</g>
<g opacity="0.7" filter="url(#filter5_bi_226_5363)">
<rect width="104" height="104" rx="52" transform="matrix(-1 0 0 1 606 20)" fill="white" fill-opacity="0.19"/>
<rect width="104" height="104" rx="52" transform="matrix(-1 0 0 1 606 20)" stroke="white" stroke-width="2"/>
</g>
<path d="M537.333 66.1666C537.333 60.3333 540.667 57.8333 545.667 57.8333H562.333C567.333 57.8333 570.667 60.3333 570.667 66.1666V77.8333C570.667 83.6666 567.333 86.1666 562.333 86.1666H545.667" stroke="white" stroke-width="1.5" stroke-miterlimit="10" stroke-linecap="round" stroke-linejoin="round"/>
<path d="M562.333 67L557.116 71.1667C555.4 72.5333 552.583 72.5333 550.866 71.1667L545.667 67" stroke="white" stroke-width="1.5" stroke-miterlimit="10" stroke-linecap="round" stroke-linejoin="round"/>
<path d="M537.333 79.5H547.333" stroke="white" stroke-width="1.5" stroke-miterlimit="10" stroke-linecap="round" stroke-linejoin="round"/>
<path d="M537.333 72.8333H542.333" stroke="white" stroke-width="1.5" stroke-miterlimit="10" stroke-linecap="round" stroke-linejoin="round"/>
<g opacity="0.4" filter="url(#filter6_f_226_5363)">
<rect width="104" height="104" rx="52" transform="matrix(-1 0 0 1 847 20)" fill="white" fill-opacity="0.18"/>
</g>
<g opacity="0.7" filter="url(#filter7_bi_226_5363)">
<rect width="104" height="104" rx="52" transform="matrix(-1 0 0 1 847 20)" fill="white" fill-opacity="0.19"/>
<rect width="104" height="104" rx="52" transform="matrix(-1 0 0 1 847 20)" stroke="white" stroke-width="2"/>
</g>
<path d="M811.617 82.5499C811.617 83.1499 811.483 83.7666 811.2 84.3666C810.917 84.9666 810.55 85.5333 810.067 86.0666C809.25 86.9666 808.35 87.6166 807.333 88.0333C806.333 88.4499 805.25 88.6666 804.083 88.6666C802.383 88.6666 800.567 88.2666 798.65 87.4499C796.733 86.6333 794.817 85.5333 792.917 84.1499C791 82.7499 789.183 81.1999 787.45 79.4833C785.733 77.7499 784.183 75.9333 782.8 74.0333C781.433 72.1333 780.333 70.2333 779.533 68.3499C778.733 66.4499 778.333 64.6333 778.333 62.8999C778.333 61.7666 778.533 60.6833 778.933 59.6833C779.333 58.6666 779.967 57.7333 780.85 56.8999C781.917 55.8499 783.083 55.3333 784.317 55.3333C784.783 55.3333 785.25 55.4333 785.667 55.6333C786.1 55.8333 786.483 56.1333 786.783 56.5666L790.65 62.0166C790.95 62.4333 791.167 62.8166 791.317 63.1833C791.467 63.5333 791.55 63.8833 791.55 64.1999C791.55 64.5999 791.433 64.9999 791.2 65.3833C790.983 65.7666 790.667 66.1666 790.267 66.5666L789 67.8833C788.817 68.0666 788.733 68.2833 788.733 68.5499C788.733 68.6833 788.75 68.7999 788.783 68.9333C788.833 69.0666 788.883 69.1666 788.917 69.2666C789.217 69.8166 789.733 70.5333 790.467 71.3999C791.217 72.2666 792.017 73.1499 792.883 74.0333C793.783 74.9166 794.65 75.7333 795.533 76.4833C796.4 77.2166 797.117 77.7166 797.683 78.0166C797.767 78.0499 797.867 78.0999 797.983 78.1499C798.117 78.1999 798.25 78.2166 798.4 78.2166C798.683 78.2166 798.9 78.1166 799.083 77.9333L800.35 76.6833C800.767 76.2666 801.167 75.9499 801.55 75.7499C801.933 75.5166 802.317 75.3999 802.733 75.3999C803.05 75.3999 803.383 75.4666 803.75 75.6166C804.117 75.7666 804.5 75.9833 804.917 76.2666L810.433 80.1833C810.867 80.4833 811.167 80.8333 811.35 81.2499C811.517 81.6666 811.617 82.0833 811.617 82.5499Z" stroke="white" stroke-width="1.5" stroke-miterlimit="10"/>
<path d="M805.833 66.9998C805.833 65.9998 805.05 64.4665 803.883 63.2165C802.817 62.0665 801.4 61.1665 800 61.1665" stroke="white" stroke-width="1.5" stroke-linecap="round" stroke-linejoin="round"/>
<path d="M811.667 66.9999C811.667 60.5499 806.45 55.3333 800 55.3333" stroke="white" stroke-width="1.5" stroke-linecap="round" stroke-linejoin="round"/>
<defs>
<filter id="filter0_f_226_5363" x="0" y="0" width="144" height="144" filterUnits="userSpaceOnUse" color-interpolation-filters="sRGB">
<feFlood flood-opacity="0" result="BackgroundImageFix"/>
<feBlend mode="normal" in="SourceGraphic" in2="BackgroundImageFix" result="shape"/>
<feGaussianBlur stdDeviation="10" result="effect1_foregroundBlur_226_5363"/>
</filter>
<filter id="filter1_bi_226_5363" x="-1" y="-1" width="146" height="146" filterUnits="userSpaceOnUse" color-interpolation-filters="sRGB">
<feFlood flood-opacity="0" result="BackgroundImageFix"/>
<feGaussianBlur in="BackgroundImageFix" stdDeviation="10"/>
<feComposite in2="SourceAlpha" operator="in" result="effect1_backgroundBlur_226_5363"/>
<feBlend mode="normal" in="SourceGraphic" in2="effect1_backgroundBlur_226_5363" result="shape"/>
<feColorMatrix in="SourceAlpha" type="matrix" values="0 0 0 0 0 0 0 0 0 0 0 0 0 0 0 0 0 0 127 0" result="hardAlpha"/>
<feOffset dy="2"/>
<feGaussianBlur stdDeviation="10"/>
<feComposite in2="hardAlpha" operator="arithmetic" k2="-1" k3="1"/>
<feColorMatrix type="matrix" values="0 0 0 0 0 0 0 0 0 0 0 0 0 0 0 0 0 0 0.08 0"/>
<feBlend mode="normal" in2="shape" result="effect2_innerShadow_226_5363"/>
</filter>
<filter id="filter2_f_226_5363" x="241" y="0" width="144" height="144" filterUnits="userSpaceOnUse" color-interpolation-filters="sRGB">
<feFlood flood-opacity="0" result="BackgroundImageFix"/>
<feBlend mode="normal" in="SourceGraphic" in2="BackgroundImageFix" result="shape"/>
<feGaussianBlur stdDeviation="10" result="effect1_foregroundBlur_226_5363"/>
</filter>
<filter id="filter3_bi_226_5363" x="240" y="-1" width="146" height="146" filterUnits="userSpaceOnUse" color-interpolation-filters="sRGB">
<feFlood flood-opacity="0" result="BackgroundImageFix"/>
<feGaussianBlur in="BackgroundImageFix" stdDeviation="10"/>
<feComposite in2="SourceAlpha" operator="in" result="effect1_backgroundBlur_226_5363"/>
<feBlend mode="normal" in="SourceGraphic" in2="effect1_backgroundBlur_226_5363" result="shape"/>
<feColorMatrix in="SourceAlpha" type="matrix" values="0 0 0 0 0 0 0 0 0 0 0 0 0 0 0 0 0 0 127 0" result="hardAlpha"/>
<feOffset dy="2"/>
<feGaussianBlur stdDeviation="10"/>
<feComposite in2="hardAlpha" operator="arithmetic" k2="-1" k3="1"/>
<feColorMatrix type="matrix" values="0 0 0 0 0 0 0 0 0 0 0 0 0 0 0 0 0 0 0.08 0"/>
<feBlend mode="normal" in2="shape" result="effect2_innerShadow_226_5363"/>
</filter>
<filter id="filter4_f_226_5363" x="482" y="0" width="144" height="144" filterUnits="userSpaceOnUse" color-interpolation-filters="sRGB">
<feFlood flood-opacity="0" result="BackgroundImageFix"/>
<feBlend mode="normal" in="SourceGraphic" in2="BackgroundImageFix" result="shape"/>
<feGaussianBlur stdDeviation="10" result="effect1_foregroundBlur_226_5363"/>
</filter>
<filter id="filter5_bi_226_5363" x="481" y="-1" width="146" height="146" filterUnits="userSpaceOnUse" color-interpolation-filters="sRGB">
<feFlood flood-opacity="0" result="BackgroundImageFix"/>
<feGaussianBlur in="BackgroundImageFix" stdDeviation="10"/>
<feComposite in2="SourceAlpha" operator="in" result="effect1_backgroundBlur_226_5363"/>
<feBlend mode="normal" in="SourceGraphic" in2="effect1_backgroundBlur_226_5363" result="shape"/>
<feColorMatrix in="SourceAlpha" type="matrix" values="0 0 0 0 0 0 0 0 0 0 0 0 0 0 0 0 0 0 127 0" result="hardAlpha"/>
<feOffset dy="2"/>
<feGaussianBlur stdDeviation="10"/>
<feComposite in2="hardAlpha" operator="arithmetic" k2="-1" k3="1"/>
<feColorMatrix type="matrix" values="0 0 0 0 0 0 0 0 0 0 0 0 0 0 0 0 0 0 0.08 0"/>
<feBlend mode="normal" in2="shape" result="effect2_innerShadow_226_5363"/>
</filter>
<filter id="filter6_f_226_5363" x="723" y="0" width="144" height="144" filterUnits="userSpaceOnUse" color-interpolation-filters="sRGB">
<feFlood flood-opacity="0" result="BackgroundImageFix"/>
<feBlend mode="normal" in="SourceGraphic" in2="BackgroundImageFix" result="shape"/>
<feGaussianBlur stdDeviation="10" result="effect1_foregroundBlur_226_5363"/>
</filter>
<filter id="filter7_bi_226_5363" x="722" y="-1" width="146" height="146" filterUnits="userSpaceOnUse" color-interpolation-filters="sRGB">
<feFlood flood-opacity="0" result="BackgroundImageFix"/>
<feGaussianBlur in="BackgroundImageFix" stdDeviation="10"/>
<feComposite in2="SourceAlpha" operator="in" result="effect1_backgroundBlur_226_5363"/>
<feBlend mode="normal" in="SourceGraphic" in2="effect1_backgroundBlur_226_5363" result="shape"/>
<feColorMatrix in="SourceAlpha" type="matrix" values="0 0 0 0 0 0 0 0 0 0 0 0 0 0 0 0 0 0 127 0" result="hardAlpha"/>
<feOffset dy="2"/>
<feGaussianBlur stdDeviation="10"/>
<feComposite in2="hardAlpha" operator="arithmetic" k2="-1" k3="1"/>
<feColorMatrix type="matrix" values="0 0 0 0 0 0 0 0 0 0 0 0 0 0 0 0 0 0 0.08 0"/>
<feBlend mode="normal" in2="shape" result="effect2_innerShadow_226_5363"/>
</filter>
</defs>
</svg>
