<svg width="784" height="73" viewBox="0 0 784 73" fill="none" xmlns="http://www.w3.org/2000/svg">
<path d="M0.515201 3.64214H12.2106V24.0601H32.1592V3.64214H43.9327V55H32.1592V34.2691H12.2106V55H0.515201V3.64214ZM51.0125 36.8898C51.0125 33.1608 51.847 29.8361 53.5159 26.9155C55.2109 23.9688 57.5708 21.6871 60.5957 20.0704C63.6467 18.4276 67.154 17.6062 71.1176 17.6062C75.0812 17.6062 78.5625 18.4276 81.5613 20.0704C84.5862 21.6871 86.9331 23.9688 88.602 26.9155C90.2969 29.8361 91.1444 33.1608 91.1444 36.8898C91.1444 40.5666 90.2969 43.8653 88.602 46.7859C86.9331 49.7065 84.5731 51.9882 81.5222 53.631C78.4712 55.2477 75.003 56.0561 71.1176 56.0561C67.154 56.0561 63.6467 55.2477 60.5957 53.631C57.5708 51.9882 55.2109 49.7065 53.5159 46.7859C51.847 43.8653 51.0125 40.5666 51.0125 36.8898ZM62.4341 36.8116C62.4341 39.5496 63.2294 41.7922 64.8201 43.5393C66.4368 45.2604 68.536 46.1209 71.1176 46.1209C73.6731 46.1209 75.7462 45.2604 77.3369 43.5393C78.9536 41.7922 79.762 39.5496 79.762 36.8116C79.762 34.0996 78.9667 31.8961 77.376 30.2012C75.8114 28.4801 73.7253 27.6196 71.1176 27.6196C68.5099 27.6196 66.4108 28.4801 64.8201 30.2012C63.2294 31.8961 62.4341 34.0996 62.4341 36.8116ZM105.226 18.8578L107.534 27.1111C109.02 32.4568 110.115 36.8116 110.819 40.1755C110.924 39.8104 112.723 33.6693 116.217 21.7523L116.843 19.601H128.695C129.164 21.2438 129.959 24.1775 131.081 28.4019C132.228 32.6263 133.297 36.7985 134.288 40.9186C135.097 37.3983 136.309 32.874 137.926 27.3458L140.39 18.8578H152.242L139.53 55H128.617C126.009 46.2383 124.027 39.0542 122.671 33.4477C122.41 34.6211 121.706 37.307 120.559 41.5054C119.411 45.7037 118.095 50.2019 116.608 55H105.226L93.1393 18.8578H105.226ZM175.163 36.8898C175.163 33.0565 175.972 29.6796 177.588 26.759C179.205 23.8385 181.5 21.5828 184.473 19.9922C187.445 18.4015 190.848 17.6062 194.682 17.6062C198.15 17.6062 201.24 18.245 203.952 19.5228C206.69 20.8005 208.867 22.6129 210.484 24.9598C212.127 27.3067 213.053 30.0056 213.261 33.0565H201.918C201.501 31.2312 200.614 29.8622 199.258 28.9495C197.928 28.0107 196.35 27.5413 194.525 27.5413C192.126 27.5413 190.183 28.3888 188.697 30.0838C187.237 31.7527 186.507 34.0214 186.507 36.8898C186.507 39.7322 187.224 42.0008 188.658 43.6958C190.118 45.3647 192.074 46.1991 194.525 46.1991C196.455 46.1991 198.085 45.6907 199.414 44.6737C200.744 43.6567 201.579 42.3398 201.918 40.7231H213.261C213 43.7219 212.049 46.3817 210.406 48.7025C208.789 51.0233 206.612 52.8356 203.874 54.1395C201.162 55.4172 198.098 56.0561 194.682 56.0561C190.848 56.0561 187.445 55.2608 184.473 53.6701C181.5 52.0533 179.205 49.8108 177.588 46.9423C175.972 44.0478 175.163 40.697 175.163 36.8898ZM258.478 18.8578V55H247.721V50.8538C246.496 52.4445 244.788 53.7092 242.597 54.648C240.407 55.5867 238.034 56.0561 235.478 56.0561C232.115 56.0561 229.129 55.2738 226.521 53.7092C223.94 52.1185 221.945 49.9151 220.537 47.0988C219.128 44.2564 218.424 40.9578 218.424 37.2027C218.424 33.2912 219.181 29.8622 220.693 26.9155C222.205 23.9688 224.331 21.6871 227.069 20.0704C229.833 18.4276 232.975 17.6062 236.495 17.6062C241.685 17.6062 245.635 19.1968 248.347 22.3782L249.09 18.8578H258.478ZM238.451 45.9645C241.059 45.9645 243.171 45.13 244.788 43.4611C246.431 41.7661 247.252 39.5235 247.252 36.7333C247.252 34.0214 246.431 31.844 244.788 30.2012C243.171 28.5323 241.059 27.6978 238.451 27.6978C235.843 27.6978 233.757 28.5453 232.193 30.2403C230.628 31.9092 229.846 34.0996 229.846 36.8116C229.846 39.5235 230.628 41.727 232.193 43.422C233.783 45.117 235.87 45.9645 238.451 45.9645ZM288.244 17.6062C292.573 17.6062 295.937 18.9621 298.336 21.6741C300.761 24.3861 301.974 28.0238 301.974 32.5872V55H290.748V35.2079C290.748 30.2533 288.714 27.776 284.646 27.776C282.508 27.776 280.891 28.4019 279.796 29.6535C278.7 30.9052 278.153 32.6524 278.153 34.8949V55H267.044V18.8578H276.314L277.058 22.8084C278.179 21.2178 279.73 19.953 281.712 19.0143C283.72 18.0755 285.897 17.6062 288.244 17.6062ZM338.351 18.8578L340.658 27.1111C342.145 32.4568 343.24 36.8116 343.944 40.1755C344.048 39.8104 345.848 33.6693 349.342 21.7523L349.968 19.601H361.82C362.289 21.2438 363.084 24.1775 364.206 28.4019C365.353 32.6263 366.422 36.7985 367.413 40.9186C368.221 37.3983 369.434 32.874 371.051 27.3458L373.515 18.8578H385.367L372.654 55H361.741C359.134 46.2383 357.152 39.0542 355.796 33.4477C355.535 34.6211 354.831 37.307 353.684 41.5054C352.536 45.7037 351.219 50.2019 349.733 55H338.351L326.264 18.8578H338.351ZM424.56 43.3829C423.804 47.164 421.757 50.228 418.419 52.5749C415.081 54.8957 411.091 56.0561 406.45 56.0561C402.669 56.0561 399.331 55.2608 396.436 53.6701C393.542 52.0533 391.299 49.7977 389.708 46.9032C388.118 43.9826 387.322 40.6188 387.322 36.8116C387.322 32.9783 388.118 29.6014 389.708 26.6808C391.299 23.7602 393.542 21.5176 396.436 19.953C399.331 18.3885 402.59 17.6062 406.215 17.6062C409.787 17.6062 412.956 18.3493 415.72 19.8357C418.51 21.3221 420.661 23.3952 422.174 26.055C423.712 28.6887 424.482 31.6875 424.482 35.0514C424.482 36.9289 424.325 38.5587 424.012 39.9408H398.353C398.457 42.079 399.239 43.7871 400.7 45.0648C402.186 46.3426 404.103 46.9814 406.45 46.9814C408.223 46.9814 409.748 46.6555 411.026 46.0036C412.304 45.3256 413.177 44.452 413.647 43.3829H424.56ZM413.021 32.6654C412.969 30.84 412.265 29.3928 410.909 28.3236C409.579 27.2545 407.884 26.7199 405.824 26.7199C403.738 26.7199 402.017 27.2545 400.661 28.3236C399.331 29.3928 398.614 30.84 398.509 32.6654H413.021ZM450.024 0.0435656H461.211V22.3782C462.28 20.8918 463.753 19.7314 465.63 18.8969C467.508 18.0364 469.568 17.6062 471.811 17.6062C476.139 17.6062 479.464 18.9491 481.785 21.635C484.106 24.3209 485.266 27.9716 485.266 32.5872V55H474.118V35.2079C474.118 32.2091 473.453 30.2272 472.124 29.2624C470.794 28.2715 469.425 27.776 468.016 27.776C466.426 27.776 464.874 28.2324 463.362 29.1451C461.875 30.0317 461.132 31.9483 461.132 34.8949V55H450.024V0.0435656ZM528.997 43.3829C528.24 47.164 526.193 50.228 522.856 52.5749C519.518 54.8957 515.528 56.0561 510.886 56.0561C507.105 56.0561 503.768 55.2608 500.873 53.6701C497.978 52.0533 495.736 49.7977 494.145 46.9032C492.555 43.9826 491.759 40.6188 491.759 36.8116C491.759 32.9783 492.555 29.6014 494.145 26.6808C495.736 23.7602 497.978 21.5176 500.873 19.953C503.768 18.3885 507.027 17.6062 510.652 17.6062C514.224 17.6062 517.393 18.3493 520.157 19.8357C522.947 21.3221 525.098 23.3952 526.611 26.055C528.149 28.6887 528.918 31.6875 528.918 35.0514C528.918 36.9289 528.762 38.5587 528.449 39.9408H502.79C502.894 42.079 503.676 43.7871 505.137 45.0648C506.623 46.3426 508.54 46.9814 510.886 46.9814C512.66 46.9814 514.185 46.6555 515.463 46.0036C516.741 45.3256 517.614 44.452 518.084 43.3829H528.997ZM517.458 32.6654C517.406 30.84 516.701 29.3928 515.346 28.3236C514.016 27.2545 512.321 26.7199 510.261 26.7199C508.174 26.7199 506.453 27.2545 505.097 28.3236C503.768 29.3928 503.05 30.84 502.946 32.6654H517.458ZM535.372 0.0435656H546.559V55H535.372V0.0435656ZM577.421 17.6062C580.889 17.6062 583.966 18.4015 586.652 19.9922C589.364 21.5828 591.476 23.8385 592.989 26.759C594.527 29.6796 595.296 33.0305 595.296 36.8116C595.296 40.5927 594.527 43.9435 592.989 46.8641C591.476 49.7847 589.364 52.0533 586.652 53.6701C583.966 55.2608 580.889 56.0561 577.421 56.0561C575.074 56.0561 572.962 55.7171 571.084 55.0391C569.207 54.3611 567.655 53.4093 566.43 52.1837V72.0541H555.243V18.8578H564.513L565.178 23.0431C566.403 21.3221 568.098 19.9922 570.263 19.0534C572.427 18.0886 574.813 17.6062 577.421 17.6062ZM575.27 46.0427C577.825 46.0427 579.885 45.2082 581.45 43.5393C583.04 41.8444 583.836 39.6278 583.836 36.8898C583.836 34.1778 583.053 31.9874 581.489 30.3185C579.95 28.6235 577.877 27.776 575.27 27.776C572.662 27.776 570.55 28.6105 568.933 30.2794C567.316 31.9222 566.508 34.1257 566.508 36.8898C566.508 39.6539 567.303 41.8704 568.894 43.5393C570.511 45.2082 572.636 46.0427 575.27 46.0427ZM659.21 18.8578L642.469 60.8672C641.556 63.0577 640.552 64.9613 639.457 66.578C638.388 68.1948 636.784 69.6159 634.646 70.8415C632.508 72.0932 629.809 72.719 626.549 72.719C624.359 72.719 621.894 72.4192 619.156 71.8194L619.313 62.7056C621.295 63.0707 623.042 63.2532 624.554 63.2532C626.38 63.2532 627.814 62.9925 628.857 62.4709C629.926 61.9755 630.708 61.3497 631.204 60.5934C631.725 59.8633 632.195 58.9115 632.612 57.738L633.277 56.1343L617.827 18.8578H629.913L638.401 42.5223L647.358 18.8578H659.21ZM660.892 36.8898C660.892 33.1608 661.727 29.8361 663.395 26.9155C665.09 23.9688 667.45 21.6871 670.475 20.0704C673.526 18.4276 677.033 17.6062 680.997 17.6062C684.961 17.6062 688.442 18.4276 691.441 20.0704C694.466 21.6871 696.813 23.9688 698.481 26.9155C700.176 29.8361 701.024 33.1608 701.024 36.8898C701.024 40.5666 700.176 43.8653 698.481 46.7859C696.813 49.7065 694.453 51.9882 691.402 53.631C688.351 55.2477 684.883 56.0561 680.997 56.0561C677.033 56.0561 673.526 55.2477 670.475 53.631C667.45 51.9882 665.09 49.7065 663.395 46.7859C661.727 43.8653 660.892 40.5666 660.892 36.8898ZM672.314 36.8116C672.314 39.5496 673.109 41.7922 674.7 43.5393C676.316 45.2604 678.416 46.1209 680.997 46.1209C683.553 46.1209 685.626 45.2604 687.216 43.5393C688.833 41.7922 689.642 39.5496 689.642 36.8116C689.642 34.0996 688.846 31.8961 687.256 30.2012C685.691 28.4801 683.605 27.6196 680.997 27.6196C678.389 27.6196 676.29 28.4801 674.7 30.2012C673.109 31.8961 672.314 34.0996 672.314 36.8116ZM741.977 18.8578V55H732.707L731.964 50.9321C730.686 52.6531 729.095 53.9439 727.192 54.8044C725.314 55.6389 723.215 56.0561 720.894 56.0561C716.566 56.0561 713.228 54.7783 710.881 52.2228C708.534 49.6413 707.361 46.134 707.361 41.7009V18.8578H718.587V40.019C718.587 42.2616 719.108 43.8783 720.151 44.8692C721.194 45.8602 722.707 46.3556 724.688 46.3556C726.618 46.3556 728.105 45.7558 729.148 44.5563C730.217 43.3568 730.751 41.74 730.751 39.7061V18.8578H741.977ZM766.268 2.62515C769.475 2.62515 772.343 3.1858 774.873 4.30709C777.428 5.42838 779.423 7.00602 780.857 9.03999C782.292 11.0479 783.009 13.3948 783.009 16.0807C783.009 18.8448 782.331 21.1786 780.975 23.0822C779.619 24.9858 777.65 27.0589 775.068 29.3015C773.243 30.8922 771.887 32.2221 771.001 33.2912C770.14 34.3604 769.631 35.5077 769.475 36.7333V37.4374H759.07V36.7333C759.07 34.1257 759.735 31.8961 761.065 30.0447C762.395 28.1933 764.26 26.2636 766.659 24.2557C768.484 22.665 769.827 21.3351 770.688 20.266C771.548 19.1708 771.978 17.9843 771.978 16.7065C771.978 15.2723 771.418 14.0989 770.296 13.1862C769.175 12.2735 767.754 11.8172 766.033 11.8172C763.947 11.8172 762.291 12.43 761.065 13.6556C759.84 14.8812 759.279 16.4327 759.383 18.3102H748.901C748.796 15.4679 749.435 12.8472 750.817 10.4481C752.199 8.04908 754.22 6.14549 756.88 4.73735C759.566 3.32922 762.695 2.62515 766.268 2.62515ZM764.429 42.0139C766.515 42.0139 768.262 42.6397 769.671 43.8914C771.105 45.143 771.822 46.838 771.822 48.9763C771.822 51.1146 771.118 52.8096 769.71 54.0612C768.328 55.2868 766.567 55.8996 764.429 55.8996C762.291 55.8996 760.531 55.2868 759.149 54.0612C757.767 52.8096 757.076 51.1146 757.076 48.9763C757.076 46.838 757.767 45.143 759.149 43.8914C760.531 42.6397 762.291 42.0139 764.429 42.0139Z" fill="#2D3247" fill-opacity="0.05"/>
</svg>
