<svg width="462" height="58" viewBox="0 0 462 58" fill="none" xmlns="http://www.w3.org/2000/svg">
<path d="M0.515201 4.64214H12.2106V25.0601H32.1592V4.64214H43.9327V56H32.1592V35.2691H12.2106V56H0.515201V4.64214ZM51.0125 37.8898C51.0125 34.1608 51.847 30.8361 53.5159 27.9155C55.2109 24.9688 57.5708 22.6871 60.5957 21.0704C63.6467 19.4276 67.154 18.6062 71.1176 18.6062C75.0812 18.6062 78.5625 19.4276 81.5613 21.0704C84.5862 22.6871 86.9331 24.9688 88.602 27.9155C90.2969 30.8361 91.1444 34.1608 91.1444 37.8898C91.1444 41.5666 90.2969 44.8653 88.602 47.7859C86.9331 50.7065 84.5731 52.9882 81.5222 54.631C78.4712 56.2477 75.003 57.0561 71.1176 57.0561C67.154 57.0561 63.6467 56.2477 60.5957 54.631C57.5708 52.9882 55.2109 50.7065 53.5159 47.7859C51.847 44.8653 51.0125 41.5666 51.0125 37.8898ZM62.4341 37.8116C62.4341 40.5496 63.2294 42.7922 64.8201 44.5393C66.4368 46.2604 68.536 47.1209 71.1176 47.1209C73.6731 47.1209 75.7462 46.2604 77.3369 44.5393C78.9536 42.7922 79.762 40.5496 79.762 37.8116C79.762 35.0996 78.9667 32.8961 77.376 31.2012C75.8114 29.4801 73.7253 28.6196 71.1176 28.6196C68.5099 28.6196 66.4108 29.4801 64.8201 31.2012C63.2294 32.8961 62.4341 35.0996 62.4341 37.8116ZM105.226 19.8578L107.534 28.1111C109.02 33.4568 110.115 37.8116 110.819 41.1755C110.924 40.8104 112.723 34.6693 116.217 22.7523L116.843 20.601H128.695C129.164 22.2438 129.959 25.1775 131.081 29.4019C132.228 33.6263 133.297 37.7985 134.288 41.9186C135.097 38.3983 136.309 33.874 137.926 28.3458L140.39 19.8578H152.242L139.53 56H128.617C126.009 47.2383 124.027 40.0542 122.671 34.4477C122.41 35.6211 121.706 38.307 120.559 42.5054C119.411 46.7037 118.095 51.2019 116.608 56H105.226L93.1393 19.8578H105.226ZM182.517 14.5773C180.431 14.5773 178.657 13.8863 177.197 12.5042C175.763 11.1222 175.046 9.44023 175.046 7.45841C175.046 5.42443 175.75 3.72946 177.158 2.37347C178.592 1.01749 180.379 0.339497 182.517 0.339497C184.655 0.339497 186.428 1.01749 187.836 2.37347C189.245 3.72946 189.949 5.42443 189.949 7.45841C189.949 9.38808 189.232 11.057 187.797 12.4651C186.363 13.8733 184.603 14.5773 182.517 14.5773ZM176.923 19.8578H188.11V56H176.923V19.8578ZM218.072 29.0889H211.266V56H200.079V29.0889H193.43V19.8578H200.079V10.5094H211.266V19.8578H218.072V29.0889ZM251.672 4.64214L256.561 20.7575C257.943 25.2427 259.026 29.102 259.808 32.3355C260.59 35.569 260.981 37.29 260.981 37.4987C261.685 35.3604 263.576 28.8673 266.653 18.0194L270.173 6.01116H283.003L290.044 30.0277L292.195 37.4987C292.195 37.29 292.586 35.569 293.368 32.3355C294.151 29.102 295.233 25.2427 296.615 20.7575L301.583 4.64214H314.06L297.749 56H286.367L283.316 45.9084C282.195 42.2316 280.891 37.8768 279.404 32.844C277.944 27.7851 277.005 24.4212 276.588 22.7523C276.171 24.343 275.245 27.6808 273.811 32.7657C272.403 37.8507 271.112 42.2316 269.939 45.9084L266.809 56H255.427L239.116 4.64214H251.672ZM314.647 37.8898C314.647 34.1608 315.481 30.8361 317.15 27.9155C318.845 24.9688 321.205 22.6871 324.23 21.0704C327.281 19.4276 330.788 18.6062 334.752 18.6062C338.716 18.6062 342.197 19.4276 345.196 21.0704C348.221 22.6871 350.567 24.9688 352.236 27.9155C353.931 30.8361 354.779 34.1608 354.779 37.8898C354.779 41.5666 353.931 44.8653 352.236 47.7859C350.567 50.7065 348.208 52.9882 345.157 54.631C342.106 56.2477 338.637 57.0561 334.752 57.0561C330.788 57.0561 327.281 56.2477 324.23 54.631C321.205 52.9882 318.845 50.7065 317.15 47.7859C315.481 44.8653 314.647 41.5666 314.647 37.8898ZM326.069 37.8116C326.069 40.5496 326.864 42.7922 328.455 44.5393C330.071 46.2604 332.17 47.1209 334.752 47.1209C337.308 47.1209 339.381 46.2604 340.971 44.5393C342.588 42.7922 343.396 40.5496 343.396 37.8116C343.396 35.0996 342.601 32.8961 341.01 31.2012C339.446 29.4801 337.36 28.6196 334.752 28.6196C332.144 28.6196 330.045 29.4801 328.455 31.2012C326.864 32.8961 326.069 35.0996 326.069 37.8116ZM381.142 19.5449C382.316 19.5449 383.437 19.6492 384.506 19.8578V29.5583C384.141 29.5062 383.58 29.4801 382.824 29.4801C379.617 29.4801 377.14 30.3276 375.392 32.0226C373.671 33.6915 372.811 36.0514 372.811 39.1024V56H361.624V19.8578H371.872L372.576 24.7472C373.176 23.0261 374.232 21.7353 375.744 20.8748C377.257 19.9882 379.056 19.5449 381.142 19.5449ZM414.664 33.2351L426.75 56H414.116L406.645 41.5666L401.599 46.7689V56H390.413V1.04357H401.599V33.0787L413.725 19.8578H427.572L414.664 33.2351ZM446.19 57.0561C441.601 57.0561 437.846 55.9739 434.925 53.8096C432.031 51.6452 430.427 48.6855 430.114 44.9305H441.145C441.197 46.1561 441.692 47.1079 442.631 47.7859C443.57 48.4639 444.756 48.8029 446.19 48.8029C447.468 48.8029 448.485 48.5682 449.241 48.0988C449.998 47.6033 450.376 46.8732 450.376 45.9084C450.376 45.0478 450.076 44.422 449.476 44.0308C448.902 43.6136 448.107 43.3007 447.09 43.0921L441.301 41.6448C434.417 40.002 430.975 36.3774 430.975 30.7709C430.975 27.1462 432.357 24.2126 435.121 21.97C437.911 19.7274 441.549 18.6062 446.034 18.6062C450.467 18.6062 454.052 19.7014 456.791 21.8918C459.555 24.0822 460.989 26.9637 461.093 30.5362H450.219C450.167 29.4671 449.737 28.6196 448.928 27.9937C448.12 27.3418 447.077 27.0159 445.799 27.0159C444.678 27.0159 443.791 27.2505 443.139 27.7199C442.514 28.1893 442.201 28.8543 442.201 29.7148C442.201 30.5753 442.461 31.1751 442.983 31.5141C443.531 31.827 444.443 32.1399 445.721 32.4528L452.449 34.0565C455.708 34.8128 458.094 36.1427 459.607 38.0463C461.145 39.9238 461.915 42.1664 461.915 44.774C461.915 48.503 460.493 51.4887 457.651 53.7313C454.835 55.9478 451.015 57.0561 446.19 57.0561Z" fill="#2D3247" fill-opacity="0.05"/>
</svg>
