<svg width="130" height="44" viewBox="0 0 130 44" fill="none" xmlns="http://www.w3.org/2000/svg">
<path d="M0.333333 23.4997C0.333333 24.9724 1.52724 26.1663 3 26.1663C4.47276 26.1663 5.66667 24.9724 5.66667 23.4997C5.66667 22.0269 4.47276 20.833 3 20.833C1.52724 20.833 0.333333 22.0269 0.333333 23.4997ZM130 23.4997L128.485 17.9285L124.418 22.0263L130 23.4997ZM4.46667 25.6958C4.66239 25.8906 4.97897 25.8898 5.17378 25.6941C5.36858 25.4984 5.36784 25.1818 5.17211 24.987L4.46667 25.6958ZM8.67777 28.3554C8.47508 28.1678 8.15873 28.1801 7.9712 28.3828C7.78367 28.5855 7.79596 28.9018 7.99865 29.0894L8.67777 28.3554ZM11.7541 32.4116C11.9652 32.5895 12.2807 32.5626 12.4586 32.3514C12.6366 32.1402 12.6096 31.8248 12.3984 31.6469L11.7541 32.4116ZM16.1776 34.6572C15.9565 34.4917 15.6431 34.5367 15.4776 34.7577C15.3121 34.9788 15.3572 35.2922 15.5782 35.4577L16.1776 34.6572ZM19.6299 38.2689C19.8628 38.4172 20.1719 38.3486 20.3202 38.1157C20.4685 37.8828 20.3999 37.5737 20.167 37.4254L19.6299 38.2689ZM24.4335 39.8561C24.1865 39.7327 23.8862 39.8329 23.7628 40.08C23.6394 40.327 23.7396 40.6273 23.9867 40.7507L24.4335 39.8561ZM28.5899 42.6746C28.852 42.7617 29.135 42.6199 29.2221 42.3579C29.3092 42.0958 29.1674 41.8128 28.9054 41.7257L28.5899 42.6746ZM33.5747 42.813C33.3008 42.778 33.0504 42.9717 33.0154 43.2456C32.9804 43.5195 33.1741 43.7699 33.448 43.8049L33.5747 42.813ZM38.4866 43.8424C38.7608 43.8098 38.9566 43.5611 38.924 43.2869C38.8914 43.0127 38.6427 42.8168 38.3685 42.8494L38.4866 43.8424ZM43.0053 41.6757C42.7483 41.7766 42.6217 42.0668 42.7226 42.3238C42.8235 42.5809 43.1137 42.7075 43.3707 42.6066L43.0053 41.6757ZM47.8164 40.2612C48.0463 40.1083 48.1088 39.798 47.9558 39.568C47.8029 39.3381 47.4925 39.2757 47.2626 39.4286L47.8164 40.2612ZM51.0665 36.4314C50.8622 36.6171 50.8471 36.9333 51.0328 37.1377C51.2185 37.3421 51.5347 37.3572 51.7391 37.1714L51.0665 36.4314ZM55.2372 33.6374C55.4224 33.4325 55.4064 33.1163 55.2015 32.9312C54.9967 32.746 54.6805 32.762 54.4953 32.9669L55.2372 33.6374ZM57.6634 29.2237C57.4907 29.4393 57.5255 29.7539 57.741 29.9266C57.9565 30.0992 58.2711 30.0645 58.4438 29.849L57.6634 29.2237ZM61.4726 25.933C61.6387 25.7124 61.5946 25.3989 61.374 25.2328C61.1535 25.0666 60.84 25.1108 60.6738 25.3313L61.4726 25.933ZM63.6216 21.3798C63.4566 21.6012 63.5025 21.9145 63.7239 22.0794C63.9454 22.2444 64.2586 22.1986 64.4236 21.9771L63.6216 21.3798ZM67.3914 18.049C67.5603 17.8305 67.52 17.5165 67.3015 17.3477C67.083 17.1788 66.769 17.2191 66.6001 17.4376L67.3914 18.049ZM69.7054 13.5744C69.5273 13.7855 69.5541 14.101 69.7652 14.279C69.9762 14.4571 70.2917 14.4303 70.4697 14.2192L69.7054 13.5744ZM73.7512 10.5853C73.9442 10.3878 73.9406 10.0713 73.7431 9.87824C73.5457 9.68523 73.2291 9.68884 73.0361 9.88632L73.7512 10.5853ZM76.6991 6.51211C76.4852 6.68675 76.4533 7.00173 76.628 7.21563C76.8026 7.42954 77.1176 7.46137 77.3315 7.28673L76.6991 6.51211ZM81.2978 4.5213C81.5368 4.38306 81.6185 4.07721 81.4803 3.83816C81.342 3.59911 81.0362 3.5174 80.7971 3.65564L81.2978 4.5213ZM85.3747 1.5935C85.1122 1.67918 84.9688 1.96144 85.0545 2.22396C85.1401 2.48647 85.4224 2.62983 85.6849 2.54416L85.3747 1.5935ZM90.3786 1.59398C90.6538 1.57093 90.8582 1.32917 90.8352 1.05399C90.8121 0.778816 90.5703 0.574424 90.2952 0.597472L90.3786 1.59398ZM95.3201 0.73139C95.0464 0.695312 94.7952 0.888003 94.7591 1.16178C94.723 1.43555 94.9157 1.68674 95.1895 1.72282L95.3201 0.73139ZM99.9114 2.7835C100.175 2.86593 100.455 2.7191 100.538 2.45554C100.62 2.19199 100.473 1.91152 100.21 1.82909L99.9114 2.7835ZM104.84 3.62904C104.59 3.51338 104.292 3.62289 104.177 3.87364C104.061 4.12439 104.171 4.42143 104.421 4.53709L104.84 3.62904ZM108.707 6.78244C108.945 6.92168 109.251 6.84125 109.391 6.60278C109.53 6.36432 109.449 6.05812 109.211 5.91888L108.707 6.78244ZM113.39 8.5801C113.163 8.42365 112.851 8.48129 112.695 8.70884C112.539 8.93638 112.596 9.24768 112.824 9.40413L113.39 8.5801ZM116.85 12.3567C117.068 12.5262 117.382 12.4869 117.551 12.2689C117.721 12.0509 117.682 11.7368 117.464 11.5673L116.85 12.3567ZM121.217 14.6286C121.007 14.4495 120.692 14.4746 120.513 14.6848C120.334 14.895 120.359 15.2106 120.569 15.3897L121.217 14.6286ZM124.263 18.6642C124.467 18.8511 124.783 18.8378 124.97 18.6345C125.157 18.4312 125.144 18.1149 124.94 17.928L124.263 18.6642ZM128.514 21.3199C128.316 21.1268 128 21.1303 127.807 21.3277C127.613 21.5251 127.617 21.8417 127.814 22.0348L128.514 21.3199ZM2.64143 23.8481C3.25656 24.4811 3.86493 25.0969 4.46667 25.6958L5.17211 24.987C4.57442 24.3921 3.96995 23.7803 3.35857 23.1512L2.64143 23.8481ZM7.99865 29.0894C9.28152 30.2763 10.5329 31.3826 11.7541 32.4116L12.3984 31.6469C11.1899 30.6285 9.9501 29.5325 8.67777 28.3554L7.99865 29.0894ZM15.5782 35.4577C16.9688 36.4988 18.3186 37.434 19.6299 38.2689L20.167 37.4254C18.8787 36.6052 17.5497 35.6845 16.1776 34.6572L15.5782 35.4577ZM23.9867 40.7507C25.5786 41.5458 27.1113 42.1831 28.5899 42.6746L28.9054 41.7257C27.4759 41.2505 25.9871 40.632 24.4335 39.8561L23.9867 40.7507ZM33.448 43.8049C35.207 44.0297 36.8831 44.0332 38.4866 43.8424L38.3685 42.8494C36.8487 43.0302 35.2548 43.0276 33.5747 42.813L33.448 43.8049ZM43.3707 42.6066C44.9237 41.9969 46.401 41.2027 47.8164 40.2612L47.2626 39.4286C45.8984 40.336 44.4839 41.0953 43.0053 41.6757L43.3707 42.6066ZM51.7391 37.1714C52.9404 36.0797 54.103 34.8924 55.2372 33.6374L54.4953 32.9669C53.3782 34.2029 52.2389 35.366 51.0665 36.4314L51.7391 37.1714ZM58.4438 29.849C59.4649 28.5746 60.4718 27.2617 61.4726 25.933L60.6738 25.3313C59.6762 26.6559 58.6758 27.9601 57.6634 29.2237L58.4438 29.849ZM64.4236 21.9771C65.4074 20.6561 66.3935 19.3405 67.3914 18.049L66.6001 17.4376C65.5966 18.7363 64.6062 20.0577 63.6216 21.3798L64.4236 21.9771ZM70.4697 14.2192C71.54 12.9505 72.6306 11.7318 73.7512 10.5853L73.0361 9.88632C71.8949 11.0539 70.7877 12.2913 69.7054 13.5744L70.4697 14.2192ZM77.3315 7.28673C78.6063 6.24596 79.9246 5.31543 81.2978 4.5213L80.7971 3.65564C79.3712 4.48029 78.009 5.44261 76.6991 6.51211L77.3315 7.28673ZM85.6849 2.54416C87.1771 2.05718 88.7377 1.73142 90.3786 1.59398L90.2952 0.597472C88.5748 0.741563 86.9382 1.08325 85.3747 1.5935L85.6849 2.54416ZM95.1895 1.72282C96.6944 1.92114 98.2661 2.26891 99.9114 2.7835L100.21 1.82909C98.5139 1.29862 96.886 0.937743 95.3201 0.73139L95.1895 1.72282ZM104.421 4.53709C105.801 5.17355 107.229 5.91933 108.707 6.78244L109.211 5.91888C107.707 5.04095 106.252 4.28004 104.84 3.62904L104.421 4.53709ZM112.824 9.40413C114.129 10.3013 115.47 11.284 116.85 12.3567L117.464 11.5673C116.07 10.4834 114.712 9.48909 113.39 8.5801L112.824 9.40413ZM120.569 15.3897C121.773 16.4155 123.004 17.5062 124.263 18.6642L124.94 17.928C123.672 16.762 122.431 15.663 121.217 14.6286L120.569 15.3897Z" fill="black"/>
</svg>
