<svg width="340" height="71" viewBox="0 0 340 71" fill="none" xmlns="http://www.w3.org/2000/svg">
<path d="M55.8509 27.3015C55.8509 32.5168 54.6514 37.1585 52.2524 41.2264C49.8794 45.2944 46.5937 48.4496 42.3954 50.6922C38.2232 52.9348 33.4642 54.0561 28.1185 54.0561C22.8249 54.0561 18.079 52.9348 13.8806 50.6922C9.70839 48.4496 6.44882 45.3074 4.10192 41.2655C1.75503 37.2237 0.581583 32.5951 0.581583 27.3797C0.581583 22.1383 1.75503 17.4967 4.10192 13.4548C6.44882 9.38689 9.70839 6.21858 13.8806 3.94992C18.079 1.68125 22.851 0.546919 28.1967 0.546919C33.4903 0.546919 38.2232 1.66821 42.3954 3.9108C46.5937 6.15339 49.8794 9.30866 52.2524 13.3766C54.6514 17.4185 55.8509 22.0601 55.8509 27.3015ZM43.4124 27.3015C43.4124 24.1984 42.7735 21.4473 41.4958 19.0483C40.218 16.6231 38.4318 14.7456 36.137 13.4157C33.8423 12.0858 31.2216 11.4209 28.2749 11.4209C25.2761 11.4209 22.6163 12.0858 20.2955 13.4157C17.9747 14.7456 16.1624 16.6231 14.8585 19.0483C13.5547 21.4473 12.9028 24.2245 12.9028 27.3797C12.9028 30.4829 13.5417 33.2339 14.8194 35.633C16.0972 38.032 17.8964 39.8835 20.2173 41.1873C22.5381 42.4911 25.1979 43.143 28.1967 43.143C31.1434 43.143 33.7771 42.4781 36.0979 41.1482C38.4187 39.8183 40.218 37.9538 41.4958 35.5548C42.7735 33.1296 43.4124 30.3785 43.4124 27.3015ZM96.9216 16.8578V53H87.6514L86.9082 48.9321C85.6304 50.6531 84.0397 51.9439 82.1362 52.8044C80.2586 53.6389 78.1595 54.0561 75.8387 54.0561C71.5099 54.0561 68.1721 52.7783 65.8252 50.2228C63.4783 47.6413 62.3049 44.134 62.3049 39.7009V16.8578H73.5309V38.019C73.5309 40.2616 74.0524 41.8783 75.0955 42.8692C76.1385 43.8602 77.651 44.3556 79.6328 44.3556C81.5625 44.3556 83.0488 43.7558 84.0919 42.5563C85.161 41.3568 85.6956 39.74 85.6956 37.7061V16.8578H96.9216ZM124.732 16.5449C125.906 16.5449 127.027 16.6492 128.096 16.8578V26.5583C127.731 26.5062 127.17 26.4801 126.414 26.4801C123.207 26.4801 120.73 27.3276 118.982 29.0226C117.261 30.6915 116.401 33.0514 116.401 36.1024V53H105.214V16.8578H115.462L116.166 21.7472C116.766 20.0261 117.822 18.7353 119.334 17.8748C120.847 16.9882 122.646 16.5449 124.732 16.5449ZM152.426 16.8578C152.426 13.5461 153.221 10.6646 154.812 8.21344C156.428 5.76224 158.671 3.87169 161.539 2.54178C164.434 1.21187 167.811 0.546919 171.67 0.546919C175.399 0.546919 178.724 1.19883 181.644 2.50266C184.565 3.80649 186.834 5.65793 188.45 8.05698C190.067 10.456 190.902 13.2071 190.954 16.3102H178.867C178.815 14.537 178.059 13.1028 176.599 12.0076C175.138 10.9124 173.287 10.3648 171.044 10.3648C169.063 10.3648 167.472 10.8211 166.272 11.7338C165.073 12.6465 164.473 13.8721 164.473 15.4106C164.473 16.8448 164.982 17.927 165.999 18.6571C167.042 19.3873 168.58 20.0001 170.614 20.4955L178.711 22.3339C183.248 23.4031 186.651 25.2415 188.92 27.8491C191.188 30.4568 192.323 33.6381 192.323 37.3932C192.323 40.757 191.475 43.6907 189.78 46.194C188.111 48.6974 185.738 50.6401 182.661 52.0221C179.61 53.3781 176.051 54.0561 171.983 54.0561C165.907 54.0561 160.979 52.5828 157.198 49.6361C153.443 46.6895 151.383 42.6867 151.017 37.6278H163.026C163.182 39.714 164.069 41.3307 165.686 42.4781C167.328 43.6255 169.48 44.1991 172.14 44.1991C174.591 44.1991 176.507 43.7037 177.889 42.7128C179.298 41.7219 180.002 40.3659 180.002 38.6448C180.002 37.2628 179.545 36.1936 178.633 35.4374C177.72 34.6551 176.442 34.0684 174.799 33.6772L166.311 31.6824C161.513 30.5611 157.993 28.7227 155.75 26.1672C153.534 23.6117 152.426 20.5086 152.426 16.8578ZM221.307 26.0889H214.501V53H203.314V26.0889H196.665V16.8578H203.314V7.50937H214.501V16.8578H221.307V26.0889ZM224.475 34.8898C224.475 31.1608 225.31 27.8361 226.979 24.9155C228.674 21.9688 231.034 19.6871 234.058 18.0704C237.109 16.4276 240.617 15.6062 244.58 15.6062C248.544 15.6062 252.025 16.4276 255.024 18.0704C258.049 19.6871 260.396 21.9688 262.065 24.9155C263.76 27.8361 264.607 31.1608 264.607 34.8898C264.607 38.5666 263.76 41.8653 262.065 44.7859C260.396 47.7065 258.036 49.9882 254.985 51.631C251.934 53.2477 248.466 54.0561 244.58 54.0561C240.617 54.0561 237.109 53.2477 234.058 51.631C231.034 49.9882 228.674 47.7065 226.979 44.7859C225.31 41.8653 224.475 38.5666 224.475 34.8898ZM235.897 34.8116C235.897 37.5496 236.692 39.7922 238.283 41.5393C239.9 43.2604 241.999 44.1209 244.58 44.1209C247.136 44.1209 249.209 43.2604 250.8 41.5393C252.416 39.7922 253.225 37.5496 253.225 34.8116C253.225 32.0996 252.429 29.8961 250.839 28.2012C249.274 26.4801 247.188 25.6196 244.58 25.6196C241.973 25.6196 239.874 26.4801 238.283 28.2012C236.692 29.8961 235.897 32.0996 235.897 34.8116ZM290.971 16.5449C292.144 16.5449 293.265 16.6492 294.334 16.8578V26.5583C293.969 26.5062 293.409 26.4801 292.653 26.4801C289.445 26.4801 286.968 27.3276 285.221 29.0226C283.5 30.6915 282.639 33.0514 282.639 36.1024V53H271.452V16.8578H281.7L282.404 21.7472C283.004 20.0261 284.06 18.7353 285.573 17.8748C287.085 16.9882 288.884 16.5449 290.971 16.5449ZM339.903 16.8578L323.162 58.8672C322.249 61.0577 321.246 62.9613 320.15 64.578C319.081 66.1948 317.477 67.6159 315.339 68.8415C313.201 70.0932 310.502 70.719 307.242 70.719C305.052 70.719 302.588 70.4192 299.85 69.8194L300.006 60.7056C301.988 61.0707 303.735 61.2532 305.248 61.2532C307.073 61.2532 308.507 60.9925 309.55 60.4709C310.619 59.9755 311.402 59.3497 311.897 58.5934C312.419 57.8633 312.888 56.9115 313.305 55.738L313.97 54.1343L298.52 16.8578H310.606L319.094 40.5223L328.052 16.8578H339.903Z" fill="#2D3247" fill-opacity="0.05"/>
</svg>
