<svg width="103" height="172" viewBox="0 0 103 172" fill="none" xmlns="http://www.w3.org/2000/svg">
<path d="M68.629 0.233765C51.7744 0.565872 47.54 0.89798 46.2946 1.89432C44.3019 3.55487 18.0653 38.5094 16.4047 41.8305C14.7442 44.9855 15.3254 47.8915 17.8992 49.6351C18.8955 50.2993 22.5487 51.3786 25.9529 52.1259C35.7501 54.1185 35.9162 54.1185 35.9162 55.613C35.9162 57.8548 32.1799 62.1722 17.5671 77.0341C9.92859 84.7557 3.28639 92.0621 2.87126 93.2244C1.12768 98.3721 4.03364 100.282 16.1556 101.859C22.4657 102.69 24.7905 103.271 25.6208 104.433C27.1153 106.509 27.1153 112.155 25.4547 118.299C23.7942 124.692 14.329 144.535 7.43776 156.076C-0.117729 168.696 -0.698921 170.025 0.463463 171.187C2.37309 173.097 4.53181 171.851 13.6648 163.549C30.4364 148.189 32.0139 146.86 47.9551 133.576C71.701 113.815 74.939 110.577 74.939 106.426C74.939 102.939 72.1991 101.61 62.4019 100.448C57.7524 99.8666 53.7671 99.0364 53.601 98.5382C53.4349 98.1231 60.0771 91.1488 68.4629 83.1781C83.7399 68.5653 98.0207 53.3713 100.844 48.8048C102.836 45.4837 102.836 41.2493 100.761 40.0869C99.8473 39.6718 94.4505 39.2566 88.6386 39.2566C74.0257 39.2566 73.9427 39.8378 89.4688 22.236C99.017 11.3594 101.923 6.87595 101.176 3.96999C100.179 -0.0983582 97.7716 -0.347427 68.629 0.233765ZM94.8656 6.29475C94.8656 6.95897 92.3748 10.3631 89.3028 13.8503C86.1477 17.3374 81.1661 23.1493 78.0111 26.6365C72.1991 33.2787 70.3725 37.181 71.6179 40.419C72.8634 43.6571 76.5166 44.5704 87.061 43.9892C92.7069 43.7401 96.6922 43.8231 97.0243 44.3213C97.2734 44.8195 96.9413 45.9819 96.1941 47.0612C93.9523 50.4653 76.5996 68.1502 63.7303 80.1891C50.3629 92.6432 47.0418 96.8776 47.8721 100.365C48.6194 103.271 52.1895 104.599 61.5716 105.429C66.8854 105.845 69.5423 106.426 69.7913 107.173C70.2895 108.668 65.1418 113.317 47.623 127.598C39.6524 133.991 28.2776 143.539 22.4657 148.687C16.6538 153.834 11.8382 157.82 11.8382 157.571C11.8382 157.239 15.3254 150.347 19.6428 142.128C23.9602 133.991 28.2776 125.19 29.274 122.533C32.8441 112.902 32.1799 103.105 27.6134 99.7006C26.285 98.7873 22.9639 97.874 18.4804 97.3758C9.26437 96.2965 7.68685 95.8813 7.68685 94.7189C7.68685 94.2208 13.2497 88.1598 20.0579 81.2685C35.0029 66.0745 39.8185 60.1795 40.5657 56.1942C41.396 51.8768 39.4033 50.3823 30.5194 48.2236C26.368 47.2273 22.5487 46.0649 21.9676 45.4837C21.1373 44.7364 22.2997 42.6608 27.5304 35.2713C31.1836 30.2066 37.1616 21.5718 40.8148 16.092C44.468 10.6952 47.8721 6.04567 48.3703 5.87962C48.8684 5.7966 59.4959 5.54752 72.0331 5.38145C91.1294 5.21541 94.8656 5.29843 94.8656 6.29475Z" fill="#262B3E" fill-opacity="0.2"/>
</svg>
