<svg width="607" height="74" viewBox="0 0 607 74" fill="none" xmlns="http://www.w3.org/2000/svg">
<path d="M13.4555 4.64214L18.3449 20.7575C19.7269 25.2427 20.8091 29.102 21.5914 32.3355C22.3737 35.569 22.7649 37.29 22.7649 37.4987C23.4689 35.3604 25.3595 28.8673 28.4365 18.0194L31.9569 6.01116H44.7866L51.8272 30.0277L53.9786 37.4987C53.9786 37.29 54.3697 35.569 55.152 32.3355C55.9343 29.102 57.0165 25.2427 58.3985 20.7575L63.3661 4.64214H75.8438L59.5329 56H48.1504L45.0995 45.9084C43.9782 42.2316 42.6744 37.8768 41.188 32.844C39.7277 27.7851 38.7889 24.4212 38.3717 22.7523C37.9545 24.343 37.0288 27.6808 35.5946 32.7657C34.1864 37.8507 32.8956 42.2316 31.7222 45.9084L28.593 56H17.2106L0.899643 4.64214H13.4555ZM81.007 1.04357H92.1938V23.3782C93.263 21.8918 94.7363 20.7314 96.6138 19.8969C98.4913 19.0364 100.551 18.6062 102.794 18.6062C107.123 18.6062 110.447 19.9491 112.768 22.635C115.089 25.3209 116.249 28.9716 116.249 33.5872V56H105.102V36.2079C105.102 33.2091 104.437 31.2272 103.107 30.2624C101.777 29.2715 100.408 28.776 98.9998 28.776C97.4091 28.776 95.8576 29.2324 94.3451 30.1451C92.8588 31.0317 92.1156 32.9483 92.1156 35.8949V56H81.007V1.04357ZM161.505 19.8578L144.764 61.8672C143.852 64.0577 142.848 65.9613 141.752 67.578C140.683 69.1948 139.08 70.6159 136.941 71.8415C134.803 73.0932 132.104 73.719 128.844 73.719C126.654 73.719 124.19 73.4192 121.452 72.8194L121.608 63.7056C123.59 64.0707 125.337 64.2532 126.85 64.2532C128.675 64.2532 130.109 63.9925 131.152 63.4709C132.221 62.9755 133.004 62.3497 133.499 61.5934C134.021 60.8633 134.49 59.9115 134.907 58.738L135.572 57.1343L120.122 19.8578H132.208L140.696 43.5223L149.654 19.8578H161.505ZM208.717 4.64214C214.324 4.64214 218.731 6.19369 221.938 9.29681C225.145 12.3999 226.749 16.5983 226.749 21.8918C226.749 25.2557 226.032 28.2284 224.598 30.81C223.164 33.3916 221.064 35.4125 218.3 36.8728C215.562 38.307 212.29 39.0241 208.482 39.0241H198.625V56H186.93V4.64214H208.717ZM206.331 29.0107C209.095 29.0107 211.129 28.2936 212.433 26.8594C213.763 25.3991 214.428 23.652 214.428 21.618C214.428 19.8448 213.763 18.2672 212.433 16.8851C211.129 15.503 209.121 14.812 206.409 14.812H198.625V29.0107H206.331ZM270.206 19.8578V56H259.449V51.8538C258.224 53.4445 256.516 54.7092 254.325 55.648C252.135 56.5867 249.762 57.0561 247.206 57.0561C243.842 57.0561 240.857 56.2738 238.249 54.7092C235.667 53.1185 233.672 50.9151 232.264 48.0988C230.856 45.2564 230.152 41.9578 230.152 38.2027C230.152 34.2912 230.908 30.8622 232.421 27.9155C233.933 24.9688 236.058 22.6871 238.796 21.0704C241.561 19.4276 244.703 18.6062 248.223 18.6062C253.412 18.6062 257.363 20.1968 260.075 23.3782L260.818 19.8578H270.206ZM250.179 46.9645C252.787 46.9645 254.899 46.13 256.516 44.4611C258.158 42.7661 258.98 40.5235 258.98 37.7333C258.98 35.0214 258.158 32.844 256.516 31.2012C254.899 29.5323 252.787 28.6978 250.179 28.6978C247.571 28.6978 245.485 29.5453 243.921 31.2403C242.356 32.9092 241.574 35.0996 241.574 37.8116C241.574 40.5235 242.356 42.727 243.921 44.422C245.511 46.117 247.597 46.9645 250.179 46.9645ZM316.713 19.8578L299.972 61.8672C299.059 64.0577 298.056 65.9613 296.96 67.578C295.891 69.1948 294.287 70.6159 292.149 71.8415C290.011 73.0932 287.312 73.719 284.052 73.719C281.862 73.719 279.398 73.4192 276.66 72.8194L276.816 63.7056C278.798 64.0707 280.545 64.2532 282.058 64.2532C283.883 64.2532 285.317 63.9925 286.36 63.4709C287.429 62.9755 288.212 62.3497 288.707 61.5934C289.229 60.8633 289.698 59.9115 290.115 58.738L290.78 57.1343L275.33 19.8578H287.416L295.904 43.5223L304.862 19.8578H316.713ZM344.407 29.0889H337.601V56H326.414V29.0889H319.764V19.8578H326.414V10.5094H337.601V19.8578H344.407V29.0889ZM384.812 44.3829C384.056 48.164 382.009 51.228 378.671 53.5749C375.334 55.8957 371.344 57.0561 366.702 57.0561C362.921 57.0561 359.583 56.2608 356.689 54.6701C353.794 53.0533 351.552 50.7977 349.961 47.9032C348.37 44.9826 347.575 41.6188 347.575 37.8116C347.575 33.9783 348.37 30.6014 349.961 27.6808C351.552 24.7602 353.794 22.5176 356.689 20.953C359.583 19.3885 362.843 18.6062 366.467 18.6062C370.04 18.6062 373.208 19.3493 375.972 20.8357C378.763 22.3221 380.914 24.3952 382.426 27.055C383.965 29.6887 384.734 32.6875 384.734 36.0514C384.734 37.9289 384.578 39.5587 384.265 40.9408H358.605C358.71 43.079 359.492 44.7871 360.952 46.0648C362.439 47.3426 364.355 47.9814 366.702 47.9814C368.475 47.9814 370.001 47.6555 371.279 47.0036C372.556 46.3256 373.43 45.452 373.899 44.3829H384.812ZM373.273 33.6654C373.221 31.84 372.517 30.3928 371.161 29.3236C369.831 28.2545 368.136 27.7199 366.076 27.7199C363.99 27.7199 362.269 28.2545 360.913 29.3236C359.583 30.3928 358.866 31.84 358.762 33.6654H373.273ZM410.706 19.5449C411.88 19.5449 413.001 19.6492 414.07 19.8578V29.5583C413.705 29.5062 413.145 29.4801 412.388 29.4801C409.181 29.4801 406.704 30.3276 404.957 32.0226C403.236 33.6915 402.375 36.0514 402.375 39.1024V56H391.188V19.8578H401.436L402.14 24.7472C402.74 23.0261 403.796 21.7353 405.309 20.8748C406.821 19.9882 408.62 19.5449 410.706 19.5449ZM464.255 18.6062C468.166 18.6062 471.348 19.8578 473.799 22.3612C476.25 24.8645 477.476 28.1763 477.476 32.2964V56H466.328V34.9953C466.328 32.857 465.793 31.2012 464.724 30.0277C463.655 28.8543 462.299 28.2675 460.656 28.2675C458.622 28.2675 457.045 28.9455 455.923 30.3015C454.802 31.6314 454.241 33.3916 454.241 35.582V56H443.289V34.9953C443.289 32.9092 442.755 31.2794 441.685 30.1059C440.616 28.9325 439.169 28.3458 437.344 28.3458C435.414 28.3458 433.902 29.0238 432.806 30.3797C431.711 31.7096 431.164 33.4437 431.164 35.582V56H419.977V19.8578H430.303L430.772 23.2217C431.894 21.7875 433.354 20.6662 435.153 19.8578C436.979 19.0234 438.908 18.6062 440.942 18.6062C443.498 18.6062 445.806 19.1798 447.866 20.3272C449.926 21.4746 451.464 23.0261 452.481 24.9819C453.602 22.9479 455.18 21.3833 457.214 20.2881C459.248 19.1668 461.595 18.6062 464.255 18.6062ZM491.361 14.5773C489.275 14.5773 487.502 13.8863 486.042 12.5042C484.608 11.1222 483.89 9.44023 483.89 7.45841C483.89 5.42443 484.594 3.72946 486.003 2.37347C487.437 1.01749 489.223 0.339497 491.361 0.339497C493.5 0.339497 495.273 1.01749 496.681 2.37347C498.089 3.72946 498.793 5.42443 498.793 7.45841C498.793 9.38808 498.076 11.057 496.642 12.4651C495.208 13.8733 493.447 14.5773 491.361 14.5773ZM485.768 19.8578H496.955V56H485.768V19.8578ZM526.76 18.6062C531.089 18.6062 534.453 19.9621 536.852 22.6741C539.277 25.3861 540.49 29.0238 540.49 33.5872V56H529.264V36.2079C529.264 31.2533 527.23 28.776 523.162 28.776C521.024 28.776 519.407 29.4019 518.312 30.6535C517.216 31.9052 516.669 33.6524 516.669 35.8949V56H505.56V19.8578H514.83L515.573 23.8084C516.695 22.2178 518.246 20.953 520.228 20.0143C522.236 19.0755 524.413 18.6062 526.76 18.6062ZM587.036 19.8578V56H576.28V51.8538C575.054 53.4445 573.346 54.7092 571.156 55.648C568.965 56.5867 566.592 57.0561 564.037 57.0561C560.673 57.0561 557.687 56.2738 555.08 54.7092C552.498 53.1185 550.503 50.9151 549.095 48.0988C547.687 45.2564 546.983 41.9578 546.983 38.2027C546.983 34.2912 547.739 30.8622 549.251 27.9155C550.764 24.9688 552.889 22.6871 555.627 21.0704C558.391 19.4276 561.534 18.6062 565.054 18.6062C570.243 18.6062 574.194 20.1968 576.906 23.3782L577.649 19.8578H587.036ZM567.01 46.9645C569.617 46.9645 571.729 46.13 573.346 44.4611C574.989 42.7661 575.81 40.5235 575.81 37.7333C575.81 35.0214 574.989 32.844 573.346 31.2012C571.729 29.5323 569.617 28.6978 567.01 28.6978C564.402 28.6978 562.316 29.5453 560.751 31.2403C559.187 32.9092 558.404 35.0996 558.404 37.8116C558.404 40.5235 559.187 42.727 560.751 44.422C562.342 46.117 564.428 46.9645 567.01 46.9645ZM595.603 1.04357H606.789V56H595.603V1.04357Z" fill="#2D3247" fill-opacity="0.05"/>
</svg>
