<svg width="931" height="74" viewBox="0 0 931 74" fill="none" xmlns="http://www.w3.org/2000/svg">
<path d="M13.5971 4.64214L18.7211 13.5603C20.2075 16.168 21.4983 18.5279 22.5935 20.6401C23.6887 22.7523 24.3667 24.0692 24.6275 24.5907C24.8882 23.991 25.5662 22.648 26.6614 20.5619C27.7567 18.4497 29.0605 16.1158 30.5729 13.5603L35.7752 4.64214H48.9178L30.3382 35.9732V56H18.5647V35.9732L0.0241976 4.64214H13.5971ZM44.7716 37.8898C44.7716 34.1608 45.6061 30.8361 47.275 27.9155C48.97 24.9688 51.3299 22.6871 54.3548 21.0704C57.4058 19.4276 60.9131 18.6062 64.8767 18.6062C68.8403 18.6062 72.3216 19.4276 75.3204 21.0704C78.3453 22.6871 80.6922 24.9688 82.3611 27.9155C84.056 30.8361 84.9035 34.1608 84.9035 37.8898C84.9035 41.5666 84.056 44.8653 82.3611 47.7859C80.6922 50.7065 78.3322 52.9882 75.2813 54.631C72.2303 56.2477 68.7621 57.0561 64.8767 57.0561C60.9131 57.0561 57.4058 56.2477 54.3548 54.631C51.3299 52.9882 48.97 50.7065 47.275 47.7859C45.6061 44.8653 44.7716 41.5666 44.7716 37.8898ZM56.1932 37.8116C56.1932 40.5496 56.9885 42.7922 58.5792 44.5393C60.196 46.2604 62.2951 47.1209 64.8767 47.1209C67.4322 47.1209 69.5053 46.2604 71.096 44.5393C72.7127 42.7922 73.5211 40.5496 73.5211 37.8116C73.5211 35.0996 72.7258 32.8961 71.1351 31.2012C69.5705 29.4801 67.4844 28.6196 64.8767 28.6196C62.269 28.6196 60.1699 29.4801 58.5792 31.2012C56.9885 32.8961 56.1932 35.0996 56.1932 37.8116ZM125.857 19.8578V56H116.587L115.843 51.9321C114.566 53.6531 112.975 54.9439 111.071 55.8044C109.194 56.6389 107.095 57.0561 104.774 57.0561C100.445 57.0561 97.1074 55.7783 94.7605 53.2228C92.4136 50.6413 91.2401 47.134 91.2401 42.7009V19.8578H102.466V41.019C102.466 43.2616 102.988 44.8783 104.031 45.8692C105.074 46.8602 106.586 47.3556 108.568 47.3556C110.498 47.3556 111.984 46.7558 113.027 45.5563C114.096 44.3568 114.631 42.74 114.631 40.7061V19.8578H125.857ZM153.668 19.5449C154.841 19.5449 155.962 19.6492 157.031 19.8578V29.5583C156.666 29.5062 156.106 29.4801 155.349 29.4801C152.142 29.4801 149.665 30.3276 147.918 32.0226C146.197 33.6915 145.336 36.0514 145.336 39.1024V56H134.149V19.8578H144.397L145.101 24.7472C145.701 23.0261 146.757 21.7353 148.27 20.8748C149.782 19.9882 151.581 19.5449 153.668 19.5449ZM225.991 18.6062C229.902 18.6062 233.084 19.8578 235.535 22.3612C237.986 24.8645 239.212 28.1763 239.212 32.2964V56H228.064V34.9953C228.064 32.857 227.529 31.2012 226.46 30.0277C225.391 28.8543 224.035 28.2675 222.392 28.2675C220.358 28.2675 218.781 28.9455 217.66 30.3015C216.538 31.6314 215.978 33.3916 215.978 35.582V56H205.025V34.9953C205.025 32.9092 204.491 31.2794 203.422 30.1059C202.353 28.9325 200.905 28.3458 199.08 28.3458C197.15 28.3458 195.638 29.0238 194.543 30.3797C193.447 31.7096 192.9 33.4437 192.9 35.582V56H181.713V19.8578H192.039L192.509 23.2217C193.63 21.7875 195.09 20.6662 196.889 19.8578C198.715 19.0234 200.645 18.6062 202.678 18.6062C205.234 18.6062 207.542 19.1798 209.602 20.3272C211.662 21.4746 213.2 23.0261 214.217 24.9819C215.339 22.9479 216.916 21.3833 218.95 20.2881C220.984 19.1668 223.331 18.6062 225.991 18.6062ZM245.744 37.8898C245.744 34.1608 246.578 30.8361 248.247 27.9155C249.942 24.9688 252.302 22.6871 255.327 21.0704C258.378 19.4276 261.885 18.6062 265.849 18.6062C269.813 18.6062 273.294 19.4276 276.293 21.0704C279.318 22.6871 281.665 24.9688 283.333 27.9155C285.028 30.8361 285.876 34.1608 285.876 37.8898C285.876 41.5666 285.028 44.8653 283.333 47.7859C281.665 50.7065 279.305 52.9882 276.254 54.631C273.203 56.2477 269.734 57.0561 265.849 57.0561C261.885 57.0561 258.378 56.2477 255.327 54.631C252.302 52.9882 249.942 50.7065 248.247 47.7859C246.578 44.8653 245.744 41.5666 245.744 37.8898ZM257.166 37.8116C257.166 40.5496 257.961 42.7922 259.552 44.5393C261.168 46.2604 263.267 47.1209 265.849 47.1209C268.405 47.1209 270.478 46.2604 272.068 44.5393C273.685 42.7922 274.493 40.5496 274.493 37.8116C274.493 35.0996 273.698 32.8961 272.107 31.2012C270.543 29.4801 268.457 28.6196 265.849 28.6196C263.241 28.6196 261.142 29.4801 259.552 31.2012C257.961 32.8961 257.166 35.0996 257.166 37.8116ZM313.921 18.6062C318.25 18.6062 321.614 19.9621 324.013 22.6741C326.438 25.3861 327.651 29.0238 327.651 33.5872V56H316.425V36.2079C316.425 31.2533 314.391 28.776 310.323 28.776C308.184 28.776 306.568 29.4019 305.472 30.6535C304.377 31.9052 303.83 33.6524 303.83 35.8949V56H292.721V19.8578H301.991L302.734 23.8084C303.856 22.2178 305.407 20.953 307.389 20.0143C309.397 19.0755 311.574 18.6062 313.921 18.6062ZM371.381 44.3829C370.625 48.164 368.578 51.228 365.24 53.5749C361.902 55.8957 357.913 57.0561 353.271 57.0561C349.49 57.0561 346.152 56.2608 343.257 54.6701C340.363 53.0533 338.12 50.7977 336.53 47.9032C334.939 44.9826 334.144 41.6188 334.144 37.8116C334.144 33.9783 334.939 30.6014 336.53 27.6808C338.12 24.7602 340.363 22.5176 343.257 20.953C346.152 19.3885 349.412 18.6062 353.036 18.6062C356.609 18.6062 359.777 19.3493 362.541 20.8357C365.331 22.3221 367.483 24.3952 368.995 27.055C370.534 29.6887 371.303 32.6875 371.303 36.0514C371.303 37.9289 371.146 39.5587 370.833 40.9408H345.174C345.278 43.079 346.061 44.7871 347.521 46.0648C349.007 47.3426 350.924 47.9814 353.271 47.9814C355.044 47.9814 356.57 47.6555 357.847 47.0036C359.125 46.3256 359.999 45.452 360.468 44.3829H371.381ZM359.842 33.6654C359.79 31.84 359.086 30.3928 357.73 29.3236C356.4 28.2545 354.705 27.7199 352.645 27.7199C350.559 27.7199 348.838 28.2545 347.482 29.3236C346.152 30.3928 345.435 31.84 345.331 33.6654H359.842ZM414.525 19.8578L397.784 61.8672C396.871 64.0577 395.867 65.9613 394.772 67.578C393.703 69.1948 392.099 70.6159 389.961 71.8415C387.822 73.0932 385.123 73.719 381.864 73.719C379.673 73.719 377.209 73.4192 374.471 72.8194L374.628 63.7056C376.609 64.0707 378.357 64.2532 379.869 64.2532C381.694 64.2532 383.129 63.9925 384.172 63.4709C385.241 62.9755 386.023 62.3497 386.519 61.5934C387.04 60.8633 387.509 59.9115 387.927 58.738L388.592 57.1343L373.141 19.8578H385.228L393.716 43.5223L402.673 19.8578H414.525ZM444.369 14.5773C442.283 14.5773 440.51 13.8863 439.05 12.5042C437.616 11.1222 436.899 9.44023 436.899 7.45841C436.899 5.42443 437.603 3.72946 439.011 2.37347C440.445 1.01749 442.231 0.339497 444.369 0.339497C446.508 0.339497 448.281 1.01749 449.689 2.37347C451.097 3.72946 451.801 5.42443 451.801 7.45841C451.801 9.38808 451.084 11.057 449.65 12.4651C448.216 13.8733 446.456 14.5773 444.369 14.5773ZM438.776 19.8578H449.963V56H438.776V19.8578ZM472.493 57.0561C467.904 57.0561 464.149 55.9739 461.228 53.8096C458.333 51.6452 456.73 48.6855 456.417 44.9305H467.447C467.499 46.1561 467.995 47.1079 468.934 47.7859C469.872 48.4639 471.059 48.8029 472.493 48.8029C473.771 48.8029 474.788 48.5682 475.544 48.0988C476.3 47.6033 476.678 46.8732 476.678 45.9084C476.678 45.0478 476.378 44.422 475.779 44.0308C475.205 43.6136 474.41 43.3007 473.393 43.0921L467.604 41.6448C460.719 40.002 457.277 36.3774 457.277 30.7709C457.277 27.1462 458.659 24.2126 461.424 21.97C464.214 19.7274 467.851 18.6062 472.337 18.6062C476.77 18.6062 480.355 19.7014 483.093 21.8918C485.857 24.0822 487.292 26.9637 487.396 30.5362H476.522C476.47 29.4671 476.039 28.6196 475.231 27.9937C474.423 27.3418 473.38 27.0159 472.102 27.0159C470.981 27.0159 470.094 27.2505 469.442 27.7199C468.816 28.1893 468.503 28.8543 468.503 29.7148C468.503 30.5753 468.764 31.1751 469.286 31.5141C469.833 31.827 470.746 32.1399 472.024 32.4528L478.751 34.0565C482.011 34.8128 484.397 36.1427 485.909 38.0463C487.448 39.9238 488.217 42.1664 488.217 44.774C488.217 48.503 486.796 51.4887 483.954 53.7313C481.137 55.9478 477.317 57.0561 472.493 57.0561ZM528.506 57.0561C523.916 57.0561 520.161 55.9739 517.241 53.8096C514.346 51.6452 512.742 48.6855 512.429 44.9305H523.46C523.512 46.1561 524.007 47.1079 524.946 47.7859C525.885 48.4639 527.071 48.8029 528.506 48.8029C529.783 48.8029 530.8 48.5682 531.557 48.0988C532.313 47.6033 532.691 46.8732 532.691 45.9084C532.691 45.0478 532.391 44.422 531.791 44.0308C531.218 43.6136 530.422 43.3007 529.405 43.0921L523.616 41.6448C516.732 40.002 513.29 36.3774 513.29 30.7709C513.29 27.1462 514.672 24.2126 517.436 21.97C520.226 19.7274 523.864 18.6062 528.349 18.6062C532.782 18.6062 536.368 19.7014 539.106 21.8918C541.87 24.0822 543.304 26.9637 543.408 30.5362H532.534C532.482 29.4671 532.052 28.6196 531.244 27.9937C530.435 27.3418 529.392 27.0159 528.114 27.0159C526.993 27.0159 526.107 27.2505 525.455 27.7199C524.829 28.1893 524.516 28.8543 524.516 29.7148C524.516 30.5753 524.777 31.1751 525.298 31.5141C525.846 31.827 526.758 32.1399 528.036 32.4528L534.764 34.0565C538.024 34.8128 540.41 36.1427 541.922 38.0463C543.461 39.9238 544.23 42.1664 544.23 44.774C544.23 48.503 542.809 51.4887 539.966 53.7313C537.15 55.9478 533.33 57.0561 528.506 57.0561ZM589.251 19.8578V56H578.494V51.8538C577.269 53.4445 575.561 54.7092 573.37 55.648C571.18 56.5867 568.807 57.0561 566.251 57.0561C562.888 57.0561 559.902 56.2738 557.294 54.7092C554.713 53.1185 552.718 50.9151 551.31 48.0988C549.901 45.2564 549.197 41.9578 549.197 38.2027C549.197 34.2912 549.954 30.8622 551.466 27.9155C552.978 24.9688 555.104 22.6871 557.842 21.0704C560.606 19.4276 563.748 18.6062 567.268 18.6062C572.458 18.6062 576.408 20.1968 579.12 23.3782L579.863 19.8578H589.251ZM569.224 46.9645C571.832 46.9645 573.944 46.13 575.561 44.4611C577.204 42.7661 578.025 40.5235 578.025 37.7333C578.025 35.0214 577.204 32.844 575.561 31.2012C573.944 29.5323 571.832 28.6978 569.224 28.6978C566.617 28.6978 564.53 29.5453 562.966 31.2403C561.401 32.9092 560.619 35.0996 560.619 37.8116C560.619 40.5235 561.401 42.727 562.966 44.422C564.556 46.117 566.643 46.9645 569.224 46.9645ZM618.235 10.0009C615.549 10.0009 613.854 10.6137 613.15 11.8393C612.472 13.0388 612.133 14.5643 612.133 16.4157V19.8578H620.856V29.0889H612.133V56H601.103V29.0889H594.453V19.8578H601.103V14.6556C601.103 9.8053 602.394 6.24585 604.975 3.97718C607.557 1.70852 611.195 0.574187 615.888 0.574187C617.87 0.574187 619.526 0.730646 620.856 1.04357V10.2747C620.387 10.1182 619.513 10.027 618.235 10.0009ZM661.379 44.3829C660.623 48.164 658.576 51.228 655.238 53.5749C651.9 55.8957 647.91 57.0561 643.269 57.0561C639.488 57.0561 636.15 56.2608 633.255 54.6701C630.361 53.0533 628.118 50.7977 626.528 47.9032C624.937 44.9826 624.142 41.6188 624.142 37.8116C624.142 33.9783 624.937 30.6014 626.528 27.6808C628.118 24.7602 630.361 22.5176 633.255 20.953C636.15 19.3885 639.409 18.6062 643.034 18.6062C646.607 18.6062 649.775 19.3493 652.539 20.8357C655.329 22.3221 657.48 24.3952 658.993 27.055C660.531 29.6887 661.301 32.6875 661.301 36.0514C661.301 37.9289 661.144 39.5587 660.831 40.9408H635.172C635.276 43.079 636.059 44.7871 637.519 46.0648C639.005 47.3426 640.922 47.9814 643.269 47.9814C645.042 47.9814 646.567 47.6555 647.845 47.0036C649.123 46.3256 649.996 45.452 650.466 44.3829H661.379ZM649.84 33.6654C649.788 31.84 649.084 30.3928 647.728 29.3236C646.398 28.2545 644.703 27.7199 642.643 27.7199C640.557 27.7199 638.836 28.2545 637.48 29.3236C636.15 30.3928 635.433 31.84 635.328 33.6654H649.84ZM695.878 19.8578L698.186 28.1111C699.672 33.4568 700.768 37.8116 701.472 41.1755C701.576 40.8104 703.375 34.6693 706.87 22.7523L707.495 20.601H719.347C719.817 22.2438 720.612 25.1775 721.733 29.4019C722.881 33.6263 723.95 37.7985 724.941 41.9186C725.749 38.3983 726.962 33.874 728.578 28.3458L731.043 19.8578H742.894L730.182 56H719.269C716.661 47.2383 714.68 40.0542 713.324 34.4477C713.063 35.6211 712.359 38.307 711.211 42.5054C710.064 46.7037 708.747 51.2019 707.261 56H695.878L683.792 19.8578H695.878ZM754.081 14.5773C751.995 14.5773 750.222 13.8863 748.762 12.5042C747.327 11.1222 746.61 9.44023 746.61 7.45841C746.61 5.42443 747.314 3.72946 748.723 2.37347C750.157 1.01749 751.943 0.339497 754.081 0.339497C756.22 0.339497 757.993 1.01749 759.401 2.37347C760.809 3.72946 761.513 5.42443 761.513 7.45841C761.513 9.38808 760.796 11.057 759.362 12.4651C757.928 13.8733 756.167 14.5773 754.081 14.5773ZM748.488 19.8578H759.675V56H748.488V19.8578ZM789.637 29.0889H782.831V56H771.644V29.0889H764.994V19.8578H771.644V10.5094H782.831V19.8578H789.637V29.0889ZM795.035 1.04357H806.221V23.3782C807.291 21.8918 808.764 20.7314 810.641 19.8969C812.519 19.0364 814.579 18.6062 816.822 18.6062C821.15 18.6062 824.475 19.9491 826.796 22.635C829.117 25.3209 830.277 28.9716 830.277 33.5872V56H819.129V36.2079C819.129 33.2091 818.464 31.2272 817.134 30.2624C815.805 29.2715 814.436 28.776 813.027 28.776C811.437 28.776 809.885 29.2324 808.373 30.1451C806.886 31.0317 806.143 32.9483 806.143 35.8949V56H795.035V1.04357ZM891.805 19.8578V56H882.535L881.791 51.9321C880.514 53.6531 878.923 54.9439 877.019 55.8044C875.142 56.6389 873.043 57.0561 870.722 57.0561C866.393 57.0561 863.055 55.7783 860.708 53.2228C858.362 50.6413 857.188 47.134 857.188 42.7009V19.8578H868.414V41.019C868.414 43.2616 868.936 44.8783 869.979 45.8692C871.022 46.8602 872.534 47.3556 874.516 47.3556C876.446 47.3556 877.932 46.7558 878.975 45.5563C880.044 44.3568 880.579 42.74 880.579 40.7061V19.8578H891.805ZM914.413 57.0561C909.824 57.0561 906.069 55.9739 903.148 53.8096C900.254 51.6452 898.65 48.6855 898.337 44.9305H909.367C909.42 46.1561 909.915 47.1079 910.854 47.7859C911.793 48.4639 912.979 48.8029 914.413 48.8029C915.691 48.8029 916.708 48.5682 917.464 48.0988C918.22 47.6033 918.599 46.8732 918.599 45.9084C918.599 45.0478 918.299 44.422 917.699 44.0308C917.125 43.6136 916.33 43.3007 915.313 43.0921L909.524 41.6448C902.64 40.002 899.198 36.3774 899.198 30.7709C899.198 27.1462 900.58 24.2126 903.344 21.97C906.134 19.7274 909.772 18.6062 914.257 18.6062C918.69 18.6062 922.275 19.7014 925.013 21.8918C927.777 24.0822 929.212 26.9637 929.316 30.5362H918.442C918.39 29.4671 917.96 28.6196 917.151 27.9937C916.343 27.3418 915.3 27.0159 914.022 27.0159C912.901 27.0159 912.014 27.2505 911.362 27.7199C910.736 28.1893 910.424 28.8543 910.424 29.7148C910.424 30.5753 910.684 31.1751 911.206 31.5141C911.753 31.827 912.666 32.1399 913.944 32.4528L920.672 34.0565C923.931 34.8128 926.317 36.1427 927.83 38.0463C929.368 39.9238 930.137 42.1664 930.137 44.774C930.137 48.503 928.716 51.4887 925.874 53.7313C923.058 55.9478 919.237 57.0561 914.413 57.0561Z" fill="#2D3247" fill-opacity="0.05"/>
</svg>
